<svg width="156" height="45" viewBox="0 0 156 45" fill="none" xmlns="http://www.w3.org/2000/svg">
<path d="M155.195 15.818C155.195 24.1175 147.927 30.8329 138.938 30.8329H17.0625C8.0952 30.8329 0.805059 24.1175 0.805059 15.818C0.805059 7.51858 8.07284 0.803162 17.0625 0.803162H138.938C147.905 0.803162 155.195 7.54089 155.195 15.818Z" fill="white"/>
<path d="M138.938 31.6584H17.0625C7.64794 31.6584 0 24.5637 0 15.818C0 7.07239 7.64794 0 17.0625 0H138.938C148.352 0 156 7.0947 156 15.818C156 24.5414 148.352 31.6584 138.938 31.6584ZM17.0625 1.60635C8.54243 1.60635 1.61009 7.98711 1.61009 15.818C1.61009 23.649 8.54243 30.0297 17.0625 30.0297H138.938C147.458 30.0297 154.39 23.649 154.39 15.818C154.39 7.98711 147.458 1.60635 138.938 1.60635H17.0625Z" fill="#666666"/>
<path d="M31.5981 39.334L30.4799 44.7777H29.6525L28.8028 41.275C28.7357 40.9849 28.691 40.7395 28.6462 40.561C28.6239 40.7395 28.5568 40.9849 28.4897 41.275L27.5952 44.7777H26.7902L25.672 39.334H26.4994L27.1479 42.7697C27.215 43.1267 27.2598 43.3498 27.2598 43.4837C27.3045 43.216 27.3492 42.9929 27.4163 42.7697L28.2884 39.334H28.9817L29.8762 42.859C29.9209 43.0598 29.9656 43.2606 30.0103 43.4837C30.0327 43.3944 30.0327 43.3275 30.0551 43.2606C30.0551 43.1936 30.0774 43.1267 30.0998 43.0375C30.1221 42.9482 30.1221 42.8813 30.1221 42.859L30.793 39.3563H31.5981V39.334Z" fill="#666666"/>
<path d="M33.5436 44.7546H32.7162V39.3109H33.5436V44.7546Z" fill="#666666"/>
<path d="M39.1342 40.9395C39.1342 41.3634 39.0224 41.7204 38.8211 41.9881C38.6198 42.2558 38.3068 42.4343 37.9266 42.5459L39.0447 44.7769H38.1055L37.0321 42.6351H35.8022V44.7769H34.9971V39.3332H37.3899C37.6359 39.3332 37.8595 39.3555 38.0832 39.4224C38.2844 39.4894 38.4857 39.5786 38.6422 39.7125C38.7987 39.8463 38.9329 40.0248 39.0224 40.2256C39.0895 40.4264 39.1342 40.6718 39.1342 40.9395ZM38.3068 40.9842C38.3068 40.6941 38.2173 40.4933 38.0608 40.3372C37.9042 40.181 37.6583 40.1141 37.3899 40.1141H35.8022V41.8543H37.3899C37.6806 41.8543 37.9042 41.7873 38.0608 41.6312C38.2173 41.475 38.3068 41.2519 38.3068 40.9842Z" fill="#666666"/>
<path d="M46.648 44.7546H45.8205V42.3228H43.3159V44.7546H42.4885V39.3109H43.3159V41.5196H45.8205V39.3109H46.648V44.7546Z" fill="#666666"/>
<path d="M51.6795 44.7546H48.0568V39.3109H51.5677V40.1141H48.8842V41.4527H50.4496V42.2558H48.8842V43.9737H51.7019V44.7546H51.6795Z" fill="#666666"/>
<path d="M56.3756 44.7546H52.8423V39.3109H53.6697V43.9514H56.3979L56.3756 44.7546Z" fill="#666666"/>
<path d="M60.9822 40.1364H58.2987V41.5642H59.8641V42.3674H58.2987V44.7769H57.4713V39.3332H60.9822V40.1364Z" fill="#666666"/>
<path d="M65.6336 44.7546H62.0109V39.3109H65.5218V40.1141H62.8383V41.4527H64.4037V42.2558H62.8383V43.9737H65.656V44.7546H65.6336Z" fill="#666666"/>
<path d="M70.9335 44.7546H70.1508L67.9817 41.3411C67.937 41.2742 67.8922 41.2073 67.8475 41.118C67.8028 41.0288 67.758 40.9619 67.7133 40.8949C67.6686 40.828 67.6239 40.7387 67.5792 40.6718C67.5792 40.8726 67.5792 41.0511 67.5792 41.2296C67.5792 41.4081 67.5792 41.6312 67.5792 41.9212V44.7323H66.7741V39.2886H67.6015L69.6589 42.6128C69.8378 42.8805 69.9719 43.1483 70.1061 43.3714C70.1061 43.1483 70.1061 42.9252 70.1061 42.7244C70.1061 42.5236 70.1061 42.3228 70.1061 42.0997V39.2886H70.9111V44.7546H70.9335Z" fill="#666666"/>
<path d="M77.9777 44.7546H74.4444V39.3109H75.2718V43.9514H78V44.7546H77.9777Z" fill="#666666"/>
<path d="M82.7185 44.7546H79.0958V39.3109H82.6066V40.1141H79.9232V41.4527H81.4885V42.2558H79.9232V43.9737H82.7408V44.7546H82.7185Z" fill="#666666"/>
<path d="M87.9066 43.1036C87.9066 43.4606 87.8395 43.773 87.6829 44.0184C87.5488 44.2638 87.3251 44.4646 87.0344 44.5761C86.7437 44.71 86.4083 44.7546 86.0281 44.7546H83.859V39.3109H86.0952C86.5872 39.3109 86.9673 39.4224 87.2357 39.6678C87.5264 39.9133 87.6606 40.2702 87.6606 40.7164C87.6606 40.9842 87.5935 41.2073 87.4817 41.3857C87.3699 41.5642 87.191 41.6981 86.9673 41.8096C87.2133 41.8766 87.437 42.0104 87.6159 42.2335C87.8171 42.4566 87.9066 42.7467 87.9066 43.1036ZM86.8555 40.7834C86.8555 40.6495 86.8332 40.5156 86.7884 40.4264C86.7437 40.3148 86.6543 40.2256 86.5425 40.181C86.4306 40.1141 86.2741 40.0917 86.1176 40.0917H84.664V41.4973H86.1176C86.3636 41.4973 86.5648 41.4304 86.6766 41.2965C86.7884 41.1626 86.8555 40.9842 86.8555 40.7834ZM87.0792 43.126C87.0792 42.8359 86.9897 42.6128 86.8332 42.4566C86.6766 42.3005 86.4306 42.2112 86.1176 42.2112H84.6416V44.0184H86.0952C86.453 44.0184 86.699 43.9291 86.8555 43.773C87.0121 43.6168 87.0792 43.3937 87.0792 43.126Z" fill="#666666"/>
<path d="M92.7592 44.7546H89.1365V39.3109H92.6474V40.1141H89.9639V41.4527H91.5293V42.2558H89.9639V43.9737H92.7816V44.7546H92.7592Z" fill="#666666"/>
<path d="M98.0591 44.7546H97.2764L95.1072 41.3411C95.0625 41.2742 95.0178 41.2073 94.9731 41.118C94.9283 41.0511 94.8836 40.9619 94.8389 40.8949C94.7942 40.828 94.7494 40.7387 94.7047 40.6718C94.7047 40.8726 94.7047 41.0511 94.7047 41.2296C94.7047 41.4081 94.7047 41.6312 94.7047 41.9212V44.7323H93.922V39.2886H94.7494L96.8068 42.6128C96.9857 42.8805 97.1198 43.1483 97.254 43.3714C97.254 43.1483 97.254 42.9252 97.254 42.7244C97.254 42.5236 97.254 42.3228 97.254 42.0997V39.2886H98.0591V44.7546Z" fill="#666666"/>
<path d="M105.707 40.9395C105.707 41.3634 105.595 41.7204 105.394 41.9881C105.193 42.2558 104.88 42.4343 104.499 42.5459L105.618 44.7769H104.678L103.605 42.6351H102.375V44.7769H101.57V39.3332H103.963C104.209 39.3332 104.432 39.3555 104.656 39.4224C104.88 39.4894 105.058 39.5786 105.215 39.7125C105.372 39.8463 105.506 40.0248 105.595 40.2256C105.662 40.4264 105.707 40.6718 105.707 40.9395ZM104.88 40.9842C104.88 40.6941 104.79 40.4933 104.634 40.3372C104.477 40.181 104.231 40.1141 103.963 40.1141H102.375V41.8543H103.963C104.253 41.8543 104.477 41.7873 104.634 41.6312C104.813 41.475 104.88 41.2519 104.88 40.9842Z" fill="#666666"/>
<path d="M110.604 44.7546H106.982V39.3109H110.493V40.1141H107.809V41.4527H109.374V42.2558H107.809V43.9737H110.627V44.7546H110.604Z" fill="#666666"/>
<path d="M115.412 40.1364H113.825V44.7769H112.997V40.1364H111.409V39.3332H115.412V40.1364Z" fill="#666666"/>
<path d="M120.131 40.1364H118.543V44.7769H117.716V40.1364H116.128V39.3332H120.131V40.1364Z" fill="#666666"/>
<path d="M124.849 44.7546H121.204V39.3109H124.715V40.1141H122.032V41.4527H123.597V42.2558H122.032V43.9737H124.849V44.7546Z" fill="#666666"/>
<path d="M130.149 44.7546H129.366L127.197 41.3411C127.153 41.2742 127.108 41.2073 127.063 41.118C127.018 41.0511 126.974 40.9619 126.929 40.8949C126.884 40.828 126.839 40.7387 126.795 40.6718C126.795 40.8726 126.795 41.0511 126.795 41.2296C126.795 41.4081 126.795 41.6312 126.795 41.9212V44.7323H125.99V39.2886H126.817L128.874 42.6128C129.053 42.8805 129.188 43.1483 129.322 43.3714C129.322 43.1483 129.322 42.9252 129.322 42.7244C129.322 42.5236 129.322 42.3228 129.322 42.0997V39.2886H130.127L130.149 44.7546Z" fill="#666666"/>
<path d="M36.7638 19.1423C37.4794 19.12 37.7701 19.0977 37.9043 18.3837L38.8658 13.2524C39.0224 12.4046 39.0671 12.1591 39.0671 11.9807C39.0671 11.5791 38.7093 11.5568 38.0161 11.5345L38.0608 11.1775C38.508 11.1998 39 11.2221 39.5144 11.2221C39.984 11.2221 40.4536 11.1775 41.4152 11.1775C42.5109 11.1775 44.0763 11.5121 44.0763 13.0516C44.0763 14.2117 42.8463 14.8587 41.8624 15.0818V15.1041C42.9358 15.2603 43.8527 15.7288 43.8527 16.9336C43.8527 18.5399 42.2873 19.4993 40.543 19.4993C39.9392 19.4993 39.3802 19.4546 38.6869 19.4546C37.9713 19.4546 37.1663 19.4993 36.6967 19.4993L36.7638 19.1423ZM39.4696 17.8483C39.4249 18.0714 39.4025 18.3168 39.4025 18.5622C39.4025 18.9415 39.6038 19.053 40.0287 19.053C41.5941 19.053 42.2202 18.0714 42.2202 16.7997C42.2202 15.7065 41.5941 15.3495 40.6548 15.3495C40.4088 15.3495 40.1852 15.3718 39.9392 15.3941L39.4696 17.8483ZM40.0287 14.9256L40.6772 14.9033C41.84 14.8587 42.4438 14.0778 42.4438 12.9177C42.4438 12.2484 42.1531 11.646 41.1244 11.646C40.9679 11.646 40.8114 11.6683 40.6325 11.6683L40.0287 14.9256Z" fill="#666666"/>
<path d="M43.5843 21.9088C43.9645 21.6857 44.3223 21.418 44.859 19.4546L45.8429 15.885C45.8876 15.7288 45.9771 15.4611 45.9771 15.3495C45.9771 15.2157 45.91 15.1487 45.7982 15.1487C45.4628 15.1487 45.0379 15.7065 44.8366 15.885L44.5683 15.595C44.9708 15.1711 46.0665 13.944 46.7374 13.944C47.1176 13.944 47.4083 14.0555 47.4083 14.6579C47.4083 15.0149 47.0728 16.1527 46.961 16.5097L46.0442 19.5439C45.6193 20.9718 45.2168 21.7303 43.7185 22.1988L43.5843 21.9088ZM47.1399 10.999C47.5425 10.999 47.8779 11.356 47.8779 11.7353C47.8779 12.1369 47.5201 12.4715 47.1399 12.4715C46.7374 12.4715 46.402 12.1145 46.402 11.7353C46.402 11.356 46.7374 10.999 47.1399 10.999Z" fill="#666666"/>
<path d="M53.5356 16.2643C53.5356 18.0045 52.2385 19.6777 50.293 19.6777C48.8171 19.6777 47.945 18.5622 47.945 17.3798C47.945 15.4388 49.488 13.9663 51.2099 13.9663C52.7752 13.9663 53.5356 14.9926 53.5356 16.2643ZM52.1938 15.7065C52.1938 15.0818 52.082 14.4348 51.2322 14.4348C49.8234 14.4348 49.2644 16.7774 49.2644 17.8929C49.2644 18.6515 49.4433 19.2538 50.2259 19.2538C51.6795 19.2315 52.1938 16.7328 52.1938 15.7065ZM51.1652 11.8691C51.1652 12.2484 50.8521 12.5384 50.4943 12.5384C50.1365 12.5384 49.8234 12.2484 49.8234 11.8691C49.8234 11.4898 50.1365 11.1998 50.4943 11.1998C50.8521 11.1998 51.1652 11.4898 51.1652 11.8691ZM53.6921 11.8691C53.6921 12.2484 53.379 12.5384 53.0212 12.5384C52.6634 12.5384 52.3504 12.2484 52.3504 11.8691C52.3504 11.4898 52.6634 11.1998 53.0212 11.1998C53.379 11.1998 53.6921 11.4898 53.6921 11.8691Z" fill="#666666"/>
<path d="M55.2351 16.532C55.3022 16.242 55.4811 15.6619 55.4811 15.4834C55.4811 15.3719 55.4587 15.2157 55.3246 15.2157C55.0339 15.2157 54.5642 15.6842 54.3853 15.885L54.1617 15.6173C54.5642 15.0818 55.6153 13.944 56.3085 13.944C56.6887 13.944 56.8005 14.1448 56.8005 14.4794C56.8005 15.1041 56.4203 16.0412 56.2638 16.6212L56.2861 16.6436C56.7558 15.9296 57.7173 13.944 58.6789 13.944C58.992 13.944 59.1709 14.1002 59.1709 14.4125C59.1709 14.7918 58.992 15.2826 58.5895 15.2826C58.3435 15.2826 58.254 15.2157 58.0528 15.2157C57.449 15.2157 56.5321 16.7774 55.906 18.3838C55.7494 18.7853 55.6376 19.2762 55.5929 19.3654C55.4811 19.5216 55.3246 19.5439 54.9668 19.5439C54.5195 19.5439 54.4077 19.4323 54.4077 19.3208C54.4077 19.2539 54.5642 18.6515 54.6537 18.4284L55.2351 16.532Z" fill="#666666"/>
<path d="M60.1996 15.9966C60.2667 15.7511 60.3561 15.528 60.3561 15.4165C60.3561 15.3272 60.3114 15.2603 60.1996 15.2603C59.9759 15.2603 59.4392 15.7958 59.2827 15.9296L59.0591 15.6842C59.5287 15.1711 60.4679 13.9886 61.2282 13.9886C61.6084 13.9886 61.7873 14.2117 61.7873 14.591C61.7873 15.0595 61.1835 16.4428 61.0493 16.9559C61.6084 16.0635 63.3303 13.9663 64.4484 13.9663C64.8509 13.9663 65.0969 14.0779 65.0969 14.591C65.0969 15.1934 63.867 17.9599 63.867 18.4507C63.867 18.5399 63.9117 18.6069 64.0012 18.6069C64.2695 18.6069 64.8957 17.9376 65.0522 17.7814L65.2758 18.0491C64.4037 19.12 63.7552 19.7001 62.9949 19.7001C62.6818 19.7001 62.4582 19.477 62.4582 19.1423C62.4582 18.5622 63.5539 15.8627 63.5539 15.5503C63.5539 15.3719 63.4645 15.2603 63.2632 15.2603C62.6371 15.2603 61.34 17.1567 60.9822 17.7814C60.2667 19.0977 60.3785 19.5885 59.9312 19.5885C59.3274 19.5885 59.1038 19.5662 59.1038 19.41C59.1038 19.2985 59.1709 19.12 59.2603 18.8077L60.1996 15.9966Z" fill="#666666"/>
<path d="M74.422 13.3639C74.4444 13.2524 74.4444 13.0739 74.4444 12.8062C74.4444 12.1815 74.0866 11.4452 73.0132 11.4452C72.1634 11.4452 71.6491 11.8914 71.6491 12.7615C71.6491 13.9886 74.5338 15.2603 74.5338 17.2682C74.5338 18.8523 73.2816 19.6778 71.7162 19.6778C71.023 19.6778 70.2626 19.3654 69.9719 19.2315L69.5023 19.4993L69.2787 19.477C69.3905 18.7184 69.5247 17.7144 69.5694 17.0674L69.9272 17.0451C69.9272 18.1606 70.4863 19.2315 71.6044 19.2315C72.3647 19.2315 73.1921 18.9192 73.1921 17.826C73.1921 16.2866 70.4415 15.3272 70.4415 13.3193C70.4415 11.7799 71.6938 10.999 72.9908 10.999C73.6394 10.999 74.0642 11.1329 74.2879 11.2221C74.422 11.2667 74.5338 11.3114 74.6457 11.3114C74.7575 11.3114 74.8022 11.2891 74.8469 11.1775L75.1376 11.1998C75.0035 11.9137 74.8693 12.6277 74.7798 13.3416L74.422 13.3639Z" fill="#666666"/>
<path d="M75.7414 14.1448H76.9937L77.508 12.4492H78.7603L78.2684 14.1448H79.6772L79.543 14.7472H78.1118L77.2844 17.4913C77.2173 17.6921 77.0832 18.0937 77.0832 18.2722C77.0832 18.3837 77.1502 18.4953 77.3291 18.4953C77.754 18.4953 78.2236 17.9152 78.5591 17.6252L78.7827 17.8706C78.3131 18.3614 77.2173 19.6777 76.3452 19.6777C75.8085 19.6777 75.6967 19.2985 75.6967 19.0084C75.6967 18.5845 75.965 17.7591 76.0992 17.2682L76.8595 14.7472H75.5849L75.7414 14.1448Z" fill="#666666"/>
<path d="M83.8142 18.2276C83.0539 18.9192 82.1594 19.6778 80.9071 19.6778C79.789 19.6778 79.3418 18.7853 79.3418 17.8483C79.3418 15.9519 81.1084 13.9663 82.9421 13.9663C83.613 13.9663 84.2168 14.234 84.2168 14.9926C84.2168 16.4428 81.9134 17.0005 80.7506 17.1567C80.7059 17.2906 80.6835 17.536 80.6835 17.8037C80.6835 18.3615 80.9966 18.8746 81.6227 18.8746C82.4054 18.8746 83.1434 18.3168 83.5906 17.9376L83.8142 18.2276ZM82.4949 14.4125C81.7793 14.4125 80.9966 15.9519 80.84 16.6882C81.6898 16.6659 82.9421 15.9296 82.9421 14.881C82.9421 14.591 82.8079 14.4125 82.4949 14.4125Z" fill="#666666"/>
<path d="M87.7277 18.0268C86.8555 19.0977 86.207 19.6778 85.4467 19.6778C85.1336 19.6778 84.91 19.4546 84.91 19.12C84.91 18.5399 86.0058 15.8404 86.0058 15.4388C86.0058 15.3049 85.961 15.1711 85.8269 15.1711C85.5361 15.1711 85.156 15.7065 84.91 15.9073L84.664 15.6173C85.1113 15.0818 86.1623 13.9663 86.8779 13.9663C87.2804 13.9663 87.5264 14.0779 87.5264 14.591C87.5264 15.1934 86.2965 17.9599 86.2965 18.4507C86.2965 18.5399 86.3412 18.6069 86.4306 18.6069C86.699 18.6069 87.3251 17.9375 87.4817 17.7814L87.7277 18.0268ZM87.2804 10.999C87.6829 10.999 88.0184 11.356 88.0184 11.7353C88.0184 12.1369 87.6829 12.4715 87.2804 12.4715C86.8779 12.4715 86.5425 12.1145 86.5425 11.7353C86.5201 11.356 86.8779 10.999 87.2804 10.999Z" fill="#666666"/>
<path d="M91.8871 19.1869C92.5132 19.4547 92.9381 19.8116 92.9381 20.4586C92.9381 21.998 90.9702 22.355 89.785 22.355C89.0023 22.355 87.3922 22.065 87.3922 21.0164C87.3922 20.1017 88.3986 19.8116 89.2707 19.3877C88.9352 19.2762 88.5774 19.0754 88.5774 18.7184C88.5774 18.1383 89.226 17.8929 89.5838 17.6029C88.9352 17.3575 88.5774 16.822 88.5774 16.1304C88.5774 14.7249 89.7179 13.9886 91.0373 13.9886C91.4398 13.9886 91.7976 14.0779 92.0883 14.1894C92.4014 14.2787 92.6697 14.3902 93.0275 14.3902C93.4077 14.3902 93.5419 14.234 93.7431 14.234C93.8997 14.234 94.1457 14.301 94.1457 14.6356C94.1457 14.9257 94.0115 15.0818 93.7431 15.0818C93.3853 15.0818 93.2512 14.7472 92.7592 14.7472C92.9157 14.948 93.0946 15.3049 93.0946 15.6619C93.0946 17.0005 91.9989 17.7814 90.7019 17.7814C90.4559 17.7814 90.2323 17.7591 89.9863 17.7368C89.9192 17.7814 89.7179 17.9822 89.7179 18.1383C89.7179 18.2499 89.785 18.3391 90.4112 18.6069L91.8871 19.1869ZM89.6508 19.5439L89.2483 19.7893C88.9352 19.9901 88.4656 20.2801 88.4656 20.8379C88.4656 21.6634 89.5614 21.9088 90.0534 21.9088C90.7242 21.9088 91.7305 21.708 91.7305 20.9494C91.7305 20.4586 91.2833 20.2801 90.5677 19.9678L89.6508 19.5439ZM90.5677 17.2905C91.4622 17.2905 91.82 16.0412 91.82 15.3272C91.82 14.8364 91.7305 14.4125 91.0597 14.4125C90.1204 14.4125 89.8297 15.885 89.8297 16.4428C89.8521 16.9336 90.0981 17.2905 90.5677 17.2905Z" fill="#666666"/>
<path d="M98.2604 18.2276C97.5 18.9192 96.6055 19.6778 95.3532 19.6778C94.2351 19.6778 93.7879 18.7853 93.7879 17.8483C93.7879 15.9519 95.5545 13.9663 97.3882 13.9663C98.0591 13.9663 98.6629 14.234 98.6629 14.9926C98.6629 16.4428 96.3595 17.0005 95.1967 17.1567C95.152 17.2906 95.1296 17.536 95.1296 17.8037C95.1296 18.3615 95.4427 18.8746 96.0688 18.8746C96.8515 18.8746 97.5895 18.3168 98.0367 17.9376L98.2604 18.2276ZM96.9633 14.4125C96.2477 14.4125 95.4651 15.9519 95.3085 16.6882C96.1583 16.6659 97.4106 15.9296 97.4106 14.881C97.4106 14.591 97.2764 14.4125 96.9633 14.4125Z" fill="#666666"/>
<path d="M100.206 16.532C100.273 16.242 100.452 15.6619 100.452 15.4834C100.452 15.3719 100.43 15.2157 100.295 15.2157C100.005 15.2157 99.535 15.6842 99.3561 15.885L99.1325 15.6173C99.535 15.0818 100.586 13.944 101.279 13.944C101.659 13.944 101.771 14.1448 101.771 14.4794C101.771 15.1041 101.391 16.0412 101.235 16.6212L101.257 16.6436C101.727 15.9296 102.688 13.944 103.65 13.944C103.963 13.944 104.142 14.1002 104.142 14.4125C104.142 14.7918 103.963 15.2826 103.56 15.2826C103.314 15.2826 103.225 15.2157 103.024 15.2157C102.42 15.2157 101.503 16.7774 100.877 18.3838C100.72 18.7853 100.608 19.2762 100.564 19.3654C100.452 19.5216 100.295 19.5439 99.9375 19.5439C99.4903 19.5439 99.3785 19.4323 99.3785 19.3208C99.3785 19.2539 99.535 18.6515 99.6245 18.4284L100.206 16.532Z" fill="#666666"/>
<path d="M112.304 13.3639C112.326 13.2524 112.326 13.0739 112.326 12.8062C112.326 12.1815 111.968 11.4452 110.895 11.4452C110.045 11.4452 109.531 11.8914 109.531 12.7615C109.531 13.9886 112.416 15.2603 112.416 17.2682C112.416 18.8523 111.163 19.6778 109.598 19.6778C108.905 19.6778 108.145 19.3654 107.854 19.2315L107.384 19.4993L107.161 19.477C107.272 18.7184 107.407 17.7144 107.451 17.0674L107.809 17.0451C107.809 18.1606 108.368 19.2315 109.486 19.2315C110.247 19.2315 111.074 18.9192 111.074 17.826C111.074 16.2866 108.323 15.3272 108.323 13.3193C108.323 11.7799 109.576 10.999 110.873 10.999C111.521 10.999 111.946 11.1329 112.17 11.2221C112.304 11.2667 112.416 11.3114 112.528 11.3114C112.639 11.3114 112.684 11.2891 112.729 11.1775L113.02 11.1998C112.885 11.9137 112.751 12.6277 112.662 13.3416L112.304 13.3639Z" fill="#666666"/>
<path d="M113.623 14.1448H114.876L115.39 12.4492H116.642L116.15 14.1448H117.559L117.425 14.7472H115.994L115.166 17.4913C115.099 17.6921 114.965 18.0937 114.965 18.2722C114.965 18.3837 115.032 18.4953 115.211 18.4953C115.636 18.4953 116.106 17.9152 116.441 17.6252L116.665 17.8706C116.195 18.3614 115.099 19.6777 114.227 19.6777C113.69 19.6777 113.579 19.2985 113.579 19.0084C113.579 18.5845 113.847 17.7591 113.981 17.2682L114.741 14.7472H113.511L113.623 14.1448Z" fill="#666666"/>
<path d="M120.31 18.0268C119.438 19.0977 118.789 19.6778 118.029 19.6778C117.716 19.6778 117.492 19.4546 117.492 19.12C117.492 18.5399 118.588 15.8404 118.588 15.4388C118.588 15.3049 118.543 15.1711 118.409 15.1711C118.118 15.1711 117.738 15.7065 117.492 15.9073L117.246 15.6173C117.693 15.0818 118.744 13.9663 119.46 13.9663C119.862 13.9663 120.108 14.0779 120.108 14.591C120.108 15.1934 118.878 17.9599 118.878 18.4507C118.878 18.5399 118.923 18.6069 119.013 18.6069C119.281 18.6069 119.907 17.9375 120.064 17.7814L120.31 18.0268ZM119.84 10.999C120.243 10.999 120.578 11.356 120.578 11.7353C120.578 12.1369 120.243 12.4715 119.84 12.4715C119.438 12.4715 119.102 12.1145 119.102 11.7353C119.102 11.356 119.46 10.999 119.84 10.999Z" fill="#666666"/>
<path d="M122.121 14.7472H120.958L121.092 14.1448H122.278C122.635 11.8022 124.178 10.3966 125.632 10.3966C125.945 10.3966 126.169 10.5751 126.169 10.8652C126.169 11.2444 126.079 11.646 125.721 11.646C125.319 11.646 125.14 11.2667 124.626 11.2667C124.111 11.2667 123.977 12.003 123.865 12.6946L123.619 14.1448H124.983L124.849 14.7472H123.44C122.948 17.2459 122.143 19.6331 121.428 22.0426L120.623 22.3327L120.489 22.2434L122.121 14.7472Z" fill="#666666"/>
<path d="M125.341 14.1448H126.593L127.108 12.4492H128.36L127.868 14.1448H129.277L129.143 14.7472H127.689L126.862 17.4913C126.795 17.6921 126.661 18.0937 126.661 18.2722C126.661 18.3837 126.728 18.4953 126.907 18.4953C127.331 18.4953 127.801 17.9152 128.137 17.6252L128.36 17.8706C127.891 18.3614 126.795 19.6777 125.923 19.6777C125.386 19.6777 125.274 19.2985 125.274 19.0084C125.274 18.5845 125.542 17.7591 125.677 17.2682L126.437 14.7472H125.207L125.341 14.1448Z" fill="#666666"/>
<path d="M133.973 17.6475C133.861 18.0045 133.794 18.2722 133.794 18.3615C133.794 18.5176 133.839 18.6069 133.928 18.6069C134.197 18.6069 134.823 17.9376 134.979 17.7814L135.203 18.0491C134.376 18.9638 133.638 19.7001 133.034 19.7001C132.631 19.7001 132.452 19.41 132.452 19.1423C132.452 18.9415 132.542 18.4507 133.347 16.1973L133.325 16.175C132.676 17.1567 131.222 19.6778 129.814 19.6778C129.322 19.6778 129.232 19.3208 129.232 19.0308C129.232 18.4284 130.283 15.6842 130.283 15.3942C130.283 15.3049 130.239 15.238 130.127 15.238C129.903 15.238 129.366 15.7734 129.21 15.9073L128.986 15.6619C129.456 15.1488 130.462 13.9663 131.222 13.9663C131.603 13.9663 131.782 14.1894 131.782 14.5687C131.782 15.4611 130.663 17.8037 130.663 18.2722C130.663 18.3838 130.731 18.4953 130.865 18.4953C131.401 18.4953 132.698 16.5097 132.944 16.175C133.749 14.9703 133.973 13.9663 134.241 13.9663C134.331 13.9663 134.443 14.0332 134.532 14.0556L135.136 14.3233L133.973 17.6475Z" fill="#666666"/>
<path d="M136.835 15.9965C136.903 15.7511 136.992 15.528 136.992 15.4165C136.992 15.3272 136.947 15.2603 136.835 15.2603C136.612 15.2603 136.075 15.7958 135.919 15.9296L135.695 15.6842C136.165 15.1711 137.104 13.9886 137.864 13.9886C138.244 13.9886 138.423 14.2117 138.423 14.591C138.423 15.0595 137.819 16.4428 137.685 16.9559L137.708 16.9782C138.267 16.0858 139.989 13.9886 141.107 13.9886C141.509 13.9886 141.755 14.1002 141.755 14.6133C141.755 15.2157 140.525 17.9822 140.525 18.473C140.525 18.5622 140.57 18.6292 140.659 18.6292C140.928 18.6292 141.554 17.9599 141.71 17.8037L141.934 18.0714C141.062 19.1423 140.413 19.7224 139.653 19.7224C139.34 19.7224 139.116 19.4993 139.116 19.1646C139.116 18.5845 140.212 15.885 140.212 15.5727C140.212 15.3942 140.123 15.2826 139.921 15.2826C139.295 15.2826 137.998 17.179 137.64 17.8037C136.925 19.12 137.037 19.6108 136.589 19.6108C135.986 19.6108 135.762 19.5885 135.762 19.4323C135.762 19.3208 135.829 19.1423 135.919 18.83L136.835 15.9965Z" fill="#666666"/>
<path d="M146.049 19.1869C146.675 19.4547 147.1 19.8116 147.1 20.4586C147.1 21.998 145.132 22.355 143.947 22.355C143.164 22.355 141.554 22.065 141.554 21.0164C141.554 20.1017 142.56 19.8116 143.432 19.3877C143.097 19.2762 142.739 19.0754 142.739 18.7184C142.739 18.1383 143.388 17.8929 143.745 17.6029C143.097 17.3575 142.739 16.822 142.739 16.1304C142.739 14.7249 143.88 13.9886 145.199 13.9886C145.602 13.9886 145.959 14.0779 146.25 14.1894C146.563 14.2787 146.831 14.3902 147.189 14.3902C147.569 14.3902 147.704 14.234 147.905 14.234C148.061 14.234 148.307 14.301 148.307 14.6356C148.307 14.9257 148.173 15.0818 147.905 15.0818C147.547 15.0818 147.413 14.7472 146.921 14.7472C147.077 14.948 147.256 15.3049 147.256 15.6619C147.256 17.0005 146.161 17.7814 144.864 17.7814C144.618 17.7814 144.394 17.7591 144.148 17.7368C144.081 17.7814 143.88 17.9822 143.88 18.1383C143.88 18.2499 143.947 18.3391 144.573 18.6069L146.049 19.1869ZM143.813 19.5439L143.41 19.7893C143.097 19.9901 142.627 20.2801 142.627 20.8379C142.627 21.6634 143.723 21.9088 144.215 21.9088C144.886 21.9088 145.892 21.708 145.892 20.9494C145.892 20.4586 145.445 20.2801 144.729 19.9678L143.813 19.5439ZM144.729 17.2905C145.624 17.2905 145.982 16.0412 145.982 15.3272C145.982 14.8364 145.892 14.4125 145.221 14.4125C144.282 14.4125 143.991 15.885 143.991 16.4428C144.014 16.9336 144.282 17.2905 144.729 17.2905Z" fill="#666666"/>
<path d="M15.117 5.46605L18.762 9.95044L19.254 5.24295L26.4771 7.45168L24.2408 11.6906L29.6749 8.72337L32.6491 15.9296L27.4386 16.3758L32.7609 19.7447L29.8314 24.6976L23.57 20.0793L24.1961 25.8354H18.0241L18.203 19.9455L13.082 23.9837L10.0183 19.2315L14.7144 16.2643L9.05676 16.1527L9.28039 11.1775L14.4237 12.1369L10.3985 8.99109L15.117 5.46605Z" fill="#666666"/>
<path d="M31.531 7.65247C32.0677 7.65247 32.4925 8.07636 32.4925 8.61181C32.4925 9.14726 32.0677 9.57116 31.531 9.57116C30.9943 9.57116 30.5694 9.14726 30.5694 8.61181C30.5694 8.07636 30.9943 7.65247 31.531 7.65247ZM31.531 9.43729C31.9782 9.43729 32.3136 9.08033 32.3136 8.61181C32.3136 8.14329 31.9782 7.78633 31.531 7.78633C31.0837 7.78633 30.7483 8.14329 30.7483 8.61181C30.7483 9.08033 31.0837 9.43729 31.531 9.43729ZM31.1508 8.03174H31.5757C31.844 8.03174 31.9558 8.14329 31.9558 8.34409C31.9558 8.52257 31.844 8.65643 31.6651 8.65643L31.9782 9.14726H31.7769L31.4639 8.65643H31.3073V9.14726H31.1284V8.03174H31.1508ZM31.3521 8.52257H31.5757C31.7099 8.52257 31.7993 8.50026 31.7993 8.34409C31.7993 8.21023 31.6875 8.18791 31.5757 8.18791H31.3521V8.52257Z" fill="#666666"/>
</svg>
