<?xml version="1.0" encoding="UTF-8" standalone="no"?>
<svg
   xmlns:dc="http://purl.org/dc/elements/1.1/"
   xmlns:cc="http://creativecommons.org/ns#"
   xmlns:rdf="http://www.w3.org/1999/02/22-rdf-syntax-ns#"
   xmlns:svg="http://www.w3.org/2000/svg"
   xmlns="http://www.w3.org/2000/svg"
   xmlns:sodipodi="http://sodipodi.sourceforge.net/DTD/sodipodi-0.dtd"
   xmlns:inkscape="http://www.inkscape.org/namespaces/inkscape"
   version="1.1"
   id="svg2"
   xml:space="preserve"
   width="4506.2935"
   height="4014.2"
   viewBox="0 0 4506.2935 4014.2"
   sodipodi:docname="fake_news.eps"><metadata
     id="metadata8"><rdf:RDF><cc:Work
         rdf:about=""><dc:format>image/svg+xml</dc:format><dc:type
           rdf:resource="http://purl.org/dc/dcmitype/StillImage" /></cc:Work></rdf:RDF></metadata><defs
     id="defs6"><clipPath
       clipPathUnits="userSpaceOnUse"
       id="clipPath20"><path
         d="m 12671.2,0 v 0 0 m 0,0 C 10561.4,1541.6 9072.56,3647.5 8034.89,5681.5 6810.61,6204.5 5753.63,6683.2 4987.26,7132.2 2245.12,8738.9 -2014.65,23293 3948.5,26807.7 c 1660.86,978.9 6196.9,1510.2 11133.8,1510.2 6724.9,0 14193.5,-986 16151.2,-3169.6 C 34628.6,21361.5 33061.6,2297 26663.3,1513.6 26126.8,1447.9 25556.5,1417 24959.1,1417.1 21157.7,1417.1 16267.4,2665 12113.4,4109.5 11780.3,2362 12671.2,0 12671.2,0"
         id="path18" /></clipPath><linearGradient
       x1="0"
       y1="0"
       x2="1"
       y2="0"
       gradientUnits="userSpaceOnUse"
       gradientTransform="matrix(29190.1,-24187.8,-24187.8,-29190.1,3344.06,27999.1)"
       spreadMethod="pad"
       id="linearGradient26"><stop
         style="stop-opacity:1;stop-color:#eff0ef"
         offset="0"
         id="stop22" /><stop
         style="stop-opacity:1;stop-color:#d9dbd9"
         offset="1"
         id="stop24" /></linearGradient><clipPath
       clipPathUnits="userSpaceOnUse"
       id="clipPath38"><path
         d="m 28113.1,22014.1 v 149.4 h -1769.4 v -149.4 h -445.1 v 2673.3 h -400.7 v 538.9 h -452.8 v 293.9 h -1477.9 v -293.9 h -452.7 v -538.9 h -494.4 v -4223.1 h -2260.3 v 3079.5 h -226.4 v 551.2 h -1758.1 v -551.2 H 18149 v -3269.5 h -439.9 V 20507 H 16450 v -232.7 h -1200.7 v 1060.2 H 14656 v 416.4 h -269.5 v 1959.7 h 132.7 v 367.5 h -245.6 l -511.6,1665.7 h -848.1 v 1938.1 h -192.4 v -1938.1 h -817.3 l -511.7,-1665.7 H 11147 v -367.5 h 132.7 v -3845.9 h -1210 v 2547.6 l -855.88,1371.8 H 8852 v 318.5 H 7806 v -318.5 H 7444.18 L 6588.26,22412.3 V 8834.9 H 28703 v 13179.2 z"
         id="path36" /></clipPath><linearGradient
       x1="0"
       y1="0"
       x2="1"
       y2="0"
       gradientUnits="userSpaceOnUse"
       gradientTransform="matrix(0,17564.5,17564.5,0,17645.6,8834.9)"
       spreadMethod="pad"
       id="linearGradient46"><stop
         style="stop-opacity:1;stop-color:#c4e0d8"
         offset="0"
         id="stop40" /><stop
         style="stop-opacity:1;stop-color:#7ecab8"
         offset="1"
         id="stop42" /><stop
         style="stop-opacity:1;stop-color:#7ecab8"
         offset="1"
         id="stop44" /></linearGradient><clipPath
       clipPathUnits="userSpaceOnUse"
       id="clipPath56"><path
         d="M 72.1602,16403.5 C -776.961,13019.3 6148.78,11145.5 6118.08,10479 6087.39,9812.5 2527.73,10380 3187.35,8549.2 3798.65,6852.9 9350.56,6006.3 13488.4,7773.9 c 119.8,51.1 3178.2,4976.6 1159.8,7989.4 -2018.4,3012.7 -2823.7,-2024.1 -3802.4,-1860.2 -978.72,164 1383.4,6301.7 -577.5,7697.8 -2031.94,1446.5 -2824.58,-2988.2 -3775.45,-2271.5 -900.75,678.9 -1170.76,7026 -3742.71,6291.8 -93.18,-26.5 -189.33,-62.4 -288.76,-108.3 l -1.13,-0.4 -0.03,-0.1 c -52.61,-24.2 -106.12,-51.3 -160.57,-81.2 -2994.302,-1647.1 2377.37,-8504.9 1093.92,-8718 C 2110.21,16499.8 502.492,18118.4 72.1602,16403.5 Z"
         id="path54" /></clipPath><linearGradient
       x1="0"
       y1="0"
       x2="1"
       y2="0"
       gradientUnits="userSpaceOnUse"
       gradientTransform="matrix(-15673.3,3102.01,3102.01,15673.3,14871.1,14320.1)"
       spreadMethod="pad"
       id="linearGradient62"><stop
         style="stop-opacity:1;stop-color:#c4e0d8"
         offset="0"
         id="stop58" /><stop
         style="stop-opacity:1;stop-color:#a4a6a5"
         offset="1"
         id="stop60" /></linearGradient><clipPath
       clipPathUnits="userSpaceOnUse"
       id="clipPath72"><path
         d="m 9208.06,6902.6 c 0,0 -1874.97,5707.4 -3877.27,8924.8 -2002.3,3217.4 -3894.85,4159.1 -3894.85,4159.1 0,0 990.55,-1433.1 1720.37,-3386.4 729.83,-1953.3 1072.22,-4051.9 2099.18,-5933.8 C 6809.07,7819.4 9208.06,6902.6 9208.06,6902.6 Z"
         id="path70" /></clipPath><linearGradient
       x1="0"
       y1="0"
       x2="1"
       y2="0"
       gradientUnits="userSpaceOnUse"
       gradientTransform="matrix(7292.41,-5061.15,-5061.15,-7292.41,829.359,16499.6)"
       spreadMethod="pad"
       id="linearGradient78"><stop
         style="stop-opacity:1;stop-color:#c4e0d8"
         offset="0"
         id="stop74" /><stop
         style="stop-opacity:1;stop-color:#a4a6a5"
         offset="1"
         id="stop76" /></linearGradient><clipPath
       clipPathUnits="userSpaceOnUse"
       id="clipPath88"><path
         d="m 8532.63,6902.7 c 0,0 -1625.21,3244.5 -3106.25,4989.9 -1481.03,1745.4 -2695.17,2140.6 -2695.17,2140.6 0,0 718.64,-768.6 1327.52,-1871.3 C 4667.6,11059.3 5057.83,9835.6 5837.94,8802 7018.06,7238.4 8532.63,6902.7 8532.63,6902.7 Z"
         id="path86" /></clipPath><linearGradient
       x1="0"
       y1="0"
       x2="1"
       y2="0"
       gradientUnits="userSpaceOnUse"
       gradientTransform="matrix(11319.6,-5714.22,-5714.22,-11319.6,3602.26,11455.3)"
       spreadMethod="pad"
       id="linearGradient94"><stop
         style="stop-opacity:1;stop-color:#c4e0d8"
         offset="0"
         id="stop90" /><stop
         style="stop-opacity:1;stop-color:#a4a6a5"
         offset="1"
         id="stop92" /></linearGradient><clipPath
       clipPathUnits="userSpaceOnUse"
       id="clipPath106"><path
         d="m 10960.5,6569.2 c -1144.72,0 -2289.43,0 -3434.14,0 -289.11,2552.5 -255.77,5135.4 100.03,7687.9 885.89,0 1771.79,0 2657.71,0 -108.9,-2552.5 116.6,-5135.4 676.4,-7687.9 z"
         id="path104" /></clipPath><linearGradient
       x1="0"
       y1="0"
       x2="1"
       y2="0"
       gradientUnits="userSpaceOnUse"
       gradientTransform="matrix(-3551.48,0,0,3551.48,10871.6,10413.2)"
       spreadMethod="pad"
       id="linearGradient112"><stop
         style="stop-opacity:1;stop-color:#f46878"
         offset="0"
         id="stop108" /><stop
         style="stop-opacity:1;stop-color:#ef2e3b"
         offset="1"
         id="stop110" /></linearGradient><clipPath
       clipPathUnits="userSpaceOnUse"
       id="clipPath122"><path
         d="m 21426.6,8491.1 c -3313.7,2259.5 -6767.7,4151 -10306.1,5663.8 73.9,1386 75.6,2775.1 5.2,4161.2 3540.5,1536.8 6993.7,3461.9 10300.9,5764.3 788.3,-5164.2 788.3,-10425.1 0,-15589.3 z"
         id="path120" /></clipPath><linearGradient
       x1="0"
       y1="0"
       x2="1"
       y2="0"
       gradientUnits="userSpaceOnUse"
       gradientTransform="matrix(10897.4,0,0,-10897.4,11120.5,16285.8)"
       spreadMethod="pad"
       id="linearGradient128"><stop
         style="stop-opacity:1;stop-color:#ffffff"
         offset="0"
         id="stop124" /><stop
         style="stop-opacity:1;stop-color:#eaf8f3"
         offset="1"
         id="stop126" /></linearGradient><clipPath
       clipPathUnits="userSpaceOnUse"
       id="clipPath138"><path
         d="m 21426.6,24080.4 c -396.2,-275.8 -794.5,-546 -1194.7,-811 632.7,-4637.7 632,-9344.8 -2.1,-13982.4 400.9,-260 799.8,-525.3 1196.8,-795.9 788.3,5164.2 788.3,10425.1 0,15589.3 z"
         id="path136" /></clipPath><linearGradient
       x1="0"
       y1="0"
       x2="1"
       y2="0"
       gradientUnits="userSpaceOnUse"
       gradientTransform="matrix(0,-15133.6,-15133.6,0,21123.8,23629.2)"
       spreadMethod="pad"
       id="linearGradient144"><stop
         style="stop-opacity:1;stop-color:#f46878"
         offset="0"
         id="stop140" /><stop
         style="stop-opacity:1;stop-color:#ef2e3b"
         offset="1"
         id="stop142" /></linearGradient><clipPath
       clipPathUnits="userSpaceOnUse"
       id="clipPath156"><path
         d="M 11654.7,19041.1 H 6675.07 c -299.92,0 -543.06,-243.2 -543.06,-543.1 v -4424.5 c 0,-299.9 243.14,-543 543.06,-543 h 4979.63 c 299.9,0 543.1,243.1 543.1,543 V 18498 c 0,299.9 -243.2,543.1 -543.1,543.1 z"
         id="path154" /></clipPath><linearGradient
       x1="0"
       y1="0"
       x2="1"
       y2="0"
       gradientUnits="userSpaceOnUse"
       gradientTransform="matrix(0,-5461.55,-5461.55,0,9164.89,18972.2)"
       spreadMethod="pad"
       id="linearGradient162"><stop
         style="stop-opacity:1;stop-color:#f46878"
         offset="0"
         id="stop158" /><stop
         style="stop-opacity:1;stop-color:#ef2e3b"
         offset="1"
         id="stop160" /></linearGradient><clipPath
       clipPathUnits="userSpaceOnUse"
       id="clipPath178"><path
         d="m 23008.2,8321 -30.3,-471.1 c 0,0 530.2,31.2 702.5,240 241.6,292.9 556.4,1125.7 291.5,1252.2 -294.2,140.5 -310.9,-578.6 -529,-903 -93.5,-139 -434.7,-118.1 -434.7,-118.1 z"
         id="path176" /></clipPath><linearGradient
       x1="0"
       y1="0"
       x2="1"
       y2="0"
       gradientUnits="userSpaceOnUse"
       gradientTransform="matrix(694.181,-202.242,-202.242,-694.181,23045.4,8722.6)"
       spreadMethod="pad"
       id="linearGradient184"><stop
         style="stop-opacity:1;stop-color:#7bb5a8"
         offset="0"
         id="stop180" /><stop
         style="stop-opacity:1;stop-color:#26655d"
         offset="1"
         id="stop182" /></linearGradient><clipPath
       clipPathUnits="userSpaceOnUse"
       id="clipPath204"><path
         d="m 24219.7,7843.9 h -724.6 l -312.6,-2521.3 421.6,-61.4 z"
         id="path202" /></clipPath><linearGradient
       x1="0"
       y1="0"
       x2="1"
       y2="0"
       gradientUnits="userSpaceOnUse"
       gradientTransform="matrix(1020.05,-101.442,-101.442,-1020.05,22806.3,6662.5)"
       spreadMethod="pad"
       id="linearGradient210"><stop
         style="stop-opacity:1;stop-color:#f46878"
         offset="0"
         id="stop206" /><stop
         style="stop-opacity:1;stop-color:#ef2e3b"
         offset="1"
         id="stop208" /></linearGradient><clipPath
       clipPathUnits="userSpaceOnUse"
       id="clipPath220"><path
         d="m 24418.6,7843.9 h -696.2 c 0,0 127.5,-1611.5 231.4,-1801 124.5,-227.1 617.5,-754.2 617.5,-754.2 l 334.9,258.7 c 0,0 -352.7,499.3 -437.9,733.7 -85.3,234.4 -49.7,1562.8 -49.7,1562.8 z"
         id="path218" /></clipPath><linearGradient
       x1="0"
       y1="0"
       x2="1"
       y2="0"
       gradientUnits="userSpaceOnUse"
       gradientTransform="matrix(753.301,166.082,166.082,-753.301,23826.2,6495.6)"
       spreadMethod="pad"
       id="linearGradient226"><stop
         style="stop-opacity:1;stop-color:#f46878"
         offset="0"
         id="stop222" /><stop
         style="stop-opacity:1;stop-color:#ef2e3b"
         offset="1"
         id="stop224" /></linearGradient><clipPath
       clipPathUnits="userSpaceOnUse"
       id="clipPath238"><path
         d="m 24081.6,9462.5 c 0,0 517.4,-773.9 412.1,-1599.5 0,0 44.4,-162.1 -542.7,-140 -587.2,22.1 -620.8,103.2 -620.8,103.2 185.8,443 330.2,944.4 402,1548.1 0,0 219.5,-8 349.4,88.2 z"
         id="path236" /></clipPath><linearGradient
       x1="0"
       y1="0"
       x2="1"
       y2="0"
       gradientUnits="userSpaceOnUse"
       gradientTransform="matrix(1213.45,-21.8638,-21.8638,-1213.45,23316.3,8605.1)"
       spreadMethod="pad"
       id="linearGradient244"><stop
         style="stop-opacity:1;stop-color:#7bb5a8"
         offset="0"
         id="stop240" /><stop
         style="stop-opacity:1;stop-color:#26655d"
         offset="1"
         id="stop242" /></linearGradient><clipPath
       clipPathUnits="userSpaceOnUse"
       id="clipPath254"><path
         d="m 24137.3,7688.3 452.5,-56 c 0,0 -17.9,514.4 -85,809 -84.4,370.2 -241.7,921.8 -525.5,846.7 -370.9,-98.2 167.2,-841.3 206,-1045 31.4,-164.6 -48,-554.7 -48,-554.7 z"
         id="path252" /></clipPath><linearGradient
       x1="0"
       y1="0"
       x2="1"
       y2="0"
       gradientUnits="userSpaceOnUse"
       gradientTransform="matrix(557.529,92.9215,92.9215,-557.529,23942,8403.5)"
       spreadMethod="pad"
       id="linearGradient260"><stop
         style="stop-opacity:1;stop-color:#7bb5a8"
         offset="0"
         id="stop256" /><stop
         style="stop-opacity:1;stop-color:#26655d"
         offset="1"
         id="stop258" /></linearGradient><clipPath
       clipPathUnits="userSpaceOnUse"
       id="clipPath296"><path
         d="m 28035.9,6382 -1017.2,-197.5 -318,-3040.3 341.2,-46.8 z"
         id="path294" /></clipPath><linearGradient
       x1="0"
       y1="0"
       x2="1"
       y2="0"
       gradientUnits="userSpaceOnUse"
       gradientTransform="matrix(886.353,-4.52185,4.52185,886.353,26830.5,4743.3)"
       spreadMethod="pad"
       id="linearGradient302"><stop
         style="stop-opacity:1;stop-color:#7bb5a8"
         offset="0"
         id="stop298" /><stop
         style="stop-opacity:1;stop-color:#26655d"
         offset="1"
         id="stop300" /></linearGradient><clipPath
       clipPathUnits="userSpaceOnUse"
       id="clipPath312"><path
         d="m 28085.7,6179.2 -1026.3,143.4 c 0,0 157.4,-1903.4 464.4,-2146.2 170.8,-135 1119.9,-362.3 1119.9,-362.3 l 102.2,291.5 c 0,0 -714.5,289.2 -774.3,378.6 -65,97.3 114.1,1695 114.1,1695 z"
         id="path310" /></clipPath><linearGradient
       x1="0"
       y1="0"
       x2="1"
       y2="0"
       gradientUnits="userSpaceOnUse"
       gradientTransform="matrix(936.094,321.076,-321.076,936.094,27205.6,4846.8)"
       spreadMethod="pad"
       id="linearGradient318"><stop
         style="stop-opacity:1;stop-color:#7bb5a8"
         offset="0"
         id="stop314" /><stop
         style="stop-opacity:1;stop-color:#26655d"
         offset="1"
         id="stop316" /></linearGradient><clipPath
       clipPathUnits="userSpaceOnUse"
       id="clipPath330"><path
         d="m 27754.7,7504 c -98.9,-259 -565,-834.4 -925.2,-939 -213.9,-62 -677.5,263.3 -677.5,263.3 l 67.5,208.7 c 0,0 351.5,-233.5 540.4,-54.1 189,179.5 523.8,753.9 694.3,785.7 150.2,28 344.9,-148.2 300.5,-264.6 z"
         id="path328" /></clipPath><linearGradient
       x1="0"
       y1="0"
       x2="1"
       y2="0"
       gradientUnits="userSpaceOnUse"
       gradientTransform="matrix(737.117,-212.543,212.543,737.117,26512.8,7338.1)"
       spreadMethod="pad"
       id="linearGradient336"><stop
         style="stop-opacity:1;stop-color:#c4e0d8"
         offset="0"
         id="stop332" /><stop
         style="stop-opacity:1;stop-color:#a4a6a5"
         offset="1"
         id="stop334" /></linearGradient><clipPath
       clipPathUnits="userSpaceOnUse"
       id="clipPath346"><path
         d="m 27711.3,7932.3 c 0,0 550.1,-822.8 438.1,-1700.5 0,0 47.3,-172.4 -577,-148.9 -624.3,23.5 -660,109.7 -660,109.7 197.6,471 351.1,1004.1 427.4,1645.9 0,0 233.4,-8.5 371.5,93.8 z"
         id="path344" /></clipPath><linearGradient
       x1="0"
       y1="0"
       x2="1"
       y2="0"
       gradientUnits="userSpaceOnUse"
       gradientTransform="matrix(1165.9,170.027,170.027,-1165.9,27003.4,6895.4)"
       spreadMethod="pad"
       id="linearGradient354"><stop
         style="stop-opacity:1;stop-color:#fabcc2"
         offset="0"
         id="stop348" /><stop
         style="stop-opacity:1;stop-color:#fabcc2"
         offset="0.0533854"
         id="stop350" /><stop
         style="stop-opacity:1;stop-color:#f46878"
         offset="1"
         id="stop352" /></linearGradient><clipPath
       clipPathUnits="userSpaceOnUse"
       id="clipPath366"><path
         d="m 27803.6,7787.6 c 198.4,-193.7 312.6,-633.6 397,-999 84.5,-365.4 15.9,-920.2 15.9,-920.2 l -227.6,-10.1 c 0,0 -13,564.7 -102.5,809.4 -89.5,244.7 -483.6,780.2 -445,949.4 34,149 273.1,257.6 362.2,170.5 z"
         id="path364" /></clipPath><linearGradient
       x1="0"
       y1="0"
       x2="1"
       y2="0"
       gradientUnits="userSpaceOnUse"
       gradientTransform="matrix(429.61,144.711,-144.711,429.61,27791.8,6791.2)"
       spreadMethod="pad"
       id="linearGradient372"><stop
         style="stop-opacity:1;stop-color:#c4e0d8"
         offset="0"
         id="stop368" /><stop
         style="stop-opacity:1;stop-color:#a4a6a5"
         offset="1"
         id="stop370" /></linearGradient><clipPath
       clipPathUnits="userSpaceOnUse"
       id="clipPath408"><path
         d="m 19694.2,5951.9 h -779.5 l -204.4,-1110.6 c 0,0 574,-246.3 1203.4,-36 0,0 119.2,444.7 -219.5,1146.6 z"
         id="path406" /></clipPath><linearGradient
       x1="0"
       y1="0"
       x2="1"
       y2="0"
       gradientUnits="userSpaceOnUse"
       gradientTransform="matrix(991.503,-69.0596,69.0596,991.503,18806.9,5384.6)"
       spreadMethod="pad"
       id="linearGradient414"><stop
         style="stop-opacity:1;stop-color:#7bb5a8"
         offset="0"
         id="stop410" /><stop
         style="stop-opacity:1;stop-color:#26655d"
         offset="1"
         id="stop412" /></linearGradient><clipPath
       clipPathUnits="userSpaceOnUse"
       id="clipPath430"><path
         d="m 18464.8,5656.9 -347.2,361.5 c 0,0 488.5,367.5 634,598.1 145.4,230.7 403.9,1096.4 645.2,993.4 264.5,-113 -70.8,-853.1 -244.2,-1151.3 -173.3,-298.2 -687.8,-801.7 -687.8,-801.7 z"
         id="path428" /></clipPath><linearGradient
       x1="0"
       y1="0"
       x2="1"
       y2="0"
       gradientUnits="userSpaceOnUse"
       gradientTransform="matrix(653.172,-176.073,176.073,653.172,18349.2,6790.7)"
       spreadMethod="pad"
       id="linearGradient438"><stop
         style="stop-opacity:1;stop-color:#fabcc2"
         offset="0"
         id="stop432" /><stop
         style="stop-opacity:1;stop-color:#fabcc2"
         offset="0.0533854"
         id="stop434" /><stop
         style="stop-opacity:1;stop-color:#f46878"
         offset="1"
         id="stop436" /></linearGradient><clipPath
       clipPathUnits="userSpaceOnUse"
       id="clipPath448"><path
         d="m 19413.7,7696.3 c 0,0 474.7,-802.3 378,-1658.1 0,0 41.3,-142.8 -497.8,-145.2 -487.7,-2.2 -487.7,77.5 -487.7,77.5 170.5,459.3 221.3,1008.5 287.1,1634.4 0,0 201.3,-8.4 320.4,91.4 z"
         id="path446" /></clipPath><linearGradient
       x1="0"
       y1="0"
       x2="1"
       y2="0"
       gradientUnits="userSpaceOnUse"
       gradientTransform="matrix(694.14,-25.9007,-25.9007,-694.14,18797.2,6813.8)"
       spreadMethod="pad"
       id="linearGradient454"><stop
         style="stop-opacity:1;stop-color:#7bb5a8"
         offset="0"
         id="stop450" /><stop
         style="stop-opacity:1;stop-color:#26655d"
         offset="1"
         id="stop452" /></linearGradient><clipPath
       clipPathUnits="userSpaceOnUse"
       id="clipPath466"><path
         d="m 19181,7637.7 c 0,0 -21.8,-519.4 -114.4,-1050 -92.6,-530.6 -233.5,-880.1 -233.5,-880.1 0,0 1007.2,9.9 1097.5,193.9 104.7,213 -252.1,1525.3 -468,1809.2 z"
         id="path464" /></clipPath><linearGradient
       x1="0"
       y1="0"
       x2="1"
       y2="0"
       gradientUnits="userSpaceOnUse"
       gradientTransform="matrix(1116.32,0,0,-1116.32,18833.1,6709.2)"
       spreadMethod="pad"
       id="linearGradient472"><stop
         style="stop-opacity:1;stop-color:#f46878"
         offset="0"
         id="stop468" /><stop
         style="stop-opacity:1;stop-color:#ef2e3b"
         offset="1"
         id="stop470" /></linearGradient><clipPath
       clipPathUnits="userSpaceOnUse"
       id="clipPath488"><path
         d="m 20491,5855.4 -483.7,-131.6 c 0,0 -81.6,569 -214.3,807.2 -132.7,238.2 -768.8,879.9 -562.7,1042.3 225.8,178.1 714.8,-470.9 893.5,-765.9 178.6,-295.1 367.2,-952 367.2,-952 z"
         id="path486" /></clipPath><linearGradient
       x1="0"
       y1="0"
       x2="1"
       y2="0"
       gradientUnits="userSpaceOnUse"
       gradientTransform="matrix(522.538,278.309,-278.309,522.538,19614.6,6584.7)"
       spreadMethod="pad"
       id="linearGradient496"><stop
         style="stop-opacity:1;stop-color:#fabcc2"
         offset="0"
         id="stop490" /><stop
         style="stop-opacity:1;stop-color:#fabcc2"
         offset="0.0533854"
         id="stop492" /><stop
         style="stop-opacity:1;stop-color:#f46878"
         offset="1"
         id="stop494" /></linearGradient><clipPath
       clipPathUnits="userSpaceOnUse"
       id="clipPath522"><path
         d="m 15395.7,7372.6 h -804.8 l -347.1,-2800.5 468.2,-68.2 z"
         id="path520" /></clipPath><linearGradient
       x1="0"
       y1="0"
       x2="1"
       y2="0"
       gradientUnits="userSpaceOnUse"
       gradientTransform="matrix(870.404,65.1329,-65.1329,870.404,14319.5,5913.4)"
       spreadMethod="pad"
       id="linearGradient528"><stop
         style="stop-opacity:1;stop-color:#f46878"
         offset="0"
         id="stop524" /><stop
         style="stop-opacity:1;stop-color:#ef2e3b"
         offset="1"
         id="stop526" /></linearGradient><clipPath
       clipPathUnits="userSpaceOnUse"
       id="clipPath538"><path
         d="m 15554.1,7372.6 h -773.2 c 0,0 141.6,-1790 257,-2000.4 138.3,-252.2 685.9,-837.7 685.9,-837.7 l 371.9,287.3 c 0,0 -391.7,554.6 -486.3,815 -94.7,260.3 -55.3,1735.8 -55.3,1735.8 z"
         id="path536" /></clipPath><linearGradient
       x1="0"
       y1="0"
       x2="1"
       y2="0"
       gradientUnits="userSpaceOnUse"
       gradientTransform="matrix(911.85,248.686,-248.686,911.85,14862.5,5847.2)"
       spreadMethod="pad"
       id="linearGradient546"><stop
         style="stop-opacity:1;stop-color:#fabcc2"
         offset="0"
         id="stop540" /><stop
         style="stop-opacity:1;stop-color:#fabcc2"
         offset="0.0533854"
         id="stop542" /><stop
         style="stop-opacity:1;stop-color:#f46878"
         offset="1"
         id="stop544" /></linearGradient><clipPath
       clipPathUnits="userSpaceOnUse"
       id="clipPath558"><path
         d="m 15231.2,8708.9 c -100.5,-263.4 -574.3,-848.2 -940.5,-954.5 -217.4,-63.1 -688.7,267.6 -688.7,267.6 l 68.7,212.2 c 0,0 357.3,-237.4 549.3,-55 192.1,182.4 532.4,766.3 705.7,798.6 152.8,28.5 350.7,-150.6 305.5,-268.9 z"
         id="path556" /></clipPath><linearGradient
       x1="0"
       y1="0"
       x2="1"
       y2="0"
       gradientUnits="userSpaceOnUse"
       gradientTransform="matrix(1156.59,-189.475,189.475,1156.59,13764,8498.7)"
       spreadMethod="pad"
       id="linearGradient566"><stop
         style="stop-opacity:1;stop-color:#c4e0d8"
         offset="0"
         id="stop560" /><stop
         style="stop-opacity:1;stop-color:#7ecab8"
         offset="1"
         id="stop562" /><stop
         style="stop-opacity:1;stop-color:#7ecab8"
         offset="1"
         id="stop564" /></linearGradient><clipPath
       clipPathUnits="userSpaceOnUse"
       id="clipPath576"><path
         d="m 15237.7,9185.4 c 0,0 543.5,-862.2 445.4,-1786 -9.2,-87.1 -148.1,-160.4 -586.5,-156.4 -635,5.8 -670.9,115.3 -670.9,115.3 200.9,494.6 356.9,1054.5 434.5,1728.7 0,0 237.2,-9 377.5,98.4 z"
         id="path574" /></clipPath><linearGradient
       x1="0"
       y1="0"
       x2="1"
       y2="0"
       gradientUnits="userSpaceOnUse"
       gradientTransform="matrix(1259.22,205.265,-205.265,1259.22,14397,8070.3)"
       spreadMethod="pad"
       id="linearGradient582"><stop
         style="stop-opacity:1;stop-color:#7bb5a8"
         offset="0"
         id="stop578" /><stop
         style="stop-opacity:1;stop-color:#26655d"
         offset="1"
         id="stop580" /></linearGradient><clipPath
       clipPathUnits="userSpaceOnUse"
       id="clipPath602"><path
         d="m 15220.2,9059.7 c 243.4,-142.2 464.2,-548 637.3,-887.6 173.2,-339.7 242,-903.8 242,-903.8 l -222,-65.9 c 0,0 -151.7,553.8 -300.2,773.1 -148.5,219.3 -668.8,650.6 -672.4,826.9 -3.1,155.3 206,321.2 315.3,257.3 z"
         id="path600" /></clipPath><linearGradient
       x1="0"
       y1="0"
       x2="1"
       y2="0"
       gradientUnits="userSpaceOnUse"
       gradientTransform="matrix(501.322,327.636,-327.636,501.322,15392.2,8032.2)"
       spreadMethod="pad"
       id="linearGradient610"><stop
         style="stop-opacity:1;stop-color:#c4e0d8"
         offset="0"
         id="stop604" /><stop
         style="stop-opacity:1;stop-color:#7ecab8"
         offset="1"
         id="stop606" /><stop
         style="stop-opacity:1;stop-color:#7ecab8"
         offset="1"
         id="stop608" /></linearGradient><clipPath
       clipPathUnits="userSpaceOnUse"
       id="clipPath688"><path
         d="m 9073.99,19675.7 c 251.53,-405.5 1746.81,-265.2 1962.31,-562.9 287.5,-397.1 -893.6,-1932.1 -893.6,-1932.1 l -393.13,219.5 c 0,0 602.13,1085.7 577.83,1163.6 -30.7,99 -1671.77,-135.4 -2115.79,239.3 -344.83,291 -174.53,872.6 -174.53,872.6 z"
         id="path686" /></clipPath><linearGradient
       x1="0"
       y1="0"
       x2="1"
       y2="0"
       gradientUnits="userSpaceOnUse"
       gradientTransform="matrix(-483.802,-454.773,-454.773,483.802,10723.7,19964)"
       spreadMethod="pad"
       id="linearGradient694"><stop
         style="stop-opacity:1;stop-color:#7bb5a8"
         offset="0"
         id="stop690" /><stop
         style="stop-opacity:1;stop-color:#26655d"
         offset="1"
         id="stop692" /></linearGradient><clipPath
       clipPathUnits="userSpaceOnUse"
       id="clipPath704"><path
         d="m 8956.88,19675.7 c 219.44,-498.1 2003.12,-314.1 2256.02,-748.4 204.1,-350.3 -5.5,-2129 -5.5,-2129 l -471.9,12.9 c 0,0 2.6,1514.3 -89.8,1617 -67.9,75.6 -1961.57,-98.9 -2434.09,239.2 -404.58,289.4 -174.53,1008.3 -174.53,1008.3 z"
         id="path702" /></clipPath><linearGradient
       x1="0"
       y1="0"
       x2="1"
       y2="0"
       gradientUnits="userSpaceOnUse"
       gradientTransform="matrix(-1403.02,-1122.42,-1122.42,1403.02,10992,19332.8)"
       spreadMethod="pad"
       id="linearGradient712"><stop
         style="stop-opacity:1;stop-color:#c4e0d8"
         offset="0"
         id="stop706" /><stop
         style="stop-opacity:1;stop-color:#7ecab8"
         offset="1"
         id="stop708" /><stop
         style="stop-opacity:1;stop-color:#7ecab8"
         offset="1"
         id="stop710" /></linearGradient><clipPath
       clipPathUnits="userSpaceOnUse"
       id="clipPath724"><path
         d="m 8344.32,21476.1 c -26.49,-365.8 210.07,-1316.2 583.21,-1643.1 221.57,-194.1 959.3,-63.7 959.3,-63.7 l 35.93,287.9 c 0,0 -551.94,-83.1 -677.96,237.7 -126.02,320.7 -205.73,1196.5 -392.28,1330.1 -164.37,117.7 -496.29,15.5 -508.2,-148.9 z"
         id="path722" /></clipPath><linearGradient
       x1="0"
       y1="0"
       x2="1"
       y2="0"
       gradientUnits="userSpaceOnUse"
       gradientTransform="matrix(-677.321,-258.028,-258.028,677.321,9659.13,20883)"
       spreadMethod="pad"
       id="linearGradient732"><stop
         style="stop-opacity:1;stop-color:#fabcc2"
         offset="0"
         id="stop726" /><stop
         style="stop-opacity:1;stop-color:#fabcc2"
         offset="0.0533854"
         id="stop728" /><stop
         style="stop-opacity:1;stop-color:#f46878"
         offset="1"
         id="stop730" /></linearGradient><clipPath
       clipPathUnits="userSpaceOnUse"
       id="clipPath742"><path
         d="m 8452.17,21879.6 c 0,0 -762.76,-1064 -652.5,-2229.1 0,0 -69.92,-225.9 756.36,-221.7 826.28,4.2 877.22,116.6 877.22,116.6 -240.95,631.2 -420.91,1342.5 -494.07,2194.3 0,0 -308.91,-1.3 -487.01,139.9 z"
         id="path740" /></clipPath><linearGradient
       x1="0"
       y1="0"
       x2="1"
       y2="0"
       gradientUnits="userSpaceOnUse"
       gradientTransform="matrix(-1270.78,109.662,109.662,1270.78,9372.44,20571.7)"
       spreadMethod="pad"
       id="linearGradient748"><stop
         style="stop-opacity:1;stop-color:#f46878"
         offset="0"
         id="stop744" /><stop
         style="stop-opacity:1;stop-color:#ef2e3b"
         offset="1"
         id="stop746" /></linearGradient><clipPath
       clipPathUnits="userSpaceOnUse"
       id="clipPath760"><path
         d="m 8354.13,21637 c -273.48,-244.4 -450,-819.1 -582.83,-1297 -132.84,-477.9 -74.48,-1215.1 -74.48,-1215.1 l 300.05,-26.5 c 0,0 50.07,745.4 182.63,1063.5 132.56,318.2 684.46,1002.9 643.31,1228.5 -36.25,198.9 -345.82,356.4 -468.68,246.6 z"
         id="path758" /></clipPath><linearGradient
       x1="0"
       y1="0"
       x2="1"
       y2="0"
       gradientUnits="userSpaceOnUse"
       gradientTransform="matrix(-625.716,212.872,212.872,625.716,8384.26,20303.2)"
       spreadMethod="pad"
       id="linearGradient768"><stop
         style="stop-opacity:1;stop-color:#fabcc2"
         offset="0"
         id="stop762" /><stop
         style="stop-opacity:1;stop-color:#fabcc2"
         offset="0.0533854"
         id="stop764" /><stop
         style="stop-opacity:1;stop-color:#f46878"
         offset="1"
         id="stop766" /></linearGradient><clipPath
       clipPathUnits="userSpaceOnUse"
       id="clipPath788"><path
         d="m 11245.7,20831 v 0 c -33.2,10.4 -68.5,-7.9 -79,-41.1 l -246.5,-779.8 h -739.1 c -34.8,0 -63,-28.2 -63,-63 0,-34.8 28.2,-63 63,-63 h 786.2 c 31.8,0 58.1,23.7 62.3,54.3 l 257.2,813.5 c 10.4,33.2 -7.9,68.6 -41.1,79.1 z"
         id="path786" /></clipPath><linearGradient
       x1="0"
       y1="0"
       x2="1"
       y2="0"
       gradientUnits="userSpaceOnUse"
       gradientTransform="matrix(1171.56,0,0,-1171.56,10118.1,20359)"
       spreadMethod="pad"
       id="linearGradient794"><stop
         style="stop-opacity:1;stop-color:#7bb5a8"
         offset="0"
         id="stop790" /><stop
         style="stop-opacity:1;stop-color:#26655d"
         offset="1"
         id="stop792" /></linearGradient></defs><sodipodi:namedview
     pagecolor="#ffffff"
     bordercolor="#666666"
     borderopacity="1"
     objecttolerance="10"
     gridtolerance="10"
     guidetolerance="10"
     inkscape:pageopacity="0"
     inkscape:pageshadow="2"
     inkscape:window-width="640"
     inkscape:window-height="480"
     id="namedview4" /><g
     id="g10"
     inkscape:groupmode="layer"
     inkscape:label="ink_ext_XXXXXX"
     transform="matrix(1.3333333,0,0,-1.3333333,0,4014.2)"><g
       id="g12"
       transform="scale(0.1)"><g
         id="g14"><g
           id="g16"
           clip-path="url(#clipPath20)"><path
             d="m 12671.2,0 v 0 0 m 0,0 C 10561.4,1541.6 9072.56,3647.5 8034.89,5681.5 6810.61,6204.5 5753.63,6683.2 4987.26,7132.2 2245.12,8738.9 -2014.65,23293 3948.5,26807.7 c 1660.86,978.9 6196.9,1510.2 11133.8,1510.2 6724.9,0 14193.5,-986 16151.2,-3169.6 C 34628.6,21361.5 33061.6,2297 26663.3,1513.6 26126.8,1447.9 25556.5,1417 24959.1,1417.1 21157.7,1417.1 16267.4,2665 12113.4,4109.5 11780.3,2362 12671.2,0 12671.2,0"
             style="fill:url(#linearGradient26);fill-opacity:1;fill-rule:nonzero;stroke:none"
             id="path28" /></g></g><path
         d="m 28007.7,9335.4 v 18566 l -699.5,1073.8 h -295.7 v 249.3 h -357.2 v 882 h -140.4 v -882 h -357.2 v -249.3 H 25862 l -699.6,-1073.8 v -5202.2 h -988.8 v 3010.4 h 108.5 v 287.6 h -200.7 l -418.2,1303.9 h -1518.3 l -418.1,-1303.9 h -200.7 v -287.6 h 108.4 v -1534 h -835.7 v -326 H 20314 v -2483.1 h -365.9 v 182.2 h -1493.5 v -182.2 h -514.3 v 4065.1 h -185 V 25863 H 15912 v -431.4 h -185 v -2607.8 h -1301.4 v 5752.4 h -404.1 v 421.9 h -370 v 230 h -1207.9 v -230 h -370 v -421.9 h -327.5 v -2473.5 h -567.7 l 293.4,623.1 H 8779.63 l 216.9,-623.1 h -593.3 V 9335.4 H 28007.7"
         style="fill:#328a7c;fill-opacity:1;fill-rule:nonzero;stroke:none"
         id="path30" /><g
         id="g32"><g
           id="g34"
           clip-path="url(#clipPath38)"><path
             d="m 28113.1,22014.1 v 149.4 h -1769.4 v -149.4 h -445.1 v 2673.3 h -400.7 v 538.9 h -452.8 v 293.9 h -1477.9 v -293.9 h -452.7 v -538.9 h -494.4 v -4223.1 h -2260.3 v 3079.5 h -226.4 v 551.2 h -1758.1 v -551.2 H 18149 v -3269.5 h -439.9 V 20507 H 16450 v -232.7 h -1200.7 v 1060.2 H 14656 v 416.4 h -269.5 v 1959.7 h 132.7 v 367.5 h -245.6 l -511.6,1665.7 h -848.1 v 1938.1 h -192.4 v -1938.1 h -817.3 l -511.7,-1665.7 H 11147 v -367.5 h 132.7 v -3845.9 h -1210 v 2547.6 l -855.88,1371.8 H 8852 v 318.5 H 7806 v -318.5 H 7444.18 L 6588.26,22412.3 V 8834.9 H 28703 v 13179.2 h -589.9"
             style="fill:url(#linearGradient46);fill-opacity:1;fill-rule:nonzero;stroke:none"
             id="path48" /></g></g><g
         id="g50"><g
           id="g52"
           clip-path="url(#clipPath56)"><path
             d="M 72.1602,16403.5 C -776.961,13019.3 6148.78,11145.5 6118.08,10479 6087.39,9812.5 2527.73,10380 3187.35,8549.2 3798.65,6852.9 9350.56,6006.3 13488.4,7773.9 c 119.8,51.1 3178.2,4976.6 1159.8,7989.4 -2018.4,3012.7 -2823.7,-2024.1 -3802.4,-1860.2 -978.72,164 1383.4,6301.7 -577.5,7697.8 -2031.94,1446.5 -2824.58,-2988.2 -3775.45,-2271.5 -900.75,678.9 -1170.76,7026 -3742.71,6291.8 -93.18,-26.5 -189.33,-62.4 -288.76,-108.3 l -1.13,-0.4 -0.03,-0.1 c -52.61,-24.2 -106.12,-51.3 -160.57,-81.2 -2994.302,-1647.1 2377.37,-8504.9 1093.92,-8718 C 2110.21,16499.8 502.492,18118.4 72.1602,16403.5"
             style="fill:url(#linearGradient62);fill-opacity:1;fill-rule:nonzero;stroke:none"
             id="path64" /></g></g><g
         id="g66"><g
           id="g68"
           clip-path="url(#clipPath72)"><path
             d="m 9208.06,6902.6 c 0,0 -1874.97,5707.4 -3877.27,8924.8 -2002.3,3217.4 -3894.85,4159.1 -3894.85,4159.1 0,0 990.55,-1433.1 1720.37,-3386.4 729.83,-1953.3 1072.22,-4051.9 2099.18,-5933.8 C 6809.07,7819.4 9208.06,6902.6 9208.06,6902.6"
             style="fill:url(#linearGradient78);fill-opacity:1;fill-rule:nonzero;stroke:none"
             id="path80" /></g></g><g
         id="g82"><g
           id="g84"
           clip-path="url(#clipPath88)"><path
             d="m 8532.63,6902.7 c 0,0 -1625.21,3244.5 -3106.25,4989.9 -1481.03,1745.4 -2695.17,2140.6 -2695.17,2140.6 0,0 718.64,-768.6 1327.52,-1871.3 C 4667.6,11059.3 5057.83,9835.6 5837.94,8802 7018.06,7238.4 8532.63,6902.7 8532.63,6902.7"
             style="fill:url(#linearGradient94);fill-opacity:1;fill-rule:nonzero;stroke:none"
             id="path96" /></g></g><path
         d="m 23619.4,16285.8 c 0,-1259.5 -1021,-2280.5 -2280.4,-2280.5 -1259.5,0 -2280.4,1021 -2280.4,2280.5 0,1259.4 1020.9,2280.4 2280.4,2280.4 1259.4,0 2280.4,-1021 2280.4,-2280.4"
         style="fill:#ffffff;fill-opacity:1;fill-rule:nonzero;stroke:none"
         id="path98" /><g
         id="g100"><g
           id="g102"
           clip-path="url(#clipPath106)"><path
             d="m 10960.5,6569.2 c -1144.72,0 -2289.43,0 -3434.14,0 -289.11,2552.5 -255.77,5135.4 100.03,7687.9 885.89,0 1771.79,0 2657.71,0 -108.9,-2552.5 116.6,-5135.4 676.4,-7687.9"
             style="fill:url(#linearGradient112);fill-opacity:1;fill-rule:nonzero;stroke:none"
             id="path114" /></g></g><g
         id="g116"><g
           id="g118"
           clip-path="url(#clipPath122)"><path
             d="m 21426.6,8491.1 c -3313.7,2259.5 -6767.7,4151 -10306.1,5663.8 73.9,1386 75.6,2775.1 5.2,4161.2 3540.5,1536.8 6993.7,3461.9 10300.9,5764.3 788.3,-5164.2 788.3,-10425.1 0,-15589.3"
             style="fill:url(#linearGradient128);fill-opacity:1;fill-rule:nonzero;stroke:none"
             id="path130" /></g></g><g
         id="g132"><g
           id="g134"
           clip-path="url(#clipPath138)"><path
             d="m 21426.6,24080.4 c -396.2,-275.8 -794.5,-546 -1194.7,-811 632.7,-4637.7 632,-9344.8 -2.1,-13982.4 400.9,-260 799.8,-525.3 1196.8,-795.9 788.3,5164.2 788.3,10425.1 0,15589.3"
             style="fill:url(#linearGradient144);fill-opacity:1;fill-rule:nonzero;stroke:none"
             id="path146" /></g></g><path
         d="m 6528.09,18014.9 h -684.71 c -440.54,0 -797.66,-357.2 -797.66,-797.7 v -1862.9 c 0,-440.5 357.12,-797.6 797.66,-797.6 h 684.71 c 440.53,0 797.65,357.1 797.65,797.6 v 1862.9 c 0,440.5 -357.12,797.7 -797.65,797.7"
         style="fill:#ffffff;fill-opacity:1;fill-rule:nonzero;stroke:none"
         id="path148" /><g
         id="g150"><g
           id="g152"
           clip-path="url(#clipPath156)"><path
             d="M 11654.7,19041.1 H 6675.07 c -299.92,0 -543.06,-243.2 -543.06,-543.1 v -4424.5 c 0,-299.9 243.14,-543 543.06,-543 h 4979.63 c 299.9,0 543.1,243.1 543.1,543 V 18498 c 0,299.9 -243.2,543.1 -543.1,543.1"
             style="fill:url(#linearGradient162);fill-opacity:1;fill-rule:nonzero;stroke:none"
             id="path164" /></g></g><path
         d="m 23779.6,9276.3 -365.9,-1113.9 107.2,68 -846,59.1 -76.8,5.3 -14.9,-148.5 76.4,-10 840.7,-110.5 c 46.4,-6.1 89.4,21 105.3,62.9 l 1.9,5.2 415.8,1096.2 45.8,120.9 -249.1,88.1 -40.4,-122.8"
         style="fill:#eaab7a;fill-opacity:1;fill-rule:nonzero;stroke:none"
         id="path166" /><path
         d="m 22139.8,8255.8 c -2,-52.9 106,-123.2 261.7,-144.9 143.6,-20.1 245.2,30.4 251.6,83.5 14.4,118.6 -510.2,143.2 -513.3,61.4"
         style="fill:#eaab7a;fill-opacity:1;fill-rule:nonzero;stroke:none"
         id="path168" /><path
         d="m 22372.3,8346.8 c 9.7,21.1 73.4,24.3 149.1,-2.3 69.8,-24.6 106.2,-67.2 98.4,-89.4 -17.4,-49.6 -262.6,59 -247.5,91.7"
         style="fill:#eaab7a;fill-opacity:1;fill-rule:nonzero;stroke:none"
         id="path170" /><g
         id="g172"><g
           id="g174"
           clip-path="url(#clipPath178)"><path
             d="m 23008.2,8321 -30.3,-471.1 c 0,0 530.2,31.2 702.5,240 241.6,292.9 556.4,1125.7 291.5,1252.2 -294.2,140.5 -310.9,-578.6 -529,-903 -93.5,-139 -434.7,-118.1 -434.7,-118.1"
             style="fill:url(#linearGradient184);fill-opacity:1;fill-rule:nonzero;stroke:none"
             id="path186" /></g></g><path
         d="m 23669.2,10401.1 c 231.4,165.8 510,52.8 547,-186.7 48,-310.7 -12.7,-561 64.5,-767.1 119.7,-319.6 86.6,-633.5 86.6,-633.5 -315.7,430.3 -642,252.2 -822.2,684.5 -57.8,138.9 -97.5,743.9 124.1,902.8"
         style="fill:#282a2b;fill-opacity:1;fill-rule:nonzero;stroke:none"
         id="path188" /><path
         d="m 23761.3,9354.2 h 276.2 v 528.4 h -168.8 l -107.4,-528.4"
         style="fill:#eaab7a;fill-opacity:1;fill-rule:nonzero;stroke:none"
         id="path190" /><path
         d="m 23557.3,10150.1 c -46.7,-216.9 -12.2,-435.6 118.8,-483 122.8,-44.5 336,73.2 433.5,287.6 102.7,225.8 52.5,394.5 -129.3,457.3 -193.2,66.8 -371.8,-24.1 -423,-261.9"
         style="fill:#eeba96;fill-opacity:1;fill-rule:nonzero;stroke:none"
         id="path192" /><path
         d="m 23191,4867.6 185.6,1344.8 195.9,1343.1 35.4,243.1 511.6,-110.4 -67.9,-236 -375.2,-1303.5 -368.7,-1305.5 -16.3,-57.5 -108.6,22.7 8.2,59.2"
         style="fill:#eaab7a;fill-opacity:1;fill-rule:nonzero;stroke:none"
         id="path194" /><path
         d="m 24313.6,7798.6 8.6,-245.4 49.6,-1427.3 623.5,-929.5 33.3,-49.7 -86.3,-68.2 -40.6,44 -796.6,862.4 c -14.4,15.5 -24.5,35.2 -28.2,57.6 l -3.5,20.7 -239,1441.3 -40.1,242.3 519.3,51.8"
         style="fill:#eaab7a;fill-opacity:1;fill-rule:nonzero;stroke:none"
         id="path196" /><g
         id="g198"><g
           id="g200"
           clip-path="url(#clipPath204)"><path
             d="m 24219.7,7843.9 h -724.6 l -312.6,-2521.3 421.6,-61.4 615.6,2582.7"
             style="fill:url(#linearGradient210);fill-opacity:1;fill-rule:nonzero;stroke:none"
             id="path212" /></g></g><g
         id="g214"><g
           id="g216"
           clip-path="url(#clipPath220)"><path
             d="m 24418.6,7843.9 h -696.2 c 0,0 127.5,-1611.5 231.4,-1801 124.5,-227.1 617.5,-754.2 617.5,-754.2 l 334.9,258.7 c 0,0 -352.7,499.3 -437.9,733.7 -85.3,234.4 -49.7,1562.8 -49.7,1562.8"
             style="fill:url(#linearGradient226);fill-opacity:1;fill-rule:nonzero;stroke:none"
             id="path228" /></g></g><path
         d="m 23937,9041 c 69.4,-129.7 136.4,-264.8 197.6,-399.6 30.5,-67.5 59.7,-135.5 86.2,-203.7 26.3,-68 50.3,-136.7 66.8,-203 4.1,-16.6 7.4,-32.3 10.3,-48.5 l 8.2,-53.4 c 4.8,-36.2 9.3,-72.6 13,-109.5 7.6,-73.7 13.4,-148.2 18.4,-223 9.6,-149.5 16.1,-300.4 19.8,-450.2 l 1.7,-72.5 140.8,-1.2 2.4,72.5 c 4.9,152.9 7,304.6 6,457.7 -0.8,76.5 -2.4,153.1 -5.9,230.3 -1.7,38.6 -4.2,77.6 -7.2,116.6 l -5.7,59.3 c -2.5,21.3 -5.9,42.8 -9.8,63.2 -16,81.6 -38.5,157.2 -62.9,231.8 -24.5,74.3 -51.4,147 -79.5,219 -56.7,144 -117.2,283.6 -183.4,424.6 l -51.8,110.1 -222.4,-113.3 57.4,-107.2"
         style="fill:#eeba96;fill-opacity:1;fill-rule:nonzero;stroke:none"
         id="path230" /><g
         id="g232"><g
           id="g234"
           clip-path="url(#clipPath238)"><path
             d="m 24081.6,9462.5 c 0,0 517.4,-773.9 412.1,-1599.5 0,0 44.4,-162.1 -542.7,-140 -587.2,22.1 -620.8,103.2 -620.8,103.2 185.8,443 330.2,944.4 402,1548.1 0,0 219.5,-8 349.4,88.2"
             style="fill:url(#linearGradient244);fill-opacity:1;fill-rule:nonzero;stroke:none"
             id="path246" /></g></g><g
         id="g248"><g
           id="g250"
           clip-path="url(#clipPath254)"><path
             d="m 24137.3,7688.3 452.5,-56 c 0,0 -17.9,514.4 -85,809 -84.4,370.2 -241.7,921.8 -525.5,846.7 -370.9,-98.2 167.2,-841.3 206,-1045 31.4,-164.6 -48,-554.7 -48,-554.7"
             style="fill:url(#linearGradient260);fill-opacity:1;fill-rule:nonzero;stroke:none"
             id="path262" /></g></g><path
         d="m 24510.2,6866.2 c 48.3,12.2 83.2,128.4 61.5,274.8 -20,135 -92.5,213.4 -142.2,205.1 -110.9,-18.6 6,-498.8 80.7,-479.9"
         style="fill:#eeba96;fill-opacity:1;fill-rule:nonzero;stroke:none"
         id="path264" /><path
         d="m 24366.4,7052 c -21.7,3.2 -41.5,59.9 -37.5,135.3 3.6,69.5 32.5,113.7 54.6,112.5 49.4,-2.5 16.4,-252.8 -17.1,-247.8"
         style="fill:#eeba96;fill-opacity:1;fill-rule:nonzero;stroke:none"
         id="path266" /><path
         d="m 22766.6,4737.7 85.5,15.2 v 0 l 312.4,120.9 v -2.5 c 0,0 3.8,-53.5 68.7,-63.6 47.8,-7.5 78.8,5.3 91.9,12.5 3.1,2.9 5.6,4.5 7,4.5 20.9,0 37.8,-34.1 37.8,-76.2 0,-13.9 -1.8,-26.8 -5,-38 v -58.4 h -622.4 v 59.2 c 0,13.7 10.4,25.2 24.1,26.4"
         style="fill:#282a2b;fill-opacity:1;fill-rule:nonzero;stroke:none"
         id="path268" /><path
         d="m 24676.3,4745.5 52.9,68.8 0.1,-0.1 149.6,299.8 1.7,-1.8 c 0,0 38.8,-37.1 93.6,-0.8 40.3,26.7 54.7,57 59.5,71.1 0.3,4.2 1.1,7.1 2.2,8 15.4,14.1 50.9,0.2 79.2,-30.9 9.3,-10.2 16.7,-21 21.8,-31.4 l 39.4,-43.3 -460.3,-419 -39.8,43.8 c -9.3,10.1 -9.2,25.7 0.1,35.8"
         style="fill:#282a2b;fill-opacity:1;fill-rule:nonzero;stroke:none"
         id="path270" /><path
         d="m 23917.4,10471.1 c 62.9,0 105.9,-5.6 159.4,-33.3 86,-44.6 199.4,-151 222,-392.3 21,-224.9 -69.1,-335 123.1,-547.2 216.1,-164.1 601.4,-136.1 556.9,-504.4 -44.5,-368.3 -532.9,-320.3 -649,-136.1 -116.1,184.1 -103,348.3 -167.6,464.4 -64.6,116.1 -176.7,48 -232.7,176.1 -65.8,120.5 48.3,390.8 68.9,437.4 -13.8,45.3 -31.5,95 -105,115.1 -157.6,43 -288.2,192.1 -288.2,240.2 0,48 144.1,180.1 312.2,180.1"
         style="fill:#282a2b;fill-opacity:1;fill-rule:nonzero;stroke:none"
         id="path272" /><path
         d="m 23922.7,10015.3 c -16.3,-36.3 -4.9,-76.8 25.3,-90.3 30.3,-13.6 68,4.8 84.3,41.2 16.3,36.3 4.9,76.7 -25.3,90.3 -30.3,13.5 -68,-4.9 -84.3,-41.2"
         style="fill:#eeba96;fill-opacity:1;fill-rule:nonzero;stroke:none"
         id="path274" /><path
         d="m 27375.3,7762.8 h 301.8 v 577.4 h -184.4 l -117.4,-577.4"
         style="fill:#eaab7a;fill-opacity:1;fill-rule:nonzero;stroke:none"
         id="path276" /><path
         d="m 27152.4,8632.5 c -51,-237 -13.3,-476 129.8,-527.8 134.2,-48.6 367.1,80 473.7,314.3 112.2,246.7 57.4,431 -141.4,499.7 -211.1,72.9 -406.2,-26.4 -462.1,-286.2"
         style="fill:#eeba96;fill-opacity:1;fill-rule:nonzero;stroke:none"
         id="path278" /><path
         d="m 27573.4,9002.5 c 219.5,-17.2 340.9,-216.1 326.8,-412.9 -13.1,-183.7 -209.6,-281.9 -209.6,-281.9 0,0 -64.7,186.5 -171,216.3 -148.1,41.4 -84.1,173.8 -153.3,188.1 -72.1,14.9 -229,72.2 -226.4,177.2 101.6,-3.6 187,132.5 433.5,113.2"
         style="fill:#282a2b;fill-opacity:1;fill-rule:nonzero;stroke:none"
         id="path280" /><path
         d="m 27551.6,8485.2 c -17.8,-39.7 -5.4,-83.9 27.7,-98.7 33.1,-14.8 74.3,5.3 92.1,45 17.8,39.7 5.4,83.9 -27.7,98.7 -33.1,14.8 -74.3,-5.3 -92.1,-45"
         style="fill:#eeba96;fill-opacity:1;fill-rule:nonzero;stroke:none"
         id="path282" /><path
         d="m 27573.4,8527.6 c 0,0 -16.5,-256.2 -65.4,-353.5 -42.7,-84.8 -228.6,-172.3 -329.9,28.8 0,0 102.5,-21.4 90.9,22 -13.7,51.1 -119.2,51.7 -119.2,51.7 0,0 -20.6,1 -24.3,20 -5.5,28.1 8.2,73.8 8.2,73.8 0,0 139.7,-49.8 199.8,-49.8 68.2,0 130.2,48.1 187.9,207 h 52"
         style="fill:#282a2b;fill-opacity:1;fill-rule:nonzero;stroke:none"
         id="path284" /><path
         d="m 26691.8,2879.7 277.4,1551.9 188.5,764.7 189.7,766.2 64.5,260.5 544.2,-173.6 -98.4,-249.7 -286.7,-727.4 c -95.4,-242.8 -192.2,-485.5 -286.5,-729.3 l -466.1,-1494.2 -19.4,-62.3 -118.7,28.9 11.5,64.3"
         style="fill:#eaab7a;fill-opacity:1;fill-rule:nonzero;stroke:none"
         id="path286" /><path
         d="m 27694.4,6216.6 21.6,-267.5 122.8,-1515.3 1145.9,-537 59.1,-27.7 -43.2,-112.9 -62.6,18.9 -1313.9,397.1 c -48.5,14.8 -87.9,54.8 -99.2,107.9 l -4.6,21.9 -334.2,1569.6 -55.9,262.5 564.2,82.5"
         style="fill:#eaab7a;fill-opacity:1;fill-rule:nonzero;stroke:none"
         id="path288" /><g
         id="g290"><g
           id="g292"
           clip-path="url(#clipPath296)"><path
             d="m 28035.9,6382 -1017.2,-197.5 -318,-3040.3 341.2,-46.8 994,3284.6"
             style="fill:url(#linearGradient302);fill-opacity:1;fill-rule:nonzero;stroke:none"
             id="path304" /></g></g><g
         id="g306"><g
           id="g308"
           clip-path="url(#clipPath312)"><path
             d="m 28085.7,6179.2 -1026.3,143.4 c 0,0 157.4,-1903.4 464.4,-2146.2 170.8,-135 1119.9,-362.3 1119.9,-362.3 l 102.2,291.5 c 0,0 -714.5,289.2 -774.3,378.6 -65,97.3 114.1,1695 114.1,1695"
             style="fill:url(#linearGradient318);fill-opacity:1;fill-rule:nonzero;stroke:none"
             id="path320" /></g></g><path
         d="m 27404.2,7697.4 -672.7,-961.3 122.4,34.2 -793.3,301.1 -72.1,27.4 -57.2,-138 70.2,-31.6 773.6,-348.9 c 42.6,-19.3 91.7,-5.8 119,29.7 l 3.3,4.4 715.3,930 78.8,102.5 -213.2,156.5 -74.1,-106"
         style="fill:#eaab7a;fill-opacity:1;fill-rule:nonzero;stroke:none"
         id="path322" /><g
         id="g324"><g
           id="g326"
           clip-path="url(#clipPath330)"><path
             d="m 27754.7,7504 c -98.9,-259 -565,-834.4 -925.2,-939 -213.9,-62 -677.5,263.3 -677.5,263.3 l 67.5,208.7 c 0,0 351.5,-233.5 540.4,-54.1 189,179.5 523.8,753.9 694.3,785.7 150.2,28 344.9,-148.2 300.5,-264.6"
             style="fill:url(#linearGradient336);fill-opacity:1;fill-rule:nonzero;stroke:none"
             id="path338" /></g></g><g
         id="g340"><g
           id="g342"
           clip-path="url(#clipPath346)"><path
             d="m 27711.3,7932.3 c 0,0 550.1,-822.8 438.1,-1700.5 0,0 47.3,-172.4 -577,-148.9 -624.3,23.5 -660,109.7 -660,109.7 197.6,471 351.1,1004.1 427.4,1645.9 0,0 233.4,-8.5 371.5,93.8"
             style="fill:url(#linearGradient354);fill-opacity:1;fill-rule:nonzero;stroke:none"
             id="path356" /></g></g><path
         d="m 27532.1,7524.5 c 78.3,-135.3 154.3,-276.5 224.1,-417.5 34.8,-70.7 68.2,-141.9 98.7,-213.4 30.4,-71.3 58.3,-143.5 78.2,-213.3 4.9,-17.6 9,-34.2 12.6,-51.3 l 10.6,-56.4 c 6.4,-38.3 12.5,-76.8 17.7,-115.9 10.6,-78.1 19.5,-157 27.5,-236.3 15.4,-158.5 27.6,-318.7 36.8,-477.7 l 4.5,-77 149.6,3.8 -0.1,77 c -0.1,162.7 -3.2,324 -9.7,486.6 -3.5,81.2 -8,162.6 -14.4,244.5 -3.1,41 -7.2,82.3 -11.7,123.7 l -8.2,62.8 c -3.5,22.5 -7.8,45.2 -12.6,66.7 -19.9,86.2 -46.5,165.8 -75,244.1 -28.7,78.2 -59.9,154.4 -92.3,229.9 -65.3,151.1 -134.5,297.3 -209.9,444.7 l -58.9,115.2 -232.3,-128.2 64.8,-112"
         style="fill:#eeba96;fill-opacity:1;fill-rule:nonzero;stroke:none"
         id="path358" /><g
         id="g360"><g
           id="g362"
           clip-path="url(#clipPath366)"><path
             d="m 27803.6,7787.6 c 198.4,-193.7 312.6,-633.6 397,-999 84.5,-365.4 15.9,-920.2 15.9,-920.2 l -227.6,-10.1 c 0,0 -13,564.7 -102.5,809.4 -89.5,244.7 -483.6,780.2 -445,949.4 34,149 273.1,257.6 362.2,170.5"
             style="fill:url(#linearGradient372);fill-opacity:1;fill-rule:nonzero;stroke:none"
             id="path374" /></g></g><path
         d="m 25643.3,7154.6 c -17.5,-50 42.7,-140.1 153.7,-193.9 102.4,-49.7 194.3,-23.3 215.2,26 46.7,110 -341.8,245.2 -368.9,167.9"
         style="fill:#eaab7a;fill-opacity:1;fill-rule:nonzero;stroke:none"
         id="path376" /><path
         d="m 28119.7,5216.6 c 52.8,4.1 110.2,119.6 113.8,276.9 3.3,145 -58.5,240.2 -112.1,240.4 -119.6,0.6 -83.4,-523.6 -1.7,-517.3"
         style="fill:#eeba96;fill-opacity:1;fill-rule:nonzero;stroke:none"
         id="path378" /><path
         d="m 28002.3,5437.2 c -22.1,7.2 -32.6,70.2 -14.9,148.5 16.4,72.2 54.5,113.3 77.5,108.1 51.3,-11.6 -28.3,-267.9 -62.6,-256.6"
         style="fill:#eeba96;fill-opacity:1;fill-rule:nonzero;stroke:none"
         id="path380" /><path
         d="m 26237.3,2709.4 c 0,0 78.5,20.8 100.2,28.6 86.8,31.2 311.4,123.2 311.4,123.2 0,0 27.7,-44.6 97,-53.3 51.1,-6.3 88.7,12.1 90.2,12.1 22.2,0.7 41.3,-35.1 42.7,-79.8 0.4,-14.7 -1.1,-28.6 -4.2,-40.5 l 1.9,-62.2 -662.1,-19.9 -1.9,63 c -0.5,14.6 10.3,27.1 24.8,28.8"
         style="fill:#282a2b;fill-opacity:1;fill-rule:nonzero;stroke:none"
         id="path382" /><path
         d="m 28958.8,3293.8 c 0,0 3.1,81.1 1.9,104.2 -4.5,92 -27.1,333.7 -27.1,333.7 0,0 50.8,13.5 79.3,77.3 21,47 14.3,88.4 14.7,89.8 5.8,21.5 45.6,29.3 88.8,17.5 14.2,-3.8 27,-9.4 37.6,-15.7 l 60,-16.4 -174,-639.2 -60.8,16.6 c -14.1,3.8 -22.9,17.8 -20.4,32.2"
         style="fill:#282a2b;fill-opacity:1;fill-rule:nonzero;stroke:none"
         id="path384" /><path
         d="m 25787.2,7213.9 c 15.5,17.4 77.4,2 142.2,-45.4 59.8,-43.7 82.3,-95 68.4,-114 -31,-42.5 -234.5,132.4 -210.6,159.4"
         style="fill:#eaab7a;fill-opacity:1;fill-rule:nonzero;stroke:none"
         id="path386" /><path
         d="m 18871.1,7740.3 523.7,31.2 c 150.6,303.8 202.5,536.2 165.9,774.2 -39.2,255.1 -357.9,354.9 -593.5,163.9 -225.8,-183 -181.1,-833.3 -96.1,-969.3"
         style="fill:#282a2b;fill-opacity:1;fill-rule:nonzero;stroke:none"
         id="path388" /><path
         d="m 19131.3,7602 293.8,17.5 -33.4,562 -179.6,-10.7 -80.8,-568.8"
         style="fill:#eaab7a;fill-opacity:1;fill-rule:nonzero;stroke:none"
         id="path390" /><path
         d="m 18864,8435.6 c -35.9,-233.6 14.6,-464.1 156.9,-506.3 133.4,-39.5 352.7,99.2 442.9,333.4 94.9,246.6 30.9,422.9 -166.5,478.2 -209.7,58.8 -393.9,-49.2 -433.3,-305.3"
         style="fill:#eeba96;fill-opacity:1;fill-rule:nonzero;stroke:none"
         id="path392" /><path
         d="m 19226.7,8799.8 c 66.8,4 112.9,0.7 171.6,-25.4 94.3,-41.9 221.7,-148 260.9,-403.1 36.6,-238 -52.3,-360.7 165.5,-574.3 l -523.7,-31.1 c -77.5,124 26.8,418.7 45.7,469.5 -17.5,47.4 -39.5,99.1 -118.9,115.8 -170.4,35.7 -318.8,186.1 -321.8,237.2 -3,51.1 141.9,200.8 320.7,211.4"
         style="fill:#282a2b;fill-opacity:1;fill-rule:nonzero;stroke:none"
         id="path394" /><path
         d="m 19261.1,8315.3 c -15,-39.6 -0.4,-81.9 32.7,-94.4 33,-12.6 72,9.4 87,49.1 15,39.7 0.4,81.9 -32.6,94.5 -33.1,12.5 -72,-9.5 -87.1,-49.2"
         style="fill:#eeba96;fill-opacity:1;fill-rule:nonzero;stroke:none"
         id="path396" /><path
         d="m 18505.6,2811.9 197.8,1432.7 208.6,1431.1 37.8,258.9 545.1,-117.6 -72.4,-251.5 -399.7,-1388.8 -392.9,-1390.8 -17.3,-61.3 -115.7,24.2 8.7,63.1"
         style="fill:#eeba96;fill-opacity:1;fill-rule:nonzero;stroke:none"
         id="path398" /><path
         d="m 19701.7,5934.7 9.1,-261.5 52.8,-1520.7 664.4,-990.4 35.5,-52.9 -92,-72.7 -43.3,46.9 -848.7,918.8 c -15.3,16.6 -26.1,37.5 -30.1,61.4 l -3.6,22 -254.6,1535.7 -42.8,258.1 553.3,55.3"
         style="fill:#eeba96;fill-opacity:1;fill-rule:nonzero;stroke:none"
         id="path400" /><g
         id="g402"><g
           id="g404"
           clip-path="url(#clipPath408)"><path
             d="m 19694.2,5951.9 h -779.5 l -204.4,-1110.6 c 0,0 574,-246.3 1203.4,-36 0,0 119.2,444.7 -219.5,1146.6"
             style="fill:url(#linearGradient414);fill-opacity:1;fill-rule:nonzero;stroke:none"
             id="path416" /></g></g><path
         d="m 20088,2710.8 50.2,77.7 v -0.1 l 132.3,331.6 1.9,-1.8 c 0,0 44.6,-35.9 99.5,7.4 40.5,32 53,65.4 56.8,80.8 0.1,4.5 0.7,7.7 1.7,8.8 15.1,16.2 54,4.7 86.9,-25.8 10.8,-10.1 19.5,-20.9 25.9,-31.5 l 45.6,-42.4 -451.5,-485.7 -46.2,42.9 c -10.7,10 -12,26.5 -3.1,38.1"
         style="fill:#282a2b;fill-opacity:1;fill-rule:nonzero;stroke:none"
         id="path418" /><path
         d="m 18054.4,2686.7 91.7,12.6 v 0 l 337.7,115.7 -0.1,-2.6 c 0,0 1.8,-57.2 70.4,-70.6 50.6,-10 84.2,2.3 98.3,9.5 3.4,2.9 6.2,4.5 7.7,4.4 22.3,-0.8 38.8,-37.9 37.1,-82.7 -0.6,-14.7 -3.1,-28.4 -7,-40.2 l -2.4,-62.2 -662.6,26 2.4,63 c 0.6,14.6 12.2,26.4 26.8,27.1"
         style="fill:#282a2b;fill-opacity:1;fill-rule:nonzero;stroke:none"
         id="path420" /><path
         d="m 19181.3,7381.9 c -55,-142.7 -116,-287.5 -181,-427.1 -32.7,-69.9 -66.6,-139.1 -102.6,-206 -36,-66.8 -74.2,-132.3 -115.6,-189.9 -38.2,-53.6 -93.5,-108.8 -147.4,-162.2 -54.9,-53.5 -112,-105.9 -170.3,-157.3 -116.8,-102.7 -237.8,-203.2 -359.8,-299.7 l -59,-46.6 86.5,-117.5 61.5,43.2 c 130.9,91.8 258.2,185.7 384.2,284.2 62.9,49.4 125,100.1 186.3,153.3 30.6,26.5 60.9,54.1 91,82.7 15,15.1 29.6,28.5 45,45 15.8,16.8 30,33.7 43.8,50.6 54.2,67.9 98.8,137 141.3,206.8 42.3,69.9 81.4,140.5 119.2,211.6 75.4,142.7 144.4,285.4 210.4,433.8 l 51.3,115.2 -239.5,97.6 -45.3,-117.7"
         style="fill:#eaab7a;fill-opacity:1;fill-rule:nonzero;stroke:none"
         id="path422" /><g
         id="g424"><g
           id="g426"
           clip-path="url(#clipPath430)"><path
             d="m 18464.8,5656.9 -347.2,361.5 c 0,0 488.5,367.5 634,598.1 145.4,230.7 403.9,1096.4 645.2,993.4 264.5,-113 -70.8,-853.1 -244.2,-1151.3 -173.3,-298.2 -687.8,-801.7 -687.8,-801.7"
             style="fill:url(#linearGradient438);fill-opacity:1;fill-rule:nonzero;stroke:none"
             id="path440" /></g></g><g
         id="g442"><g
           id="g444"
           clip-path="url(#clipPath448)"><path
             d="m 19413.7,7696.3 c 0,0 474.7,-802.3 378,-1658.1 0,0 41.3,-142.8 -497.8,-145.2 -487.7,-2.2 -487.7,77.5 -487.7,77.5 170.5,459.3 221.3,1008.5 287.1,1634.4 0,0 201.3,-8.4 320.4,91.4"
             style="fill:url(#linearGradient454);fill-opacity:1;fill-rule:nonzero;stroke:none"
             id="path456" /></g></g><path
         d="m 17701,5593.8 c 29.3,-42.5 154.9,-34.4 289.3,39.6 123.8,68.2 173.8,166.9 147.8,212.2 -58.1,101.1 -482.4,-186 -437.1,-251.8"
         style="fill:#eaab7a;fill-opacity:1;fill-rule:nonzero;stroke:none"
         id="path458" /><g
         id="g460"><g
           id="g462"
           clip-path="url(#clipPath466)"><path
             d="m 19181,7637.7 c 0,0 -21.8,-519.4 -114.4,-1050 -92.6,-530.6 -233.5,-880.1 -233.5,-880.1 0,0 1007.2,9.9 1097.5,193.9 104.7,213 -252.1,1525.3 -468,1809.2 l -281.6,-73"
             style="fill:url(#linearGradient472);fill-opacity:1;fill-rule:nonzero;stroke:none"
             id="path474" /></g></g><path
         d="m 19346.7,7275.2 c 106.8,-108.8 212.8,-223.7 313,-339.9 50,-58.4 98.8,-117.5 145,-177.6 46,-60 89.9,-121.4 125.6,-182.5 8.9,-15.3 16.8,-30 24.4,-45.3 l 23.7,-50.7 c 15.3,-34.6 30.4,-69.5 44.8,-105.2 29,-71.1 56.6,-143.5 83.3,-216.5 53,-145.9 103.5,-294.2 150.8,-442.2 l 22.8,-71.6 140.4,39.9 -18.7,72.7 c -39.6,153.6 -81.7,305.2 -127.3,457.2 -23,75.8 -47,151.6 -73,227.5 -12.9,37.9 -26.8,75.8 -41.1,113.9 l -22.9,57.3 c -8.8,20.4 -18.4,40.8 -28.2,60 -39.6,76.5 -84.1,145.2 -130,212.3 -46.1,66.8 -94,131.3 -143,194.7 -98.3,126.8 -199.1,248.1 -306.1,369 l -83.6,94.5 -188.2,-177.5 88.3,-90"
         style="fill:#eeba96;fill-opacity:1;fill-rule:nonzero;stroke:none"
         id="path476" /><path
         d="m 20550.3,5278.5 c 44.5,26.2 45.4,152 -18.9,291.3 -59.2,128.4 -154.1,185.3 -201.1,162.6 -105,-50.8 151.2,-494.5 220,-453.9"
         style="fill:#eeba96;fill-opacity:1;fill-rule:nonzero;stroke:none"
         id="path478" /><path
         d="m 20353.1,5421.4 c -22.5,-3.1 -58.6,47.5 -76.7,123.7 -16.6,70.3 -0.8,122.6 21.6,127.9 49.9,11.9 89.9,-246.7 55.1,-251.6"
         style="fill:#eeba96;fill-opacity:1;fill-rule:nonzero;stroke:none"
         id="path480" /><g
         id="g482"><g
           id="g484"
           clip-path="url(#clipPath488)"><path
             d="m 20491,5855.4 -483.7,-131.6 c 0,0 -81.6,569 -214.3,807.2 -132.7,238.2 -768.8,879.9 -562.7,1042.3 225.8,178.1 714.8,-470.9 893.5,-765.9 178.6,-295.1 367.2,-952 367.2,-952"
             style="fill:url(#linearGradient496);fill-opacity:1;fill-rule:nonzero;stroke:none"
             id="path498" /></g></g><path
         d="m 17829.6,5800.7 c -4.7,22.2 43.2,61.9 117.9,85.3 68.9,21.6 122.2,9.5 129.1,-12.4 15.4,-48.9 -239.7,-107.3 -247,-72.9"
         style="fill:#eaab7a;fill-opacity:1;fill-rule:nonzero;stroke:none"
         id="path500" /><path
         d="m 14902.2,9061.7 h 313.1 v 599.2 h -191.4 l -121.7,-599.2"
         style="fill:#eaab7a;fill-opacity:1;fill-rule:nonzero;stroke:none"
         id="path502" /><path
         d="m 14670.9,9964.2 c -53,-246 -13.8,-494 134.6,-547.8 139.3,-50.4 381,83 491.5,326.2 116.4,255.9 59.6,447.2 -146.6,518.5 -219,75.6 -421.5,-27.4 -479.5,-296.9"
         style="fill:#eeba96;fill-opacity:1;fill-rule:nonzero;stroke:none"
         id="path504" /><path
         d="m 15215.3,9582.9 -33,13.5 c 0,0 12.9,116.3 -8.3,146.2 -27.2,38.3 -164.3,34.3 -164.3,34.3 0,0 -5.2,130 -57,164.8 -45.9,30.9 -236.6,51.9 -310.6,13.6 0,0 -32.9,124.6 23.1,236.6 61.7,123.5 173.2,162.5 312.4,169.5 139.2,6.9 287.7,-17.3 318.6,-173 0,0 119.1,-25.9 119.1,-190.2 0,-164.3 -200,-415.3 -200,-415.3"
         style="fill:#282a2b;fill-opacity:1;fill-rule:nonzero;stroke:none"
         id="path506" /><path
         d="m 15067.2,9794.7 c -18.5,-41.1 -5.6,-87 28.7,-102.4 34.3,-15.4 77.1,5.6 95.5,46.7 18.5,41.2 5.6,87 -28.7,102.4 -34.3,15.4 -77.1,-5.5 -95.5,-46.7"
         style="fill:#eeba96;fill-opacity:1;fill-rule:nonzero;stroke:none"
         id="path508" /><path
         d="m 16029.1,6780.7 c -23.7,-1.1 -56.5,54.8 -68.1,135.6 -10.7,74.5 10.6,127.4 34.3,130.8 52.9,7.6 70.4,-264.6 33.8,-266.4"
         style="fill:#eeba96;fill-opacity:1;fill-rule:nonzero;stroke:none"
         id="path510" /><path
         d="m 14253.1,4066.8 206.3,1493.6 217.5,1491.9 39.3,270 568.3,-122.6 -75.5,-262.2 -416.6,-1447.8 -409.6,-1450 -18.1,-63.9 -120.7,25.2 9.1,65.8"
         style="fill:#eaab7a;fill-opacity:1;fill-rule:nonzero;stroke:none"
         id="path512" /><path
         d="m 15437.6,7322.3 9.5,-272.6 55,-1585.3 692.6,-1032.5 37,-55.2 -95.9,-75.7 -45.1,48.8 -884.8,957.9 c -15.9,17.3 -27.2,39.1 -31.3,64.1 l -3.8,22.9 -265.4,1600.9 -44.7,269.1 576.9,57.6"
         style="fill:#eaab7a;fill-opacity:1;fill-rule:nonzero;stroke:none"
         id="path514" /><g
         id="g516"><g
           id="g518"
           clip-path="url(#clipPath522)"><path
             d="m 15395.7,7372.6 h -804.8 l -347.1,-2800.5 468.2,-68.2 683.7,2868.7"
             style="fill:url(#linearGradient528);fill-opacity:1;fill-rule:nonzero;stroke:none"
             id="path530" /></g></g><g
         id="g532"><g
           id="g534"
           clip-path="url(#clipPath538)"><path
             d="m 15554.1,7372.6 h -773.2 c 0,0 141.6,-1790 257,-2000.4 138.3,-252.2 685.9,-837.7 685.9,-837.7 l 371.9,287.3 c 0,0 -391.7,554.6 -486.3,815 -94.7,260.3 -55.3,1735.8 -55.3,1735.8"
             style="fill:url(#linearGradient546);fill-opacity:1;fill-rule:nonzero;stroke:none"
             id="path548" /></g></g><path
         d="m 14874.9,8905.5 -683.8,-977.2 124.4,34.7 -806.4,306.2 -73.2,27.8 -58.2,-140.3 71.4,-32.2 786.3,-354.6 c 43.3,-19.6 93.2,-5.9 121,30.2 l 3.4,4.5 727,945.3 80.2,104.3 -216.7,159 -75.4,-107.7"
         style="fill:#eaab7a;fill-opacity:1;fill-rule:nonzero;stroke:none"
         id="path550" /><g
         id="g552"><g
           id="g554"
           clip-path="url(#clipPath558)"><path
             d="m 15231.2,8708.9 c -100.5,-263.4 -574.3,-848.2 -940.5,-954.5 -217.4,-63.1 -688.7,267.6 -688.7,267.6 l 68.7,212.2 c 0,0 357.3,-237.4 549.3,-55 192.1,182.4 532.4,766.3 705.7,798.6 152.8,28.5 350.7,-150.6 305.5,-268.9"
             style="fill:url(#linearGradient566);fill-opacity:1;fill-rule:nonzero;stroke:none"
             id="path568" /></g></g><g
         id="g570"><g
           id="g572"
           clip-path="url(#clipPath576)"><path
             d="m 15237.7,9185.4 c 0,0 543.5,-862.2 445.4,-1786 -9.2,-87.1 -148.1,-160.4 -586.5,-156.4 -635,5.8 -670.9,115.3 -670.9,115.3 200.9,494.6 356.9,1054.5 434.5,1728.7 0,0 237.2,-9 377.5,98.4"
             style="fill:url(#linearGradient582);fill-opacity:1;fill-rule:nonzero;stroke:none"
             id="path584" /></g></g><path
         d="m 12978.1,8393.6 c -17.5,-50.9 67,-151.1 212.3,-218 133.9,-61.7 247.7,-42.5 269.5,7.4 48.9,111.3 -454.7,289.4 -481.8,210.6"
         style="fill:#eaab7a;fill-opacity:1;fill-rule:nonzero;stroke:none"
         id="path586" /><path
         d="m 13231.2,8413.9 c 15.8,17.8 78.7,2.1 144.6,-46.1 60.7,-44.4 83.6,-96.6 69.5,-115.9 -31.5,-43.2 -238.4,134.6 -214.1,162"
         style="fill:#eaab7a;fill-opacity:1;fill-rule:nonzero;stroke:none"
         id="path588" /><path
         d="m 13798.1,3923.1 c 0,0 80.6,17.5 103,24.4 89.5,27.8 321.8,111.1 321.8,111.1 0,0 26.1,-46.6 96.1,-58.5 51.7,-8.8 90.7,8.2 92.2,8.2 22.6,-0.3 40.3,-37.5 39.7,-83.1 -0.2,-14.9 -2.4,-28.9 -6.1,-40.9 l -0.9,-63.3 -673.3,9.8 1,64.1 c 0.2,14.8 11.7,27.1 26.5,28.2"
         style="fill:#282a2b;fill-opacity:1;fill-rule:nonzero;stroke:none"
         id="path590" /><path
         d="m 15847.8,3938.1 c 0,0 44.1,69.7 54.9,90.6 43,83.2 146.6,307.1 146.6,307.1 0,0 51.5,-14 109.2,27.5 42.5,30.6 57.7,70.3 58.8,71.4 16.1,15.9 55,2.4 87,-30 10.5,-10.7 18.9,-22 24.9,-33.1 l 44.4,-45 -479.4,-472.8 -45,45.6 c -10.4,10.6 -11,27.4 -1.4,38.7"
         style="fill:#282a2b;fill-opacity:1;fill-rule:nonzero;stroke:none"
         id="path592" /><path
         d="m 15017.2,8733.5 c 110.5,-114.2 220.2,-234.8 323.7,-356.7 51.7,-61.2 102.2,-123.2 149.8,-186.2 47.5,-62.9 92.8,-127.3 129.6,-191.2 9.2,-16.1 17.3,-31.5 25,-47.4 l 24.4,-53.1 c 15.7,-36.2 31.2,-72.7 46,-110 29.6,-74.3 57.8,-150.1 85.1,-226.3 54.3,-152.5 105.7,-307.5 153.9,-462.1 l 23.3,-74.8 146.7,40.5 -19.1,76 c -40.1,160.4 -82.8,318.7 -129.2,477.5 -23.5,79.2 -47.9,158.4 -74.4,237.7 -13.1,39.6 -27.4,79.3 -41.9,119 l -23.5,60 c -9,21.3 -18.9,42.6 -28.9,62.7 -40.8,80.1 -86.6,152 -134.1,222.3 -47.5,70 -97,137.6 -147.5,204 -101.6,133 -205.7,260.2 -316.4,387 l -86.4,99.1 -197.6,-183.6 91.5,-94.4"
         style="fill:#eeba96;fill-opacity:1;fill-rule:nonzero;stroke:none"
         id="path594" /><g
         id="g596"><g
           id="g598"
           clip-path="url(#clipPath602)"><path
             d="m 15220.2,9059.7 c 243.4,-142.2 464.2,-548 637.3,-887.6 173.2,-339.7 242,-903.8 242,-903.8 l -222,-65.9 c 0,0 -151.7,553.8 -300.2,773.1 -148.5,219.3 -668.8,650.6 -672.4,826.9 -3.1,155.3 206,321.2 315.3,257.3"
             style="fill:url(#linearGradient610);fill-opacity:1;fill-rule:nonzero;stroke:none"
             id="path612" /></g></g><path
         d="m 16220.5,6613.9 c 48.7,23.1 61.3,153.6 7.6,304.2 -49.5,138.9 -142.8,206.8 -193.7,187.6 -113.7,-42.9 110.9,-527.5 186.1,-491.8"
         style="fill:#eeba96;fill-opacity:1;fill-rule:nonzero;stroke:none"
         id="path614" /><path
         d="m 24444.4,19057.9 c 144.7,36 289.4,72 434.1,108 -19.8,79.6 -40.4,159 -61.9,238.2 -143.9,-39 -287.8,-78.1 -431.7,-117.1 -24.8,91.5 -50.8,182.7 -78,273.6 180.8,54 361.6,108 542.4,161.9 -25.2,84.3 -51.3,168.4 -78.4,252.2 -272.8,-88.1 -545.6,-176.2 -818.4,-264.3 126.9,-393.1 231.1,-791.6 312.6,-1193.5 96.1,19.5 192.2,39 288.2,58.5 -32.7,161.4 -69,322.3 -108.9,482.5"
         style="fill:#ed2123;fill-opacity:1;fill-rule:nonzero;stroke:none"
         id="path616" /><path
         d="m 25327.1,19276.5 c 3.2,165.8 2.8,332.6 -1.2,500.3 86,-143.9 169.3,-290 249.8,-438.4 -82.9,-20.6 -165.7,-41.2 -248.6,-61.9 z m -233.8,802.4 c 17.9,-475.8 6.1,-943.5 -33,-1400.8 81.1,16.5 162.2,32.9 243.4,49.4 6.3,95.7 11.5,191.9 15.5,288.4 127.1,28.8 254.2,57.6 381.3,86.5 45.5,-88.4 90,-177.6 133.6,-267.4 99.4,20.1 198.9,40.3 298.3,60.4 -219.2,446.6 -462.4,875.3 -727,1284.3 -104.1,-33.6 -208.1,-67.2 -312.1,-100.8"
         style="fill:#ed2123;fill-opacity:1;fill-rule:nonzero;stroke:none"
         id="path618" /><path
         d="m 26772.7,20621.3 c -86,-27.8 -171.9,-55.5 -257.9,-83.3 -46,-268.8 -100.3,-532.7 -162.3,-791.4 -60.1,226.3 -126.2,451.3 -198.4,674.9 -88.3,-28.5 -176.5,-57 -264.7,-85.5 150.5,-466 274,-938.3 370.6,-1414.7 90.9,18.4 181.7,36.8 272.6,55.3 -22.6,111.5 -46.7,222.9 -72.2,334 32.3,112 63.2,225 92.5,339.1 131.9,-192.4 259.4,-389.6 382.4,-591.5 101.9,20.6 203.8,41.3 305.7,61.9 -185.5,305.9 -381.2,601.4 -586.3,886 44.1,202.1 83.5,407.2 118,615.2"
         style="fill:#ed2123;fill-opacity:1;fill-rule:nonzero;stroke:none"
         id="path620" /><path
         d="m 27380.7,19148.5 c 282.2,57.2 564.3,114.4 846.4,171.5 -22,108.8 -45.3,217.4 -69.8,325.8 -187.2,-42.3 -374.4,-84.6 -561.6,-126.9 -25.9,115 -53.4,229.8 -82.2,344.4 146.3,36.8 292.6,73.6 438.9,110.5 -25.6,101.8 -52.4,203.5 -80.2,305 -145.5,-40 -291,-79.9 -436.5,-119.8 -29.4,107.1 -60.1,214 -92,320.7 183.8,55 367.7,110.1 551.5,165.1 -30.8,103 -62.8,205.7 -95.8,308.1 -274,-88.5 -547.9,-177 -821.8,-265.4 163.7,-506.9 298.1,-1020.8 403.1,-1539"
         style="fill:#ed2123;fill-opacity:1;fill-rule:nonzero;stroke:none"
         id="path622" /><path
         d="m 29338.6,20438.1 c 7,-27 18.9,-66.1 35.4,-117.5 -220.9,317.1 -451.5,623.2 -690.8,917.8 -96.8,-31.3 -193.6,-62.5 -290.5,-93.8 181,-560.2 329.5,-1128 445.6,-1700.7 72,14.6 144.1,29.2 216.1,43.8 -70.4,347.7 -152.7,693.5 -246.7,1037 -5.5,20.1 -13.5,44.6 -24,73.4 -3.1,9 -9.1,28.2 -17.9,57.4 261.2,-343.8 510.7,-702.3 747.2,-1074.8 78.9,16 157.8,32 236.8,48 -123,606.7 -280.4,1208.3 -472,1801.7 -69.4,-22.4 -138.8,-44.8 -208.2,-67.2 98.9,-306.3 188.6,-614.8 269,-925.1"
         style="fill:#ed2123;fill-opacity:1;fill-rule:nonzero;stroke:none"
         id="path624" /><path
         d="m 29987.6,19676.9 c 282.2,57.2 564.3,114.4 846.4,171.6 -25.9,128 -53.3,255.8 -82.1,383.4 -187.2,-42.3 -374.4,-84.6 -561.6,-126.9 -30.8,136.2 -63.2,272.2 -97.4,407.8 146.3,36.8 292.6,73.6 438.9,110.5 -30.2,120 -61.7,239.8 -94.5,359.4 -145.5,-39.9 -291,-79.8 -436.5,-119.8 -34.8,126.9 -71.2,253.5 -109,379.8 183.9,55 367.7,110.1 551.6,165.1 -36.3,121.2 -73.9,242.1 -112.9,362.7 -273.9,-88.5 -547.8,-177 -821.8,-265.5 194.5,-602.1 354.1,-1212.5 478.9,-1828.1"
         style="fill:#ed2123;fill-opacity:1;fill-rule:nonzero;stroke:none"
         id="path626" /><path
         d="m 31844.5,20896.1 c 7.6,-62.2 12.4,-106.9 14.7,-134 -177.4,446.6 -371.4,885 -581.3,1314.4 -82.8,-26.8 -165.7,-53.6 -248.6,-80.3 80.6,-464.2 142.3,-927.7 185.8,-1389.4 -10.6,26.2 -18.7,45.8 -24.4,58.8 -14.7,35.4 -23.2,56 -25.2,61.7 -154.3,390.1 -321.7,773.9 -501.8,1150.8 -91.7,-29.6 -183.3,-59.2 -275,-88.8 303.8,-603.4 574.5,-1226.6 810.1,-1866.9 90.2,18.3 180.4,36.6 270.6,54.8 -27.3,456.6 -72.2,915.4 -135.1,1375.2 188.3,-424.6 361.1,-857.4 518,-1297.6 90.9,18.5 181.8,36.9 272.8,55.3 -41.8,715.6 -125.2,1436.4 -252.1,2158.6 -73.9,-23.9 -147.8,-47.7 -221.6,-71.6 80.1,-434.2 144.4,-868.2 193.1,-1301"
         style="fill:#ed2123;fill-opacity:1;fill-rule:nonzero;stroke:none"
         id="path628" /><path
         d="m 32972.7,20744.5 c -20.8,-52.4 -63,-85.5 -126.3,-99.6 -131.3,-29 -232.9,53.7 -309,246 -76.6,-55.3 -153.5,-110.2 -230.5,-164.6 72.2,-187.4 159.6,-322 265.6,-403.9 106,-81.8 219.4,-111.7 340.9,-87.3 161.9,32.4 270,129.2 321.3,292.5 51.3,163.3 53.7,346.6 5.6,546.8 -30.6,127.7 -78.7,238.3 -143.2,331.2 -64.6,92.8 -131.1,154.4 -198.7,185.3 -67.7,30.8 -167.1,52.1 -298.1,63.3 -78.3,6.5 -132.5,24.5 -162.7,54.1 -30.2,29.7 -52.6,69.9 -67.4,120.8 -37.2,127.5 -3.2,207.2 104,239.8 100.2,30.4 192.2,-34.7 272.8,-197.2 63.3,70.3 126.3,141.2 188.9,212.6 -167.2,324.4 -369.5,445.6 -594.3,371.9 -127.4,-41.5 -206.9,-138.8 -241.3,-290.1 -34.5,-151.5 -24.3,-319 29,-505.3 52.6,-184.3 121.6,-316.1 210.3,-396.2 88.6,-80.1 214.2,-129.9 377.8,-149.7 87.7,-10.7 149.9,-30.3 186.5,-58.6 36.7,-28.3 62.7,-74.6 77.8,-138.6 14.8,-63 11.7,-120.9 -9,-173.2"
         style="fill:#ed2123;fill-opacity:1;fill-rule:nonzero;stroke:none"
         id="path630" /><path
         d="m 24777.2,16199.3 c 149,-1.8 298.1,-3.7 447.2,-5.5 1,81.4 1.2,162.8 0.4,244.2 -149.1,-1.3 -298.1,-2.6 -447.2,-3.9 -0.9,93.9 -2.8,187.8 -6,281.7 188.5,6.4 377.1,12.7 565.7,19.1 -3,87 -6.9,174 -11.7,260.9 -286.3,-16 -572.5,-31.9 -858.7,-47.9 22.7,-407.6 22.7,-816.2 0,-1223.8 97.8,-5.4 195.7,-10.9 293.6,-16.3 9.1,163.7 14.7,327.6 16.7,491.5"
         style="fill:#ed2123;fill-opacity:1;fill-rule:nonzero;stroke:none"
         id="path632" /><path
         d="m 25686.4,16187.2 c 45,158.4 86.9,318.5 125.7,480.2 46.6,-159.4 90.1,-320.5 130.5,-483.3 -85.4,1.1 -170.8,2.1 -256.2,3.1 z m -22.5,827.5 c -103.8,-459.3 -233.6,-905.3 -387,-1335.8 82.7,-4.6 165.3,-9.2 248,-13.8 30.3,90.6 59.7,181.8 88,273.6 130.2,-4.2 260.4,-8.5 390.7,-12.8 21.6,-96.4 42.2,-193.4 61.6,-291 101.3,-5.6 202.6,-11.3 303.9,-16.9 -99.2,485.3 -226,957.7 -377.8,1415 -109.2,-6.1 -218.3,-12.2 -327.4,-18.3"
         style="fill:#ed2123;fill-opacity:1;fill-rule:nonzero;stroke:none"
         id="path634" /><path
         d="m 27426,17113.1 c -90.2,-5.1 -180.5,-10.1 -270.7,-15.1 -112.8,-245.6 -232.3,-484.7 -357.9,-717.3 -0.8,232.2 -7.6,464.3 -20.6,696.1 -92.5,-5.1 -185.1,-10.3 -277.7,-15.5 27,-483.1 27,-967.4 0,-1450.6 92.6,-5.2 185.2,-10.3 277.7,-15.5 6.4,113.2 11.2,226.4 14.7,339.6 59.5,99.6 118,200.4 175.3,302.5 78.8,-217.8 152.3,-439.6 220.3,-665 103.8,-5.8 207.6,-11.6 311.4,-17.4 -102.1,341.3 -216.8,674.5 -343,998.8 93.9,182.7 184.1,369.2 270.5,559.4"
         style="fill:#ed2123;fill-opacity:1;fill-rule:nonzero;stroke:none"
         id="path636" /><path
         d="m 27640.9,15547 c 287.4,-16.1 574.8,-32.1 862.2,-48.2 6.2,110.3 11.1,220.7 14.9,331.1 -191.8,6.5 -383.6,12.9 -575.4,19.4 3.9,117.2 6.4,234.4 7.5,351.6 150.9,-1.4 301.8,-2.8 452.6,-4.2 1,104.2 0.9,208.5 -0.3,312.7 -150.9,-1.7 -301.8,-3.5 -452.6,-5.2 -1.3,110.1 -3.8,220.2 -7.6,330.3 191.8,6.7 383.6,13.3 575.4,19.9 -3.7,106.3 -8.5,212.6 -14.5,318.8 -287.4,-16.1 -574.8,-32.1 -862.2,-48.1 29.3,-525.7 29.3,-1052.5 0,-1578.1"
         style="fill:#ed2123;fill-opacity:1;fill-rule:nonzero;stroke:none"
         id="path638" /><path
         d="m 29861.3,16293.9 c -0.1,-27.6 1.5,-68.1 4.5,-121.6 -133.5,360 -278.9,711.1 -435.2,1052.7 -101.6,-5.7 -203.2,-11.4 -304.8,-17.1 32.4,-580.8 32.4,-1163 0,-1743.8 73.4,-4.1 146.8,-8.2 220.2,-12.3 19.6,352.5 27.5,705.6 23.7,1058.5 -0.3,20.8 -1.8,46.2 -4.6,76.4 -0.7,9.5 -1.7,29.4 -2.8,59.6 165.5,-395 316.2,-802.2 450.8,-1220.6 80.4,-4.5 160.8,-9 241.3,-13.5 34.3,615.4 34.3,1232.2 0,1847.6 -72.9,-4.1 -145.7,-8.1 -218.5,-12.2 17.7,-317.6 26.2,-635.7 25.4,-953.7"
         style="fill:#ed2123;fill-opacity:1;fill-rule:nonzero;stroke:none"
         id="path640" /><path
         d="m 30296.7,15398.7 c 287.4,-16 574.8,-32.1 862.2,-48.1 7.3,129.8 13.1,259.7 17.5,389.7 -191.8,6.4 -383.6,12.9 -575.4,19.4 4.6,138.7 7.6,277.5 8.9,416.3 150.9,-1.4 301.8,-2.8 452.6,-4.2 1.2,122.9 1,245.7 -0.4,368.6 -150.9,-1.7 -301.7,-3.5 -452.6,-5.3 -1.5,130.5 -4.5,260.9 -9,391.2 191.8,6.6 383.6,13.3 575.4,19.9 -4.3,125.1 -10,250.2 -17,375.2 -287.4,-16 -574.8,-32 -862.2,-48.1 34.8,-624.4 34.8,-1250.2 0,-1874.6"
         style="fill:#ed2123;fill-opacity:1;fill-rule:nonzero;stroke:none"
         id="path642" /><path
         d="m 32401.5,16103.7 c -8.4,-61.7 -15.1,-105.8 -19.7,-132.4 -58.7,473.7 -135.1,942.6 -228.8,1405.6 -87,-4.8 -173.9,-9.7 -260.9,-14.5 -40.2,-464 -98,-923.8 -172.8,-1378.3 -3.6,27.8 -6.5,48.7 -8.6,62.6 -5.3,37.8 -8.3,59.6 -8.8,65.6 -50.5,413.4 -115.1,823.2 -193.4,1228.7 -96.2,-5.4 -192.3,-10.8 -288.5,-16.2 140.2,-652.9 244.4,-1318.9 310.5,-1995 91.9,-5.1 183.8,-10.2 275.7,-15.3 89,446.6 161.6,898.6 217.3,1355.1 74.5,-454.1 132.3,-913.4 172.8,-1376.9 92.6,-5.2 185.2,-10.4 277.9,-15.5 140.4,699.7 242.1,1412.3 303.2,2134.6 -77.6,-4.3 -155.1,-8.7 -232.6,-13 -32.9,-435.2 -80.8,-867.2 -143.3,-1295.1"
         style="fill:#ed2123;fill-opacity:1;fill-rule:nonzero;stroke:none"
         id="path644" /><path
         d="m 33597,16505.6 c -57.6,46.6 -148.4,92 -272.3,135.5 -74.1,26 -122,56.8 -143.6,92.8 -21.7,36 -33.2,80.1 -34.6,132.6 -3.6,131.4 49.5,199.3 161.5,203.5 104.6,4 177.1,-81.3 213.8,-257.2 79.1,51.5 158,103.6 236.7,156.3 -79.4,352.5 -244.1,518.8 -480.3,504.7 -133.7,-7.8 -235.4,-80.9 -307.2,-217.1 -71.8,-136.2 -104.5,-299.1 -100.2,-491 4.2,-189.8 37.5,-333.6 102.9,-432.7 65.5,-99.1 174.4,-178.5 327.6,-238.7 82.2,-32.3 137.4,-66.8 165.7,-103.2 28.2,-36.4 41.7,-87.4 40.1,-152.8 -1.6,-64.3 -19.2,-119.1 -52.5,-164.2 -33.4,-45.2 -82.5,-66.4 -147.3,-64 -134.4,5.1 -211.8,110.3 -236.8,314.3 -88.1,-33.9 -176.3,-67.3 -264.6,-100.2 22.4,-198.3 72.9,-349.8 154.9,-455.4 81.8,-105.5 183.9,-162.8 307.7,-170 164.8,-9.6 293.8,56.3 384.8,200.7 90.9,144.2 139.5,319.9 143.7,524.4 2.6,130.4 -15.8,248.7 -54.7,354 -39,105.4 -87.7,181.2 -145.3,227.7"
         style="fill:#ed2123;fill-opacity:1;fill-rule:nonzero;stroke:none"
         id="path646" /><path
         d="m 24500.9,13852.2 c 184.1,-41.6 368.1,-83.1 552.1,-124.7 19.3,85.4 37.7,171 55,256.7 -280.9,57 -561.9,113.9 -842.9,170.9 -81.5,-401.9 -185.7,-800.4 -312.6,-1193.4 93.2,-30.2 186.5,-60.3 279.8,-90.4 51,157.9 98.4,316.6 142.3,476.1 143.7,-39.6 287.5,-79.1 431.3,-118.6 21.8,79.1 42.7,158.5 62.7,238 -144.5,36.5 -289.1,73 -433.6,109.5 23.1,91.8 45.1,183.7 65.9,275.9"
         style="fill:#ed2123;fill-opacity:1;fill-rule:nonzero;stroke:none"
         id="path648" /><path
         d="m 25251.1,13105.3 c 84.1,143.2 165.4,288.6 244.1,436.2 4.5,-167 5.5,-335.1 2.9,-504.1 -82.3,22.6 -164.7,45.3 -247,67.9 z m 189,811.6 c -217,-420.1 -456.3,-822.2 -715.6,-1204.6 78.8,-25.5 157.6,-50.9 236.4,-76.3 52.6,80.9 104.5,162.7 155.4,245.3 124.9,-37.2 249.8,-74.4 374.7,-111.5 -3.8,-99.8 -8.8,-199.8 -15.2,-300.2 96.6,-31.2 193.2,-62.4 289.7,-93.5 28.9,500 26.8,992.8 -4,1475.7 -107.1,21.7 -214.3,43.4 -321.4,65.1"
         style="fill:#ed2123;fill-opacity:1;fill-rule:nonzero;stroke:none"
         id="path650" /><path
         d="m 27169.8,13566.3 c -88.6,18 -177.1,35.9 -265.7,53.9 -171.5,-210.1 -347.9,-412.6 -528.8,-607.6 58.5,226.6 111,454.3 157.3,682.9 -90.9,18.4 -181.7,36.8 -272.6,55.2 -96.6,-476.4 -220.1,-948.7 -370.6,-1414.7 88.2,-28.5 176.4,-57 264.7,-85.4 35.2,109.1 69,218.5 101.4,328.3 83.1,82.2 165.5,165.8 247,251 20.6,-232.6 34.9,-467.9 42.6,-705.6 98.9,-32 197.8,-64 296.8,-95.9 -11,359.8 -36.6,714.1 -76,1062.1 137.4,154.2 272.1,312.8 403.9,475.8"
         style="fill:#ed2123;fill-opacity:1;fill-rule:nonzero;stroke:none"
         id="path652" /><path
         d="m 26977.6,11984.6 c 273.9,-88.5 547.8,-177 821.8,-265.5 34.3,106.4 67.5,213.1 99.4,320 -183.9,54.9 -367.8,109.8 -551.7,164.7 33.9,113.5 66.4,227.3 97.4,341.4 145.6,-39.6 291.2,-79.2 436.7,-118.8 27.6,101.5 54.2,203.2 79.6,305.1 -146.4,36.6 -292.8,73 -439.2,109.5 26.8,107.7 52.4,215.6 76.8,323.7 187.2,-42.1 374.4,-84.3 561.7,-126.4 23.4,104.4 45.8,209 67,313.7 -282.1,57.2 -564.2,114.4 -846.4,171.6 -105,-518.3 -239.4,-1032.1 -403.1,-1539"
         style="fill:#ed2123;fill-opacity:1;fill-rule:nonzero;stroke:none"
         id="path654" /><path
         d="m 29317.1,12151.9 c -7.1,-27 -15.9,-66.9 -26.7,-119.9 -37.1,385.2 -88.4,763.9 -152.9,1135.5 -99.8,20.2 -199.5,40.4 -299.2,60.6 -116.1,-572.7 -264.6,-1140.5 -445.6,-1700.6 70,-22.6 140,-45.2 209.9,-67.8 109.8,340 207.9,682.7 294.1,1027.7 5.1,20.3 10.2,45.5 15.1,75.6 1.7,9.4 5.9,29 12.5,58.7 59.4,-426.7 101,-862.4 123.5,-1305.8 76.7,-24.8 153.3,-49.5 230,-74.3 191.6,593.4 349,1195 472,1801.8 -71.5,14.4 -143,28.9 -214.4,43.4 -63.5,-313.2 -136.3,-625 -218.3,-934.9"
         style="fill:#ed2123;fill-opacity:1;fill-rule:nonzero;stroke:none"
         id="path656" /><path
         d="m 29508.7,11167 c 274,-88.5 547.9,-177 821.8,-265.5 40.5,125.3 79.5,250.8 117.1,376.7 -183.9,54.9 -367.8,109.8 -551.7,164.7 40.1,134.4 78.5,269.2 115.3,404.3 145.6,-39.6 291.2,-79.2 436.7,-118.8 32.6,119.6 63.8,239.5 93.8,359.6 -146.4,36.5 -292.8,73 -439.2,109.5 31.8,127.5 62.1,255.2 90.9,383.2 187.2,-42.1 374.4,-84.2 561.7,-126.4 27.6,122.9 53.9,246 78.9,369.3 -282.1,57.2 -564.2,114.4 -846.4,171.5 -124.8,-615.6 -284.4,-1226 -478.9,-1828.1"
         style="fill:#ed2123;fill-opacity:1;fill-rule:nonzero;stroke:none"
         id="path658" /><path
         d="m 31725.9,11322.8 c -24,-58.1 -41.7,-99.4 -53,-124.3 64.5,477.4 110,953.5 136.9,1427.3 -85.4,17.3 -170.7,34.6 -256.1,51.9 -156.7,-440.8 -329.7,-874 -518.4,-1298.9 3.7,28.1 6.2,49.2 7.7,63.4 4.5,38.2 7.2,60.3 8.2,66.2 56.9,416.3 98.8,831.8 126,1245.6 -94.4,19.2 -188.8,38.3 -283.3,57.4 -30,-670.1 -99.1,-1346 -209.2,-2024.2 87.6,-28.3 175.1,-56.6 262.7,-84.9 201.1,414.5 387,837.5 557.3,1268.1 -43.7,-461.3 -105.4,-924.4 -185.5,-1388.2 88.3,-28.5 176.6,-57 264.8,-85.5 316.1,649.1 596.2,1318.4 838.7,2004.9 -76.1,15.4 -152.2,30.8 -228.3,46.2 -142.4,-414.6 -298.7,-823.2 -468.5,-1225"
         style="fill:#ed2123;fill-opacity:1;fill-rule:nonzero;stroke:none"
         id="path660" /><path
         d="m 32985,11412 c -43.9,59.9 -120.1,127.2 -228.9,201 -65.1,44 -103.5,86.2 -115.3,126.8 -11.8,40.5 -11.6,86.4 0.4,137.8 29.9,128.9 98.6,181.4 208,157.2 102.2,-22.6 150.6,-123.9 141.4,-304.5 89.6,30.1 179.2,60.9 268.7,92.2 12.9,363.2 -104.3,566.4 -336.3,612.5 -131.4,26.3 -248.3,-19 -352.3,-133.2 -104.1,-114.3 -177.2,-264.5 -221.9,-452.5 -44.3,-185.9 -48.8,-334.5 -10.8,-447.8 38,-113.2 123.1,-218.3 255.9,-315.8 71.2,-52.4 115.8,-100.1 133.8,-142.7 18.1,-42.7 18.1,-95.9 -0.2,-159.3 -18.1,-62.4 -49.2,-111.6 -93,-147.2 -43.8,-35.7 -96.8,-43.9 -158.9,-25.2 -128.7,39 -176.5,161.4 -148.5,367 -93.9,-10.8 -187.8,-21 -281.6,-30.8 -29.2,-199.4 -19.2,-360.4 32.9,-484.4 52,-124 136,-205.9 253.9,-244.3 157,-51.1 298.8,-19.2 423.9,98.9 125,118 217.2,277.5 273.6,476 35.9,126.7 48.3,246.8 37.6,359.5 -10.8,112.6 -38.6,198.8 -82.4,258.8"
         style="fill:#ed2123;fill-opacity:1;fill-rule:nonzero;stroke:none"
         id="path662" /><path
         d="m 9273.59,22354.8 2539.41,-525 -2437.26,720.6 z"
         style="fill:#eeba96;fill-opacity:1;fill-rule:nonzero;stroke:none"
         id="path664" /><path
         d="m 8819.48,21673.1 -384.92,105.8 202.53,736.4 235.23,-64.7 -52.84,-777.5"
         style="fill:#eaab7a;fill-opacity:1;fill-rule:nonzero;stroke:none"
         id="path666" /><path
         d="m 9408.8,22704 c -18.09,-320.1 -149.99,-611.7 -350.65,-627.6 -188.23,-15 -440.15,230.8 -493.86,566.9 -56.55,354 77.98,569.9 355.49,587.8 294.81,18.9 508.83,-176.1 489.02,-527.1"
         style="fill:#eeba96;fill-opacity:1;fill-rule:nonzero;stroke:none"
         id="path668" /><path
         d="m 8890.23,22715.7 c 61.87,116.8 184.52,147.3 277.4,157.7 92.88,10.5 243.51,-30.9 261.92,36 18.41,67 -19.64,315.2 -399.56,379.9 -343.92,58.6 -558.99,-134.2 -644.77,-380.7 -75.05,-215.6 51.46,-463.4 223.21,-430 171.75,33.4 206.9,95.7 281.8,237.1"
         style="fill:#282a2b;fill-opacity:1;fill-rule:nonzero;stroke:none"
         id="path670" /><path
         d="m 8872.34,22612.7 c 8.26,-56.9 -23.5,-108.6 -70.94,-115.5 -47.43,-6.9 -92.58,33.7 -100.83,90.6 -8.25,56.9 23.51,108.6 70.94,115.5 47.44,6.9 92.58,-33.7 100.83,-90.6"
         style="fill:#eeba96;fill-opacity:1;fill-rule:nonzero;stroke:none"
         id="path672" /><path
         d="m 9014.74,23616.8 c 57,-146.6 -22.6,-378.7 -204.63,-449.5 -182.01,-70.7 -397.51,46.6 -454.52,193.3 -57,146.6 76.93,239 258.95,309.8 182.01,70.7 343.19,93.1 400.2,-53.6"
         style="fill:#282a2b;fill-opacity:1;fill-rule:nonzero;stroke:none"
         id="path674" /><path
         d="m 10664.5,19902 c -3.4,-70 -112.3,-150.4 -261.3,-161.3 -137.3,-10 -228,68 -228.7,138.8 -1.6,158 495.3,130.7 490,22.5"
         style="fill:#eeba96;fill-opacity:1;fill-rule:nonzero;stroke:none"
         id="path676" /><path
         d="m 10824.8,19128.4 -27.8,5.1 -1983.88,367 -349.09,64.6 -86.88,-751.5 354.62,-16.8 1721.03,-81.4 -696.48,-1673.5 -33.18,-79.7 145.22,-71.2 42.71,75 1056.23,1855.7 c 11,19.5 19.4,41.7 23.7,64.9 20.9,112.7 -53.6,220.9 -166.2,241.8"
         style="fill:#eeba96;fill-opacity:1;fill-rule:nonzero;stroke:none"
         id="path678" /><path
         d="m 11017,19024.6 -25.2,4.7 -2201.06,405.2 -348.99,64.2 -90.69,-746.2 354.22,-21.2 2053.72,-123 112.7,-2120 4.6,-86.2 162.6,-0.5 5.1,86.2 139,2324.9 c 6.2,101 -63.9,193.1 -166,211.9"
         style="fill:#eeba96;fill-opacity:1;fill-rule:nonzero;stroke:none"
         id="path680" /><g
         id="g682"><g
           id="g684"
           clip-path="url(#clipPath688)"><path
             d="m 9073.99,19675.7 c 251.53,-405.5 1746.81,-265.2 1962.31,-562.9 287.5,-397.1 -893.6,-1932.1 -893.6,-1932.1 l -393.13,219.5 c 0,0 602.13,1085.7 577.83,1163.6 -30.7,99 -1671.77,-135.4 -2115.79,239.3 -344.83,291 -174.53,872.6 -174.53,872.6 h 1036.91"
             style="fill:url(#linearGradient694);fill-opacity:1;fill-rule:nonzero;stroke:none"
             id="path696" /></g></g><g
         id="g698"><g
           id="g700"
           clip-path="url(#clipPath704)"><path
             d="m 8956.88,19675.7 c 219.44,-498.1 2003.12,-314.1 2256.02,-748.4 204.1,-350.3 -5.5,-2129 -5.5,-2129 l -471.9,12.9 c 0,0 2.6,1514.3 -89.8,1617 -67.9,75.6 -1961.57,-98.9 -2434.09,239.2 -404.58,289.4 -174.53,1008.3 -174.53,1008.3 h 919.8"
             style="fill:url(#linearGradient712);fill-opacity:1;fill-rule:nonzero;stroke:none"
             id="path714" /></g></g><path
         d="m 8872.61,21511.7 268.1,-1528.5 -127.52,109.4 1119.21,-83.1 101.7,-7.5 -8.6,-197.4 -101.9,1.4 -1122.28,14.8 c -61.86,0.8 -113.13,44.4 -125.98,102.3 l -1.54,7.1 -336.67,1514.8 -37.12,167 343.04,68.2 29.56,-168.5"
         style="fill:#eeba96;fill-opacity:1;fill-rule:nonzero;stroke:none"
         id="path716" /><g
         id="g718"><g
           id="g720"
           clip-path="url(#clipPath724)"><path
             d="m 8344.32,21476.1 c -26.49,-365.8 210.07,-1316.2 583.21,-1643.1 221.57,-194.1 959.3,-63.7 959.3,-63.7 l 35.93,287.9 c 0,0 -551.94,-83.1 -677.96,237.7 -126.02,320.7 -205.73,1196.5 -392.28,1330.1 -164.37,117.7 -496.29,15.5 -508.2,-148.9"
             style="fill:url(#linearGradient732);fill-opacity:1;fill-rule:nonzero;stroke:none"
             id="path734" /></g></g><g
         id="g736"><g
           id="g738"
           clip-path="url(#clipPath742)"><path
             d="m 8452.17,21879.6 c 0,0 -762.76,-1064 -652.5,-2229.1 0,0 -69.92,-225.9 756.36,-221.7 826.28,4.2 877.22,116.6 877.22,116.6 -240.95,631.2 -420.91,1342.5 -494.07,2194.3 0,0 -308.91,-1.3 -487.01,139.9"
             style="fill:url(#linearGradient748);fill-opacity:1;fill-rule:nonzero;stroke:none"
             id="path750" /></g></g><path
         d="m 8697.54,21273.5 c -111.34,-174.3 -219.99,-356.4 -320.39,-538.7 -50.13,-91.4 -98.43,-183.5 -142.9,-276.2 -44.26,-92.5 -85.4,-186.3 -115.76,-277.4 -7.5,-22.8 -13.82,-44.6 -19.61,-66.9 l -17.32,-74 c -10.61,-50.2 -20.91,-100.8 -30.12,-152.1 -18.59,-102.5 -34.92,-206.4 -50.03,-310.6 -29.64,-208.6 -55.11,-419.5 -76.52,-629.2 l -10.36,-101.4 -197.48,13.7 4.57,101.8 c 9.64,214.9 23.12,427.9 41.2,642.3 9.34,107.2 19.97,214.5 33.24,322.4 6.53,53.9 14.38,108.2 22.7,162.7 l 14.42,82.5 c 5.92,29.5 12.96,59.3 20.63,87.5 31.25,112.7 71.04,216.3 113.33,318.1 42.45,101.6 88.05,200.6 135.27,298.4 95.14,195.8 195.02,385 303.24,575.4 l 84.56,148.8 299.43,-183 -92.1,-144.1"
         style="fill:#eeba96;fill-opacity:1;fill-rule:nonzero;stroke:none"
         id="path752" /><g
         id="g754"><g
           id="g756"
           clip-path="url(#clipPath760)"><path
             d="m 8354.13,21637 c -273.48,-244.4 -450,-819.1 -582.83,-1297 -132.84,-477.9 -74.48,-1215.1 -74.48,-1215.1 l 300.05,-26.5 c 0,0 50.07,745.4 182.63,1063.5 132.56,318.2 684.46,1002.9 643.31,1228.5 -36.25,198.9 -345.82,356.4 -468.68,246.6"
             style="fill:url(#linearGradient768);fill-opacity:1;fill-rule:nonzero;stroke:none"
             id="path770" /></g></g><path
         d="m 7711.91,18259.1 c -68.03,16.8 -117.89,180 -88.43,386 27.16,189.9 128.51,300.7 198.43,289.4 156.12,-25.3 -4.78,-701.4 -110,-675.4"
         style="fill:#eeba96;fill-opacity:1;fill-rule:nonzero;stroke:none"
         id="path772" /><path
         d="m 7912.84,18521.4 c 30.47,4.7 57.81,84.5 51.7,190.5 -5.63,97.8 -46.51,159.7 -77.61,157.9 -69.47,-3.9 -21.2,-355.6 25.91,-348.4"
         style="fill:#eeba96;fill-opacity:1;fill-rule:nonzero;stroke:none"
         id="path774" /><path
         d="m 11664.7,16312.9 -123.5,21.9 v 0 l -451.6,174.8 v -3.7 c 0,0 -5.5,-77.3 -99.3,-91.9 -69.1,-10.7 -113.9,7.7 -132.7,18.1 -4.5,4.1 -8.2,6.5 -10.2,6.5 -30.2,0 -54.6,-49.4 -54.6,-110.2 0,-20 2.6,-38.7 7.2,-54.8 v -84.5 h 899.6 v 85.6 c 0,19.8 -15.2,36.4 -34.9,38.2"
         style="fill:#282a2b;fill-opacity:1;fill-rule:nonzero;stroke:none"
         id="path776" /><path
         d="m 10276.6,16433.1 -83.8,93.3 v 0 l -248.36,415.7 -2.24,-2.8 c 0,0 -51.94,-57.7 -134.82,-11.4 -61.08,34.1 -85.05,76.1 -93.47,96 -1,6 -2.46,10.1 -4.07,11.4 -23.77,18.5 -73.4,-5.3 -110.85,-53.3 -12.3,-15.7 -21.69,-32.1 -28,-47.6 l -52,-66.6 708.91,-553.7 52.7,67.4 c 12.2,15.7 10.5,38 -4,51.6"
         style="fill:#282a2b;fill-opacity:1;fill-rule:nonzero;stroke:none"
         id="path778" /><path
         d="m 10539.8,20027.2 c -8.8,29.6 -91.6,45.8 -195.8,25.3 -96.1,-18.9 -151.8,-67.8 -145.8,-98.4 13.3,-68.3 355.2,27.5 341.6,73.1"
         style="fill:#eeba96;fill-opacity:1;fill-rule:nonzero;stroke:none"
         id="path780" /><g
         id="g782"><g
           id="g784"
           clip-path="url(#clipPath788)"><path
             d="m 11245.7,20831 v 0 c -33.2,10.4 -68.5,-7.9 -79,-41.1 l -246.5,-779.8 h -739.1 c -34.8,0 -63,-28.2 -63,-63 0,-34.8 28.2,-63 63,-63 h 786.2 c 31.8,0 58.1,23.7 62.3,54.3 l 257.2,813.5 c 10.4,33.2 -7.9,68.6 -41.1,79.1"
             style="fill:url(#linearGradient794);fill-opacity:1;fill-rule:nonzero;stroke:none"
             id="path796" /></g></g><path
         d="m 10920.2,20010.1 h 39.1 l 239.5,766.8 h -36.2 l -242.4,-766.8"
         style="fill:#ffffff;fill-opacity:1;fill-rule:nonzero;stroke:none"
         id="path798" /></g></g></svg>
