<?xml version="1.0" encoding="UTF-8" standalone="no"?>
<svg
   xmlns:dc="http://purl.org/dc/elements/1.1/"
   xmlns:cc="http://creativecommons.org/ns#"
   xmlns:rdf="http://www.w3.org/1999/02/22-rdf-syntax-ns#"
   xmlns:svg="http://www.w3.org/2000/svg"
   xmlns="http://www.w3.org/2000/svg"
   xmlns:sodipodi="http://sodipodi.sourceforge.net/DTD/sodipodi-0.dtd"
   xmlns:inkscape="http://www.inkscape.org/namespaces/inkscape"
   version="1.1"
   id="svg2"
   xml:space="preserve"
   width="4621.3335"
   height="3969.6001"
   viewBox="0 0 4621.3335 3969.6001"
   sodipodi:docname="FFF_shutterstock_1483961246_newColors.eps"><metadata
     id="metadata8"><rdf:RDF><cc:Work
         rdf:about=""><dc:format>image/svg+xml</dc:format><dc:type
           rdf:resource="http://purl.org/dc/dcmitype/StillImage" /></cc:Work></rdf:RDF></metadata><defs
     id="defs6"><clipPath
       clipPathUnits="userSpaceOnUse"
       id="clipPath20"><path
         d="M 13324.4,0 C 7525.11,0 2756.71,4669.2 2655.75,10479.9 c -67.12,3862.8 1919.03,7266.5 4939.21,9192.4 664.56,423.7 1243.44,970.8 1697.18,1615.2 1985.96,2820.7 5267.26,4663.7 8979.06,4663.7 3937.2,0 7390,-2073.5 9326.3,-5187.9 439.3,-706.6 1040.5,-1299.2 1749.3,-1735 2828.3,-1738.8 4719.6,-4854.2 4740.1,-8412.9 31.8,-5498.3 -4437.5,-9995.298 -9935.9,-9995.998 -0.5,0 -0.8,0 -1.3,0 -641.6,0 -1269.1,60.899 -1876.9,177.098 -751.3,143.602 -1511.6,216 -2270.7,216 -1181.6,0 -2360.3,-175.398 -3497,-530.098 C 15531,178.5 14497.1,10.5 13425.3,0.5 13391.4,0.203125 13358.3,0 13324.4,0"
         id="path18" /></clipPath><linearGradient
       x1="0"
       y1="0"
       x2="1"
       y2="0"
       gradientUnits="userSpaceOnUse"
       gradientTransform="matrix(31433,0,0,-31433,2654.11,12975.6)"
       spreadMethod="pad"
       id="linearGradient26"><stop
         style="stop-opacity:1;stop-color:#eff0ef"
         offset="0"
         id="stop22" /><stop
         style="stop-opacity:1;stop-color:#d9dbd9"
         offset="1"
         id="stop24" /></linearGradient><clipPath
       clipPathUnits="userSpaceOnUse"
       id="clipPath36"><path
         d="m 21735.5,12898.6 c 0,0 1476,5072.9 3396.7,7953.6 1920.7,2880.7 3987.4,3752.8 3987.4,3752.8 0,0 -969.2,-1285.2 -1575.8,-3023.3 -606.7,-1738.1 -749.7,-3595.7 -1707.1,-5277.4 -1448.3,-2544.1 -4101.2,-3405.7 -4101.2,-3405.7 z"
         id="path34" /></clipPath><linearGradient
       x1="0"
       y1="0"
       x2="1"
       y2="0"
       gradientUnits="userSpaceOnUse"
       gradientTransform="matrix(5020.87,5401.46,5401.46,-5020.87,22736.7,15615.7)"
       spreadMethod="pad"
       id="linearGradient44"><stop
         style="stop-opacity:1;stop-color:#c4e0d8"
         offset="0"
         id="stop38" /><stop
         style="stop-opacity:1;stop-color:#7ecab8"
         offset="1"
         id="stop40" /><stop
         style="stop-opacity:1;stop-color:#7ecab8"
         offset="1"
         id="stop42" /></linearGradient><clipPath
       clipPathUnits="userSpaceOnUse"
       id="clipPath54"><path
         d="m 29216.9,22441.9 c 0,0 -1648,-568.5 -2794.3,-1634.2 -1146.3,-1065.7 -1800.1,-2743.1 -2714.2,-3451.8 0,0 1365.6,403.3 2019.4,1027.2 653.7,624 933,1592.6 1385.3,2233.7 392.6,556.6 1208.2,1256.3 2103.8,1825.1 z"
         id="path52" /></clipPath><linearGradient
       x1="0"
       y1="0"
       x2="1"
       y2="0"
       gradientUnits="userSpaceOnUse"
       gradientTransform="matrix(678.873,-5858.84,-5858.84,-678.873,26315.5,21168.8)"
       spreadMethod="pad"
       id="linearGradient60"><stop
         style="stop-opacity:1;stop-color:#f46878"
         offset="0"
         id="stop56" /><stop
         style="stop-opacity:1;stop-color:#ef2e3b"
         offset="1"
         id="stop58" /></linearGradient><clipPath
       clipPathUnits="userSpaceOnUse"
       id="clipPath70"><path
         d="M 52.8086,12402.7 C -649.164,9214.4 5879.62,7650.5 5869.07,7026.3 5858.52,6402 2513.66,6835.9 3180.51,5141.4 3798.49,3571.5 9014.32,2931 12836.3,4697 c 110.7,51.1 2837,4741.3 867.1,7504.2 -1970,2762.8 -2585.9,-1970.1 -3505.7,-1843.5 -919.93,126.8 1122.1,5931.8 -749.98,7184.2 -1939.89,1297.5 -2560.41,-2871.9 -3469.3,-2227.5 -860.99,610.4 -1286.49,6539.6 -3672.05,5782.8 -86.43,-27.4 -175.38,-63.6 -267.13,-109.1 l -1.05,-0.5 -0.03,-0.1 c -48.54,-24.1 -97.85,-50.8 -147.96,-80.3 C -865.523,19285.1 4345.53,13017.3 3150.92,12782.9 1956.39,12548.4 408.57,14018.5 52.8086,12402.7 Z"
         id="path68" /></clipPath><linearGradient
       x1="0"
       y1="0"
       x2="1"
       y2="0"
       gradientUnits="userSpaceOnUse"
       gradientTransform="matrix(15179.6,314.212,314.212,-15179.6,-1265.52,12264.5)"
       spreadMethod="pad"
       id="linearGradient78"><stop
         style="stop-opacity:1;stop-color:#c4e0d8"
         offset="0"
         id="stop72" /><stop
         style="stop-opacity:1;stop-color:#7ecab8"
         offset="1"
         id="stop74" /><stop
         style="stop-opacity:1;stop-color:#7ecab8"
         offset="1"
         id="stop76" /></linearGradient><clipPath
       clipPathUnits="userSpaceOnUse"
       id="clipPath88"><path
         d="m 11708.6,3604.1 c 0,0 -1612.5,5542.1 -3710.89,8689.3 -2098.36,3147.1 -4356.25,4100 -4356.25,4100 0,0 1058.81,-1404.2 1721.57,-3303.1 662.75,-1898.8 819.07,-3928.2 1865,-5765.5 C 8810.31,4545.4 11708.6,3604.1 11708.6,3604.1 Z"
         id="path86" /></clipPath><linearGradient
       x1="0"
       y1="0"
       x2="1"
       y2="0"
       gradientUnits="userSpaceOnUse"
       gradientTransform="matrix(-5485.3,5901.1,-5901.1,-5485.3,10614.8,6572.6)"
       spreadMethod="pad"
       id="linearGradient96"><stop
         style="stop-opacity:1;stop-color:#c4e0d8"
         offset="0"
         id="stop90" /><stop
         style="stop-opacity:1;stop-color:#7ecab8"
         offset="1"
         id="stop92" /><stop
         style="stop-opacity:1;stop-color:#7ecab8"
         offset="1"
         id="stop94" /></linearGradient><clipPath
       clipPathUnits="userSpaceOnUse"
       id="clipPath106"><path
         d="m 4243.08,12194.6 c 0,0 1534.31,-968.5 2441.85,-2321.3 907.54,-1352.8 1170.44,-3208 1927.79,-4143.8 0,0 -1287.61,733.9 -1801.34,1521.8 -513.73,787.8 -566,1835.7 -871.47,2593 -265.21,657.5 -924.93,1560.6 -1696.83,2350.3 z"
         id="path104" /></clipPath><linearGradient
       x1="0"
       y1="0"
       x2="1"
       y2="0"
       gradientUnits="userSpaceOnUse"
       gradientTransform="matrix(-2083.2,-5774.81,5774.81,-2083.2,6879.44,10213.8)"
       spreadMethod="pad"
       id="linearGradient112"><stop
         style="stop-opacity:1;stop-color:#7bb5a8"
         offset="0"
         id="stop108" /><stop
         style="stop-opacity:1;stop-color:#26655d"
         offset="1"
         id="stop110" /></linearGradient><clipPath
       clipPathUnits="userSpaceOnUse"
       id="clipPath122"><path
         d="m 26668.9,3077.7 c 804.4,267.2 2207.6,981.8 2588.8,1875.1 351.9,824.7 -500.3,1641.7 -279.5,2422.2 220.8,780.4 2261.8,1665.3 2678.8,2599.3 494.5,1107.8 -1255.5,1652.4 -654.4,2464.6 601.2,812.2 2943.1,2016.6 2997.3,2881.5 54.3,864.9 -939.6,676.2 -356.3,2361.7 493.9,1427.2 1162.7,3303.3 126.2,3871.7 -1104.7,605.9 -2041.2,-936.4 -2469.6,-2092.7 -551.9,-1489.6 -1605.8,-185.2 -2394.1,-966.5 -712.8,-706.4 -81.2,-3827.4 -590.8,-4551.2 -509.5,-723.8 -1781.6,-451.8 -2448.6,-1672.3 -667,-1220.4 850.6,-2699.2 549.7,-3582.4 -301,-883.3 -1611,-779.3 -2043.8,-2034.2 -432.9,-1254.9 2296.3,-3576.8 2296.3,-3576.8 z"
         id="path120" /></clipPath><linearGradient
       x1="0"
       y1="0"
       x2="1"
       y2="0"
       gradientUnits="userSpaceOnUse"
       gradientTransform="matrix(-9571.25,-393.554,-393.554,9571.25,34723.8,12579.9)"
       spreadMethod="pad"
       id="linearGradient130"><stop
         style="stop-opacity:1;stop-color:#c4e0d8"
         offset="0"
         id="stop124" /><stop
         style="stop-opacity:1;stop-color:#7ecab8"
         offset="1"
         id="stop126" /><stop
         style="stop-opacity:1;stop-color:#7ecab8"
         offset="1"
         id="stop128" /></linearGradient><clipPath
       clipPathUnits="userSpaceOnUse"
       id="clipPath140"><path
         d="m 25745.9,3395.5 c 430.8,-137.5 1260.3,-270 1705.2,-4.5 410.7,245.1 299.9,865.1 640.2,1132.3 340.3,267.2 1498.3,7.8 1971.5,279.6 561.1,322.4 -22.5,1106.8 491.8,1268.3 514.3,161.5 1902.4,-54.7 2197.4,301.2 295,356 -192.8,586.8 588,1130.4 661.3,460.3 1538.8,1059.3 1270.4,1630 -286.1,608.1 -1174.3,237.2 -1722.2,-126.9 -705.8,-469.1 -750.6,424.4 -1335.9,335.1 -529.2,-80.8 -1237,-1625 -1684.1,-1777.1 -447,-152.1 -910.1,364.7 -1581,47.9 -670.9,-316.8 -480.9,-1431.1 -888.1,-1717.5 -407.1,-286.4 -939.4,169.9 -1520.2,-235.3 -580.7,-405.2 -133,-2263.5 -133,-2263.5 z"
         id="path138" /></clipPath><linearGradient
       x1="0"
       y1="0"
       x2="1"
       y2="0"
       gradientUnits="userSpaceOnUse"
       gradientTransform="matrix(-12445.6,-10538.9,-10538.9,12445.6,33452.2,9517)"
       spreadMethod="pad"
       id="linearGradient146"><stop
         style="stop-opacity:1;stop-color:#c4e0d8"
         offset="0"
         id="stop142" /><stop
         style="stop-opacity:1;stop-color:#a4a6a5"
         offset="1"
         id="stop144" /></linearGradient><clipPath
       clipPathUnits="userSpaceOnUse"
       id="clipPath164"><path
         d="m 21269.9,29060.1 c -762.6,850.5 -5247.4,892.1 -6128.6,372.7 -1339.4,-789.4 -382.6,-4058.5 233.4,-4419.3 172.1,-100.9 409.5,-208.4 684.5,-325.9 233.1,-456.8 567.5,-929.8 1041.4,-1276.1 0,0 -200.1,530.5 -125.3,923 1079.6,-375.4 2380.7,-691.7 3268,-583.1 1437.2,176 1789.1,4458.1 1026.6,5308.7 z"
         id="path162" /></clipPath><linearGradient
       x1="0"
       y1="0"
       x2="1"
       y2="0"
       gradientUnits="userSpaceOnUse"
       gradientTransform="matrix(-1028.42,-6064.18,-6064.18,1028.42,18450.4,29643.6)"
       spreadMethod="pad"
       id="linearGradient172"><stop
         style="stop-opacity:1;stop-color:#c4e0d8"
         offset="0"
         id="stop166" /><stop
         style="stop-opacity:1;stop-color:#7ecab8"
         offset="1"
         id="stop168" /><stop
         style="stop-opacity:1;stop-color:#7ecab8"
         offset="1"
         id="stop170" /></linearGradient><clipPath
       clipPathUnits="userSpaceOnUse"
       id="clipPath200"><path
         d="m 18165.4,28418.7 c -521.2,-1.5 -953.1,-424.3 -965.1,-945.3 -4.6,-197 49.8,-381 146.6,-535.7 195.3,-311.9 291.7,-675.9 286.6,-1044.2 h 1069.3 v 37.7 c 0,355.3 97.3,704.6 286.1,1005.5 93.5,148.9 147.6,325 147.6,513.8 0,535.7 -435.1,969.8 -971.1,968.2 z"
         id="path198" /></clipPath><linearGradient
       x1="0"
       y1="0"
       x2="1"
       y2="0"
       gradientUnits="userSpaceOnUse"
       gradientTransform="matrix(0,2525.22,2525.22,0,18168.2,25893.5)"
       spreadMethod="pad"
       id="linearGradient206"><stop
         style="stop-opacity:1;stop-color:#ffffff"
         offset="0"
         id="stop202" /><stop
         style="stop-opacity:1;stop-color:#eaf8f3"
         offset="1"
         id="stop204" /></linearGradient><clipPath
       clipPathUnits="userSpaceOnUse"
       id="clipPath218"><path
         d="m 18391.4,25883.6 c -1.4,0 -2.8,0.1 -4.3,0.3 -14.4,2.3 -24.3,16 -22,30.5 l 204.6,1278.3 -251,-159.3 c -12.1,-7.6 -28.1,-4.4 -36.2,7.5 l -114.3,166.8 -114.2,-166.8 c -8.1,-11.9 -24.1,-15.1 -36.2,-7.5 l -251,159.3 204.6,-1278.3 c 2.3,-14.5 -7.6,-28.2 -22,-30.5 -14.5,-2.4 -28.2,7.6 -30.5,22.1 l -214,1336.6 c -1.6,10.4 2.9,20.7 11.7,26.5 8.7,5.7 20,5.8 28.8,0.2 l 279.2,-177.2 121.7,177.7 c 9.9,14.5 34,14.5 43.9,0 l 121.7,-177.7 279.2,177.2 c 8.8,5.6 20.1,5.5 28.8,-0.2 8.8,-5.8 13.3,-16.1 11.7,-26.5 l -214,-1336.6 c -2.1,-13.1 -13.4,-22.4 -26.2,-22.4 z"
         id="path216" /></clipPath><linearGradient
       x1="0"
       y1="0"
       x2="1"
       y2="0"
       gradientUnits="userSpaceOnUse"
       gradientTransform="matrix(-927.344,0,0,-927.344,18631.9,26582.1)"
       spreadMethod="pad"
       id="linearGradient224"><stop
         style="stop-opacity:1;stop-color:#7bb5a8"
         offset="0"
         id="stop220" /><stop
         style="stop-opacity:1;stop-color:#26655d"
         offset="1"
         id="stop222" /></linearGradient><clipPath
       clipPathUnits="userSpaceOnUse"
       id="clipPath248"><path
         d="m 15593.6,13973.8 c 408.9,-83.1 1216.1,952.6 1534.8,911.2 425.1,-55.2 693.7,-1727.1 693.7,-1727.1 l -375.4,-118.5 c 0,0 -329.9,1034.1 -394,1065.4 -81.4,39.7 -916.2,-1145.2 -1420.8,-1203.1 -392,-44.9 -660,412.2 -660,412.2 z"
         id="path246" /></clipPath><linearGradient
       x1="0"
       y1="0"
       x2="1"
       y2="0"
       gradientUnits="userSpaceOnUse"
       gradientTransform="matrix(2848.15,31.0479,31.0479,-2848.15,14965.7,13877.4)"
       spreadMethod="pad"
       id="linearGradient254"><stop
         style="stop-opacity:1;stop-color:#c4e0d8"
         offset="0"
         id="stop250" /><stop
         style="stop-opacity:1;stop-color:#a4a6a5"
         offset="1"
         id="stop252" /></linearGradient><clipPath
       clipPathUnits="userSpaceOnUse"
       id="clipPath264"><path
         d="m 15382.4,13857 c 428.1,-208 1513.2,923.6 1927.5,777.1 334.2,-118.2 1200.5,-1422.6 1200.5,-1422.6 l -321.8,-258.4 c 0,0 -854.8,1011.1 -974.6,1027.4 -88,11.9 -1251.8,-1175.5 -1758.1,-1217.3 -433.5,-35.9 -686.7,573.5 -686.7,573.5 z"
         id="path262" /></clipPath><linearGradient
       x1="0"
       y1="0"
       x2="1"
       y2="0"
       gradientUnits="userSpaceOnUse"
       gradientTransform="matrix(-783.791,-1306.21,-1306.21,783.791,17346.7,14452.2)"
       spreadMethod="pad"
       id="linearGradient270"><stop
         style="stop-opacity:1;stop-color:#7bb5a8"
         offset="0"
         id="stop266" /><stop
         style="stop-opacity:1;stop-color:#26655d"
         offset="1"
         id="stop268" /></linearGradient><clipPath
       clipPathUnits="userSpaceOnUse"
       id="clipPath282"><path
         d="m 14367.2,14776.1 c 129.9,-287.4 715.6,-898.6 1131.7,-992.8 247,-55.9 734,334.9 734,334.9 l -90.9,232.4 c 0,0 -383.1,-289.1 -609.9,-98.3 -226.7,190.8 -646,820.2 -841.8,844.7 -172.5,21.6 -381.5,-191.8 -323.1,-320.9 z"
         id="path280" /></clipPath><linearGradient
       x1="0"
       y1="0"
       x2="1"
       y2="0"
       gradientUnits="userSpaceOnUse"
       gradientTransform="matrix(1867.79,20.361,20.361,-1867.79,14361.5,14430)"
       spreadMethod="pad"
       id="linearGradient290"><stop
         style="stop-opacity:1;stop-color:#fabcc2"
         offset="0"
         id="stop284" /><stop
         style="stop-opacity:1;stop-color:#fabcc2"
         offset="0.0533854"
         id="stop286" /><stop
         style="stop-opacity:1;stop-color:#f46878"
         offset="1"
         id="stop288" /></linearGradient><clipPath
       clipPathUnits="userSpaceOnUse"
       id="clipPath300"><path
         d="m 14324.9,15107.8 c 0,0 -98,-1140.5 505.2,-1967 0,0 48.3,-201 667.5,171.2 619.2,372.2 607.3,479.5 607.3,479.5 -463,366.8 -916,821.1 -1351.4,1428.6 0,0 -231.6,-138.9 -428.6,-112.3 z"
         id="path298" /></clipPath><linearGradient
       x1="0"
       y1="0"
       x2="1"
       y2="0"
       gradientUnits="userSpaceOnUse"
       gradientTransform="matrix(1773.57,19.3338,19.3338,-1773.57,14327.3,14147.7)"
       spreadMethod="pad"
       id="linearGradient306"><stop
         style="stop-opacity:1;stop-color:#f46878"
         offset="0"
         id="stop302" /><stop
         style="stop-opacity:1;stop-color:#ef2e3b"
         offset="1"
         id="stop304" /></linearGradient><clipPath
       clipPathUnits="userSpaceOnUse"
       id="clipPath318"><path
         d="m 14439.8,14632.3 c 111.6,-300.6 639.6,-968 1055,-1092.7 246.7,-74 791.2,294.3 791.2,294.3 l -75.9,242.1 c 0,0 -408.9,-266.3 -625.5,-56.8 -216.6,209.5 -625.2,917.8 -822.1,956.4 -173.4,34 -372.9,-208.2 -322.7,-343.3 z"
         id="path316" /></clipPath><linearGradient
       x1="0"
       y1="0"
       x2="1"
       y2="0"
       gradientUnits="userSpaceOnUse"
       gradientTransform="matrix(1844.66,20.1088,20.1088,-1844.66,14436.6,14246.5)"
       spreadMethod="pad"
       id="linearGradient326"><stop
         style="stop-opacity:1;stop-color:#fabcc2"
         offset="0"
         id="stop320" /><stop
         style="stop-opacity:1;stop-color:#fabcc2"
         offset="0.0533854"
         id="stop322" /><stop
         style="stop-opacity:1;stop-color:#f46878"
         offset="1"
         id="stop324" /></linearGradient><clipPath
       clipPathUnits="userSpaceOnUse"
       id="clipPath344"><path
         d="m 17398.6,14932.3 -491.2,180.8 c -0.9,0.3 -1.9,0.4 -2.8,0.3 l -44,-6.5 c -2.1,-0.3 -3.9,-1.8 -4.6,-3.8 l -184.3,-526.9 c -0.5,-1.6 -1.7,-2.8 -3.3,-3.4 l -445.9,-176.9 -0.9,-0.1 4.7,-31.6 c 0.3,-2 1.5,-3.7 3.3,-4.5 l 504.5,-221.4 c 1.4,-0.6 3,-0.6 4.5,-0.1 l 446.6,177.1 24.8,9.7 c 2,0.8 3.4,2.6 3.6,4.7 l 4,33.5 0.2,1.2 184.3,560.7 c 1,2.9 -0.6,6.1 -3.5,7.2 z"
         id="path342" /></clipPath><linearGradient
       x1="0"
       y1="0"
       x2="1"
       y2="0"
       gradientUnits="userSpaceOnUse"
       gradientTransform="matrix(1186.45,12.9336,12.9336,-1186.45,16219.2,14619.1)"
       spreadMethod="pad"
       id="linearGradient350"><stop
         style="stop-opacity:1;stop-color:#f46878"
         offset="0"
         id="stop346" /><stop
         style="stop-opacity:1;stop-color:#ef2e3b"
         offset="1"
         id="stop348" /></linearGradient><clipPath
       clipPathUnits="userSpaceOnUse"
       id="clipPath362"><path
         d="m 17186.6,14347 -515.7,226.7 -448.9,-178 515.7,-226.7 z"
         id="path360" /></clipPath><linearGradient
       x1="0"
       y1="0"
       x2="1"
       y2="0"
       gradientUnits="userSpaceOnUse"
       gradientTransform="matrix(792.252,-394.754,362.206,727.157,16308.2,14568.7)"
       spreadMethod="pad"
       id="linearGradient370"><stop
         style="stop-opacity:1;stop-color:#fabcc2"
         offset="0"
         id="stop364" /><stop
         style="stop-opacity:1;stop-color:#fabcc2"
         offset="0.0533854"
         id="stop366" /><stop
         style="stop-opacity:1;stop-color:#f46878"
         offset="1"
         id="stop368" /></linearGradient><clipPath
       clipPathUnits="userSpaceOnUse"
       id="clipPath380"><path
         d="m 17093.8,14355.1 -412.1,182.9 -210.9,-80.3 412,-182.8 z"
         id="path378" /></clipPath><linearGradient
       x1="0"
       y1="0"
       x2="1"
       y2="0"
       gradientUnits="userSpaceOnUse"
       gradientTransform="matrix(540.07,-269.042,229.249,460.235,16512.2,14541)"
       spreadMethod="pad"
       id="linearGradient386"><stop
         style="stop-opacity:1;stop-color:#f46878"
         offset="0"
         id="stop382" /><stop
         style="stop-opacity:1;stop-color:#ef2e3b"
         offset="1"
         id="stop384" /></linearGradient><clipPath
       clipPathUnits="userSpaceOnUse"
       id="clipPath396"><path
         d="m 16723,14320.9 -175.5,77.8 -89.9,-34.1 175.6,-77.9 z"
         id="path394" /></clipPath><linearGradient
       x1="0"
       y1="0"
       x2="1"
       y2="0"
       gradientUnits="userSpaceOnUse"
       gradientTransform="matrix(230.065,-114.609,97.6576,196.055,16475.3,14400)"
       spreadMethod="pad"
       id="linearGradient402"><stop
         style="stop-opacity:1;stop-color:#f46878"
         offset="0"
         id="stop398" /><stop
         style="stop-opacity:1;stop-color:#ef2e3b"
         offset="1"
         id="stop400" /></linearGradient><clipPath
       clipPathUnits="userSpaceOnUse"
       id="clipPath430"><path
         d="m 6809.77,7058.6 1186.04,-230.3 370.75,-3544.8 -397.81,-54.6 z"
         id="path428" /></clipPath><linearGradient
       x1="0"
       y1="0"
       x2="1"
       y2="0"
       gradientUnits="userSpaceOnUse"
       gradientTransform="matrix(-837.798,87.3777,87.3777,837.798,8256.29,5053.4)"
       spreadMethod="pad"
       id="linearGradient436"><stop
         style="stop-opacity:1;stop-color:#7bb5a8"
         offset="0"
         id="stop432" /><stop
         style="stop-opacity:1;stop-color:#26655d"
         offset="1"
         id="stop434" /></linearGradient><clipPath
       clipPathUnits="userSpaceOnUse"
       id="clipPath446"><path
         d="m 6731.7,6822.1 1196.59,167.2 c 0,0 -183.45,-2219.3 -541.42,-2502.3 -199.12,-157.4 -1305.78,-422.5 -1305.78,-422.5 l -119.14,339.8 c 0,0 833.11,337.3 902.8,441.5 75.78,113.4 -133.05,1976.3 -133.05,1976.3 z"
         id="path444" /></clipPath><linearGradient
       x1="0"
       y1="0"
       x2="1"
       y2="0"
       gradientUnits="userSpaceOnUse"
       gradientTransform="matrix(-1094.79,138.776,138.776,1094.79,7598.22,5451.7)"
       spreadMethod="pad"
       id="linearGradient452"><stop
         style="stop-opacity:1;stop-color:#7bb5a8"
         offset="0"
         id="stop448" /><stop
         style="stop-opacity:1;stop-color:#26655d"
         offset="1"
         id="stop450" /></linearGradient><clipPath
       clipPathUnits="userSpaceOnUse"
       id="clipPath464"><path
         d="m 7175.79,8319.5 c 115.3,-302 658.76,-972.9 1078.72,-1094.8 249.38,-72.4 789.99,306.9 789.99,306.9 l -78.72,243.5 c 0,0 -409.84,-272.3 -630.15,-63.1 -220.3,209.2 -610.66,879 -809.47,916 -175.19,32.7 -402.17,-172.7 -350.37,-308.5 z"
         id="path462" /></clipPath><linearGradient
       x1="0"
       y1="0"
       x2="1"
       y2="0"
       gradientUnits="userSpaceOnUse"
       gradientTransform="matrix(1876.22,0,0,-1876.22,7168.28,7923.5)"
       spreadMethod="pad"
       id="linearGradient470"><stop
         style="stop-opacity:1;stop-color:#c4e0d8"
         offset="0"
         id="stop466" /><stop
         style="stop-opacity:1;stop-color:#a4a6a5"
         offset="1"
         id="stop468" /></linearGradient><clipPath
       clipPathUnits="userSpaceOnUse"
       id="clipPath480"><path
         d="m 7168.28,8866.2 c 0,0 -641.48,-959.4 -510.87,-1982.8 0,0 -55.12,-201 672.77,-173.6 727.88,27.4 769.54,128 769.54,128 -230.42,549.1 -409.41,1170.7 -498.33,1919.1 0,0 -272.13,-10 -433.11,109.3 z"
         id="path478" /></clipPath><linearGradient
       x1="0"
       y1="0"
       x2="1"
       y2="0"
       gradientUnits="userSpaceOnUse"
       gradientTransform="matrix(1459.85,0,0,-1459.85,6639.87,7786.7)"
       spreadMethod="pad"
       id="linearGradient488"><stop
         style="stop-opacity:1;stop-color:#fabcc2"
         offset="0"
         id="stop482" /><stop
         style="stop-opacity:1;stop-color:#fabcc2"
         offset="0.0533854"
         id="stop484" /><stop
         style="stop-opacity:1;stop-color:#f46878"
         offset="1"
         id="stop486" /></linearGradient><clipPath
       clipPathUnits="userSpaceOnUse"
       id="clipPath500"><path
         d="m 7060.63,8697.5 c -231.36,-225.8 -364.51,-738.7 -462.95,-1164.8 -98.44,-426.1 -18.43,-1073 -18.43,-1073 l 265.28,-11.7 c 0,0 15.16,658.5 119.56,943.7 104.39,285.3 563.86,909.7 518.87,1106.9 -39.65,173.8 -318.39,300.4 -422.33,198.9 z"
         id="path498" /></clipPath><linearGradient
       x1="0"
       y1="0"
       x2="1"
       y2="0"
       gradientUnits="userSpaceOnUse"
       gradientTransform="matrix(1440.06,501.009,501.009,-1440.06,6272.33,7341.9)"
       spreadMethod="pad"
       id="linearGradient506"><stop
         style="stop-opacity:1;stop-color:#c4e0d8"
         offset="0"
         id="stop502" /><stop
         style="stop-opacity:1;stop-color:#a4a6a5"
         offset="1"
         id="stop504" /></linearGradient><clipPath
       clipPathUnits="userSpaceOnUse"
       id="clipPath544"><path
         d="m 11510,23374.6 c 217.1,-350 1507.7,-228.9 1693.7,-485.9 248.1,-342.7 -771.3,-1667.5 -771.3,-1667.5 l -339.3,189.4 c 0,0 519.7,937.1 498.8,1004.3 -26.6,85.4 -1443,-116.9 -1826.2,206.5 -297.6,251.2 -150.6,753.2 -150.6,753.2 z"
         id="path542" /></clipPath><linearGradient
       x1="0"
       y1="0"
       x2="1"
       y2="0"
       gradientUnits="userSpaceOnUse"
       gradientTransform="matrix(-529.393,209.932,209.932,529.393,12897.3,22040.4)"
       spreadMethod="pad"
       id="linearGradient550"><stop
         style="stop-opacity:1;stop-color:#7bb5a8"
         offset="0"
         id="stop546" /><stop
         style="stop-opacity:1;stop-color:#26655d"
         offset="1"
         id="stop548" /></linearGradient><clipPath
       clipPathUnits="userSpaceOnUse"
       id="clipPath560"><path
         d="m 11408.9,23374.6 c 189.4,-429.9 1728.9,-271.1 1947.2,-645.9 176.1,-302.4 -4.8,-1837.6 -4.8,-1837.6 l -407.2,11.1 c 0,0 2.2,1307 -77.6,1395.7 -58.6,65.2 -1693,-85.4 -2100.8,206.4 -349.2,249.8 -150.6,870.3 -150.6,870.3 z"
         id="path558" /></clipPath><linearGradient
       x1="0"
       y1="0"
       x2="1"
       y2="0"
       gradientUnits="userSpaceOnUse"
       gradientTransform="matrix(-474.63,-584.159,-584.159,474.63,12709.3,23026.5)"
       spreadMethod="pad"
       id="linearGradient568"><stop
         style="stop-opacity:1;stop-color:#c4e0d8"
         offset="0"
         id="stop562" /><stop
         style="stop-opacity:1;stop-color:#7ecab8"
         offset="1"
         id="stop564" /><stop
         style="stop-opacity:1;stop-color:#7ecab8"
         offset="1"
         id="stop566" /></linearGradient><clipPath
       clipPathUnits="userSpaceOnUse"
       id="clipPath580"><path
         d="m 10880.2,24928.5 c -22.8,-315.7 181.3,-1136 503.4,-1418.1 191.2,-167.6 828,-55.1 828,-55.1 l 31,248.6 c 0,0 -476.4,-71.7 -585.2,205.1 -108.7,276.9 -177.5,1032.7 -338.5,1148 -141.9,101.6 -428.4,13.4 -438.7,-128.5 z"
         id="path578" /></clipPath><linearGradient
       x1="0"
       y1="0"
       x2="1"
       y2="0"
       gradientUnits="userSpaceOnUse"
       gradientTransform="matrix(1663.69,-711.872,-711.872,-1663.69,10713,24553.1)"
       spreadMethod="pad"
       id="linearGradient588"><stop
         style="stop-opacity:1;stop-color:#fabcc2"
         offset="0"
         id="stop582" /><stop
         style="stop-opacity:1;stop-color:#fabcc2"
         offset="0.0533854"
         id="stop584" /><stop
         style="stop-opacity:1;stop-color:#f46878"
         offset="1"
         id="stop586" /></linearGradient><clipPath
       clipPathUnits="userSpaceOnUse"
       id="clipPath598"><path
         d="m 10973.3,25276.8 c 0,0 -658.3,-918.4 -563.2,-1924 0,0 -60.3,-194.9 652.9,-191.3 713.1,3.6 757.1,100.6 757.1,100.6 -208,544.8 -363.3,1158.7 -426.4,1893.9 0,0 -266.7,-1.1 -420.4,120.8 z"
         id="path596" /></clipPath><linearGradient
       x1="0"
       y1="0"
       x2="1"
       y2="0"
       gradientUnits="userSpaceOnUse"
       gradientTransform="matrix(1419.34,0,0,-1419.34,10400.7,24219.1)"
       spreadMethod="pad"
       id="linearGradient604"><stop
         style="stop-opacity:1;stop-color:#f46878"
         offset="0"
         id="stop600" /><stop
         style="stop-opacity:1;stop-color:#ef2e3b"
         offset="1"
         id="stop602" /></linearGradient><clipPath
       clipPathUnits="userSpaceOnUse"
       id="clipPath616"><path
         d="m 10888.7,25067.3 c -236,-210.9 -388.4,-706.9 -503,-1119.4 -114.7,-412.5 -64.3,-1048.7 -64.3,-1048.7 l 259,-22.9 c 0,0 43.2,643.4 157.6,918 114.4,274.5 590.7,865.5 555.2,1060.3 -31.3,171.6 -298.5,307.5 -404.5,212.7 z"
         id="path614" /></clipPath><linearGradient
       x1="0"
       y1="0"
       x2="1"
       y2="0"
       gradientUnits="userSpaceOnUse"
       gradientTransform="matrix(984.743,0,0,-984.743,10310.4,23987.4)"
       spreadMethod="pad"
       id="linearGradient624"><stop
         style="stop-opacity:1;stop-color:#fabcc2"
         offset="0"
         id="stop618" /><stop
         style="stop-opacity:1;stop-color:#fabcc2"
         offset="0.0533854"
         id="stop620" /><stop
         style="stop-opacity:1;stop-color:#f46878"
         offset="1"
         id="stop622" /></linearGradient><clipPath
       clipPathUnits="userSpaceOnUse"
       id="clipPath644"><path
         d="m 13491.5,24433.4 v 0 c -31.3,10 -64.8,-7.4 -74.7,-38.8 l -233,-737 h -698.5 c -32.8,0 -59.5,-26.7 -59.5,-59.5 0,-32.9 26.7,-59.5 59.5,-59.5 h 743.1 c 30.1,0 54.9,22.3 58.9,51.3 l 243,768.9 c 9.9,31.3 -7.5,64.7 -38.8,74.6 z"
         id="path642" /></clipPath><linearGradient
       x1="0"
       y1="0"
       x2="1"
       y2="0"
       gradientUnits="userSpaceOnUse"
       gradientTransform="matrix(1107.28,0,0,-1107.28,12425.8,23987.4)"
       spreadMethod="pad"
       id="linearGradient650"><stop
         style="stop-opacity:1;stop-color:#7bb5a8"
         offset="0"
         id="stop646" /><stop
         style="stop-opacity:1;stop-color:#26655d"
         offset="1"
         id="stop648" /></linearGradient><clipPath
       clipPathUnits="userSpaceOnUse"
       id="clipPath674"><path
         d="m 24218.8,23103.4 c -321.6,-302.4 -1529.2,-389.5 -1762.9,-650.6 -241.1,-269.5 -344.4,-1622.3 -344.4,-1622.3 l 286.4,-84.7 c 0,0 400.9,1279.5 474.2,1334.4 74,55.5 1713.3,-27.1 2116.5,244.3 334.1,224.9 155.8,778.9 155.8,778.9 z"
         id="path672" /></clipPath><linearGradient
       x1="0"
       y1="0"
       x2="1"
       y2="0"
       gradientUnits="userSpaceOnUse"
       gradientTransform="matrix(498.814,-131.267,-131.267,-498.814,22348.6,22298.9)"
       spreadMethod="pad"
       id="linearGradient680"><stop
         style="stop-opacity:1;stop-color:#f46878"
         offset="0"
         id="stop676" /><stop
         style="stop-opacity:1;stop-color:#ef2e3b"
         offset="1"
         id="stop678" /></linearGradient><clipPath
       clipPathUnits="userSpaceOnUse"
       id="clipPath690"><path
         d="m 24365.4,23103.4 c -224.5,-362 -1812.9,-464.1 -1896.5,-849.1 -91.3,-420.3 1666.1,-699.2 1666.1,-699.2 l 76,284.6 c 0,0 -657.3,175.3 -647,210.8 9.6,33 1174.9,-60.5 1571.2,274 307.8,259.7 155.8,778.9 155.8,778.9 z"
         id="path688" /></clipPath><linearGradient
       x1="0"
       y1="0"
       x2="1"
       y2="0"
       gradientUnits="userSpaceOnUse"
       gradientTransform="matrix(971.375,-456.809,-456.809,-971.375,23289.8,22863.3)"
       spreadMethod="pad"
       id="linearGradient698"><stop
         style="stop-opacity:1;stop-color:#fabcc2"
         offset="0"
         id="stop692" /><stop
         style="stop-opacity:1;stop-color:#fabcc2"
         offset="0.0533854"
         id="stop694" /><stop
         style="stop-opacity:1;stop-color:#f46878"
         offset="1"
         id="stop696" /></linearGradient><clipPath
       clipPathUnits="userSpaceOnUse"
       id="clipPath710"><path
         d="m 25084,24701.9 c 11.4,-321.8 -247.3,-1146.4 -585.2,-1421.1 -200.7,-163.1 -823.3,-26.4 -823.3,-26.4 l -22.2,253.8 c 0,0 496.7,-53.3 617.6,224.1 121,277.3 204.1,1005.6 372,1116.7 148,97.9 435.9,-2.5 441.1,-147.1 z"
         id="path708" /></clipPath><linearGradient
       x1="0"
       y1="0"
       x2="1"
       y2="0"
       gradientUnits="userSpaceOnUse"
       gradientTransform="matrix(441.603,-215.16,-215.16,-441.603,24237.7,24090.7)"
       spreadMethod="pad"
       id="linearGradient718"><stop
         style="stop-opacity:1;stop-color:#c4e0d8"
         offset="0"
         id="stop712" /><stop
         style="stop-opacity:1;stop-color:#7ecab8"
         offset="1"
         id="stop714" /><stop
         style="stop-opacity:1;stop-color:#7ecab8"
         offset="1"
         id="stop716" /></linearGradient><clipPath
       clipPathUnits="userSpaceOnUse"
       id="clipPath728"><path
         d="m 24938.6,25216.9 c 0,0 649.5,-971.5 517.3,-2007.7 0,0 55.8,-203.5 -681.2,-175.8 -737.1,27.8 -779.3,129.5 -779.3,129.5 233.4,556.1 414.6,1185.5 504.6,1943.3 0,0 275.6,-10.1 438.6,110.7 z"
         id="path726" /></clipPath><linearGradient
       x1="0"
       y1="0"
       x2="1"
       y2="0"
       gradientUnits="userSpaceOnUse"
       gradientTransform="matrix(1478.21,0,0,-1478.21,23995.4,24123.8)"
       spreadMethod="pad"
       id="linearGradient736"><stop
         style="stop-opacity:1;stop-color:#c4e0d8"
         offset="0"
         id="stop730" /><stop
         style="stop-opacity:1;stop-color:#7ecab8"
         offset="1"
         id="stop732" /><stop
         style="stop-opacity:1;stop-color:#7ecab8"
         offset="1"
         id="stop734" /></linearGradient><clipPath
       clipPathUnits="userSpaceOnUse"
       id="clipPath750"><path
         d="m 24585.6,25123 c 0,0 -15.4,-600.5 -142,-1250.8 -126.6,-650.3 -319.3,-1078.6 -319.3,-1078.6 0,0 1278.5,-78.2 1500.9,237.7 200.3,284.5 -344.9,1869.2 -640.1,2217.2 z"
         id="path748" /></clipPath><linearGradient
       x1="0"
       y1="0"
       x2="1"
       y2="0"
       gradientUnits="userSpaceOnUse"
       gradientTransform="matrix(1544.01,0,0,-1544.01,24124.3,24016.8)"
       spreadMethod="pad"
       id="linearGradient756"><stop
         style="stop-opacity:1;stop-color:#7bb5a8"
         offset="0"
         id="stop752" /><stop
         style="stop-opacity:1;stop-color:#26655d"
         offset="1"
         id="stop754" /></linearGradient><clipPath
       clipPathUnits="userSpaceOnUse"
       id="clipPath770"><path
         d="m 23603.3,23069.7 h -1181.7 v 108.2 h 1181.7 z"
         id="path768" /></clipPath><linearGradient
       x1="0"
       y1="0"
       x2="1"
       y2="0"
       gradientUnits="userSpaceOnUse"
       gradientTransform="matrix(1181.67,0,0,-1181.67,22421.6,23123.8)"
       spreadMethod="pad"
       id="linearGradient776"><stop
         style="stop-opacity:1;stop-color:#7bb5a8"
         offset="0"
         id="stop772" /><stop
         style="stop-opacity:1;stop-color:#26655d"
         offset="1"
         id="stop774" /></linearGradient><clipPath
       clipPathUnits="userSpaceOnUse"
       id="clipPath786"><path
         d="m 23191.1,23069.7 h -770.4 l -115.7,761.9 h 770.4 z"
         id="path784" /></clipPath><linearGradient
       x1="0"
       y1="0"
       x2="1"
       y2="0"
       gradientUnits="userSpaceOnUse"
       gradientTransform="matrix(886.165,0,0,-886.165,22305,23450.6)"
       spreadMethod="pad"
       id="linearGradient792"><stop
         style="stop-opacity:1;stop-color:#7bb5a8"
         offset="0"
         id="stop788" /><stop
         style="stop-opacity:1;stop-color:#26655d"
         offset="1"
         id="stop790" /></linearGradient><clipPath
       clipPathUnits="userSpaceOnUse"
       id="clipPath810"><path
         d="m 25137.9,24790.4 c 95.8,-313 2.5,-1184.4 -280.4,-1525 -168,-202.3 -839.1,-196.5 -839.1,-196.5 l -72.2,248.8 c 0,0 498.2,4.4 564.2,304.9 65.9,300.4 13.5,1133.6 159.2,1277.6 128.3,126.8 416.6,59.3 468.3,-109.8 z"
         id="path808" /></clipPath><linearGradient
       x1="0"
       y1="0"
       x2="1"
       y2="0"
       gradientUnits="userSpaceOnUse"
       gradientTransform="matrix(620.183,-105.701,-105.701,-620.183,24560.9,23998.4)"
       spreadMethod="pad"
       id="linearGradient818"><stop
         style="stop-opacity:1;stop-color:#c4e0d8"
         offset="0"
         id="stop812" /><stop
         style="stop-opacity:1;stop-color:#7ecab8"
         offset="1"
         id="stop814" /><stop
         style="stop-opacity:1;stop-color:#7ecab8"
         offset="1"
         id="stop816" /></linearGradient><clipPath
       clipPathUnits="userSpaceOnUse"
       id="clipPath842"><path
         d="m 28584,5171.2 h -878.5 l -378.9,-3057 511.1,-74.4 z"
         id="path840" /></clipPath><linearGradient
       x1="0"
       y1="0"
       x2="1"
       y2="0"
       gradientUnits="userSpaceOnUse"
       gradientTransform="matrix(-1257.43,0,0,-1257.43,28584,3605.5)"
       spreadMethod="pad"
       id="linearGradient848"><stop
         style="stop-opacity:1;stop-color:#f46878"
         offset="0"
         id="stop844" /><stop
         style="stop-opacity:1;stop-color:#ef2e3b"
         offset="1"
         id="stop846" /></linearGradient><clipPath
       clipPathUnits="userSpaceOnUse"
       id="clipPath858"><path
         d="m 28825.1,5171.2 h -844 c 0,0 154.6,-1953.9 280.6,-2183.6 150.9,-275.3 748.7,-914.4 748.7,-914.4 l 405.9,313.6 c 0,0 -427.5,605.4 -530.9,889.6 -103.3,284.2 -60.3,1894.8 -60.3,1894.8 z"
         id="path856" /></clipPath><linearGradient
       x1="0"
       y1="0"
       x2="1"
       y2="0"
       gradientUnits="userSpaceOnUse"
       gradientTransform="matrix(-1435.23,0,0,-1435.23,29416.3,3622.2)"
       spreadMethod="pad"
       id="linearGradient866"><stop
         style="stop-opacity:1;stop-color:#fabcc2"
         offset="0"
         id="stop860" /><stop
         style="stop-opacity:1;stop-color:#fabcc2"
         offset="0.0533854"
         id="stop862" /><stop
         style="stop-opacity:1;stop-color:#f46878"
         offset="1"
         id="stop864" /></linearGradient><clipPath
       clipPathUnits="userSpaceOnUse"
       id="clipPath878"><path
         d="m 27087.8,5415.6 321.8,-449.3 c 0,0 413.5,476.5 620.9,778.3 260.8,379.4 623.3,972.9 323.1,1164.2 -392.2,250 -612.7,-840.3 -762.4,-1042.3 -120.9,-163.3 -503.4,-450.9 -503.4,-450.9 z"
         id="path876" /></clipPath><linearGradient
       x1="0"
       y1="0"
       x2="1"
       y2="0"
       gradientUnits="userSpaceOnUse"
       gradientTransform="matrix(-1379.14,0,0,-1379.14,28466.9,5956.1)"
       spreadMethod="pad"
       id="linearGradient884"><stop
         style="stop-opacity:1;stop-color:#7bb5a8"
         offset="0"
         id="stop880" /><stop
         style="stop-opacity:1;stop-color:#26655d"
         offset="1"
         id="stop882" /></linearGradient><clipPath
       clipPathUnits="userSpaceOnUse"
       id="clipPath896"><path
         d="m 28416.6,7133.6 c 0,0 627.4,-938.4 499.6,-1939.3 0,0 53.9,-196.6 -658,-169.8 -711.9,26.9 -752.6,125.2 -752.6,125.2 225.3,537.1 400.4,1145 487.4,1877 0,0 266.1,-9.8 423.6,106.9 z"
         id="path894" /></clipPath><linearGradient
       x1="0"
       y1="0"
       x2="1"
       y2="0"
       gradientUnits="userSpaceOnUse"
       gradientTransform="matrix(1427.83,0,0,1427.83,27505.6,6077.8)"
       spreadMethod="pad"
       id="linearGradient902"><stop
         style="stop-opacity:1;stop-color:#7bb5a8"
         offset="0"
         id="stop898" /><stop
         style="stop-opacity:1;stop-color:#26655d"
         offset="1"
         id="stop900" /></linearGradient><clipPath
       clipPathUnits="userSpaceOnUse"
       id="clipPath912"><path
         d="m 29053.2,5133.3 536.2,134 c 0,0 -244.7,574.1 -449,878 -257,382.1 -675.5,937.4 -963.8,728.7 -376.7,-272.9 556.1,-878.8 688.9,-1092.4 107.3,-172.5 187.7,-648.3 187.7,-648.3 z"
         id="path910" /></clipPath><linearGradient
       x1="0"
       y1="0"
       x2="1"
       y2="0"
       gradientUnits="userSpaceOnUse"
       gradientTransform="matrix(-1501.84,0,0,-1501.84,29589.4,6026.4)"
       spreadMethod="pad"
       id="linearGradient918"><stop
         style="stop-opacity:1;stop-color:#7bb5a8"
         offset="0"
         id="stop914" /><stop
         style="stop-opacity:1;stop-color:#26655d"
         offset="1"
         id="stop916" /></linearGradient></defs><sodipodi:namedview
     pagecolor="#ffffff"
     bordercolor="#666666"
     borderopacity="1"
     objecttolerance="10"
     gridtolerance="10"
     guidetolerance="10"
     inkscape:pageopacity="0"
     inkscape:pageshadow="2"
     inkscape:window-width="640"
     inkscape:window-height="480"
     id="namedview4" /><g
     id="g10"
     inkscape:groupmode="layer"
     inkscape:label="ink_ext_XXXXXX"
     transform="matrix(1.3333333,0,0,-1.3333333,0,3969.6)"><g
       id="g12"
       transform="scale(0.1)"><g
         id="g14"><g
           id="g16"
           clip-path="url(#clipPath20)"><path
             d="M 13324.4,0 C 7525.11,0 2756.71,4669.2 2655.75,10479.9 c -67.12,3862.8 1919.03,7266.5 4939.21,9192.4 664.56,423.7 1243.44,970.8 1697.18,1615.2 1985.96,2820.7 5267.26,4663.7 8979.06,4663.7 3937.2,0 7390,-2073.5 9326.3,-5187.9 439.3,-706.6 1040.5,-1299.2 1749.3,-1735 2828.3,-1738.8 4719.6,-4854.2 4740.1,-8412.9 31.8,-5498.3 -4437.5,-9995.298 -9935.9,-9995.998 -0.5,0 -0.8,0 -1.3,0 -641.6,0 -1269.1,60.899 -1876.9,177.098 -751.3,143.602 -1511.6,216 -2270.7,216 -1181.6,0 -2360.3,-175.398 -3497,-530.098 C 15531,178.5 14497.1,10.5 13425.3,0.5 13391.4,0.203125 13358.3,0 13324.4,0"
             style="fill:url(#linearGradient26);fill-opacity:1;fill-rule:nonzero;stroke:none"
             id="path28" /></g></g><g
         id="g30"><g
           id="g32"
           clip-path="url(#clipPath36)"><path
             d="m 21735.5,12898.6 c 0,0 1476,5072.9 3396.7,7953.6 1920.7,2880.7 3987.4,3752.8 3987.4,3752.8 0,0 -969.2,-1285.2 -1575.8,-3023.3 -606.7,-1738.1 -749.7,-3595.7 -1707.1,-5277.4 -1448.3,-2544.1 -4101.2,-3405.7 -4101.2,-3405.7"
             style="fill:url(#linearGradient44);fill-opacity:1;fill-rule:nonzero;stroke:none"
             id="path46" /></g></g><g
         id="g48"><g
           id="g50"
           clip-path="url(#clipPath54)"><path
             d="m 29216.9,22441.9 c 0,0 -1648,-568.5 -2794.3,-1634.2 -1146.3,-1065.7 -1800.1,-2743.1 -2714.2,-3451.8 0,0 1365.6,403.3 2019.4,1027.2 653.7,624 933,1592.6 1385.3,2233.7 392.6,556.6 1208.2,1256.3 2103.8,1825.1"
             style="fill:url(#linearGradient60);fill-opacity:1;fill-rule:nonzero;stroke:none"
             id="path62" /></g></g><g
         id="g64"><g
           id="g66"
           clip-path="url(#clipPath70)"><path
             d="M 52.8086,12402.7 C -649.164,9214.4 5879.62,7650.5 5869.07,7026.3 5858.52,6402 2513.66,6835.9 3180.51,5141.4 3798.49,3571.5 9014.32,2931 12836.3,4697 c 110.7,51.1 2837,4741.3 867.1,7504.2 -1970,2762.8 -2585.9,-1970.1 -3505.7,-1843.5 -919.93,126.8 1122.1,5931.8 -749.98,7184.2 -1939.89,1297.5 -2560.41,-2871.9 -3469.3,-2227.5 -860.99,610.4 -1286.49,6539.6 -3672.05,5782.8 -86.43,-27.4 -175.38,-63.6 -267.13,-109.1 l -1.05,-0.5 -0.03,-0.1 c -48.54,-24.1 -97.85,-50.8 -147.96,-80.3 C -865.523,19285.1 4345.53,13017.3 3150.92,12782.9 1956.39,12548.4 408.57,14018.5 52.8086,12402.7"
             style="fill:url(#linearGradient78);fill-opacity:1;fill-rule:nonzero;stroke:none"
             id="path80" /></g></g><g
         id="g82"><g
           id="g84"
           clip-path="url(#clipPath88)"><path
             d="m 11708.6,3604.1 c 0,0 -1612.5,5542.1 -3710.89,8689.3 -2098.36,3147.1 -4356.25,4100 -4356.25,4100 0,0 1058.81,-1404.2 1721.57,-3303.1 662.75,-1898.8 819.07,-3928.2 1865,-5765.5 C 8810.31,4545.4 11708.6,3604.1 11708.6,3604.1"
             style="fill:url(#linearGradient96);fill-opacity:1;fill-rule:nonzero;stroke:none"
             id="path98" /></g></g><g
         id="g100"><g
           id="g102"
           clip-path="url(#clipPath106)"><path
             d="m 4243.08,12194.6 c 0,0 1534.31,-968.5 2441.85,-2321.3 907.54,-1352.8 1170.44,-3208 1927.79,-4143.8 0,0 -1287.61,733.9 -1801.34,1521.8 -513.73,787.8 -566,1835.7 -871.47,2593 -265.21,657.5 -924.93,1560.6 -1696.83,2350.3"
             style="fill:url(#linearGradient112);fill-opacity:1;fill-rule:nonzero;stroke:none"
             id="path114" /></g></g><g
         id="g116"><g
           id="g118"
           clip-path="url(#clipPath122)"><path
             d="m 26668.9,3077.7 c 804.4,267.2 2207.6,981.8 2588.8,1875.1 351.9,824.7 -500.3,1641.7 -279.5,2422.2 220.8,780.4 2261.8,1665.3 2678.8,2599.3 494.5,1107.8 -1255.5,1652.4 -654.4,2464.6 601.2,812.2 2943.1,2016.6 2997.3,2881.5 54.3,864.9 -939.6,676.2 -356.3,2361.7 493.9,1427.2 1162.7,3303.3 126.2,3871.7 -1104.7,605.9 -2041.2,-936.4 -2469.6,-2092.7 -551.9,-1489.6 -1605.8,-185.2 -2394.1,-966.5 -712.8,-706.4 -81.2,-3827.4 -590.8,-4551.2 -509.5,-723.8 -1781.6,-451.8 -2448.6,-1672.3 -667,-1220.4 850.6,-2699.2 549.7,-3582.4 -301,-883.3 -1611,-779.3 -2043.8,-2034.2 -432.9,-1254.9 2296.3,-3576.8 2296.3,-3576.8"
             style="fill:url(#linearGradient130);fill-opacity:1;fill-rule:nonzero;stroke:none"
             id="path132" /></g></g><g
         id="g134"><g
           id="g136"
           clip-path="url(#clipPath140)"><path
             d="m 25745.9,3395.5 c 430.8,-137.5 1260.3,-270 1705.2,-4.5 410.7,245.1 299.9,865.1 640.2,1132.3 340.3,267.2 1498.3,7.8 1971.5,279.6 561.1,322.4 -22.5,1106.8 491.8,1268.3 514.3,161.5 1902.4,-54.7 2197.4,301.2 295,356 -192.8,586.8 588,1130.4 661.3,460.3 1538.8,1059.3 1270.4,1630 -286.1,608.1 -1174.3,237.2 -1722.2,-126.9 -705.8,-469.1 -750.6,424.4 -1335.9,335.1 -529.2,-80.8 -1237,-1625 -1684.1,-1777.1 -447,-152.1 -910.1,364.7 -1581,47.9 -670.9,-316.8 -480.9,-1431.1 -888.1,-1717.5 -407.1,-286.4 -939.4,169.9 -1520.2,-235.3 -580.7,-405.2 -133,-2263.5 -133,-2263.5"
             style="fill:url(#linearGradient146);fill-opacity:1;fill-rule:nonzero;stroke:none"
             id="path148" /></g></g><path
         d="m 18664.4,19148.3 c -342.8,0 -659.3,-112.5 -914.6,-302.6 v 2824.5 c 0,434.1 -352,786.1 -786.1,786.1 H 8853.73 c -434.14,0 -786.07,-352 -786.07,-786.1 v -8109.9 c 0,-434.2 351.93,-786.1 786.07,-786.1 h 2824.57 c -190.1,255.3 -302.7,571.8 -302.7,914.6 0,846.7 686.4,1533 1533.1,1533 846.7,0 1533.1,-686.3 1533.1,-1533 0,-342.8 -112.6,-659.3 -302.7,-914.6 h 3610.7 v 3610.6 c 255.3,-190.1 571.8,-302.6 914.6,-302.6 846.6,0 1533,686.3 1533,1533 0,846.7 -686.4,1533.1 -1533,1533.1"
         style="fill:#328a7c;fill-opacity:1;fill-rule:nonzero;stroke:none"
         id="path150" /><path
         d="m 11375.6,13688.8 c 0,-342.8 112.6,-659.3 302.7,-914.6 H 8853.73 c -434.14,0 -786.07,-352 -786.07,-786.1 V 3878.2 c 0,-434.2 351.93,-786.1 786.07,-786.1 h 8109.97 c 434.1,0 786.1,351.9 786.1,786.1 v 2824.5 c -255.4,-190.1 -571.9,-302.6 -914.6,-302.6 -846.7,0 -1533.1,686.3 -1533.1,1533 0,846.7 686.4,1533.1 1533.1,1533.1 342.7,0 659.2,-112.5 914.6,-302.6 v 3610.6 h -3610.7 c 190.1,255.3 302.7,571.8 302.7,914.6 0,846.7 -686.4,1533 -1533.1,1533 -846.7,0 -1533.1,-686.3 -1533.1,-1533"
         style="fill:#26655d;fill-opacity:1;fill-rule:nonzero;stroke:none"
         id="path152" /><path
         d="m 16835.2,6400.1 c 342.7,0 659.2,112.5 914.6,302.6 V 3878.2 c 0,-434.2 351.9,-786.1 786,-786.1 h 8110 c 434.1,0 786.1,351.9 786.1,786.1 v 8109.9 c 0,434.1 -352,786.1 -786.1,786.1 h -2824.6 c 190.1,-255.3 302.7,-571.8 302.7,-914.6 0,-846.7 -686.4,-1533.1 -1533.1,-1533.1 -846.7,0 -1533.1,686.4 -1533.1,1533.1 0,342.8 112.6,659.3 302.7,914.6 H 17749.8 V 9163.6 c -255.4,190.1 -571.9,302.6 -914.6,302.6 -846.7,0 -1533.1,-686.4 -1533.1,-1533.1 0,-846.7 686.4,-1533 1533.1,-1533"
         style="fill:#48c1a5;fill-opacity:1;fill-rule:nonzero;stroke:none"
         id="path154" /><path
         d="m 24123.9,11859.6 c 0,342.8 -112.6,659.3 -302.7,914.6 h 2824.6 c 434.1,0 786.1,351.9 786.1,786.1 v 8109.9 c 0,434.1 -352,786.1 -786.1,786.1 h -8110 c -434.1,0 -786,-352 -786,-786.1 v -2824.5 c 255.3,190.1 571.8,302.6 914.6,302.6 846.6,0 1533,-686.4 1533,-1533.1 0,-846.7 -686.4,-1533 -1533,-1533 -342.8,0 -659.3,112.5 -914.6,302.6 v -3610.6 h 3610.6 c -190.1,-255.3 -302.7,-571.8 -302.7,-914.6 0,-846.7 686.4,-1533.1 1533.1,-1533.1 846.7,0 1533.1,686.4 1533.1,1533.1"
         style="fill:#f89da7;fill-opacity:1;fill-rule:nonzero;stroke:none"
         id="path156" /><g
         id="g158"><g
           id="g160"
           clip-path="url(#clipPath164)"><path
             d="m 21269.9,29060.1 c -762.6,850.5 -5247.4,892.1 -6128.6,372.7 -1339.4,-789.4 -382.6,-4058.5 233.4,-4419.3 172.1,-100.9 409.5,-208.4 684.5,-325.9 233.1,-456.8 567.5,-929.8 1041.4,-1276.1 0,0 -200.1,530.5 -125.3,923 1079.6,-375.4 2380.7,-691.7 3268,-583.1 1437.2,176 1789.1,4458.1 1026.6,5308.7"
             style="fill:url(#linearGradient172);fill-opacity:1;fill-rule:nonzero;stroke:none"
             id="path174" /></g></g><path
         d="m 18212.5,28710.2 h -88.5 c -2.2,0 -3.9,1.7 -3.9,3.8 v 330.4 c 0,2.2 1.7,3.9 3.9,3.9 h 88.5 c 2.1,0 3.9,-1.7 3.9,-3.9 V 28714 c 0,-2.1 -1.8,-3.8 -3.9,-3.8"
         style="fill:#ffffff;fill-opacity:1;fill-rule:nonzero;stroke:none"
         id="path176" /><path
         d="m 17510.2,28545.7 -76.7,-44.3 c -1.8,-1 -4.2,-0.4 -5.2,1.4 L 17263,28789 c -1,1.8 -0.4,4.2 1.4,5.2 l 76.8,44.3 c 1.8,1.1 4.1,0.5 5.2,-1.4 l 165.2,-286.1 c 1.1,-1.9 0.4,-4.2 -1.4,-5.3"
         style="fill:#ffffff;fill-opacity:1;fill-rule:nonzero;stroke:none"
         id="path178" /><path
         d="m 16984.2,28052.1 -44.3,-76.7 c -1,-1.8 -3.4,-2.4 -5.2,-1.4 l -286.2,165.2 c -1.8,1.1 -2.5,3.4 -1.4,5.3 l 44.3,76.7 c 1.1,1.8 3.4,2.5 5.2,1.4 l 286.2,-165.2 c 1.8,-1.1 2.5,-3.4 1.4,-5.3"
         style="fill:#ffffff;fill-opacity:1;fill-rule:nonzero;stroke:none"
         id="path180" /><path
         d="m 16775.5,27361.7 v -88.6 c 0,-2.1 -1.8,-3.8 -3.9,-3.8 h -330.4 c -2.1,0 -3.8,1.7 -3.8,3.8 v 88.6 c 0,2.1 1.7,3.8 3.8,3.8 h 330.4 c 2.1,0 3.9,-1.7 3.9,-3.8"
         style="fill:#ffffff;fill-opacity:1;fill-rule:nonzero;stroke:none"
         id="path182" /><path
         d="m 16939.9,26659.4 44.3,-76.8 c 1.1,-1.8 0.4,-4.1 -1.4,-5.2 l -286.2,-165.2 c -1.8,-1.1 -4.1,-0.4 -5.2,1.4 l -44.3,76.7 c -1.1,1.8 -0.4,4.2 1.4,5.3 l 286.2,165.2 c 1.8,1 4.2,0.4 5.2,-1.4"
         style="fill:#ffffff;fill-opacity:1;fill-rule:nonzero;stroke:none"
         id="path184" /><path
         d="m 19352.3,26582.6 44.3,76.8 c 1,1.8 3.4,2.4 5.2,1.4 l 286.2,-165.2 c 1.8,-1.1 2.4,-3.5 1.4,-5.3 l -44.3,-76.7 c -1.1,-1.8 -3.4,-2.5 -5.3,-1.4 l -286.1,165.2 c -1.8,1.1 -2.5,3.4 -1.4,5.2"
         style="fill:#ffffff;fill-opacity:1;fill-rule:nonzero;stroke:none"
         id="path186" /><path
         d="m 19561,27273.1 v 88.6 c 0,2.1 1.7,3.8 3.9,3.8 h 330.4 c 2.1,0 3.8,-1.7 3.8,-3.8 v -88.6 c 0,-2.1 -1.7,-3.8 -3.8,-3.8 h -330.4 c -2.2,0 -3.9,1.7 -3.9,3.8"
         style="fill:#ffffff;fill-opacity:1;fill-rule:nonzero;stroke:none"
         id="path188" /><path
         d="m 19396.6,27975.4 -44.3,76.7 c -1.1,1.9 -0.4,4.2 1.4,5.3 l 286.1,165.2 c 1.9,1.1 4.2,0.4 5.3,-1.4 l 44.3,-76.7 c 1,-1.9 0.4,-4.2 -1.4,-5.3 l -286.2,-165.2 c -1.8,-1 -4.2,-0.4 -5.2,1.4"
         style="fill:#ffffff;fill-opacity:1;fill-rule:nonzero;stroke:none"
         id="path190" /><path
         d="m 18903,28501.4 -76.7,44.3 c -1.9,1.1 -2.5,3.4 -1.4,5.3 l 165.2,286.1 c 1.1,1.9 3.4,2.5 5.2,1.4 l 76.7,-44.3 c 1.9,-1 2.5,-3.4 1.4,-5.2 l -165.2,-286.2 c -1,-1.8 -3.4,-2.4 -5.2,-1.4"
         style="fill:#ffffff;fill-opacity:1;fill-rule:nonzero;stroke:none"
         id="path192" /><g
         id="g194"><g
           id="g196"
           clip-path="url(#clipPath200)"><path
             d="m 18165.4,28418.7 c -521.2,-1.5 -953.1,-424.3 -965.1,-945.3 -4.6,-197 49.8,-381 146.6,-535.7 195.3,-311.9 291.7,-675.9 286.6,-1044.2 h 1069.3 v 37.7 c 0,355.3 97.3,704.6 286.1,1005.5 93.5,148.9 147.6,325 147.6,513.8 0,535.7 -435.1,969.8 -971.1,968.2"
             style="fill:url(#linearGradient206);fill-opacity:1;fill-rule:nonzero;stroke:none"
             id="path208" /></g></g><path
         d="m 17633.7,25893.5 v -378.3 c 0,-51.1 41.5,-92.7 92.7,-92.7 h 87.5 v -61.6 c 0,-112.8 91.5,-204.3 204.4,-204.3 h 299.9 c 112.9,0 204.4,91.5 204.4,204.3 v 61.6 h 87.5 c 51.2,0 92.7,41.6 92.7,92.7 v 378.3 h -1069.1"
         style="fill:#328a7c;fill-opacity:1;fill-rule:nonzero;stroke:none"
         id="path210" /><g
         id="g212"><g
           id="g214"
           clip-path="url(#clipPath218)"><path
             d="m 18391.4,25883.6 c -1.4,0 -2.8,0.1 -4.3,0.3 -14.4,2.3 -24.3,16 -22,30.5 l 204.6,1278.3 -251,-159.3 c -12.1,-7.6 -28.1,-4.4 -36.2,7.5 l -114.3,166.8 -114.2,-166.8 c -8.1,-11.9 -24.1,-15.1 -36.2,-7.5 l -251,159.3 204.6,-1278.3 c 2.3,-14.5 -7.6,-28.2 -22,-30.5 -14.5,-2.4 -28.2,7.6 -30.5,22.1 l -214,1336.6 c -1.6,10.4 2.9,20.7 11.7,26.5 8.7,5.7 20,5.8 28.8,0.2 l 279.2,-177.2 121.7,177.7 c 9.9,14.5 34,14.5 43.9,0 l 121.7,-177.7 279.2,177.2 c 8.8,5.6 20.1,5.5 28.8,-0.2 8.8,-5.8 13.3,-16.1 11.7,-26.5 l -214,-1336.6 c -2.1,-13.1 -13.4,-22.4 -26.2,-22.4"
             style="fill:url(#linearGradient224);fill-opacity:1;fill-rule:nonzero;stroke:none"
             id="path226" /></g></g><path
         d="m 15005.2,15214.3 -592.1,56.6 c -158.4,350.3 -207.7,615.9 -156.6,883.9 54.8,287.5 420,387.7 679.2,161.7 248.3,-216.6 171.3,-951.6 69.5,-1102.2"
         style="fill:#282a2b;fill-opacity:1;fill-rule:nonzero;stroke:none"
         id="path228" /><path
         d="m 14704.7,15068.2 -332.2,31.7 60.7,635.4 203,-19.3 68.5,-647.8"
         style="fill:#eaab7a;fill-opacity:1;fill-rule:nonzero;stroke:none"
         id="path230" /><path
         d="m 15041.4,16001.8 c 31.3,-266.2 -35.3,-525.2 -198.3,-567.2 -152.8,-39.4 -395.6,126.6 -488.2,395.7 -97.6,283.2 -17.9,480.4 208,535 240,58.1 444.3,-71.6 478.5,-363.5"
         style="fill:#eeba96;fill-opacity:1;fill-rule:nonzero;stroke:none"
         id="path232" /><path
         d="m 14645.3,16429.2 c -75.6,7.2 -128,5.4 -195.5,-21.8 -108.5,-43.7 -257.1,-158.7 -312,-446.2 -51.1,-268.1 44.6,-410.8 -210.9,-643.9 l 592.2,-56.5 c 92.9,137.3 -13.3,475.5 -32.7,533.8 21.8,53 48.8,110.7 139.5,126.4 194.4,33.6 368.7,197.9 374.2,255.7 5.5,57.8 -152.6,233.2 -354.8,252.5"
         style="fill:#282a2b;fill-opacity:1;fill-rule:nonzero;stroke:none"
         id="path234" /><path
         d="m 14586.6,15881.7 c 15.4,-45.6 -2.9,-92.9 -40.8,-105.7 -38,-12.9 -81.2,13.6 -96.6,59.2 -15.4,45.5 2.8,92.8 40.8,105.7 37.9,12.8 81.2,-13.7 96.6,-59.2"
         style="fill:#eeba96;fill-opacity:1;fill-rule:nonzero;stroke:none"
         id="path236" /><path
         d="m 16996.6,14759.7 -19.9,-14.5 -1423,-1042.5 -250.4,-183.4 426.1,-505.9 223.3,215.6 1083.8,1046.4 647.3,-1446.6 30.8,-68.9 132.4,49.7 -22.1,72.2 -547.6,1784.8 c -5.8,18.6 -15,37.4 -27.1,54 -59.2,80.8 -172.8,98.3 -253.6,39.1"
         style="fill:#eeba96;fill-opacity:1;fill-rule:nonzero;stroke:none"
         id="path238" /><path
         d="m 17124.2,14588.1 -19.4,-11.1 -1696.7,-974.8 -269,-154.6 361.6,-548.8 248.2,186.2 1438.8,1079.7 1274.3,-1349.8 51.8,-54.9 108.7,91.7 -45.3,60.3 -1222.4,1628.7 c -53,70.9 -151.9,92.7 -230.6,47.4"
         style="fill:#eeba96;fill-opacity:1;fill-rule:nonzero;stroke:none"
         id="path240" /><g
         id="g242"><g
           id="g244"
           clip-path="url(#clipPath248)"><path
             d="m 15593.6,13973.8 c 408.9,-83.1 1216.1,952.6 1534.8,911.2 425.1,-55.2 693.7,-1727.1 693.7,-1727.1 l -375.4,-118.5 c 0,0 -329.9,1034.1 -394,1065.4 -81.4,39.7 -916.2,-1145.2 -1420.8,-1203.1 -392,-44.9 -660,412.2 -660,412.2 l 621.7,659.9"
             style="fill:url(#linearGradient254);fill-opacity:1;fill-rule:nonzero;stroke:none"
             id="path256" /></g></g><g
         id="g258"><g
           id="g260"
           clip-path="url(#clipPath264)"><path
             d="m 15382.4,13857 c 428.1,-208 1513.2,923.6 1927.5,777.1 334.2,-118.2 1200.5,-1422.6 1200.5,-1422.6 l -321.8,-258.4 c 0,0 -854.8,1011.1 -974.6,1027.4 -88,11.9 -1251.8,-1175.5 -1758.1,-1217.3 -433.5,-35.9 -686.7,573.5 -686.7,573.5 l 613.2,520.3"
             style="fill:url(#linearGradient270);fill-opacity:1;fill-rule:nonzero;stroke:none"
             id="path272" /></g></g><path
         d="m 14753.9,15021.2 828.8,-1045.9 -143.6,31 880.3,395.5 81.3,36.6 75.6,-155.2 -78.8,-41.5 -854.2,-449.3 c -47.9,-25.2 -105.4,-13.1 -139.4,26 l -4.2,4.9 -875.9,1006.8 -98.2,112.8 235.4,195.5 92.9,-117.2"
         style="fill:#eeba96;fill-opacity:1;fill-rule:nonzero;stroke:none"
         id="path274" /><g
         id="g276"><g
           id="g278"
           clip-path="url(#clipPath282)"><path
             d="m 14367.2,14776.1 c 129.9,-287.4 715.6,-898.6 1131.7,-992.8 247,-55.9 734,334.9 734,334.9 l -90.9,232.4 c 0,0 -383.1,-289.1 -609.9,-98.3 -226.7,190.8 -646,820.2 -841.8,844.7 -172.5,21.6 -381.5,-191.8 -323.1,-320.9"
             style="fill:url(#linearGradient290);fill-opacity:1;fill-rule:nonzero;stroke:none"
             id="path292" /></g></g><g
         id="g294"><g
           id="g296"
           clip-path="url(#clipPath300)"><path
             d="m 14324.9,15107.8 c 0,0 -98,-1140.5 505.2,-1967 0,0 48.3,-201 667.5,171.2 619.2,372.2 607.3,479.5 607.3,479.5 -463,366.8 -916,821.1 -1351.4,1428.6 0,0 -231.6,-138.9 -428.6,-112.3"
             style="fill:url(#linearGradient306);fill-opacity:1;fill-rule:nonzero;stroke:none"
             id="path308" /></g></g><path
         d="m 14847.2,14852.2 767.6,-1118.7 -141.1,40.8 920.6,339.8 83.6,30.9 64.7,-160.1 -81.6,-35.9 -898.1,-395.3 c -49.5,-21.8 -106.2,-5.7 -137.4,35.7 l -3.8,5.1 -817.3,1083 -90,119.4 248.1,178.7 84.7,-123.4"
         style="fill:#eeba96;fill-opacity:1;fill-rule:nonzero;stroke:none"
         id="path310" /><g
         id="g312"><g
           id="g314"
           clip-path="url(#clipPath318)"><path
             d="m 14439.8,14632.3 c 111.6,-300.6 639.6,-968 1055,-1092.7 246.7,-74 791.2,294.3 791.2,294.3 l -75.9,242.1 c 0,0 -408.9,-266.3 -625.5,-56.8 -216.6,209.5 -625.2,917.8 -822.1,956.4 -173.4,34 -372.9,-208.2 -322.7,-343.3"
             style="fill:url(#linearGradient326);fill-opacity:1;fill-rule:nonzero;stroke:none"
             id="path328" /></g></g><path
         d="m 16759,14566.4 c 28.2,-54.4 -18.8,-163 -126.6,-236.7 -99.4,-67.9 -202.3,-48.7 -233.9,4.5 -70.6,118.7 317,316.4 360.5,232.2"
         style="fill:#eaab7a;fill-opacity:1;fill-rule:nonzero;stroke:none"
         id="path330" /><path
         d="m 16620.2,14624.2 c -20.5,17.5 -88.9,-10.1 -155.6,-74.7 -61.5,-59.6 -79.1,-122 -60.1,-141.6 42.3,-43.7 247.4,189.2 215.7,216.3"
         style="fill:#eeba96;fill-opacity:1;fill-rule:nonzero;stroke:none"
         id="path332" /><path
         d="m 18452.4,12812.8 -132.1,22 v -0.1 l -484,181.4 v -3.9 c 0,0 -4.9,-82.7 -104.8,-99.3 -73.6,-12.3 -121.7,6.9 -141.9,17.8 -4.8,4.3 -8.8,6.8 -11,6.8 -32.2,-0.4 -57.7,-53.3 -57,-118.2 0.3,-21.4 3.3,-41.3 8.4,-58.5 l 1,-90.1 960.1,10.4 -1,91.3 c -0.3,21.2 -16.6,38.7 -37.7,40.4"
         style="fill:#282a2b;fill-opacity:1;fill-rule:nonzero;stroke:none"
         id="path334" /><path
         d="m 19236.9,12764.2 -132,22 v -0.1 l -484,181.4 v -3.9 c 0,0 -4.9,-82.7 -104.8,-99.3 -73.7,-12.3 -121.7,6.9 -141.9,17.8 -4.9,4.3 -8.8,6.8 -11,6.8 -32.2,-0.4 -57.7,-53.3 -57,-118.2 0.2,-21.4 3.3,-41.3 8.4,-58.5 l 1,-90.1 960,10.4 -1,91.3 c -0.2,21.2 -16.6,38.7 -37.7,40.4"
         style="fill:#282a2b;fill-opacity:1;fill-rule:nonzero;stroke:none"
         id="path336" /><g
         id="g338"><g
           id="g340"
           clip-path="url(#clipPath344)"><path
             d="m 17398.6,14932.3 -491.2,180.8 c -0.9,0.3 -1.9,0.4 -2.8,0.3 l -44,-6.5 c -2.1,-0.3 -3.9,-1.8 -4.6,-3.8 l -184.3,-526.9 c -0.5,-1.6 -1.7,-2.8 -3.3,-3.4 l -445.9,-176.9 -0.9,-0.1 4.7,-31.6 c 0.3,-2 1.5,-3.7 3.3,-4.5 l 504.5,-221.4 c 1.4,-0.6 3,-0.6 4.5,-0.1 l 446.6,177.1 24.8,9.7 c 2,0.8 3.4,2.6 3.6,4.7 l 4,33.5 0.2,1.2 184.3,560.7 c 1,2.9 -0.6,6.1 -3.5,7.2"
             style="fill:url(#linearGradient350);fill-opacity:1;fill-rule:nonzero;stroke:none"
             id="path352" /></g></g><path
         d="m 17327,14917.4 -441.4,159.5 c -10.7,4.7 -23.1,-0.8 -26.7,-11.9 l -170.5,-482.9 490.1,-215.5 167.2,508.9 c 5.5,16.7 -2.6,34.8 -18.7,41.9"
         style="fill:#ffffff;fill-opacity:1;fill-rule:nonzero;stroke:none"
         id="path354" /><g
         id="g356"><g
           id="g358"
           clip-path="url(#clipPath362)"><path
             d="m 17186.6,14347 -515.7,226.7 -448.9,-178 515.7,-226.7 448.9,178"
             style="fill:url(#linearGradient370);fill-opacity:1;fill-rule:nonzero;stroke:none"
             id="path372" /></g></g><g
         id="g374"><g
           id="g376"
           clip-path="url(#clipPath380)"><path
             d="m 17093.8,14355.1 -412.1,182.9 -210.9,-80.3 412,-182.8 211,80.2"
             style="fill:url(#linearGradient386);fill-opacity:1;fill-rule:nonzero;stroke:none"
             id="path388" /></g></g><g
         id="g390"><g
           id="g392"
           clip-path="url(#clipPath396)"><path
             d="m 16723,14320.9 -175.5,77.8 -89.9,-34.1 175.6,-77.9 89.8,34.2"
             style="fill:url(#linearGradient402);fill-opacity:1;fill-rule:nonzero;stroke:none"
             id="path404" /></g></g><path
         d="m 16847.6,14228.5 c 23,-56.8 -34,-160.5 -148.3,-223.7 -105.3,-58.3 -205.9,-29.6 -232.4,26.3 -59.2,124.8 345.3,285.3 380.7,197.4"
         style="fill:#eeba96;fill-opacity:1;fill-rule:nonzero;stroke:none"
         id="path406" /><path
         d="m 16714.8,14299.1 c -18.7,19.3 -89.5,-1.7 -161.9,-59.8 -66.8,-53.6 -90.1,-114.1 -73.1,-135.3 38,-47.5 264.1,165.1 235,195.1"
         style="fill:#eeba96;fill-opacity:1;fill-rule:nonzero;stroke:none"
         id="path408" /><path
         d="M 7560.02,8668.6 H 7208.1 v 673.2 h 215.06 l 136.86,-673.2"
         style="fill:#eaab7a;fill-opacity:1;fill-rule:nonzero;stroke:none"
         id="path410" /><path
         d="m 7819.91,9682.6 c 59.48,-276.3 15.53,-555 -151.31,-615.4 -156.5,-56.7 -428.06,93.2 -552.31,366.4 -130.81,287.7 -66.94,502.6 164.77,582.7 246.14,85 473.65,-30.7 538.85,-333.7"
         style="fill:#eeba96;fill-opacity:1;fill-rule:nonzero;stroke:none"
         id="path412" /><path
         d="m 7329.02,10114 c -255.94,-20 -397.43,-252 -381.04,-481.4 15.3,-214.3 244.34,-328.7 244.34,-328.7 0,0 75.54,217.5 199.39,252.2 172.74,48.3 98.06,202.7 178.75,219.3 84.11,17.4 267,84.2 263.98,206.6 -118.42,-4.1 -217.97,154.5 -505.42,132"
         style="fill:#282a2b;fill-opacity:1;fill-rule:nonzero;stroke:none"
         id="path414" /><path
         d="m 7354.41,9510.8 c 20.75,-46.2 6.3,-97.7 -32.25,-115 -38.56,-17.3 -86.63,6.2 -107.37,52.4 -20.74,46.3 -6.3,97.8 32.26,115.1 38.55,17.3 86.62,-6.2 107.36,-52.5"
         style="fill:#eeba96;fill-opacity:1;fill-rule:nonzero;stroke:none"
         id="path416" /><path
         d="m 7329.02,9560.3 c 0,0 19.26,-298.7 76.32,-412.2 49.69,-98.8 266.5,-200.8 384.62,33.6 0,0 -119.56,-24.9 -106.02,25.7 15.95,59.6 138.99,60.2 138.99,60.2 0,0 24.08,1.2 28.37,23.3 6.38,32.8 -9.61,86.1 -9.61,86.1 0,0 -162.84,-58 -232.97,-58 -79.53,0 -151.74,56.1 -219,241.3 h -60.7"
         style="fill:#282a2b;fill-opacity:1;fill-rule:nonzero;stroke:none"
         id="path418" /><path
         d="m 8356.95,2975 -323.46,1809.5 -219.74,891.6 -221.22,893.4 -75.21,303.7 -634.46,-202.4 114.74,-291.1 334.27,-848.1 c 111.14,-283.2 224.1,-566.2 334.05,-850.4 l 543.43,-1742.2 22.66,-72.7 138.33,33.8 -13.39,74.9"
         style="fill:#eaab7a;fill-opacity:1;fill-rule:nonzero;stroke:none"
         id="path420" /><path
         d="m 7188.01,6865.8 -25.27,-311.9 -143.17,-1766.8 -1336,-626.2 -68.97,-32.3 50.42,-131.6 72.91,22.1 1531.95,463 c 56.54,17.2 102.5,63.9 115.68,125.8 l 5.42,25.5 389.64,1830.1 65.16,306 -657.77,96.3"
         style="fill:#eaab7a;fill-opacity:1;fill-rule:nonzero;stroke:none"
         id="path422" /><g
         id="g424"><g
           id="g426"
           clip-path="url(#clipPath430)"><path
             d="M 6809.77,7058.6 7995.81,6828.3 8366.56,3283.5 7968.75,3228.9 6809.77,7058.6"
             style="fill:url(#linearGradient436);fill-opacity:1;fill-rule:nonzero;stroke:none"
             id="path438" /></g></g><g
         id="g440"><g
           id="g442"
           clip-path="url(#clipPath446)"><path
             d="m 6731.7,6822.1 1196.59,167.2 c 0,0 -183.45,-2219.3 -541.42,-2502.3 -199.12,-157.4 -1305.78,-422.5 -1305.78,-422.5 l -119.14,339.8 c 0,0 833.11,337.3 902.8,441.5 75.78,113.4 -133.05,1976.3 -133.05,1976.3"
             style="fill:url(#linearGradient452);fill-opacity:1;fill-rule:nonzero;stroke:none"
             id="path454" /></g></g><path
         d="m 7584.46,8545 784.29,-1120.8 -142.66,39.8 924.96,351.2 84.01,31.9 66.73,-160.9 -81.9,-36.9 -901.87,-406.8 c -49.71,-22.5 -106.93,-6.7 -138.79,34.7 l -3.88,5.1 -833.97,1084.3 -91.94,119.6 248.56,182.4 86.46,-123.6"
         style="fill:#eaab7a;fill-opacity:1;fill-rule:nonzero;stroke:none"
         id="path456" /><g
         id="g458"><g
           id="g460"
           clip-path="url(#clipPath464)"><path
             d="m 7175.79,8319.5 c 115.3,-302 658.76,-972.9 1078.72,-1094.8 249.38,-72.4 789.99,306.9 789.99,306.9 l -78.72,243.5 c 0,0 -409.84,-272.3 -630.15,-63.1 -220.3,209.2 -610.66,879 -809.47,916 -175.19,32.7 -402.17,-172.7 -350.37,-308.5"
             style="fill:url(#linearGradient470);fill-opacity:1;fill-rule:nonzero;stroke:none"
             id="path472" /></g></g><g
         id="g474"><g
           id="g476"
           clip-path="url(#clipPath480)"><path
             d="m 7168.28,8866.2 c 0,0 -641.48,-959.4 -510.87,-1982.8 0,0 -55.12,-201 672.77,-173.6 727.88,27.4 769.54,128 769.54,128 -230.42,549.1 -409.41,1170.7 -498.33,1919.1 0,0 -272.13,-10 -433.11,109.3"
             style="fill:url(#linearGradient488);fill-opacity:1;fill-rule:nonzero;stroke:none"
             id="path490" /></g></g><path
         d="m 7377.17,8390.8 c -91.3,-157.8 -179.91,-322.5 -261.25,-486.9 -40.6,-82.5 -79.56,-165.4 -115.12,-248.8 -35.4,-83.1 -67.99,-167.3 -91.19,-248.7 -5.72,-20.5 -10.45,-39.8 -14.68,-59.8 l -12.38,-65.8 c -7.39,-44.6 -14.5,-89.5 -20.62,-135.1 -12.39,-91 -22.75,-183.1 -32,-275.5 -18.01,-184.8 -32.25,-371.6 -42.98,-557 l -5.18,-89.8 -174.45,4.4 0.07,89.9 c 0.15,189.6 3.76,377.7 11.35,567.2 4.07,94.8 9.27,189.7 16.77,285.2 3.66,47.8 8.46,95.9 13.67,144.2 l 9.5,73.2 c 4.07,26.3 9.12,52.7 14.78,77.8 23.14,100.5 54.17,193.3 87.45,284.6 33.45,91.2 69.77,180.1 107.56,268.1 76.18,176.1 156.8,346.6 244.72,518.5 l 68.69,134.3 270.81,-149.5 -75.52,-130.5"
         style="fill:#eeba96;fill-opacity:1;fill-rule:nonzero;stroke:none"
         id="path492" /><g
         id="g494"><g
           id="g496"
           clip-path="url(#clipPath500)"><path
             d="m 7060.63,8697.5 c -231.36,-225.8 -364.51,-738.7 -462.95,-1164.8 -98.44,-426.1 -18.43,-1073 -18.43,-1073 l 265.28,-11.7 c 0,0 15.16,658.5 119.56,943.7 104.39,285.3 563.86,909.7 518.87,1106.9 -39.65,173.8 -318.39,300.4 -422.33,198.9"
             style="fill:url(#linearGradient506);fill-opacity:1;fill-rule:nonzero;stroke:none"
             id="path508" /></g></g><path
         d="m 9637.61,7912.1 c 20.43,-58.3 -49.86,-163.3 -179.26,-226.1 -119.3,-57.9 -226.52,-27.1 -250.89,30.3 -54.43,128.3 398.55,286 430.15,195.8"
         style="fill:#eaab7a;fill-opacity:1;fill-rule:nonzero;stroke:none"
         id="path510" /><path
         d="m 6828.9,5957 c 25.81,8.4 38.03,81.8 17.38,173.1 -19.03,84.2 -63.53,132.1 -90.32,126.1 -59.83,-13.5 33.01,-312.3 72.94,-299.2"
         style="fill:#eeba96;fill-opacity:1;fill-rule:nonzero;stroke:none"
         id="path512" /><path
         d="m 8886.84,2776.5 c 0,0 -91.49,24.2 -116.83,33.3 -101.14,36.4 -363.04,143.7 -363.04,143.7 0,0 -32.29,-52 -113.15,-62.1 -59.59,-7.5 -103.43,14 -105.17,14.1 -25.89,0.8 -48.14,-40.9 -49.71,-93.2 -0.51,-17.1 1.3,-33.2 4.84,-47.2 l -2.18,-72.5 772.01,-23.2 2.2,73.5 c 0.52,17 -12.06,31.6 -28.97,33.6"
         style="fill:#282a2b;fill-opacity:1;fill-rule:nonzero;stroke:none"
         id="path514" /><path
         d="m 5713.67,3457.9 c 0,0 -3.55,94.5 -2.22,121.4 5.33,107.4 31.63,389.2 31.63,389.2 0,0 -59.19,15.7 -92.41,90.1 -24.48,54.8 -16.7,103 -17.16,104.7 -6.8,25 -53.18,34.1 -103.58,20.4 -16.56,-4.5 -31.43,-10.9 -43.77,-18.4 l -70,-19 202.85,-745.3 70.91,19.3 c 16.44,4.5 26.74,20.8 23.75,37.6"
         style="fill:#282a2b;fill-opacity:1;fill-rule:nonzero;stroke:none"
         id="path516" /><path
         d="m 9469.79,7981.3 c -18.02,20.3 -90.22,2.3 -165.81,-52.9 -69.68,-51 -95.94,-110.8 -79.75,-133 36.16,-49.6 273.45,154.4 245.56,185.9"
         style="fill:#eaab7a;fill-opacity:1;fill-rule:nonzero;stroke:none"
         id="path518" /><path
         d="m 6698.75,5830.9 c -61.61,4.4 -130.02,110.5 -136.21,254.1 -5.71,132.4 65.14,218.5 127.53,218 139.33,-1.1 103.97,-479 8.68,-472.1"
         style="fill:#eeba96;fill-opacity:1;fill-rule:nonzero;stroke:none"
         id="path520" /><path
         d="m 11290.3,25098.5 -332.2,91.4 174.8,635.5 203,-55.8 -45.6,-671.1"
         style="fill:#eaab7a;fill-opacity:1;fill-rule:nonzero;stroke:none"
         id="path522" /><path
         d="m 11799,25988.3 c -15.6,-276.3 -129.5,-528 -302.7,-541.7 -162.4,-12.9 -379.9,199.2 -426.2,489.3 -48.8,305.5 67.3,491.9 306.8,507.3 254.5,16.3 439.2,-152 422.1,-454.9"
         style="fill:#eeba96;fill-opacity:1;fill-rule:nonzero;stroke:none"
         id="path524" /><path
         d="m 11351.4,25998.4 c 53.4,100.8 159.3,127.1 239.4,136.1 80.2,9.1 210.2,-26.7 226.1,31.1 15.9,57.8 -17,272 -344.9,327.9 -296.8,50.6 -482.4,-115.9 -556.5,-328.6 -64.7,-186.1 44.4,-400 192.7,-371.2 148.2,28.8 178.6,82.6 243.2,204.7"
         style="fill:#282a2b;fill-opacity:1;fill-rule:nonzero;stroke:none"
         id="path526" /><path
         d="m 11336,25909.5 c 7.1,-49.1 -20.3,-93.8 -61.3,-99.7 -40.9,-6 -79.9,29.1 -87,78.2 -7.1,49.1 20.3,93.8 61.2,99.7 41,5.9 79.9,-29.1 87.1,-78.2"
         style="fill:#eeba96;fill-opacity:1;fill-rule:nonzero;stroke:none"
         id="path528" /><path
         d="m 11458.9,26776.2 c 49.2,-126.6 -19.5,-326.9 -176.6,-388 -157.1,-61.1 -343.1,40.2 -392.3,166.8 -49.2,126.5 66.4,206.3 223.5,267.3 157.1,61.1 296.2,80.4 345.4,-46.1"
         style="fill:#282a2b;fill-opacity:1;fill-rule:nonzero;stroke:none"
         id="path530" /><path
         d="m 12882.8,23569.9 c -3,-60.4 -97,-129.8 -225.5,-139.2 -118.6,-8.6 -196.9,58.7 -197.5,119.8 -1.3,136.4 427.5,112.8 423,19.4"
         style="fill:#eeba96;fill-opacity:1;fill-rule:nonzero;stroke:none"
         id="path532" /><path
         d="m 13021.1,22902.2 -23.9,4.4 -1712.3,316.8 -301.3,55.7 -75,-648.6 306,-14.5 1485.5,-70.3 -601.2,-1444.4 -28.6,-68.8 125.3,-61.4 36.9,64.7 911.6,1601.7 c 9.5,16.8 16.8,36 20.5,56 18,97.3 -46.3,190.7 -143.5,208.7"
         style="fill:#eeba96;fill-opacity:1;fill-rule:nonzero;stroke:none"
         id="path534" /><path
         d="m 13187,22812.7 -21.7,4 -1899.8,349.7 -301.2,55.5 -78.3,-644.1 305.8,-18.3 1772.6,-106.2 97.2,-1829.7 3.9,-74.4 140.4,-0.5 4.5,74.4 119.9,2006.6 c 5.3,87.2 -55.2,166.7 -143.3,183"
         style="fill:#eeba96;fill-opacity:1;fill-rule:nonzero;stroke:none"
         id="path536" /><g
         id="g538"><g
           id="g540"
           clip-path="url(#clipPath544)"><path
             d="m 11510,23374.6 c 217.1,-350 1507.7,-228.9 1693.7,-485.9 248.1,-342.7 -771.3,-1667.5 -771.3,-1667.5 l -339.3,189.4 c 0,0 519.7,937.1 498.8,1004.3 -26.6,85.4 -1443,-116.9 -1826.2,206.5 -297.6,251.2 -150.6,753.2 -150.6,753.2 h 894.9"
             style="fill:url(#linearGradient550);fill-opacity:1;fill-rule:nonzero;stroke:none"
             id="path552" /></g></g><g
         id="g554"><g
           id="g556"
           clip-path="url(#clipPath560)"><path
             d="m 11408.9,23374.6 c 189.4,-429.9 1728.9,-271.1 1947.2,-645.9 176.1,-302.4 -4.8,-1837.6 -4.8,-1837.6 l -407.2,11.1 c 0,0 2.2,1307 -77.6,1395.7 -58.6,65.2 -1693,-85.4 -2100.8,206.4 -349.2,249.8 -150.6,870.3 -150.6,870.3 h 793.8"
             style="fill:url(#linearGradient568);fill-opacity:1;fill-rule:nonzero;stroke:none"
             id="path570" /></g></g><path
         d="m 11336.2,24959.2 231.4,-1319.2 -110.1,94.4 966.1,-71.7 87.7,-6.5 -7.5,-170.3 -87.9,1.1 -968.6,12.8 c -53.4,0.7 -97.7,38.3 -108.7,88.3 l -1.4,6.1 -290.6,1307.5 -32,144.1 296.1,58.9 25.5,-145.5"
         style="fill:#eeba96;fill-opacity:1;fill-rule:nonzero;stroke:none"
         id="path572" /><g
         id="g574"><g
           id="g576"
           clip-path="url(#clipPath580)"><path
             d="m 10880.2,24928.5 c -22.8,-315.7 181.3,-1136 503.4,-1418.1 191.2,-167.6 828,-55.1 828,-55.1 l 31,248.6 c 0,0 -476.4,-71.7 -585.2,205.1 -108.7,276.9 -177.5,1032.7 -338.5,1148 -141.9,101.6 -428.4,13.4 -438.7,-128.5"
             style="fill:url(#linearGradient588);fill-opacity:1;fill-rule:nonzero;stroke:none"
             id="path590" /></g></g><g
         id="g592"><g
           id="g594"
           clip-path="url(#clipPath598)"><path
             d="m 10973.3,25276.8 c 0,0 -658.3,-918.4 -563.2,-1924 0,0 -60.3,-194.9 652.9,-191.3 713.1,3.6 757.1,100.6 757.1,100.6 -208,544.8 -363.3,1158.7 -426.4,1893.9 0,0 -266.7,-1.1 -420.4,120.8"
             style="fill:url(#linearGradient604);fill-opacity:1;fill-rule:nonzero;stroke:none"
             id="path606" /></g></g><path
         d="m 11185.1,24753.6 c -96.1,-150.4 -189.9,-307.6 -276.5,-464.9 -43.3,-78.9 -85,-158.4 -123.4,-238.4 -38.2,-79.8 -73.7,-160.8 -99.9,-239.4 -6.4,-19.7 -11.9,-38.5 -16.9,-57.8 l -15,-63.8 c -9.1,-43.4 -18,-87 -26,-131.3 -16,-88.5 -30.1,-178.1 -43.1,-268.1 -25.6,-180 -47.6,-362.1 -66.1,-543 l -8.9,-87.5 -170.5,11.8 4,87.8 c 8.3,185.5 19.9,369.3 35.5,554.4 8.1,92.5 17.3,185.1 28.7,278.2 5.7,46.6 12.4,93.5 19.6,140.5 l 12.5,71.2 c 5.1,25.5 11.2,51.2 17.8,75.5 26.9,97.3 61.3,186.6 97.8,274.6 36.6,87.7 76,173.1 116.7,257.5 82.2,169 168.4,332.3 261.8,496.6 l 72.9,128.4 258.5,-157.9 -79.5,-124.4"
         style="fill:#eeba96;fill-opacity:1;fill-rule:nonzero;stroke:none"
         id="path608" /><g
         id="g610"><g
           id="g612"
           clip-path="url(#clipPath616)"><path
             d="m 10888.7,25067.3 c -236,-210.9 -388.4,-706.9 -503,-1119.4 -114.7,-412.5 -64.3,-1048.7 -64.3,-1048.7 l 259,-22.9 c 0,0 43.2,643.4 157.6,918 114.4,274.5 590.7,865.5 555.2,1060.3 -31.3,171.6 -298.5,307.5 -404.5,212.7"
             style="fill:url(#linearGradient624);fill-opacity:1;fill-rule:nonzero;stroke:none"
             id="path626" /></g></g><path
         d="m 10334.4,22151.9 c -58.7,14.5 -101.7,155.4 -76.3,333.2 23.4,163.9 110.9,259.5 171.2,249.7 134.8,-21.8 -4.1,-605.3 -94.9,-582.9"
         style="fill:#eeba96;fill-opacity:1;fill-rule:nonzero;stroke:none"
         id="path628" /><path
         d="m 10507.8,22378.3 c 26.3,4 49.9,73 44.6,164.5 -4.8,84.3 -40.1,137.7 -66.9,136.2 -60,-3.4 -18.3,-306.9 22.3,-300.7"
         style="fill:#eeba96;fill-opacity:1;fill-rule:nonzero;stroke:none"
         id="path630" /><path
         d="m 13746,20472.1 -106.6,19 v 0 l -389.8,150.8 v -3.1 c 0,0 -4.7,-66.8 -85.6,-79.4 -59.7,-9.2 -98.3,6.6 -114.6,15.7 -3.9,3.5 -7,5.5 -8.8,5.5 -26,0 -47.1,-42.5 -47.1,-95 0,-17.3 2.3,-33.4 6.2,-47.4 v -72.9 h 776.4 v 73.9 c 0,17.1 -13,31.4 -30.1,32.9"
         style="fill:#282a2b;fill-opacity:1;fill-rule:nonzero;stroke:none"
         id="path632" /><path
         d="m 12548,20575.9 -72.4,80.6 v -0.1 l -214.3,358.9 -1.9,-2.5 c 0,0 -44.9,-49.8 -116.4,-9.9 -52.7,29.5 -73.4,65.8 -80.7,82.9 -0.8,5.2 -2.1,8.7 -3.5,9.8 -20.5,16 -63.3,-4.5 -95.7,-45.9 -10.6,-13.6 -18.7,-27.7 -24.1,-41.2 l -44.9,-57.4 611.9,-477.9 45.5,58.2 c 10.5,13.5 9,32.8 -3.5,44.5"
         style="fill:#282a2b;fill-opacity:1;fill-rule:nonzero;stroke:none"
         id="path634" /><path
         d="m 12775.1,23678 c -7.6,25.5 -79,39.5 -169,21.8 -82.9,-16.3 -131,-58.6 -125.8,-85 11.5,-58.9 306.5,23.8 294.8,63.2"
         style="fill:#eeba96;fill-opacity:1;fill-rule:nonzero;stroke:none"
         id="path636" /><g
         id="g638"><g
           id="g640"
           clip-path="url(#clipPath644)"><path
             d="m 13491.5,24433.4 v 0 c -31.3,10 -64.8,-7.4 -74.7,-38.8 l -233,-737 h -698.5 c -32.8,0 -59.5,-26.7 -59.5,-59.5 0,-32.9 26.7,-59.5 59.5,-59.5 h 743.1 c 30.1,0 54.9,22.3 58.9,51.3 l 243,768.9 c 9.9,31.3 -7.5,64.7 -38.8,74.6"
             style="fill:url(#linearGradient650);fill-opacity:1;fill-rule:nonzero;stroke:none"
             id="path652" /></g></g><path
         d="m 13183.8,23657.6 h 37 l 226.4,724.7 h -34.3 l -229.1,-724.7"
         style="fill:#ffffff;fill-opacity:1;fill-rule:nonzero;stroke:none"
         id="path654" /><path
         d="m 24545.3,25044.2 354.5,36.2 -69.3,678.2 -216.6,-22.1 -68.6,-692.3"
         style="fill:#eaab7a;fill-opacity:1;fill-rule:nonzero;stroke:none"
         id="path656" /><path
         d="m 24179.2,26039 c -31.5,-284.5 41.4,-560.7 215.7,-604.4 163.5,-41.1 421.6,137.9 518.7,425.9 102.2,303.2 15.7,513.2 -225.9,570 -256.7,60.3 -474,-79.7 -508.5,-391.5"
         style="fill:#eeba96;fill-opacity:1;fill-rule:nonzero;stroke:none"
         id="path658" /><path
         d="m 24839.6,25670.3 -39,11.5 c 0,0 1.2,133.1 -26.3,164.5 -35.2,40.2 -189.9,19.8 -189.9,19.8 0,0 -20.9,146.6 -83.6,180 -55.6,29.7 -273.8,31.5 -353.2,-20.4 0,0 -51.6,137.1 -1.2,270.4 55.7,147 177.3,204 334.1,227.9 156.8,23.9 327.6,13.7 380.6,-158.9 0,0 137.8,-15.6 156.8,-201.6 19,-185.9 -178.3,-493.2 -178.3,-493.2"
         style="fill:#282a2b;fill-opacity:1;fill-rule:nonzero;stroke:none"
         id="path660" /><path
         d="m 24647.4,25893 c -16.2,-48.8 3.7,-99.2 44.3,-112.6 40.6,-13.5 86.6,15.2 102.8,63.9 16.1,48.7 -3.8,99.1 -44.4,112.6 -40.6,13.4 -86.6,-15.2 -102.7,-63.9"
         style="fill:#eeba96;fill-opacity:1;fill-rule:nonzero;stroke:none"
         id="path662" /><path
         d="m 22087.5,20528.8 402.7,1768.9 c 13.6,59.1 58,109.4 120.4,127.4 l 23.4,6.8 1910.4,552.1 304.3,87.9 146.4,-655 -312.8,-50 -1863.4,-297.9 -583.9,-1584 -26.7,-72.3 -137.9,40.9 17.1,75.2"
         style="fill:#eeba96;fill-opacity:1;fill-rule:nonzero;stroke:none"
         id="path664" /><path
         d="m 22667.5,22326.4 24.5,6.7 1857.3,508.8 305.5,83.7 136.2,-658.5 -313.6,-44.4 -1182.2,-167.3 915.3,-353.7 72,-27.8 -42.6,-137 -75,17.9 -1691.2,402.9 c -65.3,15.7 -120.5,65.5 -139.5,134.8 -27.7,101.4 31.9,206.2 133.3,233.9"
         style="fill:#eeba96;fill-opacity:1;fill-rule:nonzero;stroke:none"
         id="path666" /><g
         id="g668"><g
           id="g670"
           clip-path="url(#clipPath674)"><path
             d="m 24218.8,23103.4 c -321.6,-302.4 -1529.2,-389.5 -1762.9,-650.6 -241.1,-269.5 -344.4,-1622.3 -344.4,-1622.3 l 286.4,-84.7 c 0,0 400.9,1279.5 474.2,1334.4 74,55.5 1713.3,-27.1 2116.5,244.3 334.1,224.9 155.8,778.9 155.8,778.9 h -925.6"
             style="fill:url(#linearGradient680);fill-opacity:1;fill-rule:nonzero;stroke:none"
             id="path682" /></g></g><g
         id="g684"><g
           id="g686"
           clip-path="url(#clipPath690)"><path
             d="m 24365.4,23103.4 c -224.5,-362 -1812.9,-464.1 -1896.5,-849.1 -91.3,-420.3 1666.1,-699.2 1666.1,-699.2 l 76,284.6 c 0,0 -657.3,175.3 -647,210.8 9.6,33 1174.9,-60.5 1571.2,274 307.8,259.7 155.8,778.9 155.8,778.9 h -925.6"
             style="fill:url(#linearGradient698);fill-opacity:1;fill-rule:nonzero;stroke:none"
             id="path700" /></g></g><path
         d="m 24619.2,24750.8 -284.1,-1332.4 117.3,93.4 -984.6,-37.2 -90.9,-3.4 1.2,-176.3 91,-2.2 985,-23.8 c 55.2,-1.3 102.3,35.9 115.7,87 l 1.6,6.4 344.9,1318 38.6,147.8 -303.8,72.1 -31.9,-149.4"
         style="fill:#eeba96;fill-opacity:1;fill-rule:nonzero;stroke:none"
         id="path702" /><g
         id="g704"><g
           id="g706"
           clip-path="url(#clipPath710)"><path
             d="m 25084,24701.9 c 11.4,-321.8 -247.3,-1146.4 -585.2,-1421.1 -200.7,-163.1 -823.3,-26.4 -823.3,-26.4 l -22.2,253.8 c 0,0 496.7,-53.3 617.6,224.1 121,277.3 204.1,1005.6 372,1116.7 148,97.9 435.9,-2.5 441.1,-147.1"
             style="fill:url(#linearGradient718);fill-opacity:1;fill-rule:nonzero;stroke:none"
             id="path720" /></g></g><g
         id="g722"><g
           id="g724"
           clip-path="url(#clipPath728)"><path
             d="m 24938.6,25216.9 c 0,0 649.5,-971.5 517.3,-2007.7 0,0 55.8,-203.5 -681.2,-175.8 -737.1,27.8 -779.3,129.5 -779.3,129.5 233.4,556.1 414.6,1185.5 504.6,1943.3 0,0 275.6,-10.1 438.6,110.7"
             style="fill:url(#linearGradient736);fill-opacity:1;fill-rule:nonzero;stroke:none"
             id="path738" /></g></g><path
         d="m 22991.1,23425.9 c -1.1,-62.5 91.1,-140.6 223.2,-159.1 121.7,-17 207.1,47.1 211.9,110.1 10.7,140.6 -433.4,145.7 -435.1,49"
         style="fill:#eeba96;fill-opacity:1;fill-rule:nonzero;stroke:none"
         id="path740" /><path
         d="m 23091.9,23541.7 c 10.8,25.2 85.9,31.1 176.2,2.2 83.2,-26.6 127.6,-75.8 119.2,-102.3 -18.9,-59.1 -312.2,60.9 -295.4,100.1"
         style="fill:#eeba96;fill-opacity:1;fill-rule:nonzero;stroke:none"
         id="path742" /><g
         id="g744"><g
           id="g746"
           clip-path="url(#clipPath750)"><path
             d="m 24585.6,25123 c 0,0 -15.4,-600.5 -142,-1250.8 -126.6,-650.3 -319.3,-1078.6 -319.3,-1078.6 0,0 1278.5,-78.2 1500.9,237.7 200.3,284.5 -344.9,1869.2 -640.1,2217.2 l -399.5,-125.5"
             style="fill:url(#linearGradient756);fill-opacity:1;fill-rule:nonzero;stroke:none"
             id="path758" /></g></g><path
         d="m 24354.6,20844.6 10,136.3 v 0 l -63.3,523.8 3.9,-0.9 c 0,0 83.2,-15.1 123.7,80.1 29.9,70 22.5,122.3 16.6,145 -3.2,5.8 -4.7,10.4 -4.1,12.5 8.1,31.9 66.7,44.5 131,28.1 21.1,-5.4 40.1,-13.2 55.9,-22.4 l 89.2,-22.7 -241.6,-949.9 -90.4,22.9 c -20.9,5.4 -34.4,25.8 -30.9,47.2"
         style="fill:#282a2b;fill-opacity:1;fill-rule:nonzero;stroke:none"
         id="path760" /><path
         d="m 21418.9,20354.6 134.7,23.3 v 0 l 492.9,188.3 v -3.9 c 0,0 5.6,-84.4 107.7,-100.7 75.3,-12 124.2,7.8 144.7,19.1 4.9,4.5 9,7 11.2,7 32.9,-0.1 59.3,-54 59,-120.3 -0.1,-21.8 -3.1,-42.1 -8.2,-59.7 l -0.4,-92 -980.2,4.2 0.4,93.2 c 0.1,21.7 16.7,39.6 38.2,41.5"
         style="fill:#282a2b;fill-opacity:1;fill-rule:nonzero;stroke:none"
         id="path762" /><g
         id="g764"><g
           id="g766"
           clip-path="url(#clipPath770)"><path
             d="m 23603.3,23069.7 h -1181.7 v 108.2 h 1181.7 v -108.2"
             style="fill:url(#linearGradient776);fill-opacity:1;fill-rule:nonzero;stroke:none"
             id="path778" /></g></g><g
         id="g780"><g
           id="g782"
           clip-path="url(#clipPath786)"><path
             d="m 23191.1,23069.7 h -770.4 l -115.7,761.9 h 770.4 l 115.7,-761.9"
             style="fill:url(#linearGradient792);fill-opacity:1;fill-rule:nonzero;stroke:none"
             id="path794" /></g></g><path
         d="m 22759.6,23558.4 c 0,-29.1 -28.5,-52.6 -63.6,-52.6 -35.2,0 -63.7,23.5 -63.7,52.6 0,29.1 28.5,52.7 63.7,52.7 35.1,0 63.6,-23.6 63.6,-52.7"
         style="fill:#ffffff;fill-opacity:1;fill-rule:nonzero;stroke:none"
         id="path796" /><path
         d="m 24667.2,24747.5 -21.3,-1385 97,114.3 -974.8,-230.6 -88.6,-21 35.4,-172.8 89.6,15.6 987.2,170.9 c 54.4,9.4 93.4,55.1 96.6,107.9 l 0.4,6.5 83.6,1382.6 9.3,152.4 -312,11.9 -2.4,-152.7"
         style="fill:#eeba96;fill-opacity:1;fill-rule:nonzero;stroke:none"
         id="path798" /><path
         d="m 23317.8,23087.5 c 12.6,-61.3 119.6,-117.4 252.5,-106.6 122.5,9.9 191.9,91.1 182.9,153.6 -20.2,139.6 -454.8,47.8 -435.4,-47"
         style="fill:#eeba96;fill-opacity:1;fill-rule:nonzero;stroke:none"
         id="path800" /><path
         d="m 23391,23222.5 c 5,27 77.1,49.1 171.5,40.6 87,-7.9 141,-46.2 138.6,-73.9 -5.6,-61.8 -317.9,-8.6 -310.1,33.3"
         style="fill:#eeba96;fill-opacity:1;fill-rule:nonzero;stroke:none"
         id="path802" /><g
         id="g804"><g
           id="g806"
           clip-path="url(#clipPath810)"><path
             d="m 25137.9,24790.4 c 95.8,-313 2.5,-1184.4 -280.4,-1525 -168,-202.3 -839.1,-196.5 -839.1,-196.5 l -72.2,248.8 c 0,0 498.2,4.4 564.2,304.9 65.9,300.4 13.5,1133.6 159.2,1277.6 128.3,126.8 416.6,59.3 468.3,-109.8"
             style="fill:url(#linearGradient818);fill-opacity:1;fill-rule:nonzero;stroke:none"
             id="path820" /></g></g><path
         d="m 24733.1,4214 -172.2,1720.9 h 2832.9 L 27565.9,4214 Z m 2458.4,3743.1 172.1,-1720.9 h -2832.8 l -172.1,1720.9 z m -2862.9,301.4 -172.2,1720.9 h 2832.9 l 172.1,-1720.9 z m 2458.4,3743.2 172.1,-1721 h -2832.8 l -172.1,1721 z M 23500.1,13514 24705.4,1461.9 c 7.8,-77.7 73.3,-135.7 149.8,-135.7 5,0 10.1,0.2 15.2,0.8 82.8,8.2 143.2,82.1 134.9,164.9 l -242.1,2420.7 H 27596 l 245.1,-2450.7 c 7.8,-77.7 73.3,-135.7 149.8,-135.7 5,0 10.1,0.2 15.2,0.8 82.8,8.2 143.2,82.1 134.9,164.9 L 26935.6,13544 c -8.3,82.8 -82.1,143.2 -164.9,134.9 -82.8,-8.3 -143.2,-82.1 -134.9,-164.9 l 121.1,-1211 h -2832.8 l -124.2,1241 c -8.3,82.8 -82.1,143.2 -164.9,134.9 -82.8,-8.3 -143.2,-82.1 -134.9,-164.9"
         style="fill:#57595a;fill-opacity:1;fill-rule:nonzero;stroke:none"
         id="path822" /><path
         d="m 29589.9,4513.4 c -26,-5.8 -73,49.7 -101.5,136.7 -26.2,80.3 -12.8,142.8 12.7,151.1 57,18.7 128.9,-278.8 88.8,-287.8"
         style="fill:#eaab7a;fill-opacity:1;fill-rule:nonzero;stroke:none"
         id="path824" /><path
         d="m 27916.7,8271.5 c 280.5,201.1 618.2,64 663.1,-226.3 58.2,-376.8 -15.4,-680.2 78.3,-930.1 145.1,-387.4 104.9,-768.1 104.9,-768.1 -382.8,521.8 -778.4,305.8 -996.8,830 -70.2,168.4 -118.3,901.9 150.5,1094.5"
         style="fill:#282a2b;fill-opacity:1;fill-rule:nonzero;stroke:none"
         id="path826" /><path
         d="m 28028.3,7002.3 h 334.9 V 7643 h -204.7 l -130.2,-640.7"
         style="fill:#eaab7a;fill-opacity:1;fill-rule:nonzero;stroke:none"
         id="path828" /><path
         d="m 27781,7967.3 c -56.6,-263 -14.8,-528.2 144,-585.7 148.9,-54 407.3,88.7 525.6,348.7 124.4,273.7 63.7,478.3 -156.8,554.5 -234.3,80.9 -450.8,-29.2 -512.8,-317.5"
         style="fill:#eeba96;fill-opacity:1;fill-rule:nonzero;stroke:none"
         id="path830" /><path
         d="m 27336.8,1562.7 225.1,1630.4 237.4,1628.4 43,294.7 620.3,-133.8 -82.4,-286.2 -454.8,-1580.4 -447.1,-1582.7 -19.7,-69.7 -131.7,27.5 9.9,71.8"
         style="fill:#eeba96;fill-opacity:1;fill-rule:nonzero;stroke:none"
         id="path832" /><path
         d="m 28697.9,5116.3 10.4,-297.6 60.1,-1730.5 756,-1127 40.4,-60.2 -104.7,-82.6 -49.2,53.2 -965.8,1045.7 c -17.5,18.8 -29.7,42.6 -34.2,69.8 l -4.2,25.1 -289.7,1747.4 -48.8,293.8 629.7,62.9"
         style="fill:#eeba96;fill-opacity:1;fill-rule:nonzero;stroke:none"
         id="path834" /><g
         id="g836"><g
           id="g838"
           clip-path="url(#clipPath842)"><path
             d="m 28584,5171.2 h -878.5 l -378.9,-3057 511.1,-74.4 746.3,3131.4"
             style="fill:url(#linearGradient848);fill-opacity:1;fill-rule:nonzero;stroke:none"
             id="path850" /></g></g><g
         id="g852"><g
           id="g854"
           clip-path="url(#clipPath858)"><path
             d="m 28825.1,5171.2 h -844 c 0,0 154.6,-1953.9 280.6,-2183.6 150.9,-275.3 748.7,-914.4 748.7,-914.4 l 405.9,313.6 c 0,0 -427.5,605.4 -530.9,889.6 -103.3,284.2 -60.3,1894.8 -60.3,1894.8"
             style="fill:url(#linearGradient866);fill-opacity:1;fill-rule:nonzero;stroke:none"
             id="path868" /></g></g><path
         d="m 28009,6765.2 c -64.3,-167 -135.7,-336.3 -211.7,-499.6 -38.3,-81.7 -77.9,-162.6 -120.1,-240.9 -42,-78.1 -86.7,-154.7 -135.2,-222 -44.6,-62.8 -109.2,-127.4 -172.3,-189.8 -64.2,-62.5 -131,-123.8 -199.2,-184 -136.5,-120.1 -278.1,-237.6 -420.8,-350.4 l -69,-54.6 101.2,-137.3 72,50.4 c 153,107.4 301.9,217.2 449.3,332.5 73.5,57.7 146.2,117 217.8,179.2 35.9,31 71.2,63.3 106.4,96.7 17.6,17.7 34.7,33.4 52.7,52.7 18.5,19.6 35.1,39.4 51.2,59.2 63.4,79.3 115.6,160.1 165.2,241.9 49.6,81.6 95.3,164.2 139.5,247.4 88.2,166.9 168.9,333.7 246.1,507.3 l 60,134.8 -280.1,114.1 -53,-137.6"
         style="fill:#eeba96;fill-opacity:1;fill-rule:nonzero;stroke:none"
         id="path870" /><g
         id="g872"><g
           id="g874"
           clip-path="url(#clipPath878)"><path
             d="m 27087.8,5415.6 321.8,-449.3 c 0,0 413.5,476.5 620.9,778.3 260.8,379.4 623.3,972.9 323.1,1164.2 -392.2,250 -612.7,-840.3 -762.4,-1042.3 -120.9,-163.3 -503.4,-450.9 -503.4,-450.9"
             style="fill:url(#linearGradient884);fill-opacity:1;fill-rule:nonzero;stroke:none"
             id="path886" /></g></g><path
         d="m 28236.5,6576 c 135.1,-116.4 269.8,-240 397.8,-365.7 64,-63.1 126.7,-127.3 186.4,-192.8 59.4,-65.5 116.6,-132.8 164.1,-200.5 11.9,-17 22.5,-33.4 32.8,-50.4 l 32.6,-56.8 c 21.2,-38.9 42.2,-78.1 62.5,-118.2 40.7,-80.1 79.8,-161.9 118.1,-244.3 76,-164.9 149.2,-332.8 218.8,-500.7 l 33.6,-81.2 159.7,60.1 -28.9,83 c -61.1,175.1 -124.9,347.7 -192.9,520.4 -34.2,86.2 -69.5,172.1 -107.1,258 -18.7,42.9 -38.7,85.8 -59,128.8 l -32.3,64.5 c -12.2,23 -25.4,45.8 -38.7,67.2 -53.6,85.4 -112.1,161.1 -172.2,234.8 -60.2,73.4 -122.4,143.9 -185.5,213 -127,138.2 -256.3,269.8 -392.8,400.3 l -106.6,102 -202.1,-225.2 111.7,-96.3"
         style="fill:#eaab7a;fill-opacity:1;fill-rule:nonzero;stroke:none"
         id="path888" /><g
         id="g890"><g
           id="g892"
           clip-path="url(#clipPath896)"><path
             d="m 28416.6,7133.6 c 0,0 627.4,-938.4 499.6,-1939.3 0,0 53.9,-196.6 -658,-169.8 -711.9,26.9 -752.6,125.2 -752.6,125.2 225.3,537.1 400.4,1145 487.4,1877 0,0 266.1,-9.8 423.6,106.9"
             style="fill:url(#linearGradient902);fill-opacity:1;fill-rule:nonzero;stroke:none"
             id="path904" /></g></g><g
         id="g906"><g
           id="g908"
           clip-path="url(#clipPath912)"><path
             d="m 29053.2,5133.3 536.2,134 c 0,0 -244.7,574.1 -449,878 -257,382.1 -675.5,937.4 -963.8,728.7 -376.7,-272.9 556.1,-878.8 688.9,-1092.4 107.3,-172.5 187.7,-648.3 187.7,-648.3"
             style="fill:url(#linearGradient918);fill-opacity:1;fill-rule:nonzero;stroke:none"
             id="path920" /></g></g><path
         d="m 29760.2,4476 c 49.5,34.6 54.2,157.3 -11.9,280 -60.9,113.1 -163.2,149.3 -215.3,117.6 -116.5,-70.8 150.6,-451.1 227.2,-397.6"
         style="fill:#eaab7a;fill-opacity:1;fill-rule:nonzero;stroke:none"
         id="path922" /><path
         d="m 26277.7,4673.9 c 34.3,-49.7 181.1,-40.2 338.3,46.3 144.9,79.7 203.3,195.2 172.9,248.2 -67.9,118.2 -564.2,-217.6 -511.2,-294.5"
         style="fill:#eeba96;fill-opacity:1;fill-rule:nonzero;stroke:none"
         id="path924" /><path
         d="m 26428.1,4915.9 c -5.6,26 50.5,72.3 137.9,99.7 80.6,25.3 142.9,11.2 151,-14.5 18,-57.2 -280.4,-125.4 -288.9,-85.2"
         style="fill:#eeba96;fill-opacity:1;fill-rule:nonzero;stroke:none"
         id="path926" /><path
         d="m 26822.3,1405.1 103.6,18.5 v -0.1 l 378.8,146.7 v -3.1 c 0,0 4.6,-64.9 83.3,-77.1 58,-9 95.6,6.4 111.4,15.2 3.7,3.4 6.8,5.4 8.5,5.4 25.3,0 45.9,-41.4 45.9,-92.4 0,-16.8 -2.3,-32.4 -6.2,-46 v -70.9 H 26793 v 71.8 c 0,16.7 12.7,30.6 29.3,32"
         style="fill:#282a2b;fill-opacity:1;fill-rule:nonzero;stroke:none"
         id="path928" /><path
         d="m 29137.6,1414.6 64.2,83.4 v -0.1 l 181.4,363.5 2.1,-2.2 c 0,0 47.1,-45 113.5,-1 48.9,32.3 66.3,69.1 72.1,86.2 0.5,5.1 1.4,8.6 2.7,9.8 18.7,17 61.7,0.2 96.1,-37.5 11.3,-12.4 20.2,-25.5 26.4,-38.1 l 47.7,-52.5 -558,-508 -48.3,53.1 c -11.2,12.3 -11.2,31.1 0.1,43.4"
         style="fill:#282a2b;fill-opacity:1;fill-rule:nonzero;stroke:none"
         id="path930" /><path
         d="m 28217.6,8356.5 c 76.1,0 128.3,-6.9 193.2,-40.5 104.2,-54 241.8,-183.1 269.1,-475.6 25.5,-272.7 -83.7,-406.2 149.3,-663.4 262.1,-199 729.1,-165 675.2,-611.6 -54,-446.5 -646.1,-388.3 -786.9,-165 -140.7,223.3 -124.9,422.3 -203.2,563 -78.3,140.8 -214.2,58.3 -282.2,213.6 -79.6,146.1 58.7,473.8 83.6,530.3 -16.6,54.9 -38.2,115.2 -127.2,139.5 -191.1,52.1 -349.5,233 -349.5,291.2 0,58.3 174.7,218.5 378.6,218.5"
         style="fill:#282a2b;fill-opacity:1;fill-rule:nonzero;stroke:none"
         id="path932" /><path
         d="m 28224,7803.8 c -19.8,-44 -6,-93.1 30.7,-109.5 36.6,-16.5 82.4,5.9 102.1,49.9 19.8,44.1 6,93.1 -30.7,109.5 -36.7,16.5 -82.4,-5.9 -102.1,-49.9"
         style="fill:#eeba96;fill-opacity:1;fill-rule:nonzero;stroke:none"
         id="path934" /></g></g></svg>
