<?xml version="1.0" encoding="UTF-8" standalone="no"?>
<svg
   xmlns:dc="http://purl.org/dc/elements/1.1/"
   xmlns:cc="http://creativecommons.org/ns#"
   xmlns:rdf="http://www.w3.org/1999/02/22-rdf-syntax-ns#"
   xmlns:svg="http://www.w3.org/2000/svg"
   xmlns="http://www.w3.org/2000/svg"
   xmlns:sodipodi="http://sodipodi.sourceforge.net/DTD/sodipodi-0.dtd"
   xmlns:inkscape="http://www.inkscape.org/namespaces/inkscape"
   version="1.1"
   id="svg2"
   xml:space="preserve"
   width="1066.6667"
   height="346.66666"
   viewBox="0 0 1066.6667 346.66666"
   sodipodi:docname="send.eps"><metadata
     id="metadata8"><rdf:RDF><cc:Work
         rdf:about=""><dc:format>image/svg+xml</dc:format><dc:type
           rdf:resource="http://purl.org/dc/dcmitype/StillImage" /></cc:Work></rdf:RDF></metadata><defs
     id="defs6" /><sodipodi:namedview
     pagecolor="#ffffff"
     bordercolor="#666666"
     borderopacity="1"
     objecttolerance="10"
     gridtolerance="10"
     guidetolerance="10"
     inkscape:pageopacity="0"
     inkscape:pageshadow="2"
     inkscape:window-width="640"
     inkscape:window-height="480"
     id="namedview4" /><g
     id="g10"
     inkscape:groupmode="layer"
     inkscape:label="ink_ext_XXXXXX"
     transform="matrix(1.3333333,0,0,-1.3333333,0,346.66667)"><g
       id="g12"
       transform="scale(0.1)"><path
         d="m 164.922,2428.92 91.508,-198.45 91.519,198.45 h 83.801 v -333.66 h -61.18 v 253.46 l -94.601,-216.96 h -39.59 l -97.68,224.16 V 2095.26 H 78.0391 v 333.66 h 86.8829"
         style="fill:#ffffff;fill-opacity:1;fill-rule:nonzero;stroke:none"
         id="path14" /><path
         d="m 532.512,2345.64 h 60.668 v -250.38 h -60.668 z m -7.192,80.2 c 0,10.97 3.25,19.62 9.758,25.96 6.524,6.34 15.774,9.51 27.774,9.51 11.648,0 20.82,-3.17 27.5,-9.51 6.687,-6.34 10.027,-14.99 10.027,-25.96 0,-10.97 -3.34,-19.62 -10.027,-25.96 -6.68,-6.35 -15.852,-9.52 -27.5,-9.52 -12,0 -21.25,3.17 -27.774,9.52 -6.508,6.34 -9.758,14.99 -9.758,25.96"
         style="fill:#ffffff;fill-opacity:1;fill-rule:nonzero;stroke:none"
         id="path16" /><path
         d="m 836.871,2101.43 c -22.621,-8.91 -40.441,-13.37 -53.473,-13.37 -13.019,0 -24.418,1.55 -34.187,4.63 -9.762,3.09 -18.422,7.71 -25.961,13.88 -15.77,14.06 -23.648,33.42 -23.648,58.1 v 139.84 h -34.961 v 40.61 h 34.961 v 65.81 h 60.668 v -65.81 h 67.859 v -40.61 H 760.27 v -137.79 c 0,-20.56 9.769,-30.84 29.3,-30.84 9.942,0 22.789,2.74 38.559,8.22 l 8.742,-42.67"
         style="fill:#ffffff;fill-opacity:1;fill-rule:nonzero;stroke:none"
         id="path18" /><path
         d="m 920.672,2197.57 c -20.223,17.14 -30.332,38.56 -30.332,64.27 0,27.07 10.621,49.01 31.871,65.8 20.57,16.11 44.129,24.17 70.687,24.17 26.572,0 48.762,-4.97 66.582,-14.91 2.06,19.53 10.46,35.3 25.19,47.29 14.4,12 31.36,18 50.9,18 l -3.08,-58.1 c -29.48,0 -44.73,-9.76 -45.76,-29.3 12.68,-15.77 19.02,-31.88 19.02,-48.33 0,-16.45 -2.91,-30.24 -8.74,-41.38 -5.82,-11.14 -13.71,-20.48 -23.65,-28.02 -20.56,-16.45 -45.58,-24.68 -75.059,-24.68 -16.789,0 -32.039,2.57 -45.75,7.71 -13.711,-4.11 -20.571,-12.34 -20.571,-24.68 0,-15.42 13.032,-23.13 39.071,-23.13 h 83.799 c 56.9,0 85.35,-19.88 85.35,-59.64 0,-13.37 -3.34,-26.48 -10.03,-39.33 -6.68,-12.85 -16.36,-24.25 -29.05,-34.19 -28.1,-21.93 -63.4,-32.9 -105.901,-32.9 -41.129,0 -74.547,8.4 -100.258,25.19 -23.992,16.11 -35.981,35.82 -35.981,59.12 0,15.43 4.711,27.68 14.141,36.76 9.418,9.09 21.84,14.83 37.27,17.23 -20.219,12.34 -30.332,27.59 -30.332,45.75 0,12 3.769,22.02 11.312,30.08 7.539,8.05 17.301,13.79 29.301,17.22 z m 46.269,-107.96 c -32.222,-1.37 -48.332,-13.54 -48.332,-36.51 0,-11.65 6.77,-20.99 20.313,-28.01 13.539,-7.03 29.558,-10.54 48.066,-10.54 18.512,0 32.992,1.54 43.442,4.62 10.46,3.09 19.28,7.2 26.48,12.34 15.42,10.28 23.14,22.62 23.14,37.02 0,6.17 -2.15,11.22 -6.43,15.16 -4.28,3.95 -10.54,5.92 -18.77,5.92 z m 78.659,172.74 c 0,14.05 -3.86,25.45 -11.57,34.19 -7.71,8.74 -19.45,13.11 -35.21,13.11 -15.769,0 -27.769,-4.37 -35.992,-13.11 -8.226,-8.74 -12.34,-20.05 -12.34,-33.93 0,-13.88 4.114,-25.28 12.34,-34.19 8.223,-8.91 20.223,-13.37 35.992,-13.37 15.76,0 27.5,4.46 35.21,13.37 7.71,8.91 11.57,20.22 11.57,33.93"
         style="fill:#ffffff;fill-opacity:1;fill-rule:nonzero;stroke:none"
         id="path20" /><path
         d="m 1198.29,2447.94 h 60.67 v -352.68 h -60.67 v 352.68"
         style="fill:#ffffff;fill-opacity:1;fill-rule:nonzero;stroke:none"
         id="path22" /><path
         d="m 1359.72,2345.64 h 60.67 v -250.38 h -60.67 z m -7.19,80.2 c 0,10.97 3.25,19.62 9.77,25.96 6.51,6.34 15.76,9.51 27.76,9.51 11.65,0 20.82,-3.17 27.5,-9.51 6.69,-6.34 10.03,-14.99 10.03,-25.96 0,-10.97 -3.34,-19.62 -10.03,-25.96 -6.68,-6.35 -15.85,-9.52 -27.5,-9.52 -12,0 -21.25,3.17 -27.76,9.52 -6.52,6.34 -9.77,14.99 -9.77,25.96"
         style="fill:#ffffff;fill-opacity:1;fill-rule:nonzero;stroke:none"
         id="path24" /><path
         d="m 1697.5,2315.3 c 8.57,-10.96 14.99,-23.65 19.28,-38.04 4.28,-14.4 6.42,-27.59 6.42,-39.59 0,-11.99 -0.68,-22.79 -2.05,-32.39 h -161.43 c 0.68,-20.22 5.65,-36.67 14.9,-49.35 9.26,-12.68 23.31,-19.02 42.16,-19.02 25.02,0 39.93,10.96 44.73,32.9 h 61.18 c -4.11,-25.02 -15.6,-44.73 -34.45,-59.12 -19.53,-15.09 -43.35,-22.63 -71.46,-22.63 -32.9,0 -60.49,12 -82.77,35.99 -22.96,25.02 -34.45,57.07 -34.45,96.14 0,40.1 11.49,72.32 34.45,96.66 21.93,23.3 49.53,34.96 82.77,34.96 34.62,0 61.52,-12.17 80.72,-36.51 z m -80.2,-11.82 c -17.14,0 -30.51,-5.57 -40.11,-16.71 -9.59,-11.14 -15.25,-25.45 -16.96,-42.93 h 106.42 c 0,27.08 -8.57,45.24 -25.7,54.5 -6.52,3.42 -14.4,5.14 -23.65,5.14"
         style="fill:#ffffff;fill-opacity:1;fill-rule:nonzero;stroke:none"
         id="path26" /><path
         d="m 1958.67,2133.82 c -15.43,-30.5 -39.07,-45.76 -70.95,-45.76 -31.88,0 -58.61,12.17 -80.2,36.51 -22.28,25.36 -33.42,57.58 -33.42,96.65 0,39.07 10.63,70.78 31.88,95.11 20.9,23.65 46.95,35.48 78.14,35.48 31.19,0 54.67,-12.51 70.43,-37.54 v 133.67 h 61.18 v -352.68 h -49.86 z m -63.24,163.49 c -17.14,0 -31.44,-6.94 -42.93,-20.82 -11.48,-13.88 -17.22,-32.48 -17.22,-55.78 0,-23.31 5.83,-42.08 17.48,-56.3 11.65,-14.22 26.39,-21.34 44.21,-21.34 14.74,0 27.94,5.83 39.59,17.48 12,12 17.99,27.08 17.99,45.25 v 32.39 c -0.68,17.82 -6.68,32.39 -17.99,43.7 -10.28,10.28 -23.99,15.42 -41.13,15.42"
         style="fill:#ffffff;fill-opacity:1;fill-rule:nonzero;stroke:none"
         id="path28" /><path
         d="m 2246.57,2345.64 h 60.67 v -250.38 h -60.67 z m -7.2,80.2 c 0,10.97 3.26,19.62 9.77,25.96 6.51,6.34 15.77,9.51 27.76,9.51 11.66,0 20.83,-3.17 27.51,-9.51 6.68,-6.34 10.03,-14.99 10.03,-25.96 0,-10.97 -3.35,-19.62 -10.03,-25.96 -6.68,-6.35 -15.85,-9.52 -27.51,-9.52 -11.99,0 -21.25,3.17 -27.76,9.52 -6.51,6.34 -9.77,14.99 -9.77,25.96"
         style="fill:#ffffff;fill-opacity:1;fill-rule:nonzero;stroke:none"
         id="path30" /><path
         d="m 2632.16,2297.82 c 16.11,35.99 44.38,53.99 84.83,53.99 29.82,0 52.95,-10.12 69.4,-30.34 15.77,-19.19 23.65,-45.92 23.65,-80.2 v -146.01 h -61.18 v 146.01 c 0,18.51 -4.45,32.48 -13.36,41.9 -8.92,9.43 -21.43,14.14 -37.54,14.14 -16.1,0 -29.3,-7.03 -39.58,-21.08 -10.28,-14.05 -15.77,-35.3 -16.45,-63.75 v -117.22 h -60.67 v 146.01 c 0,18.51 -4.46,32.48 -13.37,41.9 -8.91,9.43 -21.42,14.14 -37.53,14.14 -16.11,0 -29.9,-7.2 -41.38,-21.59 -11.48,-14.4 -17.57,-35.99 -18.25,-64.78 v -115.68 h -60.67 v 249.86 h 52.95 l 6.69,-43.18 c 16.45,33.24 42.84,49.87 79.17,49.87 20.91,0 38.3,-4.8 52.18,-14.4 13.89,-9.6 24.25,-22.79 31.11,-39.59"
         style="fill:#ffffff;fill-opacity:1;fill-rule:nonzero;stroke:none"
         id="path32" /><path
         d="m 4496.71,399.16 c 0,86.551 -26.73,155.32 -80.13,206.43 -52.82,51.051 -122.24,76.609 -208.15,76.609 H 4024.67 V 116.941 h 183.76 c 85.91,0 155.33,25.559 208.15,76.661 53.4,51.109 80.13,119.648 80.13,205.558 z m -111.46,0 c 0,-55.18 -15.72,-100.16 -47.04,-135.019 -33.1,-35.969 -76.37,-53.993 -129.78,-53.993 h -80.13 v 378.903 h 80.13 c 54,0 97.27,-17.731 129.78,-53.172 31.32,-34.801 47.04,-80.379 47.04,-136.719 z m -342.33,625.07 h 364.06 v 89.68 h -261.26 v 148.97 h 244.77 v 88.79 h -244.77 v 148.97 h 261.26 v 88.79 H 4042.92 Z M 3597.9,116.941 h 104.51 v 565.258 h -102.8 V 281.57 L 3350.54,682.199 H 3238.2 V 116.941 h 102.74 V 531.52 Z M 3354.49,1407.02 c -10.78,9.53 -16.14,22.78 -16.14,39.62 0,16.84 8.25,31.21 24.79,43.1 16.61,11.9 39.69,17.84 69.25,17.84 60.41,0 95.27,-24.67 104.51,-74.01 h 101.92 c -5.24,52.82 -25.08,93.91 -59.64,123.24 -34.57,29.32 -83.61,43.98 -147.21,43.98 -63.59,0 -113.93,-14.25 -151.08,-42.69 -36.63,-27.32 -54.88,-64.47 -54.88,-111.46 0,-40.1 11.6,-71.42 34.8,-94.09 23.26,-22.67 56.64,-42.39 100.21,-59.23 l 112.35,-44.4 c 24.96,-9.3 42.92,-19.31 53.99,-30.03 11.01,-10.77 16.55,-26.14 16.55,-46.16 0,-20.08 -10.19,-36.04 -30.5,-47.93 -20.32,-11.89 -42.4,-17.84 -66.19,-17.84 -23.78,0 -42.98,2 -57.46,6.06 -48.23,12.19 -72.31,41.52 -72.31,87.97 h -101.92 c 2.35,-61.53 25.26,-109.16 68.83,-142.84 38.92,-30.74 89.68,-46.16 152.38,-46.16 70.84,0 125.42,14.95 163.75,44.86 38.33,29.91 57.47,70.42 57.47,121.53 0,37.16 -11.31,68.07 -33.92,92.74 -22.67,24.67 -54.87,45.16 -96.68,61.41 l -122.82,47.87 c -22.67,8.13 -39.34,17.02 -50.05,26.62"
         style="fill:#ffffff;fill-opacity:1;fill-rule:nonzero;stroke:none"
         id="path34" /><path
         d="M 82.7891,1790.09 60,1768.95 375.781,504.488 393.211,491.012 H 1654.6 l 478.59,-374.071 27.79,7.297 600.87,1462.132 -22.61,23.37 -977.36,-341.98 z m 79.4919,-61.82 1580.119,-491.6 -92.33,-674.772 -2.71,-19.609 z m -54.652,-2 1226.841,-979.719 275.56,-220.09 H 407.34 Z M 1778.61,1236.03 2677.54,1550.57 1685.75,558.961 Z M 1687.7,510.32 2694.73,1517.42 2136.72,159.391 1687.7,510.32"
         style="fill:#ffffff;fill-opacity:1;fill-rule:nonzero;stroke:none"
         id="path36" /><path
         d="M 5023.1,346.219 V 117 h 74.49 c 34.86,0 63.06,10.359 84.49,31.031 21.61,20.789 32.5,48.52 32.5,83.379 0,35.149 -10.89,63 -32.5,83.719 -21.43,20.793 -49.63,31.09 -84.49,31.09 z m 42.04,-37.739 h 32.45 c 21.9,0 39.45,-7.179 52.7,-21.55 12.71,-14.192 19.02,-32.621 19.02,-55.52 0,-22.379 -6.31,-40.57 -19.02,-54.762 -13.49,-14.609 -31.03,-21.91 -52.7,-21.91 h -32.45 z m 320.43,-40.332 c -13.24,16.723 -31.67,25.141 -55.46,25.141 -22.85,0 -41.81,-8.07 -56.88,-24.019 -15.84,-16.731 -23.73,-38.872 -23.73,-66.418 0,-26.852 7.89,-48.872 23.73,-66.071 15.25,-16.543 34.27,-24.73 56.88,-24.73 19.31,0 35.62,5.187 49.1,15.551 12.9,9.828 20.79,23.429 23.67,40.628 h -42.1 c -3.29,-15.14 -13.48,-22.671 -30.67,-22.671 -12.96,0 -22.61,4.351 -29.03,13.132 -6.3,8.649 -9.77,20.02 -10.19,33.848 h 110.88 c 1,6.602 1.47,14.02 1.47,22.32 0,8.243 -1.53,17.313 -4.42,27.2 -2.94,9.89 -7.36,18.55 -13.25,26.089 z m -38.86,-11.597 c 11.72,-6.36 17.67,-18.84 17.67,-37.512 h -73.19 c 1.23,12.012 5.06,21.852 11.71,29.5 6.6,7.652 15.73,11.539 27.5,11.539 6.42,0 11.84,-1.238 16.31,-3.527 z M 5567.16,117 h 41.69 v 172.051 h -41.69 v -84.852 c -0.53,-16.961 -5.12,-30.437 -13.78,-40.57 -4.06,-4.469 -8.77,-7.891 -14.19,-10.059 -5.36,-2.242 -12.07,-3.422 -19.96,-3.422 -7.83,0 -14.54,2.774 -19.9,8.364 -5.42,5.539 -8.13,13.898 -8.13,25.258 v 105.281 h -41.68 V 179.469 c 0,-11.77 1.71,-21.778 5.3,-29.969 9.65,-23.84 29.67,-35.738 60,-35.738 24.02,0 41.45,11.418 52.34,34.269 z m 198.13,33.5 c -10.77,-3.711 -19.66,-5.648 -26.43,-5.648 -13.49,0 -20.2,7.128 -20.2,21.257 v 94.621 h 46.63 v 27.969 h -46.63 v 45.16 h -41.69 v -45.16 h -23.96 V 260.73 h 23.96 v -96.101 c 0,-16.949 5.48,-30.199 16.31,-39.859 5.13,-4.301 11.07,-7.418 17.79,-9.54 6.77,-2.171 14.54,-3.179 23.55,-3.179 8.89,0 21.14,3.07 36.74,9.129 z m 33.27,18.73 c 0.24,-18.082 7.3,-32.152 21.14,-42.16 13.9,-10.011 32.33,-15.019 55.11,-15.019 22.85,0 41.28,5.418 55.11,16.199 13.49,10.359 20.2,22.609 20.2,36.738 0,11.133 -3.65,20.082 -10.83,27.024 -7.19,6.949 -17.49,12.66 -30.86,17.136 l -40.68,15.192 c -13.9,4 -20.79,10.191 -20.79,18.43 0,4.71 2.53,8.89 7.6,12.48 5.06,3.711 12.19,5.48 21.31,5.48 9.19,0 16.25,-1.589 21.2,-4.949 4.95,-3.242 7.65,-7.769 8.12,-13.359 h 39.22 c -0.47,14.598 -6.6,26.726 -18.49,36.379 -11.89,9.66 -28.91,14.488 -50.93,14.488 -22.02,0 -39.51,-4.418 -52.58,-13.309 -13.13,-8.769 -19.61,-20.492 -19.61,-35.089 0,-21.903 13.84,-37.743 41.69,-47.403 l 37.45,-13.418 c 7.53,-2.359 13.01,-4.949 16.6,-7.718 3.48,-2.821 5.3,-6.891 5.3,-12.071 0,-5.121 -2.88,-9.711 -8.71,-13.601 -5.72,-3.828 -13.08,-5.828 -22.08,-5.828 -23.26,0 -35.16,8.128 -35.63,24.378 z m 209.85,100.391 c -16.25,-16.781 -24.43,-38.98 -24.43,-66.769 0,-26.383 8.18,-48.403 24.43,-66.071 15.31,-16.543 34.27,-24.73 56.88,-24.73 22.85,0 40.63,6.301 53.35,19.019 12.48,12.539 18.72,28.211 18.72,47.051 h -42.04 c 0,-8.769 -2.41,-15.66 -7.24,-20.73 -4.83,-5.063 -12.6,-7.59 -23.32,-7.59 -10.72,0 -19.84,4.469 -27.38,13.238 -7.54,8.84 -11.3,21.973 -11.3,39.449 0,17.434 4,31.032 11.95,40.934 3.59,4.297 7.71,7.359 12.42,9.359 4.65,2.059 10.37,3 16.9,3 6.66,0 12.43,-2.472 17.55,-7.422 5.06,-4.937 8.54,-11.129 10.42,-18.66 l 42.04,1 c -2.12,17.192 -9.07,31.5 -20.9,42.75 -5.83,5.942 -13.07,10.711 -21.67,14.301 -8.6,3.711 -18.31,5.539 -29.15,5.539 -22.84,0 -41.92,-7.949 -57.23,-23.668 z m 220.8,89.668 h -41.68 V 117 h 41.68 v 79.43 c 0.48,19.781 4.66,34.621 12.49,44.511 7.95,9.899 17.43,14.84 28.5,14.84 11.06,0 19.66,-3.179 25.78,-9.711 6.13,-6.422 9.19,-16.019 9.19,-28.742 V 117 h 41.69 v 100.328 c 0,22.852 -5.36,41.16 -16.08,55.063 -10.77,13.949 -27.38,20.898 -50.04,20.898 -22.56,0 -39.75,-10.891 -51.53,-32.559 z M 6407.62,117 h 41.69 v 242.289 h -41.69 z m 112.7,87.379 c -12.48,-8.539 -18.78,-20.789 -18.78,-36.738 0,-15.84 5.71,-29.032 17.01,-39.391 12.25,-10.781 29.44,-16.199 51.58,-16.199 22.85,0 39.81,9.25 50.88,27.847 L 6624.19,117 h 36.38 v 109.109 c 0,11.602 -1.82,21.61 -5.3,30.032 -10.36,24.718 -33.2,37.148 -68.53,37.148 -24.73,0 -43.99,-4.359 -57.76,-13.129 -13.78,-8.66 -20.67,-22.789 -20.67,-42.34 h 45.57 c 0,7.95 2.95,14.192 8.83,18.489 5.89,4.363 14.31,6.543 25.26,6.543 10.96,0 18.85,-2.891 23.67,-8.602 4.83,-5.828 7.25,-14.66 7.25,-26.672 v -16.957 c -17.9,4.481 -33.74,6.707 -47.34,6.707 -21.67,0 -38.75,-4.297 -51.23,-12.949 z m 86.73,-49.109 c -7.42,-7.649 -16.84,-11.418 -28.26,-11.418 -11.42,0 -19.73,2.296 -24.91,6.828 -5.18,4.59 -7.77,10.129 -7.77,16.429 0,15.071 11.3,22.61 33.92,22.61 12.01,0 24.96,-1.828 38.86,-5.649 -0.47,-11.55 -4.48,-21.14 -11.84,-28.8 z m 150.68,133.429 h -36.39 V 117 h 41.69 v 79.43 c 0.47,19.781 4.65,34.621 12.54,44.511 7.89,9.899 17.37,14.84 28.44,14.84 11.07,0 19.66,-3.179 25.79,-9.711 6.12,-6.422 9.18,-16.019 9.18,-28.742 V 117 h 41.69 v 100.328 c 0,22.852 -5.36,41.16 -16.07,55.063 -10.72,13.949 -26.74,20.898 -47.87,20.898 -24.97,0 -43.11,-11.418 -54.41,-34.269 z M 7058.37,117 h 34.27 v 242.289 h -42.04 v -91.848 c -10.84,17.188 -27.03,25.848 -48.46,25.848 -21.37,0 -39.33,-8.187 -53.64,-24.379 -14.66,-16.719 -21.9,-38.512 -21.9,-65.359 0,-26.903 7.59,-49.039 22.96,-66.41 14.84,-16.782 33.21,-25.09 55.05,-25.09 21.97,0 38.22,10.488 48.82,31.39 z m -20.14,128.238 c 7.78,-7.769 11.84,-17.777 12.37,-30.027 v -22.25 c 0,-12.492 -4.12,-22.91 -12.37,-31.09 -8,-8.012 -17.13,-12.07 -27.2,-12.07 -12.25,0 -22.43,4.879 -30.38,14.66 -8.07,9.769 -12.01,22.668 -12.01,38.738 0,15.961 3.88,28.789 11.83,38.27 7.89,9.543 17.67,14.312 29.5,14.312 11.72,0 21.2,-3.472 28.26,-10.543"
         style="fill:#ffffff;fill-opacity:1;fill-rule:nonzero;stroke:none"
         id="path38" /><path
         d="M 5022.75,758.391 V 529.16 h 41.69 V 697.27 L 5168.6,529.16 h 42.39 v 229.231 h -41.68 v -162.45 l -101.04,162.45 z m 373.72,-78.082 c -13.13,16.722 -31.68,25.14 -55.47,25.14 -22.84,0 -41.8,-8.058 -56.88,-24.019 -15.72,-16.719 -23.61,-38.86 -23.61,-66.418 0,-26.852 7.89,-48.871 23.61,-66.063 15.31,-16.551 34.27,-24.73 56.88,-24.73 19.31,0 35.74,5.179 49.11,15.543 13.01,9.84 20.9,23.437 23.67,40.629 h -41.98 c -3.3,-15.129 -13.61,-22.672 -30.8,-22.672 -12.95,0 -22.61,4.359 -28.91,13.133 -6.42,8.66 -9.77,20.019 -10.3,33.859 h 110.99 c 0.88,6.59 1.35,14.008 1.35,22.309 0,8.25 -1.41,17.308 -4.42,27.21 -2.94,9.891 -7.36,18.54 -13.24,26.079 z m -38.86,-11.598 c 11.83,-6.359 17.66,-18.84 17.66,-37.512 h -73.07 c 1.12,12.02 5.06,21.852 11.6,29.5 6.59,7.66 15.84,11.539 27.61,11.539 6.3,0 11.72,-1.226 16.2,-3.527 z m 197.13,-106.039 c -10.84,-3.711 -19.67,-5.66 -26.44,-5.66 -13.48,0 -20.2,7.129 -20.2,21.258 v 94.621 h 46.64 v 27.968 h -46.64 v 45.161 h -41.68 v -45.161 h -23.97 v -27.968 h 23.97 v -96.09 c 0,-16.961 5.47,-30.211 16.25,-39.86 5.18,-4.3 11.18,-7.421 17.84,-9.543 6.71,-2.179 14.54,-3.179 23.49,-3.179 9.01,0 21.26,3.062 36.8,9.121 z m 36.03,-33.512 h 134.96 v 33.86 h -86.2 l 86.2,103.929 v 33.91 h -134.96 v -33.91 h 89.03 L 5590.77,563.02 Z m 158.98,171.699 56.88,-171.699 h 41.33 l 31.15,102.809 31.8,-102.809 h 40.98 l 56.52,171.699 h -41.69 l -35.03,-122.937 -32.8,113.398 h -37.86 l -32.79,-113.05 -34.62,122.589 z m 416.23,-20.55 c -13.19,16.722 -31.68,25.14 -55.47,25.14 -22.84,0 -41.8,-8.058 -56.88,-24.019 -15.78,-16.719 -23.67,-38.86 -23.67,-66.418 0,-26.852 7.89,-48.871 23.67,-66.063 15.31,-16.551 34.27,-24.73 56.88,-24.73 19.31,0 35.68,5.179 49.11,15.543 12.95,9.84 20.84,23.437 23.67,40.629 h -42.04 c -3.3,-15.129 -13.55,-22.672 -30.74,-22.672 -12.95,0 -22.61,4.359 -28.97,13.133 -6.36,8.66 -9.77,20.019 -10.24,33.859 h 110.93 c 0.94,6.59 1.41,14.008 1.41,22.309 0,8.25 -1.47,17.308 -4.41,27.21 -2.95,9.891 -7.37,18.54 -13.25,26.079 z m -38.86,-11.598 c 11.77,-6.359 17.66,-18.84 17.66,-37.512 h -73.13 c 1.18,12.02 5.06,21.852 11.66,29.5 6.59,7.66 15.78,11.539 27.55,11.539 6.36,0 11.78,-1.226 16.26,-3.527 z m 148.02,32.5 h -41.69 V 529.16 h 41.69 v 75.192 c 0,38.449 13.9,57.648 41.69,57.648 6.36,0 12.84,-0.711 19.43,-2.121 l 0.71,41.691 c -6.13,1.649 -11.19,2.469 -15.2,2.469 -20.72,0 -36.27,-12.367 -46.63,-37.09 z M 6499.83,529.16 h 50.81 l -80.13,108.11 75.95,63.589 h -56.52 l -67.83,-60.468 v 131.07 h -41.69 V 529.16 h 41.69 v 67.781 l 19.07,15.95 58.65,-83.731"
         style="fill:#ffffff;fill-opacity:1;fill-rule:nonzero;stroke:none"
         id="path40" /><path
         d="m 5023.1,941.27 h 147.62 v 36.39 h -105.93 v 60.41 h 99.22 v 36.09 h -99.22 v 60.41 h 105.93 v 35.98 H 5023.1 Z m 243.71,171.7 h -36.39 v -171.7 h 41.69 v 79.49 c 0.47,19.78 4.65,34.62 12.54,44.51 7.95,9.89 17.37,14.84 28.44,14.84 11.13,0 19.67,-3.18 25.85,-9.66 6.06,-6.53 9.13,-16.13 9.13,-28.85 V 941.27 h 41.68 v 100.33 c 0,22.91 -5.35,41.28 -16.01,55.11 -10.78,13.9 -26.67,20.85 -47.93,20.85 -24.97,0 -43.04,-11.37 -54.41,-34.21 z m 274.5,-138.079 c -10.77,-3.77 -19.66,-5.711 -26.49,-5.711 -13.37,0 -20.14,7.121 -20.14,21.199 v 94.731 h 46.63 v 27.86 h -46.63 v 45.22 h -41.69 v -45.22 h -24.02 v -27.86 h 24.02 v -96.149 c 0,-16.949 5.42,-30.199 16.31,-39.859 5.18,-4.301 11.07,-7.422 17.84,-9.543 6.71,-2.18 14.55,-3.239 23.44,-3.239 8.95,0 21.19,3.121 36.74,9.25 z m 90.5,138.489 h -41.69 V 941.27 h 41.69 v 75.31 c 0,38.33 13.9,57.58 41.69,57.58 6.3,0 12.78,-0.76 19.43,-2.12 l 0.65,41.69 c -6.07,1.59 -11.13,2.47 -15.13,2.47 -20.79,0 -36.33,-12.36 -46.64,-37.09 z m 225.04,-20.85 c -13.24,16.67 -31.67,25.03 -55.52,25.03 -22.79,0 -41.81,-8.01 -56.82,-24.03 -15.84,-16.66 -23.73,-38.8 -23.73,-66.41 0,-26.85 7.89,-48.87 23.73,-66.069 15.25,-16.481 34.27,-24.731 56.82,-24.731 19.37,0 35.74,5.239 49.11,15.551 12.95,9.891 20.9,23.43 23.72,40.629 h -42.04 c -3.35,-15.02 -13.6,-22.559 -30.79,-22.559 -12.9,0 -22.55,4.297 -28.97,13.02 -6.3,8.711 -9.77,20.079 -10.25,33.909 h 110.94 c 1,6.6 1.47,14.02 1.47,22.26 0,8.3 -1.53,17.31 -4.48,27.2 -2.88,9.89 -7.36,18.61 -13.19,26.2 z m -38.86,-11.65 c 11.78,-6.36 17.61,-18.85 17.61,-37.45 h -73.13 c 1.23,11.95 5.06,21.78 11.72,29.5 6.59,7.65 15.72,11.42 27.49,11.42 6.42,0 11.84,-1.12 16.31,-3.47 z m 140.61,32.09 h -34.33 V 857.602 h 41.75 v 97.507 c 9.65,-12.539 24.96,-18.789 45.93,-18.789 20.96,0 38.97,8.071 54.05,24.09 16.19,16.949 24.37,39.211 24.37,66.71 0,27.38 -8,49.52 -24.02,66.41 -15.07,16.02 -33.27,24.03 -54.4,24.03 -22.14,0 -38.63,-9.3 -49.46,-27.91 z m 19.08,-129.251 c -7.78,6.769 -11.66,15.781 -11.66,26.851 v 30.74 c 0.47,12.42 4.41,22.08 11.83,28.73 7.42,6.77 16.96,10.07 28.62,10.07 11.66,0 21.55,-4.65 29.68,-14.13 8.12,-9.42 12.18,-22.38 12.18,-39.04 0,-16.54 -4.71,-29.792 -14.13,-39.678 -4.24,-4.543 -9.01,-7.84 -14.31,-9.903 -5.3,-2.179 -10.42,-3.23 -15.36,-3.23 -10.66,0 -19.55,3.23 -26.85,9.59 z m 203.84,129.661 h -41.69 V 941.27 h 41.69 v 75.31 c 0,38.33 13.9,57.58 41.69,57.58 6.36,0 12.83,-0.76 19.43,-2.12 l 0.71,41.69 c -6.13,1.59 -11.19,2.47 -15.2,2.47 -20.72,0 -36.27,-12.36 -46.63,-37.09 z m 225.04,-20.85 c -13.25,16.67 -31.67,25.03 -55.46,25.03 -22.85,0 -41.81,-8.01 -56.88,-24.03 -15.84,-16.66 -23.67,-38.8 -23.67,-66.41 0,-26.85 7.83,-48.87 23.67,-66.069 15.31,-16.481 34.27,-24.731 56.88,-24.731 19.31,0 35.68,5.239 49.1,15.551 12.9,9.891 20.85,23.43 23.67,40.629 h -42.04 c -3.29,-15.02 -13.54,-22.559 -30.73,-22.559 -12.96,0 -22.61,4.297 -28.97,13.02 -6.36,8.711 -9.78,20.079 -10.25,33.909 h 110.93 c 0.95,6.6 1.42,14.02 1.42,22.26 0,8.3 -1.48,17.31 -4.42,27.2 -2.94,9.89 -7.36,18.61 -13.25,26.2 z m -38.86,-11.65 c 11.78,-6.36 17.67,-18.85 17.67,-37.45 h -73.13 c 1.17,11.95 5.06,21.78 11.65,29.5 6.6,7.65 15.73,11.42 27.56,11.42 6.36,0 11.78,-1.12 16.25,-3.47 z m 142.73,32.09 h -36.39 v -171.7 h 41.69 v 79.49 c 0.47,19.78 4.59,34.62 12.54,44.51 7.83,9.89 17.31,14.84 28.44,14.84 11.07,0 19.66,-3.18 25.79,-9.66 6.12,-6.53 9.18,-16.13 9.18,-28.85 V 941.27 h 41.69 v 100.33 c 0,22.91 -5.36,41.28 -16.07,55.11 -10.72,13.9 -26.68,20.85 -47.87,20.85 -24.97,0 -43.16,-11.37 -54.41,-34.21 z m 303.41,-20.44 c -13.19,16.67 -31.68,25.03 -55.47,25.03 -22.84,0 -41.8,-8.01 -56.87,-24.03 -15.84,-16.66 -23.67,-38.8 -23.67,-66.41 0,-26.85 7.83,-48.87 23.67,-66.069 15.3,-16.481 34.26,-24.731 56.87,-24.731 19.32,0 35.69,5.239 49.11,15.551 12.95,9.891 20.84,23.43 23.67,40.629 h -42.04 c -3.3,-15.02 -13.54,-22.559 -30.74,-22.559 -12.95,0 -22.61,4.297 -28.96,13.02 -6.36,8.711 -9.78,20.079 -10.25,33.909 h 110.93 c 0.94,6.6 1.41,14.02 1.41,22.26 0,8.3 -1.47,17.31 -4.41,27.2 -2.95,9.89 -7.36,18.61 -13.25,26.2 z m -38.86,-11.65 c 11.78,-6.36 17.66,-18.85 17.66,-37.45 h -73.13 c 1.18,11.95 5.07,21.78 11.66,29.5 6.6,7.65 15.72,11.42 27.56,11.42 6.36,0 11.77,-1.12 16.25,-3.47 z m 220.45,-139.61 h 41.69 v 172.11 h -41.69 v -84.85 c -0.47,-16.9 -5.07,-30.44 -13.78,-40.632 -4.06,-4.41 -8.71,-7.828 -14.13,-10.07 -5.42,-2.226 -12.07,-3.348 -19.96,-3.348 -7.89,0 -14.55,2.821 -19.96,8.301 -5.42,5.59 -8.13,14.008 -8.13,25.319 v 105.28 h -41.69 V 1003.8 c 0,-11.722 1.71,-21.73 5.3,-29.972 9.66,-23.848 29.68,-35.68 60.06,-35.68 24.02,0 41.45,11.364 52.29,34.274 z m 149.02,172.11 h -41.68 V 941.27 h 41.68 v 75.31 c 0,38.33 13.96,57.58 41.69,57.58 6.42,0 12.9,-0.76 19.49,-2.12 l 0.71,41.69 c -6.13,1.59 -11.19,2.47 -15.25,2.47 -20.67,0 -36.21,-12.36 -46.64,-37.09 z m 89.8,-119.821 c 0.23,-18.137 7.3,-32.149 21.19,-42.161 13.9,-10.07 32.27,-15.078 55.12,-15.078 22.78,0 41.21,5.481 55.11,16.309 13.42,10.312 20.14,22.551 20.14,36.691 0,11.12 -3.6,20.13 -10.84,27.08 -7.18,6.89 -17.43,12.66 -30.85,17.08 l -40.63,15.25 c -13.89,3.94 -20.84,10.07 -20.84,18.37 0,4.71 2.53,8.83 7.59,12.54 5.07,3.59 12.19,5.47 21.38,5.47 9.18,0 16.25,-1.7 21.19,-5 4.95,-3.24 7.66,-7.77 8.13,-13.37 h 39.21 c -0.47,14.55 -6.65,26.68 -18.54,36.33 -11.9,9.72 -28.86,14.49 -50.88,14.49 -22.02,0 -39.56,-4.42 -52.64,-13.25 -13.13,-8.83 -19.6,-20.55 -19.6,-35.09 0,-21.91 13.83,-37.69 41.68,-47.4 l 37.45,-13.43 c 7.54,-2.35 13.07,-4.94 16.61,-7.71 3.53,-2.879 5.3,-6.891 5.3,-12.071 0,-5.121 -2.89,-9.718 -8.72,-13.539 -5.71,-3.89 -13.07,-5.89 -22.08,-5.89 -23.26,0 -35.15,8.179 -35.62,24.379 z m 243.41,190.121 h -41.69 V 941.27 h 41.69 v 79.49 c 0.41,19.78 4.65,34.62 12.54,44.51 7.89,9.89 17.31,14.84 28.44,14.84 11.01,0 19.67,-3.18 25.73,-9.66 6.18,-6.53 9.25,-16.13 9.25,-28.85 V 941.27 h 41.68 v 100.33 c 0,22.91 -5.35,41.28 -16.07,55.11 -10.72,13.9 -27.44,20.85 -49.99,20.85 -22.61,0 -39.8,-10.84 -51.58,-32.45 z m 181.88,-242.41 h 41.63 v 172.11 h -41.63 z m 1.83,209.32 c 4.41,-4.36 10.83,-6.48 19.07,-6.48 8.01,0 14.25,2.12 18.91,6.48 4.53,4.42 6.77,10.3 6.77,17.84 0,7.6 -2.24,13.48 -6.77,17.84 -4.66,4.42 -10.9,6.54 -18.91,6.54 -8.24,0 -14.66,-2.12 -19.07,-6.54 -4.48,-4.36 -6.77,-10.24 -6.77,-17.84 0,-7.54 2.29,-13.42 6.77,-17.84 z m 144.84,-37.62 h -34.27 V 857.602 h 41.69 v 97.507 c 9.66,-12.539 24.97,-18.789 45.93,-18.789 20.9,0 38.98,8.071 54.05,24.09 16.25,16.949 24.38,39.211 24.38,66.71 0,27.38 -8.01,49.52 -24.02,66.41 -15.08,16.02 -33.21,24.03 -54.41,24.03 -22.14,0 -38.63,-9.3 -49.46,-27.91 z m 19.08,-129.251 c -7.77,6.769 -11.66,15.781 -11.66,26.851 v 30.74 c 0.47,12.42 4.42,22.08 11.84,28.73 7.42,6.77 16.96,10.07 28.61,10.07 11.6,0 21.49,-4.65 29.68,-14.13 8.12,-9.42 12.19,-22.38 12.19,-39.04 0,-16.54 -4.71,-29.792 -14.13,-39.678 -4.24,-4.543 -9.01,-7.84 -14.31,-9.903 -5.3,-2.179 -10.42,-3.23 -15.37,-3.23 -10.6,0 -19.55,3.23 -26.85,9.59"
         style="fill:#ffffff;fill-opacity:1;fill-rule:nonzero;stroke:none"
         id="path42" /><path
         d="m 5185.26,1519.54 c -2.18,21.37 -10.18,38.09 -24.26,49.93 -14.01,11.89 -33.91,17.9 -59.64,17.9 -25.85,0 -46.22,-5.83 -61.3,-17.31 -14.84,-11.07 -22.26,-26.15 -22.26,-45.28 0,-16.2 4.72,-28.97 14.08,-38.1 9.42,-9.24 23.02,-17.19 40.68,-24.08 l 45.58,-17.96 c 10.13,-3.77 17.43,-7.89 21.84,-12.19 4.48,-4.41 6.71,-10.66 6.71,-18.78 0,-8.07 -4.12,-14.54 -12.36,-19.37 -8.18,-4.83 -17.19,-7.25 -26.85,-7.25 -9.66,0 -17.43,0.77 -23.26,2.48 -19.55,4.94 -29.32,16.78 -29.32,35.68 h -41.33 c 0.88,-25.02 10.18,-44.28 27.85,-57.94 15.84,-12.54 36.38,-18.78 61.82,-18.78 28.73,0 50.87,6.06 66.48,18.19 15.54,12.13 23.26,28.56 23.26,49.29 0,15.13 -4.6,27.67 -13.78,37.68 -9.13,9.95 -22.26,18.31 -39.22,24.85 l -49.81,19.43 c -9.19,3.35 -15.9,6.94 -20.26,10.83 -4.41,3.83 -6.59,9.19 -6.59,16.02 0,6.89 3.41,12.66 10.07,17.48 6.71,4.83 16.13,7.25 28.14,7.25 24.5,0 38.57,-10.01 42.34,-29.97 z m 71.66,-12.02 c -16.25,-16.25 -24.38,-39.15 -24.38,-68.59 0,-28.97 8.13,-51.52 24.38,-67.77 15.07,-15.14 34.86,-22.67 59.35,-22.67 24.5,0 44.04,7.53 58.65,22.67 16.31,16.42 24.37,39.09 24.37,67.77 0,29.26 -8.06,52.05 -24.37,68.59 -7.31,7.48 -15.96,13.13 -26.09,16.79 -10.18,3.65 -21.02,5.41 -32.56,5.41 -24.73,0 -44.51,-7.36 -59.35,-22.2 z m 88.67,-109.04 c -8,-9.01 -18.19,-13.54 -30.67,-13.54 -12.49,0 -22.32,4.53 -29.5,13.54 -7.19,9.07 -10.84,22.73 -10.84,40.8 0,18.14 4.07,31.74 12.02,40.86 8,9.07 18.37,13.61 30.97,13.61 12.6,0 22.43,-4.54 29.5,-13.61 7.06,-9.12 10.54,-22.72 10.54,-40.86 0,-18.07 -3.95,-31.73 -12.02,-40.8 z m 111.35,107.63 c -16.31,-16.78 -24.38,-38.98 -24.38,-66.83 0,-26.32 8.07,-48.34 24.38,-66.06 15.31,-16.49 34.26,-24.73 56.88,-24.73 22.78,0 40.56,6.36 53.34,19.13 12.48,12.43 18.67,28.15 18.67,46.93 h -42.04 c 0,-8.71 -2.42,-15.6 -7.25,-20.67 -4.82,-5.06 -12.54,-7.59 -23.25,-7.59 -10.78,0 -19.91,4.47 -27.44,13.31 -7.54,8.77 -11.25,21.96 -11.25,39.33 0,17.43 3.95,31.09 12.01,40.98 3.48,4.3 7.66,7.36 12.37,9.36 4.71,2.06 10.3,3 16.96,3 6.53,0 12.42,-2.47 17.48,-7.41 5.07,-4.95 8.48,-11.19 10.37,-18.73 l 42.04,1.06 c -2.12,17.19 -9.07,31.5 -20.79,42.81 -5.95,5.89 -13.19,10.65 -21.73,14.31 -8.65,3.65 -18.37,5.41 -29.14,5.41 -22.85,0 -41.92,-7.83 -57.23,-23.61 z m 182.59,-152.68 h 41.68 v 172.11 h -41.68 z m 1.82,209.38 c 4.48,-4.41 10.78,-6.53 19.08,-6.53 8.01,0 14.25,2.12 18.84,6.53 4.59,4.36 6.89,10.25 6.89,17.79 0,7.59 -2.3,13.48 -6.89,17.84 -4.59,4.41 -10.83,6.53 -18.84,6.53 -8.3,0 -14.6,-2.12 -19.08,-6.53 -4.47,-4.36 -6.77,-10.25 -6.77,-17.84 0,-7.54 2.3,-13.43 6.77,-17.79 z m 115.82,-121.88 c -12.43,-8.6 -18.73,-20.84 -18.73,-36.74 0,-15.9 5.72,-29.03 16.96,-39.39 12.25,-10.84 29.44,-16.31 51.58,-16.31 22.91,0 39.86,9.36 50.87,27.91 l 3.18,-22.97 h 36.39 v 109.17 c 0,11.6 -1.76,21.61 -5.3,30.09 -10.3,24.73 -33.21,37.03 -68.53,37.03 -24.73,0 -43.99,-4.35 -57.71,-13.07 -13.78,-8.71 -20.72,-22.79 -20.72,-42.33 h 45.63 c 0,7.94 2.94,14.13 8.77,18.54 5.95,4.3 14.31,6.48 25.32,6.48 10.89,0 18.78,-2.83 23.61,-8.66 4.83,-5.77 7.24,-14.66 7.24,-26.67 v -16.9 c -17.84,4.42 -33.67,6.66 -47.28,6.66 -21.72,0 -38.8,-4.24 -51.28,-12.84 z m 86.73,-49.11 c -7.42,-7.71 -16.84,-11.54 -28.2,-11.54 -11.49,0 -19.73,2.3 -24.91,6.95 -5.18,4.59 -7.77,10.01 -7.77,16.37 0,15.07 11.24,22.67 33.85,22.67 12.02,0 25.03,-1.94 38.86,-5.71 -0.47,-11.48 -4.41,-21.08 -11.83,-28.74 z m 114.35,-38.39 h 41.68 v 242.42 h -41.68 v -242.42"
         style="fill:#ffffff;fill-opacity:1;fill-rule:nonzero;stroke:none"
         id="path44" /></g></g></svg>
