<svg width="36" height="36" viewBox="0 0 36 36" fill="none" xmlns="http://www.w3.org/2000/svg">
<rect width="36" height="36" rx="18" fill="#0E8980"/>
<path d="M10 10.6723V12.2872C10 12.3742 10.0346 12.4576 10.0961 12.5191C10.1576 12.5806 10.241 12.6151 10.328 12.6151H11.4053V29.6022C11.4053 29.6892 11.4398 29.7726 11.5013 29.8341C11.5628 29.8956 11.6463 29.9302 11.7332 29.9302H23.2671C23.3541 29.9302 23.4375 29.8956 23.499 29.8341C23.5605 29.7726 23.595 29.6892 23.595 29.6022V12.6151H24.672C24.759 12.6151 24.8424 12.5806 24.9039 12.5191C24.9654 12.4576 25 12.3742 25 12.2872V10.6723C25 10.5853 24.9654 10.5019 24.9039 10.4404C24.8424 10.3789 24.759 10.3444 24.672 10.3444H13.7702C13.7941 7.76041 14.9715 7.04678 15.0223 7.01759C15.0387 7.00808 15.0492 6.99332 15.0633 6.98152C15.2525 7.07892 15.4864 7.07859 15.6772 6.95627L16.6742 6.31643C16.811 6.22797 16.9074 6.08899 16.9421 5.92981C16.9769 5.77063 16.9473 5.60415 16.8598 5.4667L16.7418 5.28238C16.6534 5.14541 16.5144 5.04899 16.3552 5.01421C16.196 4.97942 16.0294 5.0091 15.892 5.09676L14.8951 5.7366C14.7762 5.81337 14.6874 5.92862 14.6434 6.06307C14.5994 6.19751 14.6029 6.34299 14.6534 6.47516C14.3864 6.64733 13.1385 7.6007 13.1146 10.344H10.328C10.1469 10.3444 10 10.491 10 10.6723V10.6723ZM12.0612 12.6151H22.9391V29.2743H12.0612V12.6151ZM10.6559 11.0003H24.3441V11.9592H10.6559V11.0003Z" fill="white"/>
<path d="M20.9454 24.7685V15.9062C20.9454 15.8192 20.9109 15.7358 20.8494 15.6743C20.7879 15.6128 20.7045 15.5782 20.6175 15.5782H14.3831C14.2961 15.5782 14.2127 15.6128 14.1512 15.6743C14.0897 15.7358 14.0551 15.8192 14.0551 15.9062V24.7682C14.0551 24.8552 14.0897 24.9386 14.1512 25.0001C14.2127 25.0616 14.2961 25.0961 14.3831 25.0961H20.6175C20.6605 25.0962 20.7032 25.0878 20.743 25.0713C20.7828 25.0549 20.8189 25.0307 20.8494 25.0003C20.8798 24.9699 20.904 24.9337 20.9205 24.894C20.937 24.8542 20.9454 24.8116 20.9454 24.7685V24.7685ZM20.2895 24.4406H14.711V16.2342H20.2895V24.4406V24.4406Z" fill="white"/>
<path d="M10 10.6723V12.2872C10 12.3742 10.0346 12.4576 10.0961 12.5191C10.1576 12.5806 10.241 12.6151 10.328 12.6151H11.4053V29.6022C11.4053 29.6892 11.4398 29.7726 11.5013 29.8341C11.5628 29.8956 11.6463 29.9302 11.7332 29.9302H23.2671C23.3541 29.9302 23.4375 29.8956 23.499 29.8341C23.5605 29.7726 23.595 29.6892 23.595 29.6022V12.6151H24.672C24.759 12.6151 24.8424 12.5806 24.9039 12.5191C24.9654 12.4576 25 12.3742 25 12.2872V10.6723C25 10.5853 24.9654 10.5019 24.9039 10.4404C24.8424 10.3789 24.759 10.3444 24.672 10.3444H13.7702C13.7941 7.76041 14.9715 7.04678 15.0223 7.01759C15.0387 7.00808 15.0492 6.99332 15.0633 6.98152C15.2525 7.07892 15.4864 7.07859 15.6772 6.95627L16.6742 6.31643C16.811 6.22797 16.9074 6.08899 16.9421 5.92981C16.9769 5.77063 16.9473 5.60415 16.8598 5.4667L16.7418 5.28238C16.6534 5.14541 16.5144 5.04899 16.3552 5.01421C16.196 4.97942 16.0294 5.0091 15.892 5.09676L14.8951 5.7366C14.7762 5.81337 14.6874 5.92862 14.6434 6.06307C14.5994 6.19751 14.6029 6.34299 14.6534 6.47516C14.3864 6.64733 13.1385 7.6007 13.1146 10.344H10.328C10.1469 10.3444 10 10.491 10 10.6723V10.6723ZM12.0612 12.6151H22.9391V29.2743H12.0612V12.6151ZM10.6559 11.0003H24.3441V11.9592H10.6559V11.0003Z" fill="white"/>
<path d="M20.9454 24.7685V15.9062C20.9454 15.8192 20.9109 15.7358 20.8494 15.6743C20.7879 15.6128 20.7045 15.5782 20.6175 15.5782H14.3831C14.2961 15.5782 14.2127 15.6128 14.1512 15.6743C14.0897 15.7358 14.0551 15.8192 14.0551 15.9062V24.7682C14.0551 24.8552 14.0897 24.9386 14.1512 25.0001C14.2127 25.0616 14.2961 25.0961 14.3831 25.0961H20.6175C20.6605 25.0962 20.7032 25.0878 20.743 25.0713C20.7828 25.0549 20.8189 25.0307 20.8494 25.0003C20.8798 24.9699 20.904 24.9337 20.9205 24.894C20.937 24.8542 20.9454 24.8116 20.9454 24.7685V24.7685ZM20.2895 24.4406H14.711V16.2342H20.2895V24.4406V24.4406Z" fill="white"/>
</svg>
