<svg width="36" height="36" viewBox="0 0 36 36" fill="none" xmlns="http://www.w3.org/2000/svg">
<rect width="36" height="36" rx="18" fill="#666666" fill-opacity="0.5"/>
<path d="M31.9761 17.8024L28.2685 11.4526C28.218 11.366 28.1381 11.3005 28.0433 11.2678C27.9486 11.2351 27.8452 11.2374 27.7521 11.2744C27.7421 11.2785 26.7211 11.679 25.6471 11.679C25.2338 11.679 24.7179 11.4296 24.1199 11.1408C23.296 10.7431 22.2706 10.2478 21.0767 10.2478C19.9822 10.2478 19.0546 10.5602 18.2831 11.0131C17.4626 10.4356 16.5528 10.0983 15.5738 10.0154C14.3849 9.91545 13.3212 10.3216 12.4662 10.6487C11.8466 10.886 11.3127 11.0935 10.8991 11.0558C9.83477 10.9658 8.84489 10.4802 8.83554 10.4755C8.74584 10.431 8.64316 10.42 8.54609 10.4447C8.44903 10.4693 8.36398 10.5278 8.30634 10.6097L4.07643 16.6238C4.01574 16.7099 3.98975 16.8158 4.00367 16.9202C4.01758 17.0247 4.07037 17.12 4.1515 17.1873L8.64648 20.9132L8.63495 20.9247C8.47118 21.0876 8.34133 21.2813 8.2529 21.4947C8.16447 21.7081 8.11922 21.9369 8.11976 22.1678C8.11913 22.3989 8.16431 22.6277 8.25269 22.8411C8.34107 23.0545 8.47089 23.2483 8.63464 23.4113C8.83469 23.6122 9.08058 23.7614 9.35114 23.8461C9.62169 23.9308 9.90879 23.9484 10.1877 23.8975C10.1881 24.1271 10.2338 24.3543 10.3221 24.5662C10.4104 24.7781 10.5396 24.9706 10.7022 25.1325C10.9184 25.3495 11.1877 25.5059 11.4832 25.5861C11.7788 25.6663 12.0903 25.6675 12.3864 25.5895C12.4106 26.0183 12.5919 26.4233 12.8957 26.727C13.0586 26.8907 13.2523 27.0205 13.4657 27.1088C13.6791 27.1971 13.9079 27.2422 14.1388 27.2416C14.2575 27.2416 14.374 27.23 14.4877 27.2076C15.2648 28.1766 16.2656 28.48 17.1508 28.48C17.659 28.4795 18.1625 28.3838 18.6353 28.1978C18.9367 28.296 19.2516 28.3461 19.5685 28.3461C20.2694 28.3461 20.9253 28.1062 21.3661 27.7091C21.5785 27.7961 21.8059 27.8408 22.0355 27.8405C22.2664 27.8413 22.4951 27.7962 22.7085 27.7079C22.9218 27.6196 23.1155 27.4898 23.2783 27.326C23.5279 27.078 23.6965 26.7603 23.762 26.4146C24.0964 26.604 24.4835 26.6787 24.8644 26.6272C25.2452 26.5757 25.5986 26.4009 25.8707 26.1296C26.1621 25.8393 26.3419 25.4556 26.3784 25.0459C26.5457 25.0969 26.7197 25.1227 26.8946 25.1226C27.1255 25.1232 27.3543 25.0781 27.5677 24.9898C27.7811 24.9015 27.9748 24.7717 28.1377 24.608C28.3015 24.4451 28.4314 24.2514 28.5198 24.038C28.6082 23.8247 28.6535 23.5958 28.6529 23.3649C28.6535 23.1338 28.6083 22.905 28.5199 22.6915C28.4315 22.4781 28.3015 22.2843 28.1377 22.1214L27.4418 21.4253L31.853 18.3569C31.9397 18.297 32.0006 18.2066 32.0234 18.1038C32.0462 18.001 32.0293 17.8933 31.9761 17.8024V17.8024ZM10.5291 22.8192C10.4438 22.905 10.3424 22.9731 10.2307 23.0194C10.1189 23.0657 9.99904 23.0893 9.87807 23.0889C9.632 23.0889 9.40119 22.9933 9.22676 22.8192C9.141 22.7338 9.07303 22.6323 9.02678 22.5205C8.98053 22.4087 8.95693 22.2888 8.95733 22.1678C8.95733 21.9221 9.05327 21.6913 9.22676 21.5169L10.0248 20.7192C10.1101 20.6334 10.2115 20.5654 10.3232 20.5191C10.435 20.4728 10.5548 20.4491 10.6758 20.4494C10.9222 20.4494 11.1533 20.5453 11.3271 20.7192C11.5012 20.8933 11.5965 21.1241 11.5965 21.3701C11.5965 21.6159 11.5006 21.847 11.3271 22.0211L10.5291 22.8192V22.8192ZM12.8951 24.2426L12.597 24.5413C12.5116 24.627 12.4102 24.6948 12.2984 24.741C12.1867 24.7872 12.0669 24.8108 11.946 24.8104C11.6999 24.8104 11.4688 24.7145 11.2947 24.5413C11.2089 24.456 11.1409 24.3545 11.0946 24.2427C11.0483 24.1309 11.0246 24.011 11.0249 23.89C11.0249 23.644 11.1209 23.4128 11.2947 23.2387L13.0894 21.4437C13.1748 21.3579 13.2763 21.29 13.3881 21.2438C13.4999 21.1975 13.6198 21.1739 13.7407 21.1742C13.9865 21.1742 14.2179 21.2702 14.392 21.444C14.5659 21.6178 14.6615 21.8492 14.6615 22.095C14.6615 22.3404 14.5659 22.5706 14.393 22.7447L12.8963 24.242L12.8951 24.2426ZM14.1391 26.4055C14.0182 26.4058 13.8985 26.3821 13.7868 26.3359C13.6751 26.2898 13.5736 26.2219 13.4881 26.1364C13.316 25.9638 13.2192 25.7299 13.219 25.4861C13.2189 25.2423 13.3153 25.0083 13.4872 24.8354L14.9839 23.3384C14.9846 23.3372 14.9856 23.3362 14.9867 23.3353L15.2832 23.0384C15.3685 22.9527 15.4701 22.8848 15.5819 22.8386C15.6937 22.7924 15.8135 22.7689 15.9345 22.7693C16.1799 22.7693 16.4114 22.8653 16.5855 23.0391C16.7593 23.2129 16.8549 23.4443 16.8549 23.6901C16.8549 23.9358 16.759 24.1669 16.5852 24.341L14.7904 26.1364C14.7049 26.222 14.6034 26.2898 14.4916 26.336C14.3799 26.3822 14.2601 26.4058 14.1391 26.4055ZM17.2804 27.0466C17.339 27.2456 17.4583 27.4288 17.6486 27.6057C16.9889 27.7163 16.0364 27.672 15.2686 26.8323C15.3075 26.7999 15.3461 26.7653 15.3826 26.7289L17.1776 24.9338C17.1997 24.9117 17.2197 24.888 17.2402 24.8643C17.8672 25.3577 17.728 25.6047 17.514 25.9813C17.353 26.2638 17.153 26.6164 17.2804 27.0466ZM27.5468 22.7136C27.7203 22.8877 27.8159 23.1188 27.8159 23.3649C27.8161 23.4858 27.7924 23.6055 27.7462 23.7172C27.7 23.829 27.6322 23.9305 27.5467 24.016C27.4612 24.1014 27.3596 24.1692 27.2479 24.2154C27.1362 24.2615 27.0164 24.2852 26.8955 24.285C26.7746 24.2853 26.6547 24.2617 26.543 24.2155C26.4312 24.1693 26.3296 24.1015 26.2442 24.0159L22.0837 19.8557C22.0041 19.7833 21.8996 19.7442 21.7919 19.7468C21.6843 19.7493 21.5817 19.7932 21.5056 19.8694C21.4294 19.9455 21.3855 20.0481 21.383 20.1557C21.3804 20.2634 21.4195 20.3679 21.4919 20.4475L25.2777 24.2333C25.3642 24.3186 25.4328 24.4204 25.4795 24.5326C25.5262 24.6448 25.55 24.7652 25.5496 24.8868C25.5496 25.1328 25.4533 25.3639 25.2795 25.5381C25.1054 25.7119 24.8743 25.8075 24.6285 25.8075C24.3828 25.8075 24.1517 25.7116 23.9775 25.5381L23.2808 24.8416C23.2801 24.841 23.2795 24.8397 23.2789 24.8397C23.2789 24.8391 23.2783 24.8391 23.2777 24.8385L20.7992 22.36C20.7195 22.2876 20.615 22.2485 20.5074 22.2511C20.3997 22.2536 20.2972 22.2975 20.221 22.3737C20.1449 22.4498 20.101 22.5524 20.0984 22.66C20.0959 22.7677 20.1349 22.8722 20.2074 22.9518L22.689 25.434C22.8618 25.6085 22.9565 25.8383 22.9565 26.0832C22.9565 26.3292 22.8603 26.5603 22.6871 26.7345C22.6018 26.8203 22.5004 26.8883 22.3886 26.9345C22.2769 26.9808 22.157 27.0044 22.0361 27.0039H22.0355C21.7897 27.0039 21.5589 26.908 21.3845 26.7345L19.8626 25.2126C19.784 25.1342 19.6775 25.0902 19.5665 25.0902C19.4555 25.0902 19.349 25.1342 19.2705 25.2126C19.1921 25.2912 19.1481 25.3976 19.1481 25.5086C19.1481 25.6196 19.1921 25.7261 19.2705 25.8047L20.6659 27.1998C20.3812 27.3926 19.9844 27.5094 19.5685 27.5094C19.2929 27.5094 19.0235 27.4596 18.788 27.3665C18.1968 27.0556 18.0987 26.8609 18.0828 26.8086C18.0585 26.7261 18.1298 26.5915 18.2416 26.3943C18.5958 25.7714 18.859 25.0353 17.638 24.1165C17.7131 23.8221 17.7101 23.5132 17.6293 23.2204C17.5486 22.9275 17.3927 22.6608 17.1773 22.4466C16.9614 22.2294 16.6921 22.0729 16.3966 21.9926C16.101 21.9123 15.7896 21.9112 15.4934 21.9894C15.4697 21.5604 15.2881 21.1553 14.9835 20.8522C14.6518 20.5204 14.2101 20.3373 13.7404 20.3373C13.2707 20.3373 12.829 20.5204 12.497 20.8522L12.3852 20.964C12.3109 20.647 12.1495 20.3571 11.9192 20.127C11.7563 19.9632 11.5625 19.8334 11.3491 19.7451C11.1356 19.6568 10.9068 19.6117 10.6758 19.6125C10.4448 19.6118 10.216 19.6569 10.0027 19.7452C9.78928 19.8335 9.59554 19.9633 9.43265 20.127L9.2386 20.3211C9.22863 20.3108 9.2196 20.3005 9.20839 20.2906L4.98378 16.7889L8.79381 11.3726C9.21586 11.5464 9.99083 11.8195 10.8287 11.8902C11.4305 11.9391 12.0796 11.6931 12.7658 11.4308C13.5809 11.1187 14.5039 10.7639 15.5034 10.8499C16.2298 10.9113 16.9116 11.1399 17.5392 11.5255C16.7253 12.1752 16.1416 12.949 15.7728 13.5342C15.5726 13.8522 13.8276 16.6849 14.2868 18.1149C14.3961 18.4547 14.6207 18.7023 14.9365 18.8313C15.1592 18.9241 15.3979 18.9724 15.6392 18.9736C16.7434 18.9736 17.5794 17.9563 18.3871 16.9727C18.9786 16.2522 19.5888 15.5099 20.184 15.3508L23.9891 19.1565L24.3921 19.5592L26.4962 21.6636H26.4968L27.5468 22.7136V22.7136ZM26.8407 20.8235L24.5815 18.564L24.5806 18.5634L20.6251 14.6079C20.5829 14.5657 20.5321 14.5331 20.4763 14.5121C20.4204 14.491 20.3607 14.4822 20.3011 14.4861C19.2907 14.5534 18.5023 15.5131 17.7398 16.4413C17.0552 17.2745 16.3472 18.136 15.6389 18.136C15.5115 18.136 15.3854 18.1099 15.2527 18.0557C15.1897 18.0298 15.1256 17.9881 15.0842 17.8585C14.8549 17.1446 15.6333 15.3274 16.4818 13.9803C17.163 12.8991 18.6656 11.0847 21.0767 11.0847C22.0791 11.0847 22.9693 11.5152 23.7558 11.8949C24.4174 12.2142 25.0422 12.516 25.6471 12.516C26.4881 12.516 27.2833 12.3092 27.7181 12.1718L31.0578 17.8903L26.8407 20.8235V20.8235Z" fill="white"/>
</svg>
