<svg width="36" height="36" viewBox="0 0 36 36" fill="none" xmlns="http://www.w3.org/2000/svg">
<rect width="36" height="36" rx="18" fill="#0E8980"/>
<path d="M11.2143 10.1628C9.9038 10.1628 8.83588 11.2308 8.83588 12.5413C8.83588 13.8518 9.9038 14.9197 11.2143 14.9197C12.5248 14.9197 13.5928 13.8518 13.5928 12.5413C13.5928 11.2308 12.5248 10.1628 11.2143 10.1628ZM23.8993 10.1628C22.5888 10.1628 21.5209 11.2308 21.5209 12.5413C21.5209 13.8518 22.5888 14.9197 23.8993 14.9197C25.2098 14.9197 26.2777 13.8518 26.2777 12.5413C26.2777 11.2308 25.2098 10.1628 23.8993 10.1628ZM11.2143 10.6914C12.2392 10.6914 13.0642 11.5164 13.0642 12.5413C13.0642 13.5661 12.2392 14.3912 11.2143 14.3912C10.1895 14.3912 9.36442 13.5661 9.36442 12.5413C9.36442 11.5164 10.1895 10.6914 11.2143 10.6914ZM17.5568 10.6914C15.9545 10.6914 14.6498 11.9961 14.6498 13.5984C14.6498 15.2006 15.9545 16.5053 17.5568 16.5053C19.1591 16.5053 20.4638 15.2006 20.4638 13.5984C20.4638 11.9961 19.1591 10.6914 17.5568 10.6914ZM23.8993 10.6914C24.9241 10.6914 25.7492 11.5164 25.7492 12.5413C25.7492 13.5661 24.9241 14.3912 23.8993 14.3912C22.8745 14.3912 22.0494 13.5661 22.0494 12.5413C22.0494 11.5164 22.8745 10.6914 23.8993 10.6914ZM17.5568 11.2199C18.8734 11.2199 19.9352 12.2818 19.9352 13.5984C19.9352 14.915 18.8734 15.9768 17.5568 15.9768C16.2402 15.9768 15.1784 14.915 15.1784 13.5984C15.1784 12.2818 16.2402 11.2199 17.5568 11.2199ZM11.4786 16.2411C10.0473 16.2411 8.75396 16.5635 7.79518 17.1166C6.83694 17.6692 6.19318 18.4776 6.19318 19.4123V23.1121C6.19318 23.2506 6.31897 23.3764 6.45745 23.3764H11.7429V25.7548C11.7429 25.8933 11.8687 26.0191 12.0071 26.0191H23.1065C23.245 26.0191 23.3708 25.8933 23.3708 25.7548V23.3764H28.6562C28.7947 23.3764 28.9204 23.2506 28.9204 23.1121V19.4123C28.9204 18.4776 28.2769 17.6692 27.3182 17.1166C26.3597 16.5635 25.0669 16.2411 23.635 16.2411C21.4572 16.2411 19.5891 16.9755 18.7709 18.1652C18.368 18.1168 17.9626 18.092 17.5568 18.091C17.1393 18.091 16.7349 18.1192 16.3428 18.1652C15.5246 16.9757 13.6564 16.2411 11.4786 16.2411ZM11.4786 16.7696C13.3787 16.7696 14.9907 17.4086 15.7481 18.2561C14.898 18.411 14.1337 18.6684 13.5018 19.0241C12.4474 19.6184 11.7429 20.4958 11.7429 21.5265V22.8478H6.72172V19.4123C6.72172 18.7202 7.20295 18.0645 8.05972 17.5706C8.91596 17.0764 10.1282 16.7696 11.4786 16.7696ZM23.635 16.7696C24.9855 16.7696 26.1974 17.0767 27.0542 17.5706C27.9101 18.0648 28.3919 18.7202 28.3919 19.4123V22.8478H23.3708V21.5265C23.3708 20.4958 22.6665 19.6184 21.6118 19.0241C20.9799 18.6681 20.2156 18.411 19.3655 18.2561C20.1229 17.4086 21.7349 16.7696 23.635 16.7696ZM17.5568 18.6195C19.0552 18.6195 20.4043 18.9506 21.3557 19.4866C22.3071 20.0228 22.8422 20.7353 22.8422 21.5265V25.4905H12.2714V21.5265C12.2714 20.7353 12.8065 20.0228 13.7579 19.4866C14.7093 18.9506 16.0581 18.6195 17.5568 18.6195Z" fill="white"/>
</svg>
