<svg width="36" height="36" viewBox="0 0 36 36" fill="none" xmlns="http://www.w3.org/2000/svg">
<rect width="36" height="36" rx="18" fill="#0E8980"/>
<path d="M12.5 29H7.5C7.224 29 7 28.776 7 28.5V23C7 22.449 7.448 22 8 22H12C12.552 22 13 22.449 13 23V28.5C13 28.776 12.776 29 12.5 29ZM8 28H12V23H8V28Z" fill="white"/>
<path d="M20.5 29H15.5C15.224 29 15 28.776 15 28.5V17C15 16.449 15.448 16 16 16H20C20.552 16 21 16.449 21 17V28.5C21 28.776 20.776 29 20.5 29ZM16 28H20V17H16V28Z" fill="white"/>
<path d="M28.5 29H23.5C23.224 29 23 28.776 23 28.5V19C23 18.449 23.448 18 24 18H28C28.552 18 29 18.449 29 19V28.5C29 28.776 28.776 29 28.5 29ZM24 28H28V19H24V28Z" fill="white"/>
<path d="M8.49994 17C8.37194 17 8.24394 16.951 8.14594 16.854C7.95094 16.659 7.95094 16.342 8.14594 16.147L13.1459 11.147C13.2699 11.023 13.4489 10.971 13.6209 11.015L21.3469 12.946L27.1469 7.14601C27.3419 6.95101 27.6589 6.95101 27.8539 7.14601C28.0489 7.34101 28.0489 7.65801 27.8539 7.85301L21.8539 13.853C21.7309 13.977 21.5509 14.027 21.3789 13.984L13.6529 12.054L8.85294 16.854C8.75594 16.951 8.62794 17 8.49994 17Z" fill="white"/>
<path d="M27.4999 12C27.2239 12 26.9999 11.776 26.9999 11.5V8H23.4999C23.2239 8 22.9999 7.776 22.9999 7.5C22.9999 7.224 23.2239 7 23.4999 7H27.4999C27.7759 7 27.9999 7.224 27.9999 7.5V11.5C27.9999 11.776 27.7759 12 27.4999 12Z" fill="white"/>
<path d="M12.5 29H7.5C7.224 29 7 28.776 7 28.5V23C7 22.449 7.448 22 8 22H12C12.552 22 13 22.449 13 23V28.5C13 28.776 12.776 29 12.5 29ZM8 28H12V23H8V28Z" fill="white"/>
<path d="M20.5 29H15.5C15.224 29 15 28.776 15 28.5V17C15 16.449 15.448 16 16 16H20C20.552 16 21 16.449 21 17V28.5C21 28.776 20.776 29 20.5 29ZM16 28H20V17H16V28Z" fill="white"/>
<path d="M28.5 29H23.5C23.224 29 23 28.776 23 28.5V19C23 18.449 23.448 18 24 18H28C28.552 18 29 18.449 29 19V28.5C29 28.776 28.776 29 28.5 29ZM24 28H28V19H24V28Z" fill="white"/>
<path d="M8.49994 17C8.37194 17 8.24394 16.951 8.14594 16.854C7.95094 16.659 7.95094 16.342 8.14594 16.147L13.1459 11.147C13.2699 11.023 13.4489 10.971 13.6209 11.015L21.3469 12.946L27.1469 7.14601C27.3419 6.95101 27.6589 6.95101 27.8539 7.14601C28.0489 7.34101 28.0489 7.65801 27.8539 7.85301L21.8539 13.853C21.7309 13.977 21.5509 14.027 21.3789 13.984L13.6529 12.054L8.85294 16.854C8.75594 16.951 8.62794 17 8.49994 17Z" fill="white"/>
<path d="M27.4999 12C27.2239 12 26.9999 11.776 26.9999 11.5V8H23.4999C23.2239 8 22.9999 7.776 22.9999 7.5C22.9999 7.224 23.2239 7 23.4999 7H27.4999C27.7759 7 27.9999 7.224 27.9999 7.5V11.5C27.9999 11.776 27.7759 12 27.4999 12Z" fill="white"/>
</svg>
