<svg width="36" height="36" viewBox="0 0 36 36" fill="none" xmlns="http://www.w3.org/2000/svg">
<rect width="36" height="36" rx="18" fill="#666666" fill-opacity="0.5"/>
<path d="M26.4187 17.133C26.7377 16.484 26.9063 15.7653 26.9063 15.032C26.9063 12.579 25.0473 10.5513 22.675 10.3057C22.7007 10.115 22.7153 9.93167 22.7153 9.752C22.7153 7.13033 20.5997 5 18 5C15.4003 5 13.2847 7.13033 13.2847 9.752C13.2847 9.93167 13.2993 10.115 13.325 10.3057C10.9527 10.5513 9.09367 12.579 9.09367 15.032C9.09367 15.7653 9.26233 16.484 9.58133 17.133C8.01567 17.9323 7 19.5603 7 21.368C7 23.9897 9.11567 26.12 11.7153 26.12H15.7743L15.3343 31.4H20.6657L20.2257 26.12H24.2847C26.8843 26.12 29 23.9897 29 21.368C29 19.5603 27.9843 17.9323 26.4187 17.133ZM24.2847 25.064H19.0853L19.5253 30.344H16.4747L16.9147 25.064H11.7153C9.69097 25.064 8.04867 23.4067 8.04867 21.368C8.04867 19.799 9.03463 18.398 10.5013 17.8847L11.143 17.661L10.7653 17.0927C10.3586 16.4824 10.1419 15.7653 10.1423 15.032C10.1423 12.9933 11.7883 11.336 13.809 11.336L14.6963 11.4203L14.469 10.687C14.3773 10.3313 14.3333 10.0343 14.3333 9.752C14.3333 7.71333 15.9797 6.056 18 6.056C20.0203 6.056 21.6667 7.71333 21.6667 9.752C21.6667 10.0343 21.6227 10.3313 21.531 10.687L21.3037 11.4203L22.191 11.336C24.2117 11.336 25.8577 12.9933 25.8577 15.032C25.8577 15.769 25.6413 16.4803 25.2347 17.0927L24.857 17.661L25.4987 17.8847C26.9654 18.398 27.9513 19.7987 27.9513 21.368C27.9513 23.4067 26.3087 25.064 24.2847 25.064V25.064Z" fill="white"/>
</svg>
