<svg width="36" height="36" viewBox="0 0 36 36" fill="none" xmlns="http://www.w3.org/2000/svg">
<rect width="36" height="36" rx="18" fill="#666666" fill-opacity="0.5"/>
<path d="M7.87746 7.19556C7.46815 7.19556 7.13635 7.52735 7.13635 7.93666V27.6996C7.13635 28.1088 7.46817 28.4407 7.87746 28.4407H29.1225C29.5318 28.4407 29.8636 28.1088 29.8636 27.6996C29.8636 27.2902 29.5318 26.9585 29.1225 26.9585H8.61857V7.93666C8.61857 7.52735 8.28675 7.19556 7.87746 7.19556ZM22.6996 11.8893C22.2523 11.8893 21.9034 12.3048 21.9199 12.669C21.9402 13.057 22.3115 13.3918 22.6996 13.3715H24.7917L18.2221 19.5474L15.8598 17.5788C15.7104 17.4011 15.4738 17.3006 15.2422 17.3163C15.077 17.3282 14.9165 17.3974 14.7945 17.5093L9.85374 21.956C9.55029 22.2105 9.51241 22.7262 9.77655 23.0213C10.0407 23.3164 10.5554 23.3335 10.8419 23.0599L15.3117 19.0379L17.6894 21.0219C17.951 21.325 18.4718 21.3512 18.7625 21.0759L25.9111 14.3596V16.5829C25.9056 16.9745 26.2606 17.3318 26.6522 17.3318C27.0437 17.3318 27.3988 16.9745 27.3933 16.5829V12.6304C27.3932 12.2423 27.0402 11.8893 26.6522 11.8893H22.6996Z" fill="white"/>
<path d="M7.87746 7.19556C7.46815 7.19556 7.13635 7.52735 7.13635 7.93666V27.6996C7.13635 28.1088 7.46817 28.4407 7.87746 28.4407H29.1225C29.5318 28.4407 29.8636 28.1088 29.8636 27.6996C29.8636 27.2902 29.5318 26.9585 29.1225 26.9585H8.61857V7.93666C8.61857 7.52735 8.28675 7.19556 7.87746 7.19556ZM22.6996 11.8893C22.2523 11.8893 21.9034 12.3048 21.9199 12.669C21.9402 13.057 22.3115 13.3918 22.6996 13.3715H24.7917L18.2221 19.5474L15.8598 17.5788C15.7104 17.4011 15.4738 17.3006 15.2422 17.3163C15.077 17.3282 14.9165 17.3974 14.7945 17.5093L9.85374 21.956C9.55029 22.2105 9.51241 22.7262 9.77655 23.0213C10.0407 23.3164 10.5554 23.3335 10.8419 23.0599L15.3117 19.0379L17.6894 21.0219C17.951 21.325 18.4718 21.3512 18.7625 21.0759L25.9111 14.3596V16.5829C25.9056 16.9745 26.2606 17.3318 26.6522 17.3318C27.0437 17.3318 27.3988 16.9745 27.3933 16.5829V12.6304C27.3932 12.2423 27.0402 11.8893 26.6522 11.8893H22.6996Z" fill="white"/>
</svg>
