<svg width="36" height="36" viewBox="0 0 36 36" fill="none" xmlns="http://www.w3.org/2000/svg">
<rect width="36" height="36" rx="18" fill="#666666" fill-opacity="0.5"/>
<path d="M29.7095 8.91345L23.0012 6.03847C22.8048 5.95416 22.5738 6.01166 22.4387 6.17935L20.522 8.57515C20.431 8.68822 20.3965 8.83583 20.4281 8.97765C20.4578 9.11277 20.546 9.22395 20.6658 9.29008L14.6456 11.5479C14.1405 11.7376 13.7083 12.097 13.4314 12.5589L11.4419 15.8747C11.0183 16.581 10.9848 17.4425 11.3537 18.1785L11.4936 18.4583H9.39585C9.13135 18.4583 8.91667 18.673 8.91667 18.9375V28.0416H7.47918C7.21468 28.0416 7 28.2563 7 28.5208C7 28.7853 7.21468 29 7.47918 29H23.7707C24.0352 29 24.2499 28.7853 24.2499 28.5208C24.2499 28.2563 24.0352 28.0416 23.7707 28.0416H22.3333V21.3334C22.3333 21.2969 22.3198 21.2653 22.3131 21.2318C23.2121 20.6232 24.2394 19.6841 25.1354 18.2332C26.6582 15.7703 27.514 13.7875 27.8657 12.8953L27.9194 12.9221C28.1245 13.0247 28.3439 13.0754 28.5634 13.0754C28.825 13.0754 29.0857 13.0036 29.3176 12.8589C29.745 12.5953 29.9999 12.1382 29.9999 11.6361V9.35333C29.9999 9.16165 29.8858 8.98915 29.7095 8.91345ZM21.3749 28.0416H9.87503V19.4167H12.2776C12.2891 19.4167 12.3006 19.4176 12.313 19.4167H16.1118C15.6796 19.6793 15.1487 20.0099 14.4769 20.4373C13.9661 20.7622 13.6163 21.2663 13.4917 21.8585C13.3661 22.4507 13.4821 23.0554 13.8204 23.5614C14.2488 24.2064 14.9551 24.5571 15.6776 24.5571C16.0686 24.5571 16.4654 24.4536 16.8248 24.2399L20.1175 22.2648C20.3064 22.2188 20.7692 22.0856 21.3749 21.7838V28.0416H21.3749ZM15.0136 17.248C15.7467 16.9337 16.727 16.3645 17.2244 15.7847C17.6068 16.0089 18.2086 16.2973 18.9609 16.445C18.4262 17.1071 17.8895 17.9121 17.6624 18.4824C17.6231 18.4718 17.5847 18.4584 17.5416 18.4584H15.5732C15.4716 17.9821 15.2369 17.5614 15.0136 17.248ZM24.3227 17.7291C22.4329 20.7861 19.8703 21.3391 19.8455 21.3439C19.7918 21.3554 19.7391 21.3755 19.6921 21.4033L16.3342 23.4177C15.7496 23.7694 14.9964 23.5998 14.6169 23.0306C14.4252 22.7421 14.3591 22.3971 14.43 22.0588C14.5019 21.7215 14.7012 21.433 14.9925 21.2481C17.5676 19.6084 18.0323 19.4282 18.0228 19.4176C18.2882 19.4176 18.501 19.226 18.501 18.9615C18.5498 18.6615 19.4229 17.2585 20.2786 16.4027C20.4157 16.2657 20.4569 16.0597 20.3821 15.8804C20.3083 15.7012 20.133 15.5843 19.9394 15.5843C18.4482 15.5843 17.3749 14.74 17.3643 14.7314C17.2206 14.6173 17.028 14.5637 16.8612 14.6442C16.6945 14.7237 16.5929 14.8617 16.5929 15.0457C16.4233 15.4569 14.5842 16.4967 14.1875 16.5417C13.9901 16.5417 13.8147 16.6615 13.7428 16.8455C13.6709 17.0295 13.7189 17.2384 13.8636 17.3725C13.8693 17.3783 14.3715 17.8555 14.5766 18.4583H12.566L12.2124 17.7492C11.991 17.3074 12.0102 16.7909 12.2651 16.3672L14.2546 13.0514C14.4213 12.7735 14.6801 12.5589 14.9829 12.4448L21.8273 9.87841L27.0051 12.4668C26.6879 13.2767 25.8417 15.271 24.3227 17.7291ZM29.0415 11.6379C29.0415 11.8794 28.8825 12.0031 28.8144 12.0453C28.7464 12.0874 28.5633 12.1737 28.3487 12.0663L21.6404 8.71221L22.9591 7.06484L29.0416 9.67151V11.6379H29.0415Z" fill="white"/>
</svg>
