<svg width="36" height="36" viewBox="0 0 36 36" fill="none" xmlns="http://www.w3.org/2000/svg">
<rect width="36" height="36" rx="18" fill="#666666" fill-opacity="0.5"/>
<path d="M12.2143 10.1628C10.9038 10.1628 9.83588 11.2308 9.83588 12.5413C9.83588 13.8518 10.9038 14.9197 12.2143 14.9197C13.5248 14.9197 14.5928 13.8518 14.5928 12.5413C14.5928 11.2308 13.5248 10.1628 12.2143 10.1628ZM24.8993 10.1628C23.5888 10.1628 22.5209 11.2308 22.5209 12.5413C22.5209 13.8518 23.5888 14.9197 24.8993 14.9197C26.2098 14.9197 27.2777 13.8518 27.2777 12.5413C27.2777 11.2308 26.2098 10.1628 24.8993 10.1628ZM12.2143 10.6914C13.2392 10.6914 14.0642 11.5164 14.0642 12.5413C14.0642 13.5661 13.2392 14.3912 12.2143 14.3912C11.1895 14.3912 10.3644 13.5661 10.3644 12.5413C10.3644 11.5164 11.1895 10.6914 12.2143 10.6914ZM18.5568 10.6914C16.9545 10.6914 15.6498 11.9961 15.6498 13.5984C15.6498 15.2006 16.9545 16.5053 18.5568 16.5053C20.1591 16.5053 21.4638 15.2006 21.4638 13.5984C21.4638 11.9961 20.1591 10.6914 18.5568 10.6914ZM24.8993 10.6914C25.9241 10.6914 26.7492 11.5164 26.7492 12.5413C26.7492 13.5661 25.9241 14.3912 24.8993 14.3912C23.8745 14.3912 23.0494 13.5661 23.0494 12.5413C23.0494 11.5164 23.8745 10.6914 24.8993 10.6914ZM18.5568 11.2199C19.8734 11.2199 20.9352 12.2818 20.9352 13.5984C20.9352 14.915 19.8734 15.9768 18.5568 15.9768C17.2402 15.9768 16.1784 14.915 16.1784 13.5984C16.1784 12.2818 17.2402 11.2199 18.5568 11.2199ZM12.4786 16.2411C11.0473 16.2411 9.75396 16.5635 8.79518 17.1166C7.83694 17.6692 7.19318 18.4776 7.19318 19.4123V23.1121C7.19318 23.2506 7.31897 23.3764 7.45745 23.3764H12.7429V25.7548C12.7429 25.8933 12.8687 26.0191 13.0071 26.0191H24.1065C24.245 26.0191 24.3708 25.8933 24.3708 25.7548V23.3764H29.6562C29.7947 23.3764 29.9204 23.2506 29.9204 23.1121V19.4123C29.9204 18.4776 29.2769 17.6692 28.3182 17.1166C27.3597 16.5635 26.0669 16.2411 24.635 16.2411C22.4572 16.2411 20.5891 16.9755 19.7709 18.1652C19.368 18.1168 18.9626 18.092 18.5568 18.091C18.1393 18.091 17.7349 18.1192 17.3428 18.1652C16.5246 16.9757 14.6564 16.2411 12.4786 16.2411ZM12.4786 16.7696C14.3787 16.7696 15.9907 17.4086 16.7481 18.2561C15.898 18.411 15.1337 18.6684 14.5018 19.0241C13.4474 19.6184 12.7429 20.4958 12.7429 21.5265V22.8478H7.72172V19.4123C7.72172 18.7202 8.20295 18.0645 9.05972 17.5706C9.91596 17.0764 11.1282 16.7696 12.4786 16.7696ZM24.635 16.7696C25.9855 16.7696 27.1974 17.0767 28.0542 17.5706C28.9101 18.0648 29.3919 18.7202 29.3919 19.4123V22.8478H24.3708V21.5265C24.3708 20.4958 23.6665 19.6184 22.6118 19.0241C21.9799 18.6681 21.2156 18.411 20.3655 18.2561C21.1229 17.4086 22.7349 16.7696 24.635 16.7696ZM18.5568 18.6195C20.0552 18.6195 21.4043 18.9506 22.3557 19.4866C23.3071 20.0228 23.8422 20.7353 23.8422 21.5265V25.4905H13.2714V21.5265C13.2714 20.7353 13.8065 20.0228 14.7579 19.4866C15.7093 18.9506 17.0581 18.6195 18.5568 18.6195Z" fill="white"/>
</svg>
