<svg width="36" height="36" viewBox="0 0 36 36" fill="none" xmlns="http://www.w3.org/2000/svg">
<rect width="36" height="36" rx="18" fill="#666666" fill-opacity="0.5"/>
<path d="M21.3333 8.25H24.5C25.7427 8.25 26.75 9.25736 26.75 10.5V13.6667C26.75 14.9093 25.7426 15.9167 24.5 15.9167H19.0833V10.5C19.0833 9.25736 20.0907 8.25 21.3333 8.25Z" stroke="white" stroke-width="1.5"/>
<path d="M13.6667 8.25H10.5C9.25735 8.25 8.24999 9.25736 8.24999 10.5V13.6667C8.24999 14.9093 9.25735 15.9167 10.5 15.9167H15.9167V10.5C15.9167 9.25736 14.9093 8.25 13.6667 8.25Z" stroke="white" stroke-width="1.5"/>
<path d="M21.3333 26.75H24.5C25.7427 26.75 26.75 25.7426 26.75 24.5V21.3333C26.75 20.0907 25.7426 19.0833 24.5 19.0833H19.0833V24.5C19.0833 25.7426 20.0907 26.75 21.3333 26.75Z" stroke="white" stroke-width="1.5"/>
<path d="M13.6667 26.75H10.5C9.25735 26.75 8.24999 25.7426 8.24999 24.5V21.3333C8.24999 20.0907 9.25735 19.0833 10.5 19.0833H15.9167V24.5C15.9167 25.7426 14.9093 26.75 13.6667 26.75Z" stroke="white" stroke-width="1.5"/>
</svg>
