<svg width="36" height="36" viewBox="0 0 36 36" fill="none" xmlns="http://www.w3.org/2000/svg">
<rect width="36" height="36" rx="18" fill="#0E8980"/>
<path d="M27.9564 22.9931C27.9319 22.9239 27.8865 22.864 27.8265 22.8217C27.7665 22.7795 27.6948 22.7569 27.6214 22.7572H24.8876V18.759C24.887 18.4152 24.7501 18.0855 24.5069 17.8424C24.2638 17.5992 23.9342 17.4623 23.5903 17.4617H23.1185V16.1738C23.118 15.6774 22.9311 15.1993 22.5949 14.834L15.7827 7.79305C15.4564 7.45615 15.0224 7.24428 14.5561 7.19429C14.0898 7.1443 13.6207 7.25935 13.2305 7.51943L9.97301 9.69187C9.69718 9.87391 9.47827 10.13 9.34142 10.4309C9.20457 10.7317 9.15532 11.065 9.19933 11.3926L9.83384 16.2446C9.84411 16.8936 10.0811 17.5186 10.5037 18.0113L11.6595 19.3558V22.7501H9.37859C9.30519 22.7498 9.23352 22.7724 9.17351 22.8146C9.1135 22.8569 9.06811 22.9168 9.04365 22.986L7.15662 28.6636C7.13771 28.7171 7.13194 28.7743 7.13978 28.8305C7.14763 28.8866 7.16887 28.9401 7.2017 28.9864C7.23454 29.0326 7.27801 29.0703 7.32846 29.0962C7.37891 29.1221 7.43485 29.1356 7.49157 29.1353H29.5085C29.5652 29.1356 29.6211 29.1221 29.6716 29.0962C29.722 29.0703 29.7655 29.0326 29.7983 28.9864C29.8312 28.9401 29.8524 28.8866 29.8603 28.8305C29.8681 28.7743 29.8623 28.7171 29.8434 28.6636L27.9564 22.9931ZM10.5415 16.2186C10.5423 16.2045 10.5423 16.1903 10.5415 16.1762L9.9046 11.3029C9.87879 11.1055 9.90939 10.9048 9.99288 10.7241C10.0764 10.5433 10.2093 10.3899 10.3764 10.2816L13.622 8.10913C13.8745 7.94089 14.178 7.86647 14.4796 7.89879C14.7813 7.93111 15.0621 8.06813 15.2732 8.28603L22.083 15.3176C22.2969 15.5514 22.4155 15.8569 22.4156 16.1738V17.4523H15.87L15.3982 16.5371C15.356 16.4532 15.2822 16.3896 15.1931 16.3602C15.1039 16.3308 15.0067 16.338 14.9229 16.3802C14.8391 16.4224 14.7755 16.4962 14.7461 16.5854C14.7166 16.6745 14.7238 16.7717 14.7661 16.8555L17.4268 22.1227C17.5425 22.3527 17.5858 22.6124 17.5509 22.8675C17.516 23.1226 17.4047 23.3612 17.2315 23.5518C17.0583 23.7423 16.8314 23.8759 16.5808 23.9349C16.3302 23.9939 16.0675 23.9756 15.8275 23.8823L15.7497 23.8517C15.4813 23.7472 15.2561 23.5552 15.1104 23.3068L13.3531 20.2828C13.2929 20.1793 13.2234 20.0814 13.1456 19.9903L11.0415 17.5513C10.7226 17.1801 10.5455 16.708 10.5415 16.2186V16.2186ZM12.6054 20.4644C12.6559 20.5231 12.7009 20.5863 12.7399 20.6531L14.4901 23.663C14.716 24.0498 15.0659 24.349 15.4831 24.5121L15.561 24.5428C15.7918 24.6329 16.0373 24.6793 16.2851 24.6796C16.623 24.6783 16.955 24.5907 17.2496 24.4251C17.5441 24.2595 17.7915 24.0214 17.9682 23.7334C18.145 23.4454 18.2452 23.117 18.2594 22.7794C18.2736 22.4417 18.2014 22.1061 18.0495 21.8042L16.2261 18.1599H23.5903C23.7467 18.1599 23.8967 18.222 24.0073 18.3326C24.1178 18.4432 24.18 18.5932 24.18 18.7496V26.1963H12.3672V20.179L12.6054 20.4644ZM7.98219 28.4301L9.63334 23.4601H11.6595V26.1963H10.624C10.5302 26.1963 10.4402 26.2336 10.3738 26.2999C10.3075 26.3663 10.2702 26.4563 10.2702 26.5501C10.2702 26.6439 10.3075 26.7339 10.3738 26.8003C10.4402 26.8666 10.5302 26.9039 10.624 26.9039H25.8712C25.9651 26.9039 26.0551 26.8666 26.1214 26.8003C26.1878 26.7339 26.225 26.6439 26.225 26.5501C26.225 26.4563 26.1878 26.3663 26.1214 26.2999C26.0551 26.2336 25.9651 26.1963 25.8712 26.1963H24.8876V23.4577H27.3643L29.0155 28.4277L7.98219 28.4301Z" fill="white"/>
</svg>
