<svg width="36" height="36" viewBox="0 0 36 36" fill="none" xmlns="http://www.w3.org/2000/svg">
<rect width="36" height="36" rx="18" fill="#666666" fill-opacity="0.5"/>
<path fill-rule="evenodd" clip-rule="evenodd" d="M21.2692 11.459C19.6176 10.6335 17.7148 10.4634 15.943 10.9828C14.1711 11.5022 12.6614 12.6726 11.7168 14.2592C10.7722 15.8457 10.4628 17.7308 10.8506 19.536C11.2385 21.3412 12.2949 22.9329 13.8077 23.9914C15.3206 25.05 17.1778 25.4971 19.0067 25.2429C20.8355 24.9887 22.5005 24.0521 23.6673 22.6211C24.8341 21.1901 25.4164 19.3706 25.2973 17.5281C25.2828 17.3042 25.4525 17.1109 25.6764 17.0965C25.9003 17.082 26.0936 17.2518 26.1081 17.4756C26.2405 19.5229 25.5935 21.5445 24.297 23.1345C23.0005 24.7245 21.1506 25.7652 19.1185 26.0476C17.0865 26.3301 15.0228 25.8333 13.3419 24.6572C11.661 23.481 10.4872 21.7125 10.0563 19.7067C9.62533 17.7009 9.96914 15.6063 11.0187 13.8435C12.0682 12.0807 13.7457 10.7802 15.7144 10.2031C17.6831 9.62598 19.7973 9.815 21.6324 10.7322C23.4676 11.6494 24.8878 13.2268 25.608 15.1479C25.6867 15.3579 25.5802 15.5921 25.3702 15.6709C25.1601 15.7496 24.9259 15.6432 24.8472 15.4331C24.199 13.7042 22.9208 12.2844 21.2692 11.459Z" fill="white"/>
<path fill-rule="evenodd" clip-rule="evenodd" d="M17.1274 5.90527C17.2752 5.84402 17.4337 5.8125 17.5938 5.8125C17.7538 5.8125 17.9123 5.84402 18.0601 5.90527C18.208 5.96652 18.3424 6.05629 18.4555 6.16946C18.5687 6.28264 18.6585 6.41699 18.7197 6.56485C18.781 6.71272 18.8125 6.8712 18.8125 7.03125C18.8125 7.1913 18.781 7.34978 18.7197 7.49765C18.6585 7.64551 18.5687 7.77987 18.4555 7.89304C18.3424 8.00621 18.208 8.09598 18.0601 8.15723C17.9123 8.21848 17.7538 8.25 17.5938 8.25C17.4337 8.25 17.2752 8.21848 17.1274 8.15723C16.9795 8.09598 16.8451 8.00621 16.732 7.89304C16.6188 7.77986 16.529 7.64551 16.4678 7.49765C16.4065 7.34978 16.375 7.1913 16.375 7.03125C16.375 6.8712 16.4065 6.71272 16.4678 6.56485C16.529 6.41699 16.6188 6.28263 16.732 6.16946C16.8451 6.05629 16.9795 5.96652 17.1274 5.90527ZM18 9.02146C18.1267 8.99559 18.251 8.95762 18.3711 8.90788C18.6175 8.8058 18.8414 8.65618 19.0301 8.46756C19.2187 8.27894 19.3683 8.05502 19.4704 7.80858C19.5725 7.56213 19.625 7.298 19.625 7.03125C19.625 6.7645 19.5725 6.50037 19.4704 6.25392C19.3683 6.00748 19.2187 5.78356 19.0301 5.59494C18.8414 5.40632 18.6175 5.2567 18.3711 5.15462C18.1246 5.05254 17.8605 5 17.5938 5C17.327 5 17.0629 5.05254 16.8164 5.15462C16.57 5.2567 16.3461 5.40632 16.1574 5.59494C15.9688 5.78356 15.8192 6.00748 15.7171 6.25392C15.615 6.50037 15.5625 6.7645 15.5625 7.03125C15.5625 7.298 15.615 7.56213 15.7171 7.80858C15.8192 8.05502 15.9688 8.27894 16.1574 8.46756C16.3461 8.65618 16.57 8.8058 16.8164 8.90788C16.9365 8.95762 17.0608 8.99559 17.1875 9.02146V10.2812C17.1875 10.5056 17.3694 10.6875 17.5938 10.6875C17.8181 10.6875 18 10.5056 18 10.2812V9.02146Z" fill="white"/>
<path fill-rule="evenodd" clip-rule="evenodd" d="M21.4785 8.41775C21.6829 8.5104 21.7734 8.75116 21.6808 8.9555L21.3453 9.6955C21.2526 9.89984 21.0119 9.99039 20.8075 9.89774C20.6032 9.8051 20.5126 9.56434 20.6053 9.35999L20.9408 8.62C21.0334 8.41565 21.2742 8.32511 21.4785 8.41775Z" fill="white"/>
<path fill-rule="evenodd" clip-rule="evenodd" d="M14.2385 9.89774C14.0342 9.99039 13.7934 9.89984 13.7008 9.6955L13.3653 8.95551C13.2726 8.75117 13.3632 8.51041 13.5675 8.41776C13.7718 8.32511 14.0126 8.41565 14.1053 8.61999L14.4408 9.35998C14.5334 9.56433 14.4429 9.80509 14.2385 9.89774Z" fill="white"/>
<path fill-rule="evenodd" clip-rule="evenodd" d="M14.38 27.4372C14.1756 27.3446 14.0851 27.1038 14.1777 26.8995L14.5132 26.1595C14.6059 25.9551 14.8466 25.8646 15.051 25.9572C15.2553 26.0499 15.3459 26.2907 15.2532 26.495L14.9177 27.235C14.8251 27.4393 14.5843 27.5299 14.38 27.4372Z" fill="white"/>
<path fill-rule="evenodd" clip-rule="evenodd" d="M21.62 25.9573C21.8243 25.8646 22.0651 25.9551 22.1577 26.1595L22.4932 26.8995C22.5859 27.1038 22.4954 27.3446 22.291 27.4372C22.0867 27.5299 21.8459 27.4393 21.7533 27.235L21.4177 26.495C21.3251 26.2907 21.4156 26.0499 21.62 25.9573Z" fill="white"/>
<path fill-rule="evenodd" clip-rule="evenodd" d="M18.8726 30.0947C18.7248 30.156 18.5663 30.1875 18.4062 30.1875C18.2462 30.1875 18.0877 30.156 17.9399 30.0947C17.792 30.0335 17.6576 29.9437 17.5445 29.8305C17.4313 29.7174 17.3415 29.583 17.2803 29.4351C17.219 29.2873 17.1875 29.1288 17.1875 28.9688C17.1875 28.8087 17.219 28.6502 17.2803 28.5024C17.3415 28.3545 17.4313 28.2201 17.5445 28.107C17.6576 27.9938 17.792 27.904 17.9399 27.8428C18.0877 27.7815 18.2462 27.75 18.4062 27.75C18.5663 27.75 18.7248 27.7815 18.8726 27.8428C19.0205 27.904 19.1549 27.9938 19.268 28.107C19.3812 28.2201 19.471 28.3545 19.5322 28.5024C19.5935 28.6502 19.625 28.8087 19.625 28.9688C19.625 29.1288 19.5935 29.2873 19.5322 29.4351C19.471 29.583 19.3812 29.7174 19.268 29.8305C19.1549 29.9437 19.0205 30.0335 18.8726 30.0947ZM18 26.9785C17.8733 27.0044 17.749 27.0424 17.6289 27.0921C17.3825 27.1942 17.1586 27.3438 16.9699 27.5324C16.7813 27.7211 16.6317 27.945 16.5296 28.1914C16.4275 28.4379 16.375 28.702 16.375 28.9688C16.375 29.2355 16.4275 29.4996 16.5296 29.7461C16.6317 29.9925 16.7813 30.2164 16.9699 30.4051C17.1586 30.5937 17.3825 30.7433 17.6289 30.8454C17.8754 30.9475 18.1395 31 18.4062 31C18.673 31 18.9371 30.9475 19.1836 30.8454C19.43 30.7433 19.6539 30.5937 19.8426 30.4051C20.0312 30.2164 20.1808 29.9925 20.2829 29.7461C20.385 29.4996 20.4375 29.2355 20.4375 28.9688C20.4375 28.702 20.385 28.4379 20.2829 28.1914C20.1808 27.945 20.0312 27.7211 19.8426 27.5324C19.6539 27.3438 19.43 27.1942 19.1836 27.0921C19.0635 27.0424 18.9392 27.0044 18.8125 26.9785V25.7188C18.8125 25.4944 18.6306 25.3125 18.4062 25.3125C18.1819 25.3125 18 25.4944 18 25.7188V26.9785Z" fill="white"/>
<path fill-rule="evenodd" clip-rule="evenodd" d="M8.37164 9.84372C8.43289 9.69586 8.52266 9.5615 8.63584 9.44833C8.74901 9.33516 8.88336 9.24539 9.03123 9.18414C9.17909 9.12289 9.33757 9.09137 9.49762 9.09137C9.65767 9.09137 9.81615 9.12289 9.96402 9.18414C10.1119 9.24539 10.2462 9.33516 10.3594 9.44833C10.4726 9.5615 10.5624 9.69586 10.6236 9.84372C10.6848 9.99159 10.7164 10.1501 10.7164 10.3101C10.7164 10.4702 10.6848 10.6286 10.6236 10.7765C10.5624 10.9244 10.4726 11.0587 10.3594 11.1719C10.2462 11.2851 10.1119 11.3748 9.96402 11.4361C9.81615 11.4973 9.65767 11.5289 9.49762 11.5289C9.33757 11.5289 9.17909 11.4973 9.03123 11.4361C8.88336 11.3748 8.74901 11.2851 8.63583 11.1719C8.52266 11.0587 8.43289 10.9244 8.37164 10.7765C8.3104 10.6286 8.27887 10.4702 8.27887 10.3101C8.27887 10.1501 8.3104 9.99159 8.37164 9.84372ZM11.1922 11.4301C11.2635 11.3222 11.3245 11.2075 11.3743 11.0874C11.4763 10.841 11.5289 10.5769 11.5289 10.3101C11.5289 10.0434 11.4763 9.77924 11.3743 9.53279C11.2722 9.28635 11.1226 9.06243 10.9339 8.87381C10.7453 8.68519 10.5214 8.53557 10.2749 8.43349C10.0285 8.33141 9.76437 8.27887 9.49762 8.27887C9.23087 8.27887 8.96674 8.33141 8.7203 8.43349C8.47385 8.53557 8.24993 8.68519 8.06131 8.87381C7.87269 9.06243 7.72307 9.28635 7.62099 9.53279C7.51891 9.77923 7.46637 10.0434 7.46637 10.3101C7.46637 10.5769 7.51891 10.841 7.62099 11.0874C7.72307 11.3339 7.87269 11.5578 8.06131 11.7464C8.24993 11.935 8.47385 12.0847 8.7203 12.1867C8.96674 12.2888 9.23087 12.3414 9.49762 12.3414C9.76437 12.3414 10.0285 12.2888 10.2749 12.1867C10.395 12.137 10.5097 12.076 10.6177 12.0047L11.5085 12.8955C11.6671 13.0541 11.9243 13.0541 12.083 12.8955C12.2416 12.7368 12.2416 12.4796 12.083 12.321L11.1922 11.4301Z" fill="white"/>
<path fill-rule="evenodd" clip-rule="evenodd" d="M28.0227 24.9256C27.9614 25.0734 27.8716 25.2078 27.7585 25.321C27.6453 25.4341 27.5109 25.5239 27.3631 25.5851C27.2152 25.6464 27.0567 25.6779 26.8967 25.6779C26.7366 25.6779 26.5781 25.6464 26.4303 25.5851C26.2824 25.5239 26.1481 25.4341 26.0349 25.321C25.9217 25.2078 25.8319 25.0734 25.7707 24.9256C25.7095 24.7777 25.6779 24.6192 25.6779 24.4592C25.6779 24.2991 25.7095 24.1406 25.7707 23.9928C25.8319 23.8449 25.9217 23.7106 26.0349 23.5974C26.1481 23.4842 26.2824 23.3944 26.4303 23.3332C26.5781 23.2719 26.7366 23.2404 26.8967 23.2404C27.0567 23.2404 27.2152 23.2719 27.3631 23.3332C27.5109 23.3944 27.6453 23.4842 27.7585 23.5974C27.8716 23.7106 27.9614 23.8449 28.0227 23.9928C28.0839 24.1406 28.1154 24.2991 28.1154 24.4592C28.1154 24.6192 28.0839 24.7777 28.0227 24.9256ZM25.2021 23.3391C25.1308 23.447 25.0698 23.5618 25.02 23.6818C24.918 23.9283 24.8654 24.1924 24.8654 24.4592C24.8654 24.7259 24.918 24.9901 25.02 25.2365C25.1221 25.4829 25.2717 25.7069 25.4604 25.8955C25.649 26.0841 25.8729 26.2337 26.1194 26.3358C26.3658 26.4379 26.6299 26.4904 26.8967 26.4904C27.1634 26.4904 27.4276 26.4379 27.674 26.3358C27.9204 26.2337 28.1444 26.0841 28.333 25.8955C28.5216 25.7069 28.6712 25.4829 28.7733 25.2365C28.8754 24.9901 28.9279 24.7259 28.9279 24.4592C28.9279 24.1924 28.8754 23.9283 28.7733 23.6818C28.6712 23.4354 28.5216 23.2115 28.333 23.0229C28.1444 22.8342 27.9204 22.6846 27.674 22.5825C27.4276 22.4805 27.1634 22.4279 26.8967 22.4279C26.6299 22.4279 26.3658 22.4805 26.1194 22.5825C25.9993 22.6323 25.8846 22.6933 25.7766 22.7646L24.8858 21.8738C24.7272 21.7152 24.47 21.7152 24.3113 21.8738C24.1527 22.0325 24.1527 22.2897 24.3113 22.4483L25.2021 23.3391Z" fill="white"/>
<path fill-rule="evenodd" clip-rule="evenodd" d="M26.5506 9.18414C26.6984 9.24539 26.8328 9.33516 26.946 9.44834C27.0591 9.56151 27.1489 9.69586 27.2102 9.84373C27.2714 9.99159 27.3029 10.1501 27.3029 10.3101C27.3029 10.4702 27.2714 10.6287 27.2102 10.7765C27.1489 10.9244 27.0591 11.0587 26.946 11.1719C26.8328 11.2851 26.6984 11.3749 26.5506 11.4361C26.4027 11.4973 26.2442 11.5289 26.0842 11.5289C25.9241 11.5289 25.7657 11.4973 25.6178 11.4361C25.4699 11.3749 25.3356 11.2851 25.2224 11.1719C25.1092 11.0587 25.0195 10.9244 24.9582 10.7765C24.897 10.6287 24.8654 10.4702 24.8654 10.3101C24.8654 10.1501 24.897 9.99159 24.9582 9.84373C25.0195 9.69586 25.1092 9.56151 25.2224 9.44833C25.3356 9.33516 25.4699 9.24539 25.6178 9.18414C25.7657 9.1229 25.9241 9.09137 26.0842 9.09137C26.2442 9.09137 26.4027 9.1229 26.5506 9.18414ZM24.9642 12.0047C25.0721 12.076 25.1868 12.137 25.3069 12.1868C25.5533 12.2888 25.8174 12.3414 26.0842 12.3414C26.3509 12.3414 26.6151 12.2888 26.8615 12.1868C27.108 12.0847 27.3319 11.9351 27.5205 11.7464C27.7091 11.5578 27.8587 11.3339 27.9608 11.0874C28.0629 10.841 28.1154 10.5769 28.1154 10.3101C28.1154 10.0434 28.0629 9.77924 27.9608 9.5328C27.8587 9.28635 27.7091 9.06243 27.5205 8.87381C27.3319 8.68519 27.108 8.53557 26.8615 8.43349C26.6151 8.33141 26.3509 8.27887 26.0842 8.27887C25.8174 8.27887 25.5533 8.33141 25.3069 8.43349C25.0604 8.53557 24.8365 8.68519 24.6479 8.87381C24.4593 9.06243 24.3096 9.28635 24.2076 9.5328C24.1055 9.77924 24.0529 10.0434 24.0529 10.3101C24.0529 10.5769 24.1055 10.841 24.2076 11.0874C24.2573 11.2075 24.3183 11.3222 24.3896 11.4302L23.4988 12.321C23.3402 12.4796 23.3402 12.7368 23.4988 12.8955C23.6575 13.0541 23.9147 13.0541 24.0734 12.8955L24.9642 12.0047Z" fill="white"/>
<path fill-rule="evenodd" clip-rule="evenodd" d="M21.8143 15.4333C21.7688 15.3878 21.7147 15.3516 21.6552 15.327C21.5957 15.3024 21.532 15.2897 21.4676 15.2897C21.4032 15.2897 21.3394 15.3024 21.2799 15.327C21.2204 15.3516 21.1663 15.3878 21.1208 15.4333C21.0753 15.4788 21.0391 15.5329 21.0145 15.5924C20.9899 15.6519 20.9772 15.7157 20.9772 15.7801C20.9772 15.8445 20.9898 15.9082 21.0145 15.9677C21.0391 16.0272 21.0753 16.0813 21.1208 16.1268C21.1663 16.1724 21.2204 16.2085 21.2799 16.2331C21.3394 16.2578 21.4032 16.2705 21.4676 16.2705C21.532 16.2705 21.5957 16.2578 21.6552 16.2331C21.7147 16.2085 21.7688 16.1724 21.8143 16.1268C21.8599 16.0813 21.896 16.0272 21.9206 15.9677C21.9453 15.9082 21.9579 15.8445 21.9579 15.7801C21.9579 15.7157 21.9453 15.6519 21.9206 15.5924C21.896 15.5329 21.8599 15.4788 21.8143 15.4333ZM22.3898 16.7004C22.5103 16.5796 22.606 16.4363 22.6713 16.2787C22.7367 16.1206 22.7704 15.9512 22.7704 15.7801C22.7704 15.609 22.7367 15.4395 22.6713 15.2815C22.6058 15.1234 22.5098 14.9798 22.3888 14.8588C22.2679 14.7378 22.1242 14.6418 21.9662 14.5764C21.8081 14.5109 21.6387 14.4772 21.4676 14.4772C21.2965 14.4772 21.127 14.5109 20.969 14.5764C20.8109 14.6418 20.6673 14.7378 20.5463 14.8588C20.4253 14.9798 20.3293 15.1234 20.2638 15.2815C20.1984 15.4395 20.1647 15.609 20.1647 15.7801C20.1647 15.9512 20.1984 16.1206 20.2638 16.2787C20.3293 16.4367 20.4253 16.5804 20.5463 16.7013C20.6673 16.8223 20.8109 16.9183 20.969 16.9838C21.127 17.0493 21.2965 17.083 21.4676 17.083C21.6387 17.083 21.8081 17.0493 21.9662 16.9838C22.1242 16.9183 22.2679 16.8223 22.3888 16.7013L22.3898 16.7004Z" fill="white"/>
<path fill-rule="evenodd" clip-rule="evenodd" d="M20.2292 20.8633C20.2175 20.8516 20.2036 20.8423 20.1883 20.8359C20.173 20.8296 20.1566 20.8263 20.14 20.8263C20.1234 20.8263 20.107 20.8296 20.0917 20.8359C20.0764 20.8423 20.0625 20.8516 20.0508 20.8633C20.039 20.875 20.0297 20.8889 20.0234 20.9042C20.0171 20.9195 20.0138 20.936 20.0138 20.9525C20.0138 20.9691 20.0171 20.9855 20.0234 21.0008C20.0297 21.0161 20.039 21.03 20.0508 21.0418C20.0625 21.0535 20.0764 21.0628 20.0917 21.0691C20.107 21.0755 20.1234 21.0787 20.14 21.0787C20.1566 21.0787 20.173 21.0755 20.1883 21.0691C20.2036 21.0628 20.2175 21.0535 20.2292 21.0418C20.241 21.03 20.2503 21.0161 20.2566 21.0008C20.2629 20.9855 20.2662 20.9691 20.2662 20.9525C20.2662 20.936 20.2629 20.9195 20.2566 20.9042C20.2503 20.8889 20.241 20.875 20.2292 20.8633ZM20.8047 21.6154C20.8914 21.5284 20.9602 21.4252 21.0073 21.3118C21.0544 21.1979 21.0787 21.0758 21.0787 20.9525C21.0787 20.8293 21.0544 20.7072 21.0073 20.5933C20.9601 20.4794 20.8909 20.3759 20.8038 20.2888C20.7166 20.2016 20.6131 20.1325 20.4992 20.0853C20.3853 20.0381 20.2633 20.0138 20.14 20.0138C20.0167 20.0138 19.8947 20.0381 19.7808 20.0853C19.6669 20.1325 19.5634 20.2016 19.4762 20.2888C19.3891 20.3759 19.3199 20.4794 19.2728 20.5933C19.2256 20.7072 19.2013 20.8293 19.2013 20.9525C19.2013 21.0758 19.2256 21.1979 19.2728 21.3118C19.3199 21.4256 19.3891 21.5291 19.4762 21.6163C19.5634 21.7035 19.6669 21.7726 19.7808 21.8198C19.8947 21.867 20.0167 21.8912 20.14 21.8912C20.2633 21.8912 20.3853 21.867 20.4992 21.8198C20.6131 21.7726 20.7166 21.7035 20.8038 21.6163L20.8047 21.6154Z" fill="white"/>
<path fill-rule="evenodd" clip-rule="evenodd" d="M14.5018 19.4958C14.4563 19.4503 14.4022 19.4141 14.3427 19.3895C14.2832 19.3649 14.2195 19.3522 14.1551 19.3522C14.0907 19.3522 14.0269 19.3649 13.9674 19.3895C13.9079 19.4141 13.8538 19.4503 13.8083 19.4958C13.7628 19.5413 13.7266 19.5954 13.702 19.6549C13.6773 19.7144 13.6647 19.7782 13.6647 19.8426C13.6647 19.907 13.6773 19.9707 13.702 20.0302C13.7266 20.0897 13.7628 20.1438 13.8083 20.1893C13.8538 20.2349 13.9079 20.271 13.9674 20.2956C14.0269 20.3203 14.0907 20.333 14.1551 20.333C14.2195 20.333 14.2832 20.3203 14.3427 20.2956C14.4022 20.271 14.4563 20.2349 14.5018 20.1893C14.5474 20.1438 14.5835 20.0897 14.6081 20.0302C14.6328 19.9707 14.6454 19.907 14.6454 19.8426C14.6454 19.7782 14.6328 19.7144 14.6081 19.6549C14.5835 19.5954 14.5474 19.5413 14.5018 19.4958ZM15.0773 20.7629C15.1978 20.6421 15.2935 20.4988 15.3588 20.3412C15.4242 20.1831 15.4579 20.0137 15.4579 19.8426C15.4579 19.6715 15.4242 19.502 15.3588 19.344C15.2933 19.1859 15.1973 19.0423 15.0763 18.9213C14.9554 18.8003 14.8117 18.7043 14.6537 18.6389C14.4956 18.5734 14.3262 18.5397 14.1551 18.5397C13.984 18.5397 13.8145 18.5734 13.6565 18.6389C13.4984 18.7043 13.3548 18.8003 13.2338 18.9213C13.1128 19.0423 13.0168 19.1859 12.9513 19.344C12.8859 19.502 12.8522 19.6715 12.8522 19.8426C12.8522 20.0137 12.8859 20.1831 12.9513 20.3412C13.0168 20.4992 13.1128 20.6429 13.2338 20.7638C13.3548 20.8848 13.4984 20.9808 13.6565 21.0463C13.8145 21.1118 13.984 21.1455 14.1551 21.1455C14.3262 21.1455 14.4956 21.1118 14.6537 21.0463C14.8117 20.9808 14.9554 20.8848 15.0763 20.7638L15.0773 20.7629Z" fill="white"/>
<path fill-rule="evenodd" clip-rule="evenodd" d="M17.1824 14.9727C17.0907 14.8809 16.9818 14.8081 16.8619 14.7585C16.742 14.7088 16.6135 14.6833 16.4838 14.6833C16.3541 14.6833 16.2256 14.7088 16.1057 14.7585C15.9858 14.8081 15.8769 14.8809 15.7852 14.9727C15.6934 15.0644 15.6207 15.1733 15.571 15.2932C15.5214 15.4131 15.4958 15.5415 15.4958 15.6713C15.4958 15.801 15.5214 15.9295 15.571 16.0494C15.6207 16.1692 15.6934 16.2782 15.7852 16.3699C15.8769 16.4617 15.9858 16.5344 16.1057 16.5841C16.2256 16.6337 16.3541 16.6593 16.4838 16.6593C16.6135 16.6593 16.742 16.6337 16.8619 16.5841C16.9818 16.5344 17.0907 16.4617 17.1824 16.3699C17.2742 16.2782 17.3469 16.1692 17.3966 16.0494C17.4462 15.9295 17.4718 15.801 17.4718 15.6713C17.4718 15.5415 17.4462 15.4131 17.3966 15.2932C17.3469 15.1733 17.2742 15.0644 17.1824 14.9727ZM17.7569 16.9444C17.9241 16.7772 18.0568 16.5788 18.1472 16.3603C18.2377 16.1419 18.2843 15.9077 18.2843 15.6713C18.2843 15.4348 18.2377 15.2007 18.1472 14.9823C18.0568 14.7638 17.9241 14.5653 17.7569 14.3981C17.5898 14.231 17.3913 14.0983 17.1728 14.0078C16.9544 13.9174 16.7202 13.8708 16.4838 13.8708C16.2474 13.8708 16.0132 13.9174 15.7948 14.0078C15.5763 14.0983 15.3779 14.231 15.2107 14.3981C15.0435 14.5653 14.9108 14.7638 14.8204 14.9823C14.7299 15.2007 14.6833 15.4348 14.6833 15.6713C14.6833 15.9077 14.7299 16.1419 14.8204 16.3603C14.9108 16.5788 15.0435 16.7772 15.2107 16.9444C15.3779 17.1116 15.5763 17.2442 15.7948 17.3347C16.0132 17.4252 16.2474 17.4718 16.4838 17.4718C16.7202 17.4718 16.9544 17.4252 17.1728 17.3347C17.3913 17.2442 17.5898 17.1116 17.7569 16.9444Z" fill="white"/>
<path fill-rule="evenodd" clip-rule="evenodd" d="M9.84372 27.2101C9.69585 27.1489 9.5615 27.0591 9.44833 26.946C9.33515 26.8328 9.24538 26.6984 9.18413 26.5506C9.12289 26.4027 9.09136 26.2442 9.09136 26.0842C9.09136 25.9241 9.12289 25.7656 9.18413 25.6178C9.24538 25.4699 9.33515 25.3356 9.44833 25.2224C9.5615 25.1092 9.69585 25.0194 9.84372 24.9582C9.99158 24.8969 10.1501 24.8654 10.3101 24.8654C10.4702 24.8654 10.6286 24.8969 10.7765 24.9582C10.9244 25.0194 11.0587 25.1092 11.1719 25.2224C11.2851 25.3356 11.3748 25.4699 11.4361 25.6178C11.4973 25.7656 11.5289 25.9241 11.5289 26.0842C11.5289 26.2442 11.4973 26.4027 11.4361 26.5506C11.3748 26.6984 11.2851 26.8328 11.1719 26.946C11.0587 27.0591 10.9244 27.1489 10.7765 27.2101C10.6286 27.2714 10.4702 27.3029 10.3101 27.3029C10.1501 27.3029 9.99158 27.2714 9.84372 27.2101ZM11.4301 24.3896C11.3222 24.3183 11.2075 24.2573 11.0874 24.2075C10.841 24.1055 10.5769 24.0529 10.3101 24.0529C10.0434 24.0529 9.77923 24.1055 9.53279 24.2075C9.28634 24.3096 9.06242 24.4592 8.8738 24.6479C8.68518 24.8365 8.53556 25.0604 8.43348 25.3068C8.3314 25.5533 8.27886 25.8174 8.27886 26.0842C8.27886 26.3509 8.3314 26.6151 8.43348 26.8615C8.53556 27.1079 8.68518 27.3319 8.8738 27.5205C9.06242 27.7091 9.28634 27.8587 9.53279 27.9608C9.77923 28.0629 10.0434 28.1154 10.3101 28.1154C10.5769 28.1154 10.841 28.0629 11.0874 27.9608C11.3339 27.8587 11.5578 27.7091 11.7464 27.5205C11.935 27.3319 12.0847 27.1079 12.1867 26.8615C12.2888 26.6151 12.3414 26.3509 12.3414 26.0842C12.3414 25.8174 12.2888 25.5533 12.1867 25.3068C12.137 25.1868 12.076 25.072 12.0047 24.9641L12.8955 24.0733C13.0541 23.9147 13.0541 23.6575 12.8955 23.4988C12.7368 23.3402 12.4796 23.3402 12.3209 23.4988L11.4301 24.3896Z" fill="white"/>
<path fill-rule="evenodd" clip-rule="evenodd" d="M5.90527 18.8726C5.84402 18.7248 5.8125 18.5663 5.8125 18.4062C5.8125 18.2462 5.84402 18.0877 5.90527 17.9399C5.96652 17.792 6.05629 17.6576 6.16946 17.5445C6.28264 17.4313 6.41699 17.3415 6.56485 17.2803C6.71272 17.219 6.8712 17.1875 7.03125 17.1875C7.1913 17.1875 7.34978 17.219 7.49765 17.2803C7.64551 17.3415 7.77987 17.4313 7.89304 17.5445C8.00621 17.6576 8.09598 17.792 8.15723 17.9399C8.21848 18.0877 8.25 18.2462 8.25 18.4062C8.25 18.5663 8.21848 18.7248 8.15723 18.8726C8.09598 19.0205 8.00621 19.1549 7.89304 19.268C7.77986 19.3812 7.64551 19.471 7.49765 19.5322C7.34978 19.5935 7.1913 19.625 7.03125 19.625C6.8712 19.625 6.71272 19.5935 6.56485 19.5322C6.41699 19.471 6.28263 19.3812 6.16946 19.268C6.05629 19.1549 5.96652 19.0205 5.90527 18.8726ZM9.02146 18C8.99559 17.8733 8.95762 17.749 8.90788 17.6289C8.8058 17.3825 8.65618 17.1586 8.46756 16.9699C8.27894 16.7813 8.05502 16.6317 7.80858 16.5296C7.56213 16.4275 7.298 16.375 7.03125 16.375C6.7645 16.375 6.50037 16.4275 6.25392 16.5296C6.00748 16.6317 5.78356 16.7813 5.59494 16.9699C5.40632 17.1586 5.2567 17.3825 5.15462 17.6289C5.05254 17.8754 5 18.1395 5 18.4062C5 18.673 5.05254 18.9371 5.15462 19.1836C5.2567 19.43 5.40632 19.6539 5.59494 19.8426C5.78356 20.0312 6.00748 20.1808 6.25392 20.2829C6.50037 20.385 6.7645 20.4375 7.03125 20.4375C7.298 20.4375 7.56213 20.385 7.80858 20.2829C8.05502 20.1808 8.27894 20.0312 8.46756 19.8426C8.65618 19.6539 8.8058 19.43 8.90788 19.1836C8.95762 19.0635 8.99559 18.9392 9.02146 18.8125H10.2812C10.5056 18.8125 10.6875 18.6306 10.6875 18.4062C10.6875 18.1819 10.5056 18 10.2812 18H9.02146Z" fill="white"/>
<path fill-rule="evenodd" clip-rule="evenodd" d="M30.0947 17.9399C30.156 18.0877 30.1875 18.2462 30.1875 18.4062C30.1875 18.5663 30.156 18.7248 30.0947 18.8726C30.0335 19.0205 29.9437 19.1549 29.8305 19.268C29.7174 19.3812 29.583 19.471 29.4351 19.5322C29.2873 19.5935 29.1288 19.625 28.9688 19.625C28.8087 19.625 28.6502 19.5935 28.5024 19.5322C28.3545 19.471 28.2201 19.3812 28.107 19.268C27.9938 19.1549 27.904 19.0205 27.8428 18.8726C27.7815 18.7248 27.75 18.5663 27.75 18.4062C27.75 18.2462 27.7815 18.0877 27.8428 17.9399C27.904 17.792 27.9938 17.6576 28.107 17.5445C28.2201 17.4313 28.3545 17.3415 28.5024 17.2803C28.6502 17.219 28.8087 17.1875 28.9688 17.1875C29.1288 17.1875 29.2873 17.219 29.4351 17.2803C29.583 17.3415 29.7174 17.4313 29.8305 17.5445C29.9437 17.6576 30.0335 17.792 30.0947 17.9399ZM26.9785 18.8125C27.0044 18.9392 27.0424 19.0635 27.0921 19.1836C27.1942 19.43 27.3438 19.6539 27.5324 19.8426C27.7211 20.0312 27.945 20.1808 28.1914 20.2829C28.4379 20.385 28.702 20.4375 28.9688 20.4375C29.2355 20.4375 29.4996 20.385 29.7461 20.2829C29.9925 20.1808 30.2164 20.0312 30.4051 19.8426C30.5937 19.6539 30.7433 19.43 30.8454 19.1836C30.9475 18.9371 31 18.673 31 18.4062C31 18.1395 30.9475 17.8754 30.8454 17.6289C30.7433 17.3825 30.5937 17.1586 30.4051 16.9699C30.2164 16.7813 29.9925 16.6317 29.7461 16.5296C29.4996 16.4275 29.2355 16.375 28.9688 16.375C28.702 16.375 28.4379 16.4275 28.1914 16.5296C27.945 16.6317 27.7211 16.7813 27.5324 16.9699C27.3438 17.1586 27.1942 17.3825 27.0921 17.6289C27.0424 17.749 27.0044 17.8733 26.9785 18H25.7188C25.4944 18 25.3125 18.1819 25.3125 18.4062C25.3125 18.6306 25.4944 18.8125 25.7188 18.8125H26.9785Z" fill="white"/>
</svg>
