<svg width="36" height="36" viewBox="0 0 36 36" fill="none" xmlns="http://www.w3.org/2000/svg">
<rect width="36" height="36" rx="18" fill="#666666" fill-opacity="0.5"/>
<path d="M26.9564 22.9931C26.9319 22.9239 26.8865 22.864 26.8265 22.8217C26.7665 22.7795 26.6948 22.7569 26.6214 22.7572H23.8876V18.759C23.887 18.4152 23.7501 18.0855 23.5069 17.8424C23.2638 17.5992 22.9342 17.4623 22.5903 17.4617H22.1185V16.1738C22.118 15.6774 21.9311 15.1993 21.5949 14.834L14.7827 7.79305C14.4564 7.45615 14.0224 7.24428 13.5561 7.19429C13.0898 7.1443 12.6207 7.25935 12.2305 7.51943L8.97301 9.69187C8.69718 9.87391 8.47827 10.13 8.34142 10.4309C8.20457 10.7317 8.15532 11.065 8.19933 11.3926L8.83384 16.2446C8.84411 16.8936 9.08109 17.5186 9.50374 18.0113L10.6595 19.3558V22.7501H8.37859C8.30519 22.7498 8.23352 22.7724 8.17351 22.8146C8.1135 22.8569 8.06811 22.9168 8.04365 22.986L6.15662 28.6636C6.13771 28.7171 6.13194 28.7743 6.13978 28.8305C6.14763 28.8866 6.16887 28.9401 6.2017 28.9864C6.23454 29.0326 6.27801 29.0703 6.32846 29.0962C6.37891 29.1221 6.43485 29.1356 6.49157 29.1353H28.5085C28.5652 29.1356 28.6211 29.1221 28.6716 29.0962C28.722 29.0703 28.7655 29.0326 28.7983 28.9864C28.8312 28.9401 28.8524 28.8866 28.8603 28.8305C28.8681 28.7743 28.8623 28.7171 28.8434 28.6636L26.9564 22.9931ZM9.54148 16.2186C9.54231 16.2045 9.54231 16.1903 9.54148 16.1762L8.9046 11.3029C8.87879 11.1055 8.90939 10.9048 8.99288 10.7241C9.07636 10.5433 9.20932 10.3899 9.37636 10.2816L12.622 8.10913C12.8745 7.94089 13.178 7.86647 13.4796 7.89879C13.7813 7.93111 14.0621 8.06813 14.2732 8.28603L21.083 15.3176C21.2969 15.5514 21.4155 15.8569 21.4156 16.1738V17.4523H14.87L14.3982 16.5371C14.356 16.4532 14.2822 16.3896 14.1931 16.3602C14.1039 16.3308 14.0067 16.338 13.9229 16.3802C13.8391 16.4224 13.7755 16.4962 13.7461 16.5854C13.7166 16.6745 13.7238 16.7717 13.7661 16.8555L16.4268 22.1227C16.5425 22.3527 16.5858 22.6124 16.5509 22.8675C16.516 23.1226 16.4047 23.3612 16.2315 23.5518C16.0583 23.7423 15.8314 23.8759 15.5808 23.9349C15.3302 23.9939 15.0675 23.9756 14.8275 23.8823L14.7497 23.8517C14.4813 23.7472 14.2561 23.5552 14.1104 23.3068L12.3531 20.2828C12.2929 20.1793 12.2234 20.0814 12.1456 19.9903L10.0415 17.5513C9.72263 17.1801 9.54547 16.708 9.54148 16.2186V16.2186ZM11.6054 20.4644C11.6559 20.5231 11.7009 20.5863 11.7399 20.6531L13.4901 23.663C13.716 24.0498 14.0659 24.349 14.4831 24.5121L14.561 24.5428C14.7918 24.6329 15.0373 24.6793 15.2851 24.6796C15.623 24.6783 15.955 24.5907 16.2496 24.4251C16.5441 24.2595 16.7915 24.0214 16.9682 23.7334C17.145 23.4454 17.2452 23.117 17.2594 22.7794C17.2736 22.4417 17.2014 22.1061 17.0495 21.8042L15.2261 18.1599H22.5903C22.7467 18.1599 22.8967 18.222 23.0073 18.3326C23.1178 18.4432 23.18 18.5932 23.18 18.7496V26.1963H11.3672V20.179L11.6054 20.4644ZM6.98219 28.4301L8.63334 23.4601H10.6595V26.1963H9.62403C9.5302 26.1963 9.4402 26.2336 9.37385 26.2999C9.30749 26.3663 9.27022 26.4563 9.27022 26.5501C9.27022 26.6439 9.30749 26.7339 9.37385 26.8003C9.4402 26.8666 9.5302 26.9039 9.62403 26.9039H24.8712C24.9651 26.9039 25.0551 26.8666 25.1214 26.8003C25.1878 26.7339 25.225 26.6439 25.225 26.5501C25.225 26.4563 25.1878 26.3663 25.1214 26.2999C25.0551 26.2336 24.9651 26.1963 24.8712 26.1963H23.8876V23.4577H26.3643L28.0155 28.4277L6.98219 28.4301Z" fill="white"/>
</svg>
