<svg width="36" height="36" viewBox="0 0 36 36" fill="none" xmlns="http://www.w3.org/2000/svg">
<rect width="36" height="36" rx="18" fill="#0E8980"/>
<path d="M32.9761 17.8024L29.2685 11.4526C29.218 11.366 29.1381 11.3005 29.0433 11.2678C28.9486 11.2351 28.8452 11.2374 28.7521 11.2744C28.7421 11.2785 27.7211 11.679 26.6471 11.679C26.2338 11.679 25.7179 11.4296 25.1199 11.1408C24.296 10.7431 23.2706 10.2478 22.0767 10.2478C20.9822 10.2478 20.0546 10.5602 19.2831 11.0131C18.4626 10.4356 17.5528 10.0983 16.5738 10.0154C15.3849 9.91545 14.3212 10.3216 13.4662 10.6487C12.8466 10.886 12.3127 11.0935 11.8991 11.0558C10.8348 10.9658 9.84489 10.4802 9.83554 10.4755C9.74584 10.431 9.64316 10.42 9.54609 10.4447C9.44903 10.4693 9.36398 10.5278 9.30634 10.6097L5.07643 16.6238C5.01574 16.7099 4.98975 16.8158 5.00367 16.9202C5.01758 17.0247 5.07037 17.12 5.1515 17.1873L9.64648 20.9132L9.63495 20.9247C9.47118 21.0876 9.34133 21.2813 9.2529 21.4947C9.16447 21.7081 9.11922 21.9369 9.11976 22.1678C9.11913 22.3989 9.16431 22.6277 9.25269 22.8411C9.34107 23.0545 9.47089 23.2483 9.63464 23.4113C9.83469 23.6122 10.0806 23.7614 10.3511 23.8461C10.6217 23.9308 10.9088 23.9484 11.1877 23.8975C11.1881 24.1271 11.2338 24.3543 11.3221 24.5662C11.4104 24.7781 11.5396 24.9706 11.7022 25.1325C11.9184 25.3495 12.1877 25.5059 12.4832 25.5861C12.7788 25.6663 13.0903 25.6675 13.3864 25.5895C13.4106 26.0183 13.5919 26.4233 13.8957 26.727C14.0586 26.8907 14.2523 27.0205 14.4657 27.1088C14.6791 27.1971 14.9079 27.2422 15.1388 27.2416C15.2575 27.2416 15.374 27.23 15.4877 27.2076C16.2648 28.1766 17.2656 28.48 18.1508 28.48C18.659 28.4795 19.1625 28.3838 19.6353 28.1978C19.9367 28.296 20.2516 28.3461 20.5685 28.3461C21.2694 28.3461 21.9253 28.1062 22.3661 27.7091C22.5785 27.7961 22.8059 27.8408 23.0355 27.8405C23.2664 27.8413 23.4951 27.7962 23.7085 27.7079C23.9218 27.6196 24.1155 27.4898 24.2783 27.326C24.5279 27.078 24.6965 26.7603 24.762 26.4146C25.0964 26.604 25.4835 26.6787 25.8644 26.6272C26.2452 26.5757 26.5986 26.4009 26.8707 26.1296C27.1621 25.8393 27.3419 25.4556 27.3784 25.0459C27.5457 25.0969 27.7197 25.1227 27.8946 25.1226C28.1255 25.1232 28.3543 25.0781 28.5677 24.9898C28.7811 24.9015 28.9748 24.7717 29.1377 24.608C29.3015 24.4451 29.4314 24.2514 29.5198 24.038C29.6082 23.8247 29.6535 23.5958 29.6529 23.3649C29.6535 23.1338 29.6083 22.905 29.5199 22.6915C29.4315 22.4781 29.3015 22.2843 29.1377 22.1214L28.4418 21.4253L32.853 18.3569C32.9397 18.297 33.0006 18.2066 33.0234 18.1038C33.0462 18.001 33.0293 17.8933 32.9761 17.8024V17.8024ZM11.5291 22.8192C11.4438 22.905 11.3424 22.9731 11.2307 23.0194C11.1189 23.0657 10.999 23.0893 10.8781 23.0889C10.632 23.0889 10.4012 22.9933 10.2268 22.8192C10.141 22.7338 10.073 22.6323 10.0268 22.5205C9.98053 22.4087 9.95693 22.2888 9.95733 22.1678C9.95733 21.9221 10.0533 21.6913 10.2268 21.5169L11.0248 20.7192C11.1101 20.6334 11.2115 20.5654 11.3232 20.5191C11.435 20.4728 11.5548 20.4491 11.6758 20.4494C11.9222 20.4494 12.1533 20.5453 12.3271 20.7192C12.5012 20.8933 12.5965 21.1241 12.5965 21.3701C12.5965 21.6159 12.5006 21.847 12.3271 22.0211L11.5291 22.8192V22.8192ZM13.8951 24.2426L13.597 24.5413C13.5116 24.627 13.4102 24.6948 13.2984 24.741C13.1867 24.7872 13.0669 24.8108 12.946 24.8104C12.6999 24.8104 12.4688 24.7145 12.2947 24.5413C12.2089 24.456 12.1409 24.3545 12.0946 24.2427C12.0483 24.1309 12.0246 24.011 12.0249 23.89C12.0249 23.644 12.1209 23.4128 12.2947 23.2387L14.0894 21.4437C14.1748 21.3579 14.2763 21.29 14.3881 21.2438C14.4999 21.1975 14.6198 21.1739 14.7407 21.1742C14.9865 21.1742 15.2179 21.2702 15.392 21.444C15.5659 21.6178 15.6615 21.8492 15.6615 22.095C15.6615 22.3404 15.5659 22.5706 15.393 22.7447L13.8963 24.242L13.8951 24.2426ZM15.1391 26.4055C15.0182 26.4058 14.8985 26.3821 14.7868 26.3359C14.6751 26.2898 14.5736 26.2219 14.4881 26.1364C14.316 25.9638 14.2192 25.7299 14.219 25.4861C14.2189 25.2423 14.3153 25.0083 14.4872 24.8354L15.9839 23.3384C15.9846 23.3372 15.9856 23.3362 15.9867 23.3353L16.2832 23.0384C16.3685 22.9527 16.4701 22.8848 16.5819 22.8386C16.6937 22.7924 16.8135 22.7689 16.9345 22.7693C17.1799 22.7693 17.4114 22.8653 17.5855 23.0391C17.7593 23.2129 17.8549 23.4443 17.8549 23.6901C17.8549 23.9358 17.759 24.1669 17.5852 24.341L15.7904 26.1364C15.7049 26.222 15.6034 26.2898 15.4916 26.336C15.3799 26.3822 15.2601 26.4058 15.1391 26.4055ZM18.2804 27.0466C18.339 27.2456 18.4583 27.4288 18.6486 27.6057C17.9889 27.7163 17.0364 27.672 16.2686 26.8323C16.3075 26.7999 16.3461 26.7653 16.3826 26.7289L18.1776 24.9338C18.1997 24.9117 18.2197 24.888 18.2402 24.8643C18.8672 25.3577 18.728 25.6047 18.514 25.9813C18.353 26.2638 18.153 26.6164 18.2804 27.0466ZM28.5468 22.7136C28.7203 22.8877 28.8159 23.1188 28.8159 23.3649C28.8161 23.4858 28.7924 23.6055 28.7462 23.7172C28.7 23.829 28.6322 23.9305 28.5467 24.016C28.4612 24.1014 28.3596 24.1692 28.2479 24.2154C28.1362 24.2615 28.0164 24.2852 27.8955 24.285C27.7746 24.2853 27.6547 24.2617 27.543 24.2155C27.4312 24.1693 27.3296 24.1015 27.2442 24.0159L23.0837 19.8557C23.0041 19.7833 22.8996 19.7442 22.7919 19.7468C22.6843 19.7493 22.5817 19.7932 22.5056 19.8694C22.4294 19.9455 22.3855 20.0481 22.383 20.1557C22.3804 20.2634 22.4195 20.3679 22.4919 20.4475L26.2777 24.2333C26.3642 24.3186 26.4328 24.4204 26.4795 24.5326C26.5262 24.6448 26.55 24.7652 26.5496 24.8868C26.5496 25.1328 26.4533 25.3639 26.2795 25.5381C26.1054 25.7119 25.8743 25.8075 25.6285 25.8075C25.3828 25.8075 25.1517 25.7116 24.9775 25.5381L24.2808 24.8416C24.2801 24.841 24.2795 24.8397 24.2789 24.8397C24.2789 24.8391 24.2783 24.8391 24.2777 24.8385L21.7992 22.36C21.7195 22.2876 21.615 22.2485 21.5074 22.2511C21.3997 22.2536 21.2972 22.2975 21.221 22.3737C21.1449 22.4498 21.101 22.5524 21.0984 22.66C21.0959 22.7677 21.1349 22.8722 21.2074 22.9518L23.689 25.434C23.8618 25.6085 23.9565 25.8383 23.9565 26.0832C23.9565 26.3292 23.8603 26.5603 23.6871 26.7345C23.6018 26.8203 23.5004 26.8883 23.3886 26.9345C23.2769 26.9808 23.157 27.0044 23.0361 27.0039H23.0355C22.7897 27.0039 22.5589 26.908 22.3845 26.7345L20.8626 25.2126C20.784 25.1342 20.6775 25.0902 20.5665 25.0902C20.4555 25.0902 20.349 25.1342 20.2705 25.2126C20.1921 25.2912 20.1481 25.3976 20.1481 25.5086C20.1481 25.6196 20.1921 25.7261 20.2705 25.8047L21.6659 27.1998C21.3812 27.3926 20.9844 27.5094 20.5685 27.5094C20.2929 27.5094 20.0235 27.4596 19.788 27.3665C19.1968 27.0556 19.0987 26.8609 19.0828 26.8086C19.0585 26.7261 19.1298 26.5915 19.2416 26.3943C19.5958 25.7714 19.859 25.0353 18.638 24.1165C18.7131 23.8221 18.7101 23.5132 18.6293 23.2204C18.5486 22.9275 18.3927 22.6608 18.1773 22.4466C17.9614 22.2294 17.6921 22.0729 17.3966 21.9926C17.101 21.9123 16.7896 21.9112 16.4934 21.9894C16.4697 21.5604 16.2881 21.1553 15.9835 20.8522C15.6518 20.5204 15.2101 20.3373 14.7404 20.3373C14.2707 20.3373 13.829 20.5204 13.497 20.8522L13.3852 20.964C13.3109 20.647 13.1495 20.3571 12.9192 20.127C12.7563 19.9632 12.5625 19.8334 12.3491 19.7451C12.1356 19.6568 11.9068 19.6117 11.6758 19.6125C11.4448 19.6118 11.216 19.6569 11.0027 19.7452C10.7893 19.8335 10.5955 19.9633 10.4327 20.127L10.2386 20.3211C10.2286 20.3108 10.2196 20.3005 10.2084 20.2906L5.98378 16.7889L9.79381 11.3726C10.2159 11.5464 10.9908 11.8195 11.8287 11.8902C12.4305 11.9391 13.0796 11.6931 13.7658 11.4308C14.5809 11.1187 15.5039 10.7639 16.5034 10.8499C17.2298 10.9113 17.9116 11.1399 18.5392 11.5255C17.7253 12.1752 17.1416 12.949 16.7728 13.5342C16.5726 13.8522 14.8276 16.6849 15.2868 18.1149C15.3961 18.4547 15.6207 18.7023 15.9365 18.8313C16.1592 18.9241 16.3979 18.9724 16.6392 18.9736C17.7434 18.9736 18.5794 17.9563 19.3871 16.9727C19.9786 16.2522 20.5888 15.5099 21.184 15.3508L24.9891 19.1565L25.3921 19.5592L27.4962 21.6636H27.4968L28.5468 22.7136V22.7136ZM27.8407 20.8235L25.5815 18.564L25.5806 18.5634L21.6251 14.6079C21.5829 14.5657 21.5321 14.5331 21.4763 14.5121C21.4204 14.491 21.3607 14.4822 21.3011 14.4861C20.2907 14.5534 19.5023 15.5131 18.7398 16.4413C18.0552 17.2745 17.3472 18.136 16.6389 18.136C16.5115 18.136 16.3854 18.1099 16.2527 18.0557C16.1897 18.0298 16.1256 17.9881 16.0842 17.8585C15.8549 17.1446 16.6333 15.3274 17.4818 13.9803C18.163 12.8991 19.6656 11.0847 22.0767 11.0847C23.0791 11.0847 23.9693 11.5152 24.7558 11.8949C25.4174 12.2142 26.0422 12.516 26.6471 12.516C27.4881 12.516 28.2833 12.3092 28.7181 12.1718L32.0578 17.8903L27.8407 20.8235V20.8235Z" fill="white"/>
</svg>
