<svg width="36" height="36" viewBox="0 0 36 36" fill="none" xmlns="http://www.w3.org/2000/svg">
<rect width="36" height="36" rx="18" fill="#0E8980"/>
<path d="M22.3333 9.25H25.5C26.7426 9.25 27.75 10.2574 27.75 11.5V14.6667C27.75 15.9093 26.7426 16.9167 25.5 16.9167H20.0833V11.5C20.0833 10.2574 21.0907 9.25 22.3333 9.25Z" stroke="white" stroke-width="1.5"/>
<path d="M14.6667 9.25H11.5C10.2574 9.25 9.25002 10.2574 9.25002 11.5V14.6667C9.25002 15.9093 10.2574 16.9167 11.5 16.9167H16.9167V11.5C16.9167 10.2574 15.9093 9.25 14.6667 9.25Z" stroke="white" stroke-width="1.5"/>
<path d="M22.3333 27.75H25.5C26.7426 27.75 27.75 26.7426 27.75 25.5V22.3333C27.75 21.0907 26.7426 20.0833 25.5 20.0833H20.0833V25.5C20.0833 26.7426 21.0907 27.75 22.3333 27.75Z" stroke="white" stroke-width="1.5"/>
<path d="M14.6667 27.75H11.5C10.2574 27.75 9.25002 26.7426 9.25002 25.5V22.3333C9.25002 21.0907 10.2574 20.0833 11.5 20.0833H16.9167V25.5C16.9167 26.7426 15.9093 27.75 14.6667 27.75Z" stroke="white" stroke-width="1.5"/>
</svg>
