<svg width="36" height="36" viewBox="0 0 36 36" fill="none" xmlns="http://www.w3.org/2000/svg">
<path d="M18 36C27.9435 36 36 27.9435 36 18C36 8.05648 27.9435 -2.48024e-05 18 -2.48024e-05C8.0565 -2.48024e-05 1.62919e-06 8.05648 1.62919e-06 18C1.62919e-06 27.9435 8.0565 36 18 36ZM8.2365 17.61L25.5915 10.9185C26.397 10.6275 27.1005 11.115 26.8395 12.333L26.841 12.3315L23.886 26.253C23.667 27.24 23.0805 27.48 22.26 27.015L17.76 23.6985L15.5895 25.7895C15.3495 26.0295 15.147 26.232 14.682 26.232L15.0015 21.6525L23.3415 14.118C23.7045 13.7985 23.2605 13.6185 22.782 13.9365L12.4755 20.4255L8.0325 19.0395C7.068 18.7335 7.047 18.075 8.2365 17.61Z" fill="#666666"/>
</svg>
