<svg width="36" height="36" viewBox="0 0 36 36" fill="none" xmlns="http://www.w3.org/2000/svg">
<rect width="36" height="36" rx="18" fill="#0E8980"/>
<path d="M18.0027 7H17.9973C11.9321 7 7 11.9335 7 18C7 20.4062 7.7755 22.6365 9.09413 24.4474L7.72325 28.5339L11.9514 27.1823C13.6908 28.3345 15.7656 29 18.0027 29C24.0679 29 29 24.0651 29 18C29 11.9349 24.0679 7 18.0027 7ZM24.4034 22.5334C24.138 23.2827 23.0847 23.9042 22.2446 24.0857C21.6699 24.2081 20.9191 24.3058 18.3919 23.258C15.1592 21.9188 13.0775 18.6339 12.9153 18.4207C12.7599 18.2076 11.609 16.6814 11.609 15.1029C11.609 13.5244 12.4106 12.7558 12.7338 12.4258C12.9991 12.1549 13.4377 12.0311 13.8585 12.0311C13.9946 12.0311 14.117 12.038 14.227 12.0435C14.5501 12.0572 14.7124 12.0765 14.9255 12.5866C15.1909 13.226 15.8371 14.8045 15.9141 14.9668C15.9925 15.129 16.0709 15.349 15.9609 15.5621C15.8578 15.7821 15.767 15.8797 15.6047 16.0667C15.4425 16.2537 15.2885 16.3968 15.1262 16.5975C14.9777 16.7721 14.81 16.9591 14.997 17.2823C15.184 17.5985 15.8302 18.6531 16.7817 19.5001C18.0096 20.5932 19.0051 20.9425 19.3612 21.091C19.6266 21.201 19.9429 21.1749 20.1367 20.9686C20.3829 20.7033 20.6867 20.2633 20.9961 19.8301C21.2161 19.5194 21.4939 19.4809 21.7854 19.5909C22.0824 19.694 23.654 20.4709 23.9771 20.6317C24.3003 20.794 24.5134 20.871 24.5917 21.0071C24.6687 21.1433 24.6687 21.7826 24.4034 22.5334Z" fill="white"/>
</svg>
